<svg width="43" height="44" viewBox="0 0 43 44" fill="none" xmlns="http://www.w3.org/2000/svg">
<path fill-rule="evenodd" clip-rule="evenodd" d="M40.3125 37.6719C40.3125 39.1561 39.1093 40.3594 37.625 40.3594L5.375 40.3594C3.89074 40.3594 2.6875 39.1561 2.6875 37.6719L2.68751 5.42188C2.68751 3.93761 3.89074 2.73438 5.37501 2.73438L37.625 2.73438C39.1093 2.73438 40.3125 3.93762 40.3125 5.42188L40.3125 37.6719ZM9.39795e-07 37.6719C4.20761e-07 40.6404 2.40647 43.0469 5.375 43.0469L37.625 43.0469C40.5935 43.0469 43 40.6404 43 37.6719L43 5.42188C43 2.45335 40.5935 0.0468821 37.625 0.0468816L5.37501 0.0468759C2.40648 0.0468754 7.0976e-06 2.45335 6.57856e-06 5.42188L9.39795e-07 37.6719ZM12.0938 22.8906C11.3516 22.8906 10.75 22.289 10.75 21.5469C10.75 20.8047 11.3516 20.2031 12.0938 20.2031L27.6622 20.2031L21.8936 14.4346C21.3688 13.9098 21.3688 13.059 21.8936 12.5342C22.4183 12.0094 23.2692 12.0094 23.7939 12.5342L31.8564 20.5967C32.3812 21.1215 32.3812 21.9723 31.8564 22.4971L23.7939 30.5596C23.2692 31.0843 22.4183 31.0843 21.8936 30.5596C21.3688 30.0348 21.3688 29.184 21.8936 28.6592L27.6622 22.8906L12.0938 22.8906Z" fill="#E03A3A"/>
</svg>
