<svg width="188" height="138" viewBox="0 0 188 138" fill="none" xmlns="http://www.w3.org/2000/svg">
<path d="M162.029 117.751C163.394 123.032 164.726 128.148 166.156 133.627C167.36 131.926 168.311 130.571 169.261 129.183C175.694 119.852 181.487 110.163 185.743 99.4537C186.216 98.2385 186.085 97.613 184.933 96.8399C174.435 89.7782 163.494 83.5096 152.427 77.4955C152.075 77.3155 151.692 77.2316 151.053 77.0049C152.514 82.3877 153.91 87.4741 155.306 92.6256C154.796 92.7963 154.446 92.9095 154.096 93.0228C142.146 96.2202 130.23 99.5821 118.216 102.581C99.1599 107.354 79.8432 111.04 60.0691 112.455C49.289 113.232 38.4735 113.259 27.6475 111.037C21.0049 109.67 14.7089 107.375 9.32709 102.746C8.33398 101.883 7.85084 100.915 7.65353 99.6669C6.76408 93.7254 7.31112 87.9517 8.81598 82.3225C11.7004 71.5467 16.8878 62.0237 22.8108 52.8951C32.693 37.6378 44.2729 23.7992 56.7822 10.8532C68.085 -0.848139 79.9006 -12.0357 91.492 -23.4297C92.2224 -24.1436 93.0169 -24.8217 93.7794 -25.5015C91.9349 -24.2228 89.3275 -22.3621 86.2755 -20.067C77.6597 -13.6439 60.4647 0.181541 39.3839 22.1922C30.2088 31.7814 21.578 41.7882 14.3249 53.0353C9.25731 60.9022 4.86139 69.1277 2.83202 78.544C1.39606 85.2519 1.61859 91.8452 5.09443 98.2386C6.67149 101.151 8.21679 104.093 9.8256 106.974C12.3679 111.595 15.8315 115.414 20.0258 118.551C27.4857 124.096 35.9527 126.692 44.7339 128.293C57.6983 130.652 70.6512 130.6 83.5359 129.599C93.1357 128.861 102.703 127.959 112.172 126.53C125.977 124.466 139.683 121.876 153.423 119.483C156.228 118.968 159.065 118.356 162.029 117.751Z" stroke="white" stroke-width="3"/>
</svg>
