<svg width="198" height="54" viewBox="0 0 198 54" fill="none" xmlns="http://www.w3.org/2000/svg">
<path d="M0.730469 41.1341C0.796226 41.0282 0.861983 40.9753 0.92774 40.8694C2.24288 38.0102 3.55802 35.0981 4.87316 32.239C7.89797 25.6205 10.9228 19.055 14.0134 12.4366C14.0791 12.3307 14.0791 12.2248 14.1449 12.1719C18.7479 12.1719 23.3509 12.1719 27.9538 12.1719C32.4253 21.8083 36.8968 31.4977 41.3682 41.1871C37.2256 41.1871 33.0829 41.1871 28.9402 41.1871C28.4799 40.0752 28.0854 38.9633 27.6251 37.7985C23.2851 37.7985 18.9451 37.7985 14.6052 37.7985C14.1449 38.9103 13.7503 40.0222 13.29 41.1871C13.1585 41.1871 13.0928 41.1871 12.9613 41.1871C9.01584 41.1871 5.00467 41.1871 1.05925 41.1871C0.92774 41.1871 0.861983 41.1871 0.730469 41.1871L0.730469 41.1341ZM17.4985 30.1211C19.8657 30.1211 22.233 30.1211 24.666 30.1211C23.4824 26.9972 22.2987 23.9262 21.1151 20.8553H21.0494C19.8657 23.9262 18.6821 26.9972 17.4985 30.1211Z" fill="#272A48"/>
<path d="M78.3896 0.100543V0.046875C82.2693 0.046875 86.0832 0.046875 89.9629 0.046875V0.100543C89.8314 0.100543 89.6341 0.100543 89.5026 0.100543C85.9517 0.100543 82.4666 0.100543 78.9157 0.100543C78.7184 0.100543 78.5212 0.100543 78.3896 0.100543Z" fill="#B2E2CF"/>
<path d="M197.934 12.1191H197.999C197.999 14.6606 197.999 17.255 197.999 19.7965H197.934C197.934 19.7436 197.934 19.6377 197.934 19.5847C197.934 17.2021 197.934 14.7665 197.934 12.3839C197.934 12.278 197.934 12.225 197.934 12.1191Z" fill="#B7B8C2"/>
<path d="M113.635 11.5898C117.318 11.6428 120.803 12.2252 124.025 13.6548C128.957 15.8256 131.982 19.1084 133.099 23.556C133.954 26.9976 133.494 30.3333 131.521 33.4572C129.483 36.6869 126.326 38.9637 122.184 40.3403C120.145 41.0286 118.107 41.3993 115.937 41.5581C112.386 41.8229 108.967 41.5052 105.679 40.4992C101.733 39.2814 98.577 37.2694 96.3413 34.3573C95.0919 32.7159 94.3686 30.9157 93.974 29.0096C93.5137 26.4681 93.711 23.9796 94.7631 21.544C96.3413 17.8906 99.3661 15.1903 103.64 13.443C105.81 12.5429 108.046 12.0134 110.479 11.8016C111.597 11.6957 112.583 11.6428 113.635 11.5898ZM104.955 26.8917C104.955 27.3682 105.021 28.1095 105.284 28.7978C105.942 30.7568 107.323 32.2394 109.558 33.1924C111.268 33.8807 113.044 34.0925 114.885 33.8807C118.107 33.5101 120.343 32.1335 121.592 29.6979C122.578 27.7388 122.578 25.7268 121.658 23.7678C120.803 21.9146 119.225 20.5909 116.923 19.9026C115.411 19.4261 113.898 19.3202 112.32 19.479C109.756 19.7438 107.717 20.8027 106.336 22.55C105.35 23.8207 104.955 25.1973 104.955 26.8917Z" fill="#272A48"/>
<path d="M137.374 12.1191C146.58 12.1191 155.72 12.1191 164.86 12.1191C164.86 14.6606 164.86 17.2021 164.86 19.7436C159.403 19.7436 153.879 19.7436 148.355 19.7436C148.355 20.6966 148.355 21.6497 148.355 22.6027C153.682 22.6027 159.074 22.6027 164.4 22.6027C164.466 22.8675 164.532 29.6448 164.466 30.2801C161.77 30.2801 159.14 30.2801 156.444 30.2801C153.747 30.2801 151.117 30.2801 148.421 30.2801L148.355 30.3331V30.386C148.355 30.386 148.355 30.386 148.355 30.439V30.4919C148.355 33.9865 148.355 37.481 148.355 41.0285C148.355 41.0285 148.355 41.0285 148.355 41.0814C148.355 41.0814 148.355 41.0814 148.355 41.1344C148.355 41.1344 148.355 41.1344 148.355 41.1873C144.739 41.1873 141.056 41.1873 137.44 41.1873C137.374 31.4979 137.374 21.8085 137.374 12.1191Z" fill="#282B49"/>
<path d="M197.935 12.1191C197.935 12.225 197.935 12.278 197.935 12.3839C197.935 14.7665 197.935 17.2021 197.935 19.5847C197.935 19.6377 197.935 19.7436 197.935 19.7965C196.751 19.7965 195.502 19.7965 194.318 19.7965C192.477 19.7965 190.701 19.7965 188.86 19.7965C188.729 19.7965 188.597 19.7965 188.466 19.7965C188.4 19.7965 188.4 19.8495 188.4 19.8495C188.4 19.8495 188.4 19.8495 188.4 19.9024V19.9554V20.0083C188.4 27.0503 188.4 34.0394 188.4 41.0814V41.1344C188.137 41.1873 178.471 41.2403 177.419 41.1873C177.419 34.0923 177.419 26.9444 177.419 19.7965C174.131 19.7965 170.909 19.7965 167.687 19.7965C167.687 17.2021 167.687 14.7136 167.687 12.1191C167.818 12.1191 167.95 12.1191 168.081 12.1191C171.369 12.1191 174.723 12.1191 178.01 12.1191C184.52 12.1191 191.03 12.1191 197.474 12.1191C197.606 12.1191 197.737 12.1191 197.935 12.1191Z" fill="#282B49"/>
<path d="M78.3893 0.0996094C78.5865 0.0996094 78.718 0.0996094 78.9153 0.0996094C82.4662 0.0996094 85.9513 0.0996094 89.5022 0.0996094C89.6337 0.0996094 89.831 0.0996094 89.9625 0.0996094C89.8967 0.205504 89.831 0.311399 89.7652 0.417294C87.0692 3.48825 84.4389 6.50625 81.7429 9.52426C77.1399 14.7131 72.6027 19.902 67.9997 25.1438C67.9339 25.2497 67.8024 25.3026 67.7366 25.4085C67.6051 25.3026 67.4736 25.1967 67.3421 25.0908C66.6845 24.4025 65.9612 23.6612 65.3036 22.9729C64.4488 22.1258 63.6597 21.2257 62.8049 20.3785C62.4761 20.0079 62.0815 19.6372 61.687 19.2136C61.424 19.5313 61.0952 19.849 60.8322 20.1138C59.3198 21.8081 57.8731 23.4494 56.4264 25.1438C56.2949 25.3026 56.0977 25.4614 55.9661 25.6203C55.5716 25.1967 55.1113 24.7731 54.7168 24.3496C50.9686 20.4314 47.2862 16.4604 43.5381 12.5423C43.4723 12.4893 43.4066 12.3834 43.3408 12.2775C47.352 12.2775 51.2974 12.2775 55.3086 12.2775C57.4128 14.5543 59.5828 16.831 61.687 19.1607C61.7528 19.0548 61.8185 19.0019 61.8843 18.9489C67.3421 12.7011 72.7999 6.50625 78.2577 0.258452C78.2577 0.205504 78.3235 0.152557 78.3893 0.0996094Z" fill="#19A871"/>
<path d="M70.6299 27.9504C70.8272 27.7386 71.0244 27.4739 71.2217 27.2621C75.5616 22.2851 79.9674 17.3609 84.3073 12.3839C84.3731 12.278 84.4388 12.225 84.5703 12.1191C88.3843 12.1191 92.1981 12.1191 96.0121 12.1191V12.1721C96.0121 12.1721 96.0121 12.1721 96.0121 12.225C96.0121 12.225 96.0121 12.225 96.0121 12.278C96.0121 12.3309 95.9463 12.3309 95.9463 12.3839C91.4748 17.4668 86.9376 22.6027 82.4661 27.6857C82.4661 27.6857 82.4661 27.6857 82.4661 27.7386C86.6746 32.1333 90.8173 36.5809 95.0257 41.0285C94.6969 41.0814 83.847 41.1344 83.1237 41.0814C82.5319 40.499 82.0058 39.8636 81.414 39.2283C79.9016 37.6398 78.3892 35.9985 76.9425 34.41C76.8768 34.3571 76.811 34.2512 76.7453 34.1982C76.6795 34.0923 76.6138 33.9865 76.4822 33.8806C76.0219 33.404 75.5616 32.9804 75.1014 32.5039C73.5889 30.9155 72.1423 29.433 70.6299 27.9504Z" fill="#18A871"/>
<path d="M70.6308 27.9492C72.0774 29.4317 73.5898 30.9143 75.0365 32.3968C75.4968 32.8733 75.9571 33.2969 76.4174 33.7734C76.4832 33.8793 76.5489 33.9852 76.6804 34.0911C76.0886 34.7265 75.5626 35.3619 74.9707 36.0502C70.1047 41.6097 65.2387 47.1692 60.3727 52.7816C60.3069 52.8875 60.2412 52.9404 60.1754 53.0463C56.3615 53.0463 52.5476 53.0463 48.668 53.0463C48.7337 52.9404 48.7995 52.8345 48.8652 52.7816C53.271 47.8045 57.6767 42.8275 62.0166 37.8504C64.8442 34.6735 67.6717 31.4438 70.4335 28.2669C70.4993 28.1081 70.565 28.0551 70.6308 27.9492Z" fill="#019FE3"/>
<path d="M55.9011 25.6205C56.0326 25.4617 56.2299 25.3028 56.3614 25.144C57.8738 23.4497 59.3204 21.8083 60.7671 20.114C61.0301 19.7963 61.2931 19.5316 61.6219 19.2139C62.0165 19.6374 62.3453 20.0081 62.7398 20.3787C63.5946 21.2259 64.3837 22.126 65.2386 22.9731C65.8961 23.6615 66.6195 24.4027 67.277 25.091C67.4085 25.1969 67.5401 25.3028 67.6716 25.4087C67.014 26.15 66.3564 26.9442 65.6989 27.6855C61.8192 32.0801 57.9395 36.5277 54.0599 40.9223C53.9941 41.0282 53.8626 41.1341 53.7969 41.1871C49.9172 41.1871 46.1033 41.1871 42.2236 41.1871C42.2894 41.0812 42.3551 40.9753 42.4209 40.9223C46.8266 35.8923 51.2981 30.8623 55.7038 25.8323C55.8353 25.7794 55.8353 25.6735 55.9011 25.6205Z" fill="#01A4B7"/>
</svg>
