<svg width="18" height="16" viewBox="0 0 18 16" fill="none" xmlns="http://www.w3.org/2000/svg">
<path d="M8.99707 1.5C6.65332 1.5 4.52832 2.75 3.34082 4.75C2.18457 6.78125 2.18457 9.25 3.34082 11.25C4.52832 13.2812 6.65332 14.5 8.99707 14.5C11.3096 14.5 13.4346 13.2812 14.6221 11.25C15.7783 9.25 15.7783 6.78125 14.6221 4.75C13.4346 2.75 11.3096 1.5 8.99707 1.5ZM8.99707 16C6.12207 16 3.49707 14.5 2.05957 12C0.62207 9.53125 0.62207 6.5 2.05957 4C3.49707 1.53125 6.12207 0 8.99707 0C11.8408 0 14.4658 1.53125 15.9033 4C17.3408 6.5 17.3408 9.53125 15.9033 12C14.4658 14.5 11.8408 16 8.99707 16ZM12.5283 6.53125L8.52832 10.5312C8.21582 10.8438 7.74707 10.8438 7.46582 10.5312L5.46582 8.53125C5.15332 8.25 5.15332 7.78125 5.46582 7.5C5.74707 7.1875 6.21582 7.1875 6.52832 7.5L7.99707 8.96875L11.4658 5.5C11.7471 5.1875 12.2158 5.1875 12.5283 5.5C12.8096 5.78125 12.8096 6.25 12.5283 6.53125Z" fill="#2D2D2D"/>
</svg>
