<svg width="427" height="40" viewBox="0 0 427 40" fill="none" xmlns="http://www.w3.org/2000/svg">
<mask id="mask0_984_2381" style="mask-type:luminance" maskUnits="userSpaceOnUse" x="0" y="1" width="167" height="34">
<path d="M166.148 1.66663H0V35H166.148V1.66663Z" fill="white"/>
</mask>
<g mask="url(#mask0_984_2381)">
<path d="M17.183 1.66663H18.7631C20.6658 1.82624 22.7064 1.94384 24.3353 3.08631C25.2623 3.71216 25.735 4.99114 25.3394 6.07691C24.818 7.57431 23.2926 8.83018 21.7004 8.52986C20.8017 8.26944 20.0512 7.66461 19.3393 7.06606C18.1809 6.08531 17.0634 5.01214 15.688 4.35689C14.6089 3.80246 13.3411 3.83396 12.189 4.09228C10.1341 4.60051 8.51137 6.21551 7.47079 8.05943C6.18678 10.3948 5.51941 13.0956 5.58028 15.7816C5.57622 19.0263 6.45655 22.3046 8.23957 24.9886C10.0408 27.702 12.8259 29.7455 15.9558 30.4155C18.1729 30.9383 20.5726 30.8145 22.6558 29.8336C23.5787 29.4136 24.4407 28.8613 25.2603 28.2565C25.6964 28.5211 26.1405 28.769 26.6051 28.9748C24.5219 31.4193 21.822 33.3366 18.7935 34.2818C15.615 35.2668 12.0977 35.21 9.01036 33.9038C5.64112 32.5008 2.92708 29.6341 1.4544 26.2215C0.557823 24.2346 0.133876 22.0548 0 19.8726V18.4068C0.137937 16.376 0.539565 14.3515 1.34486 12.4865C2.7526 9.13473 5.24353 6.31843 8.26388 4.44306C10.9455 2.74404 14.051 1.83464 17.183 1.66663Z" fill="black"/>
<path d="M50.1657 1.66663H50.184C50.4415 1.75904 50.693 1.85774 50.9486 1.95224C50.7539 3.70376 50.5977 5.46156 50.3948 7.21308C53.3077 5.02054 56.3687 2.79229 59.9488 1.98374C60.6323 1.81784 61.3302 1.74643 62.026 1.66663H63.2937C64.6264 1.78424 65.9896 1.99004 67.1842 2.64949C68.5981 3.36354 69.7037 4.64041 70.3304 6.12101C71.2452 8.21484 71.3994 10.5544 71.4157 12.8204C71.4157 17.3483 71.4177 21.8741 71.4157 26.402C71.4075 27.347 71.4278 28.2963 71.515 29.2371C71.6347 30.0058 71.728 30.8333 72.2168 31.4591C72.6693 32.0681 73.3731 32.4041 74.0709 32.6016C74.9795 32.8556 75.9047 33.051 76.8397 33.1498C76.858 33.513 76.862 33.8763 76.862 34.2396H60.6141C60.6242 33.8826 60.5675 33.511 60.6588 33.1603C62.0522 32.9103 63.5655 32.757 64.746 31.875C65.8637 30.9635 65.9205 29.3716 66.024 28.0233C66.091 24.8395 66.0483 21.6515 66.0606 18.4656C66.0423 16.3108 66.1436 14.1393 65.7725 12.0077C65.4885 10.3864 64.9367 8.73149 63.7785 7.54911C62.2491 5.89211 59.9143 5.37758 57.7743 5.43848C56.6667 5.39438 55.5552 5.57288 54.5085 5.94881C53.1049 6.47804 51.8654 7.38739 50.7761 8.43118C50.6219 8.54668 50.6889 8.75879 50.6706 8.92259C50.6829 15.2398 50.6646 21.557 50.6788 27.8763C50.7457 28.9411 50.768 30.05 51.2123 31.0328C51.5916 31.8476 52.407 32.3223 53.2143 32.568C54.1596 32.8431 55.1272 33.0448 56.105 33.154C56.109 33.5151 56.109 33.8785 56.109 34.2398C50.697 34.2398 45.2811 34.2398 39.8672 34.2418C39.8793 33.8785 39.8815 33.5151 39.8894 33.1518C40.8632 33.0426 41.8287 32.8326 42.768 32.5345C43.6502 32.2446 44.4941 31.6545 44.8348 30.7283C45.3725 29.1658 45.2589 27.4815 45.3238 25.8518V11.4764C45.3055 10.525 45.3157 9.53583 44.906 8.66008C44.2588 7.32859 43.0418 6.43603 41.916 5.56658C41.914 5.32506 41.912 5.08564 41.9078 4.84623C44.6564 3.77516 47.4191 2.74399 50.1657 1.66663Z" fill="black"/>
<path d="M89.6385 1.66663H91.0604C91.9366 1.76324 92.817 1.85564 93.6669 2.10136C95.9571 2.69569 98.0361 4.16999 99.3181 6.23023C100.446 8.00694 100.969 10.1302 101.067 12.2387C94.3464 12.2282 87.6262 12.245 80.9079 12.2303C80.7599 13.4043 80.699 14.5909 80.6239 15.7733C80.3177 19.1503 81.2081 22.6533 83.1697 25.3835C84.9101 27.8511 87.5776 29.588 90.4802 30.1361C92.3889 30.4826 94.4052 30.47 96.243 29.7748C98.2228 29.0525 99.8333 27.534 101.067 25.8098C101.42 26.0745 101.773 26.3411 102.121 26.6163C100.276 29.8378 97.5149 32.5638 94.1334 33.9751C89.6101 35.8863 84.1453 34.9411 80.3664 31.77C78.3216 30.092 76.776 27.805 75.8307 25.2953C74.7739 22.5503 74.4899 19.522 74.8348 16.6006C75.3521 11.7557 77.8268 7.06814 81.766 4.32329C84.0743 2.67049 86.8513 1.82834 89.6385 1.66663ZM87.048 3.37194C85.0907 3.76256 83.5368 5.29566 82.5531 7.02408C81.8898 8.23164 81.3198 9.53584 81.127 10.9177C82.6606 10.7476 84.2043 10.819 85.7398 10.6888C88.6547 10.5796 91.5676 10.4536 94.4803 10.3045C94.0098 8.18754 93.1983 6.02441 91.5776 4.56481C90.3605 3.45174 88.6323 2.99811 87.048 3.37194Z" fill="black"/>
<path d="M155.841 1.66663H157.026C159.525 1.83463 162.067 2.53818 164.119 4.05868C164.198 6.18401 164.243 8.31564 164.353 10.441C163.839 10.5523 163.32 10.6384 162.807 10.7497C162.174 8.60128 161.405 6.36253 159.799 4.77481C158.093 3.09051 155.137 2.87839 153.32 4.48079C152.176 5.50356 151.667 7.12696 151.758 8.66216C151.746 10.3024 152.729 11.741 153.896 12.7637C155.837 14.4396 158.182 15.4834 160.346 16.8045C162.101 17.8755 163.868 19.0936 165.008 20.8871C165.987 22.4118 166.314 24.3208 166.071 26.1226C165.85 28.2333 164.821 30.2138 163.314 31.6418C161.081 33.7925 158.016 34.8488 155.001 34.9558C151.878 35.0336 148.683 34.2061 146.117 32.316C145.952 30.4133 145.873 28.5043 145.699 26.6015C145.61 25.8433 145.667 25.0705 145.521 24.3166C146.07 24.199 146.622 24.0666 147.186 24.0393C147.671 26.5448 148.683 29.0146 150.391 30.8941C151.685 32.2825 153.527 33.1308 155.401 33.091C156.799 33.1288 158.217 32.5826 159.212 31.56C161.154 29.5628 161.355 25.9988 159.578 23.8251C158.567 22.5461 157.166 21.6851 155.776 20.9143C153.577 19.6836 151.216 18.684 149.293 16.9935C148.011 15.8971 147.015 14.4081 146.628 12.7217C146.206 10.8232 146.312 8.75036 147.149 6.98413C147.934 5.29353 149.31 3.95574 150.896 3.07788C152.413 2.22103 154.123 1.79893 155.841 1.66663Z" fill="black"/>
<path d="M97.7869 2.37237C102.685 2.38077 107.586 2.38077 112.487 2.37237C112.481 2.73151 112.481 3.09062 112.485 3.44974C111.572 3.51066 110.627 3.54846 109.771 3.92437C109.217 4.12809 108.73 4.57542 108.578 5.17816C108.463 5.86489 108.556 6.57474 108.769 7.23209C109.237 8.73999 109.84 10.1975 110.388 11.6739C112.306 16.7731 114.26 21.8555 116.161 26.9608C118.343 21.721 120.463 16.4476 122.623 11.1972C122.769 10.8695 122.552 10.544 122.455 10.2395C121.771 8.56149 121.305 6.74697 120.25 5.26217C119.357 4.00629 117.775 3.70387 116.384 3.44976C116.388 3.09064 116.388 2.73361 116.39 2.37449C121.347 2.37449 126.309 2.39129 131.268 2.36609C131.268 2.72521 131.268 3.08642 131.27 3.44766C130.199 3.53166 129.096 3.60727 128.108 4.08819C127.473 4.40322 126.97 5.07316 127.005 5.82711C127.033 6.82257 127.427 7.75714 127.755 8.67699C129.954 14.7737 132.21 20.8473 134.384 26.9503C135.289 25.033 136.086 23.063 136.932 21.1161C138.335 17.7833 139.719 14.4355 140.895 11.0081C141.366 9.52962 141.857 8.04274 142.054 6.49494C142.181 5.66327 141.946 4.70562 141.244 4.21419C140.336 3.61354 139.226 3.61354 138.198 3.45394C138.202 3.09271 138.2 2.73359 138.198 2.37237C142.116 2.38707 146.035 2.36817 149.954 2.38077C149.95 2.73359 149.95 3.08642 149.952 3.43924C148.772 3.56526 147.567 3.89077 146.632 4.68462C145.179 5.87961 144.445 7.69832 143.676 9.38892C139.966 17.9156 136.299 26.4631 132.581 34.9833C132.285 34.975 131.99 34.9791 131.696 35.0001H131.64C128.881 27.6875 126.104 20.3811 123.355 13.0642C120.416 20.3621 117.544 27.6916 114.627 35.0001H114.574C114.25 34.975 113.925 34.9708 113.601 34.975C110.124 26.0451 106.655 17.1133 103.16 8.18977C102.647 6.95489 102.12 5.66121 101.138 4.73716C100.229 3.86979 98.9835 3.53797 97.7808 3.44136C97.7867 3.08434 97.7869 2.72939 97.7869 2.37237Z" fill="black"/>
<path d="M25.4248 11.4724C26.794 10.3089 28.4715 9.51296 30.2464 9.34916C32.8206 9.05514 35.496 10.0548 37.3115 11.9638C38.916 13.6334 39.8553 15.973 39.8227 18.3335C39.843 20.3665 39.1451 22.3931 37.9098 23.9703C36.5974 25.6671 34.6704 26.8516 32.5974 27.1981C30.5425 27.551 28.36 27.1583 26.5872 26.0116C24.3457 24.6108 22.7778 22.1096 22.4936 19.4151C22.1652 16.9096 22.9582 14.3097 24.5424 12.3986C24.0657 13.1861 23.7981 14.1081 23.9197 15.0427C24.088 16.6703 25.4187 18.0795 26.9846 18.2936C28.8367 18.6276 30.7414 17.2205 31.076 15.3178C31.2242 14.4609 31.1207 13.539 30.6967 12.7766C30.0598 11.5564 28.7312 10.7479 27.3844 10.834C26.6784 10.8235 26.0313 11.1364 25.4248 11.4724Z" fill="#005DA3"/>
</g>
<path d="M185.755 2.43794V14.4016H184.255V2.43794H180V1.09586H190.029V2.43794H185.755Z" fill="#2D2D2D"/>
<path d="M195.122 1H196.888C200.174 1 201.181 2.13118 201.181 5.46721V10.2028C201.181 13.3471 200.06 14.5167 196.888 14.5167H195.122C191.95 14.5167 190.829 13.3471 190.829 10.2028V5.46721C190.829 2.13118 191.836 1 195.122 1ZM196.907 2.32291H195.103C192.88 2.32291 192.311 2.87891 192.311 5.46721V10.2028C192.311 12.8486 193.165 13.1746 195.103 13.1746H196.907C198.845 13.1746 199.699 12.8486 199.699 10.2028V5.46721C199.699 2.87891 199.129 2.32291 196.907 2.32291Z" fill="#2D2D2D"/>
<path d="M213.852 1.09586V14.4016H212.351V2.41877H204.639V14.4016H203.158V1.09586H213.852Z" fill="#2D2D2D"/>
<path d="M215.093 8.87992H219.67V10.222H215.093V8.87992Z" fill="#2D2D2D"/>
<path d="M230.425 13.0787V14.4016H220.947V12.1584C220.947 8.68819 222.39 8.45812 225.562 8.13219C228.354 7.8446 228.962 7.95964 228.962 5.19879C228.962 2.45711 228.373 2.32291 225.885 2.32291C222.713 2.32291 222.428 2.51463 222.428 4.96872V5.65893H220.947V4.96872C220.947 2.05449 221.308 1 225.885 1C229.38 1 230.463 1.82442 230.463 5.19879C230.463 8.72654 229.228 9.18668 225.904 9.4551C223.112 9.68517 222.428 9.99193 222.428 11.9284V13.0787H230.425Z" fill="#2D2D2D"/>
<path d="M234.712 2.43794V6.40666H234.731C235.376 5.333 237.162 5.29465 238.282 5.29465C242.404 5.29465 242.708 7.23108 242.708 9.8002C242.708 13.9606 241.853 14.5167 237.865 14.5167C234.313 14.5167 233.192 14.1332 233.002 10.9122L232.983 10.5863H234.484V11.0272C234.484 13.0979 235.509 13.1746 237.865 13.1746C240.961 13.1746 241.226 12.6953 241.226 9.8002C241.226 6.94349 240.695 6.63673 237.865 6.63673C236.801 6.63673 234.939 6.42583 234.712 7.8446H233.211V1.09586H242.176V2.43794H234.712Z" fill="#2D2D2D"/>
<path d="M261.911 1.09586V14.4016H260.411V2.41877H252.699V14.4016H251.218V1.09586H261.911Z" fill="#2D2D2D"/>
<path d="M268.167 1H269.933C273.219 1 274.226 2.13118 274.226 5.46721V10.2028C274.226 13.3471 273.105 14.5167 269.933 14.5167H268.167C264.995 14.5167 263.874 13.3471 263.874 10.2028V5.46721C263.874 2.13118 264.881 1 268.167 1ZM269.952 2.32291H268.148C265.926 2.32291 265.356 2.87891 265.356 5.46721V10.2028C265.356 12.8486 266.21 13.1746 268.148 13.1746H269.952C271.89 13.1746 272.744 12.8486 272.744 10.2028V5.46721C272.744 2.87891 272.175 2.32291 269.952 2.32291Z" fill="#2D2D2D"/>
<path d="M281.673 14.5167H279.565C277.172 14.5167 275.747 12.9828 275.747 10.3179V5.17962C275.747 1.4218 278.046 1 281.236 1H282.471C285.225 1 286.08 2.20787 286.08 4.83451V5.25631H284.579V4.87286C284.579 3.01312 284.2 2.32291 282.262 2.32291H281.407C278.33 2.32291 277.229 2.70636 277.229 5.1221V8.78406C277.229 11.8133 277.362 13.1746 279.85 13.1746H281.616C284.01 13.1746 284.75 12.8486 284.75 10.9506V9.87689H286.251V11.1231C286.251 14.1715 284.314 14.5167 281.673 14.5167Z" fill="#2D2D2D"/>
<path d="M292.466 2.43794V14.4016H290.966V2.43794H286.711V1.09586H296.74V2.43794H292.466Z" fill="#2D2D2D"/>
<path d="M306.164 11.5832H299.516L298.49 14.4016H296.932L301.719 1.09586H303.827L308.747 14.4016H307.208L306.164 11.5832ZM305.746 10.337L302.802 2.34208L299.915 10.337H305.746Z" fill="#2D2D2D"/>
<path d="M311.421 8.22805V13.0787H316.15C317.765 13.0787 318.563 12.8678 318.563 10.8355C318.563 9.09082 318.297 8.22805 316.321 8.22805H311.421ZM316.929 14.4016H309.92V1.09586H316.606C319.075 1.09586 319.664 2.28456 319.664 4.60444C319.664 6.00404 319.379 6.96266 318.012 7.42281V7.44198C319.759 7.76791 320.044 9.05247 320.044 10.7013C320.044 13.0979 319.17 14.4016 316.929 14.4016ZM311.421 2.43794V6.90515H315.77C317.556 6.90515 318.164 6.48335 318.164 4.41271C318.164 2.62967 317.48 2.43794 315.922 2.43794H311.421Z" fill="#2D2D2D"/>
<path d="M322.297 14.4016V1.09586H323.778V13.0787H330.92V1.09586H332.421V13.0787H339.562V1.09586H341.063V13.0787H342.259V17.9102H340.759V14.4016H322.297Z" fill="#2D2D2D"/>
<path d="M354.229 1.09586V14.4016H352.728V2.99395H352.671L345.492 14.4016H343.535V1.09586H345.017V12.5035H345.074L352.253 1.09586H354.229Z" fill="#2D2D2D"/>
<path d="M368.082 14.4016H367.436C365.366 14.4016 365.423 13.0979 365.423 11.334V10.778C365.423 9.09082 365.005 8.28557 363.2 8.28557H358.205V14.4016H356.723V1.09586H358.205V6.96266H362.915C364.72 6.96266 365.138 6.15742 365.138 4.47023V4.16347C365.138 2.3996 365.081 1.09586 367.151 1.09586H367.797V2.41877H367.512C366.695 2.41877 366.619 2.87891 366.619 3.39657V5.17962C366.619 6.54087 366.125 7.46115 364.834 7.51867V7.57619C366.163 7.67205 366.904 8.2664 366.904 10.0686V12.1009C366.904 12.6186 366.98 13.0787 367.797 13.0787H368.082V14.4016Z" fill="#2D2D2D"/>
<path d="M373.672 1H375.439C378.725 1 379.731 2.13118 379.731 5.46721V10.2028C379.731 13.3471 378.611 14.5167 375.439 14.5167H373.672C370.5 14.5167 369.38 13.3471 369.38 10.2028V5.46721C369.38 2.13118 370.386 1 373.672 1ZM375.458 2.32291H373.653C371.431 2.32291 370.861 2.87891 370.861 5.46721V10.2028C370.861 12.8486 371.716 13.1746 373.653 13.1746H375.458C377.395 13.1746 378.25 12.8486 378.25 10.2028V5.46721C378.25 2.87891 377.68 2.32291 375.458 2.32291Z" fill="#2D2D2D"/>
<path d="M383.019 8.22805V13.0787H387.749C389.363 13.0787 390.161 12.8678 390.161 10.8355C390.161 9.09082 389.895 8.22805 387.92 8.22805H383.019ZM388.527 14.4016H381.519V1.09586H388.205C390.674 1.09586 391.263 2.28456 391.263 4.60444C391.263 6.00404 390.978 6.96266 389.61 7.42281V7.44198C391.358 7.76791 391.642 9.05247 391.642 10.7013C391.642 13.0979 390.769 14.4016 388.527 14.4016ZM383.019 2.43794V6.90515H387.369C389.154 6.90515 389.762 6.48335 389.762 4.41271C389.762 2.62967 389.078 2.43794 387.521 2.43794H383.019Z" fill="#2D2D2D"/>
<path d="M410.654 1.09586V14.4016H409.154V2.99395H409.097L401.917 14.4016H399.961V1.09586H401.442V12.5035H401.499L408.679 1.09586H410.654Z" fill="#2D2D2D"/>
<path d="M417.726 2.43794V14.4016H416.226V2.43794H411.971V1.09586H422V2.43794H417.726Z" fill="#2D2D2D"/>
<path d="M193.068 39H191.567V35.4914H181.501V39H180V34.1685H181.026C181.937 33.3058 182.887 32.5197 182.887 28.4743V22.1857H191.871V34.1685H193.068V39ZM190.371 34.1685V23.5086H184.369V28.4743C184.369 32.3855 183.552 33.5167 182.906 34.1685H190.371Z" fill="#2D2D2D"/>
<path d="M197.291 31.3693C197.291 34.3219 196.132 35.4914 193.663 35.4914H193.321V34.1685H193.378C195.714 34.1685 195.809 32.8073 195.809 29.4521V22.1857H205.059V35.4914H203.559V23.5086H197.291V31.3693Z" fill="#2D2D2D"/>
<path d="M215.892 28.225V23.5086H211.315C209.472 23.5086 209.017 24.1413 209.017 25.8285C209.017 28.0908 209.738 28.225 211.866 28.225H215.892ZM211.144 29.5479C209.339 29.5479 209.187 30.1615 209.187 31.8486V32.4238C209.187 34.1877 209.244 35.4914 207.174 35.4914H206.528V34.1685H206.813C207.63 34.1685 207.706 33.7084 207.706 33.1907V31.4844C207.706 29.6821 208.314 29.0494 209.51 28.9536V28.8961C208.2 28.781 207.535 27.5923 207.535 25.6367C207.535 23.9495 208.124 22.1857 210.669 22.1857H217.374V35.4914H215.892V29.5479H211.144Z" fill="#2D2D2D"/>
<path d="M233.897 32.6731H227.25L226.224 35.4914H224.666L229.453 22.1857H231.561L236.481 35.4914H234.942L233.897 32.6731ZM233.48 31.4268L230.536 23.4319L227.648 31.4268H233.48Z" fill="#2D2D2D"/>
<path d="M248.538 22.1857V35.4914H247.037V23.5086H239.326V35.4914H237.844V22.1857H248.538Z" fill="#2D2D2D"/>
<path d="M262.391 35.4914H261.745C259.675 35.4914 259.732 34.1877 259.732 32.4238V31.8678C259.732 30.1806 259.314 29.3754 257.509 29.3754H252.514V35.4914H251.032V22.1857H252.514V28.0525H257.224C259.029 28.0525 259.447 27.2472 259.447 25.56V25.2533C259.447 23.4894 259.39 22.1857 261.46 22.1857H262.106V23.5086H261.821C261.004 23.5086 260.928 23.9687 260.928 24.4864V26.2694C260.928 27.6307 260.434 28.551 259.143 28.6085V28.666C260.472 28.7619 261.213 29.3562 261.213 31.1584V33.1907C261.213 33.7084 261.289 34.1685 262.106 34.1685H262.391V35.4914Z" fill="#2D2D2D"/>
<path d="M271.597 29.3179V34.1685H276.326C277.941 34.1685 278.738 33.9576 278.738 31.9253C278.738 30.1806 278.472 29.3179 276.497 29.3179H271.597ZM277.105 35.4914H270.096V22.1857H276.782C279.251 22.1857 279.84 23.3744 279.84 25.6942C279.84 27.0938 279.555 28.0525 278.188 28.5126V28.5318C279.935 28.8577 280.22 30.1423 280.22 31.7911C280.22 34.1877 279.346 35.4914 277.105 35.4914ZM271.597 23.5277V27.995H275.946C277.732 27.995 278.339 27.5732 278.339 25.5025C278.339 23.7195 277.656 23.5277 276.098 23.5277H271.597Z" fill="#2D2D2D"/>
<path d="M298.035 34.1685V35.4914H288.557V33.2482C288.557 29.778 290.001 29.5479 293.173 29.222C295.965 28.9344 296.572 29.0494 296.572 26.2886C296.572 23.5469 295.984 23.4127 293.495 23.4127C290.323 23.4127 290.039 23.6044 290.039 26.0585V26.7487H288.557V26.0585C288.557 23.1443 288.918 22.0898 293.495 22.0898C296.99 22.0898 298.073 22.9142 298.073 26.2886C298.073 29.8163 296.838 30.2765 293.514 30.5449C290.722 30.775 290.039 31.0817 290.039 33.0182V34.1685H298.035Z" fill="#2D2D2D"/>
<path d="M305.437 23.4127C302.208 23.4127 301.353 23.4319 301.353 26.8829V30.7941C301.353 34.2452 302.208 34.2644 305.437 34.2644C308.704 34.2644 309.578 34.2452 309.578 30.7941V26.8829C309.578 23.4319 308.704 23.4127 305.437 23.4127ZM305.475 35.6065C301.372 35.6065 299.853 35.0505 299.853 30.7941V26.8829C299.853 22.6266 301.372 22.0898 305.437 22.0898C309.559 22.0898 311.059 22.6266 311.059 26.8829V30.7941C311.059 35.0505 309.559 35.6065 305.475 35.6065Z" fill="#2D2D2D"/>
<path d="M322.26 34.1685V35.4914H312.782V33.2482C312.782 29.778 314.225 29.5479 317.397 29.222C320.189 28.9344 320.797 29.0494 320.797 26.2886C320.797 23.5469 320.208 23.4127 317.72 23.4127C314.548 23.4127 314.263 23.6044 314.263 26.0585V26.7487H312.782V26.0585C312.782 23.1443 313.143 22.0898 317.72 22.0898C321.215 22.0898 322.298 22.9142 322.298 26.2886C322.298 29.8163 321.063 30.2765 317.739 30.5449C314.947 30.775 314.263 31.0817 314.263 33.0182V34.1685H322.26Z" fill="#2D2D2D"/>
<path d="M328.446 29.337V28.0141H330.022C331.903 28.0141 332.682 28.0525 332.682 25.8093C332.682 23.6044 332.378 23.4127 329.263 23.4127C326.737 23.4127 326.319 23.6236 326.319 25.6942V26.2694H324.818V25.6942C324.818 22.3007 326.395 22.0706 329.453 22.0898C332.264 22.0898 334.182 22.0898 334.182 25.5409C334.182 27.2472 333.935 28.5126 331.998 28.6468V28.6852C334.011 28.8385 334.448 29.778 334.448 31.7336C334.448 35.7407 332.473 35.6065 329.32 35.6065C326.3 35.6065 324.647 35.1655 324.647 32.0595V31.1776H326.129V32.0595C326.129 34.1493 326.49 34.2069 329.32 34.2644C332.511 34.3219 332.948 34.2069 332.948 31.5802C332.948 29.3179 331.903 29.337 330.022 29.337H328.446Z" fill="#2D2D2D"/>
<path d="M344.439 23.5277V35.4914H342.939V22.1857H351.03V23.5277H344.439Z" fill="#2D2D2D"/>
<path d="M356.459 22.0898H358.226C361.512 22.0898 362.518 23.221 362.518 26.557V31.2926C362.518 34.4369 361.398 35.6065 358.226 35.6065H356.459C353.287 35.6065 352.166 34.4369 352.166 31.2926V26.557C352.166 23.221 353.173 22.0898 356.459 22.0898ZM358.245 23.4127H356.44C354.218 23.4127 353.648 23.9687 353.648 26.557V31.2926C353.648 33.9384 354.503 34.2644 356.44 34.2644H358.245C360.182 34.2644 361.037 33.9384 361.037 31.2926V26.557C361.037 23.9687 360.467 23.4127 358.245 23.4127Z" fill="#2D2D2D"/>
<path d="M376.386 39H374.885V35.4914H364.818V39H363.318V34.1685H364.343C365.255 33.3058 366.205 32.5197 366.205 28.4743V22.1857H375.189V34.1685H376.386V39ZM373.688 34.1685V23.5086H367.686V28.4743C367.686 32.3855 366.87 33.5167 366.224 34.1685H373.688Z" fill="#2D2D2D"/>
<path d="M381.368 32.7306L376.297 22.1857H378.044L382.109 30.9475H382.147L386.136 22.1857H387.864L382.432 33.6509C381.729 35.1463 380.931 35.4914 378.937 35.4914H378.709V34.1685H379.032C380.609 34.1685 380.912 33.6509 381.368 32.7306Z" fill="#2D2D2D"/>
</svg>
