<svg width="18" height="16" viewBox="0 0 18 16" fill="none" xmlns="http://www.w3.org/2000/svg">
<path d="M8.99707 1.5C6.65332 1.5 4.52832 2.75 3.34082 4.75C2.18457 6.78125 2.18457 9.25 3.34082 11.25C4.52832 13.2812 6.65332 14.5 8.99707 14.5C11.3096 14.5 13.4346 13.2812 14.6221 11.25C15.7783 9.25 15.7783 6.78125 14.6221 4.75C13.4346 2.75 11.3096 1.5 8.99707 1.5ZM8.99707 16C6.12207 16 3.49707 14.5 2.05957 12C0.62207 9.53125 0.62207 6.5 2.05957 4C3.49707 1.53125 6.12207 0 8.99707 0C11.8408 0 14.4658 1.53125 15.9033 4C17.3408 6.5 17.3408 9.53125 15.9033 12C14.4658 14.5 11.8408 16 8.99707 16ZM7.21582 9.78125C8.18457 10.75 9.77832 10.75 10.7471 9.78125C11.0283 9.5 11.5283 9.5 11.8096 9.78125C12.0908 10.0625 12.0908 10.5625 11.8096 10.8438C10.2471 12.4062 7.71582 12.4062 6.15332 10.8438C4.59082 9.28125 4.59082 6.75 6.15332 5.1875C7.71582 3.625 10.2471 3.625 11.8096 5.1875C12.0908 5.46875 12.0908 5.96875 11.8096 6.25C11.5283 6.53125 11.0283 6.53125 10.7471 6.25C9.77832 5.28125 8.18457 5.28125 7.21582 6.25C6.24707 7.21875 6.24707 8.8125 7.21582 9.78125Z" fill="#2D2D2D"/>
</svg>
