<svg width="16" height="17" viewBox="0 0 16 17" fill="none" xmlns="http://www.w3.org/2000/svg">
<path d="M9.5 0.783203C9.5 0.376953 9.8125 0.0332031 10.25 0.0332031H15.2188C15.6562 0.0332031 15.9688 0.376953 15.9688 0.783203V5.7832C15.9688 6.2207 15.6562 6.5332 15.2188 6.5332C14.8125 6.5332 14.4688 6.2207 14.4688 5.7832V2.5957L7.5 9.56445C7.21875 9.87695 6.75 9.87695 6.46875 9.56445C6.15625 9.2832 6.15625 8.81445 6.46875 8.50195L13.4375 1.5332H10.25C9.8125 1.5332 9.5 1.2207 9.5 0.783203ZM2.25 1.0332H6.25C6.65625 1.0332 7 1.37695 7 1.7832C7 2.2207 6.65625 2.5332 6.25 2.5332H2.25C1.8125 2.5332 1.5 2.87695 1.5 3.2832V13.7832C1.5 14.2207 1.8125 14.5332 2.25 14.5332H12.75C13.1562 14.5332 13.5 14.2207 13.5 13.7832V9.7832C13.5 9.37695 13.8125 9.0332 14.25 9.0332C14.6562 9.0332 15 9.37695 15 9.7832V13.7832C15 15.0332 13.9688 16.0332 12.75 16.0332H2.25C1 16.0332 0 15.0332 0 13.7832V3.2832C0 2.06445 1 1.0332 2.25 1.0332Z" fill="white"/>
</svg>
