<svg width="313" height="38" viewBox="0 0 313 38" fill="none" xmlns="http://www.w3.org/2000/svg">
<g clip-path="url(#clip0_984_1664)">
<path d="M9.05174 5.02637L13.8354 11.1164H13.1731L12.7315 11.7689L8.24219 5.46137L8.53657 5.02637H9.05174Z" fill="#00B4F3"/>
<path d="M27.3762 5.53363L23.4756 11.5511L23.2549 11.1161H22.4453L26.4931 5.09863H27.0818L27.3762 5.53363Z" fill="#02B1F3"/>
<path d="M35.2514 19.9589H28.0391L28.2599 19.5239L28.0391 19.0889H35.325L35.5458 19.5239L35.2514 19.9589Z" fill="#02B1F3"/>
<path d="M22.9605 27.6436L26.6403 33.5161L26.3459 34.0236H25.6835L22.4453 28.3686L22.9605 27.6436Z" fill="#02B1F3"/>
<path d="M18.1073 20.0319L14.2803 26.1219L13.986 25.6144H13.25L17.1506 19.5244H17.8129L18.1073 20.0319Z" fill="#00B4F3"/>
<path d="M0.294382 19.0166L7.72753 19.0891L7.43315 19.5241L7.65393 20.1041H0.367978L0 19.5241L0.294382 19.0166Z" fill="#02B1F3"/>
<path d="M8.46094 5.02637L13.1711 11.1164H23.18L27.0806 5.02637H8.46094Z" fill="#00B4F3"/>
<path d="M28.2578 19.5248H35.6173L27.0802 5.02637L23.1797 11.1157L28.2578 19.5248Z" fill="url(#paint0_linear_984_1664)"/>
<path d="M28.2619 19.5244H35.6214L26.3484 34.0229L22.7422 27.9335L28.2619 19.5244Z" fill="url(#paint1_linear_984_1664)"/>
<path d="M13.9102 25.6138L19.3562 34.0229H26.3478L17.8107 19.5244L13.9102 25.6138Z" fill="#47D4F8"/>
<path d="M0 19.5244L3.90056 25.6144H13.9095L17.8101 19.5244H0Z" fill="#00B4F3"/>
<path d="M13.1736 11.1157L7.43315 19.5248H0L8.46348 5.02637L13.1736 11.1157Z" fill="url(#paint2_linear_984_1664)"/>
<mask id="mask0_984_1664" style="mask-type:luminance" maskUnits="userSpaceOnUse" x="0" y="5" width="14" height="15">
<path d="M13.1736 11.1157L7.43315 19.5248H0L8.46348 5.02637L13.1736 11.1157Z" fill="white"/>
</mask>
<g mask="url(#mask0_984_1664)">
<path d="M12.878 4.7373H-0.148438V19.7432H12.878V4.7373Z" fill="url(#paint3_linear_984_1664)"/>
</g>
<path d="M50.1179 14.5224C49.4555 14.3049 48.0572 14.0875 46.8797 14.0875C44.7454 14.0875 43.5679 14.5224 43.5679 16.1173C43.5679 17.2046 44.1566 17.7846 46.5853 18.0021C49.6027 18.292 50.9274 19.3794 50.9274 21.6992C50.9274 24.5264 49.0139 25.5413 45.5549 25.5413C44.2302 25.5413 42.7583 25.3238 41.728 24.9613L42.1695 23.3665C42.9791 23.6565 44.3774 23.8014 45.4813 23.8014C47.6156 23.8014 48.8667 23.3665 48.8667 21.7717C48.8667 20.6843 48.278 19.8869 45.7757 19.6694C42.8319 19.4519 41.4336 18.582 41.4336 16.2622C41.4336 13.435 43.3471 12.3477 46.7325 12.3477C47.9836 12.3477 49.4555 12.5651 50.4122 12.8551L50.1179 14.5224Z" fill="#00B4F3"/>
<path d="M55.4909 17.6394V22.1339C55.4909 23.4388 55.8588 24.0187 57.0364 24.0187C57.6251 24.0187 58.2139 23.9463 58.7291 23.8013L59.0234 25.1786C58.4347 25.3961 57.4779 25.5411 56.742 25.5411C54.6813 25.5411 53.7246 24.9611 53.7246 22.2064V17.6394H52.1055V16.1171H53.7246V14.3773L55.4909 13.6523V16.1171H58.7291V17.6394H55.4909Z" fill="#00B4F3"/>
<path d="M68.223 24.889C67.1191 25.3239 65.5 25.6139 64.2488 25.6139C61.4522 25.6139 60.4219 24.9615 60.4219 22.5692C60.4219 19.9595 61.9674 19.5246 64.1017 19.5246C64.9848 19.5246 65.7208 19.597 66.6039 19.8145C66.6039 17.9297 66.0887 17.4948 64.1017 17.4948C63.1449 17.4948 62.1146 17.6398 61.3786 17.9297L61.0106 16.4799C61.8202 16.2624 63.0713 16.0449 64.396 16.0449C67.1191 16.0449 68.3702 16.8423 68.3702 19.597V24.889H68.223ZM66.5303 21.0469C65.9415 20.9019 65.132 20.8294 64.396 20.8294C62.8505 20.8294 62.2618 20.9744 62.2618 22.4242C62.2618 23.9466 62.7033 24.2366 64.3224 24.2366C65.0584 24.2366 65.8679 24.0916 66.5303 23.8741V21.0469Z" fill="#00B4F3"/>
<path d="M70.8711 16.1181H72.5638V16.7705C72.9318 16.3356 73.7413 15.8281 75.066 15.8281C75.3604 15.8281 75.7284 15.8281 76.0228 15.9006V17.5679C75.7284 17.4954 75.2868 17.4954 74.9188 17.4954C73.6677 17.4954 72.5638 17.8579 72.5638 18.5828V25.3246H70.8711V16.1181Z" fill="#00B4F3"/>
<path d="M79.7057 17.6394V22.1339C79.7057 23.4388 80.0737 24.0187 81.2512 24.0187C81.84 24.0187 82.4287 23.9463 82.9439 23.8013L83.2383 25.1786C82.6495 25.3961 81.6928 25.5411 80.9568 25.5411C78.8962 25.5411 77.9394 24.9611 77.9394 22.2064V17.6394H76.3203V16.1171H77.9394V14.3773L79.7057 13.6523V16.1171H82.9439V17.6394H79.7057Z" fill="#00B4F3"/>
<path d="M84.9297 16.5528C85.96 16.1179 87.5791 15.9004 88.8302 15.9004C91.7741 15.9004 93.1724 16.9878 93.1724 20.6849C93.1724 24.4545 91.7741 25.5419 89.051 25.5419C87.8735 25.5419 87.1376 25.2519 86.696 24.8894V28.7315H85.0033V16.5528H84.9297ZM86.6224 23.0046C86.6224 23.7296 87.5791 24.092 88.8302 24.092C90.7437 24.092 91.3325 23.3671 91.3325 20.7574C91.3325 17.9302 90.7437 17.4227 88.8302 17.4227C88.0943 17.4227 87.2111 17.4952 86.6224 17.7127V23.0046Z" fill="#00B4F3"/>
<path d="M103.106 24.889C102.002 25.3239 100.383 25.6139 99.1317 25.6139C96.335 25.6139 95.3047 24.9615 95.3047 22.5692C95.3047 19.9595 96.8502 19.5246 98.9845 19.5246C99.8676 19.5246 100.604 19.597 101.487 19.8145C101.487 17.9297 100.972 17.4948 98.9845 17.4948C98.0277 17.4948 96.9974 17.6398 96.2614 17.9297L95.8935 16.4799C96.703 16.2624 97.9541 16.0449 99.2788 16.0449C102.002 16.0449 103.253 16.8423 103.253 19.597V24.889H103.106ZM101.413 21.0469C100.824 20.9019 100.015 20.8294 99.2788 20.8294C97.7333 20.8294 97.1446 20.9744 97.1446 22.4242C97.1446 23.9466 97.5862 24.2366 99.2053 24.2366C99.9412 24.2366 100.751 24.0916 101.413 23.8741V21.0469Z" fill="#00B4F3"/>
<path d="M112.747 25.1067C112.011 25.3967 110.833 25.6141 110.024 25.6141C107.154 25.6141 105.461 24.5267 105.461 20.7571C105.461 16.9875 107.154 15.9727 110.024 15.9727C110.833 15.9727 112.085 16.1901 112.747 16.4076L112.305 17.9299C111.717 17.64 110.833 17.495 110.097 17.495C108.184 17.495 107.301 17.9299 107.301 20.7571C107.301 23.4394 108.184 24.0918 110.097 24.0918C110.907 24.0918 111.717 23.8743 112.305 23.6568L112.747 25.1067Z" fill="#00B4F3"/>
<path d="M120.399 25.324C118.117 22.3518 116.645 20.6845 116.13 20.467V25.324H114.438V12.2754H116.13V20.467C116.719 20.0321 118.117 18.5822 120.104 16.1175H122.239C120.252 18.5097 118.853 19.8871 118.338 20.2495C118.853 20.5395 120.325 22.2068 122.533 25.2515H120.399V25.324Z" fill="#00B4F3"/>
</g>
<rect x="276" y="0.046875" width="37" height="37" rx="4" fill="#E03A3A"/>
<path d="M282.772 13.8149V17.5409H282.79C283.402 16.5329 285.094 16.4969 286.156 16.4969C290.062 16.4969 290.35 18.3149 290.35 20.7269C290.35 24.6329 289.54 25.1549 285.76 25.1549C282.394 25.1549 281.332 24.7949 281.152 21.7709L281.134 21.4649H282.556V21.8789C282.556 23.8229 283.528 23.8949 285.76 23.8949C288.694 23.8949 288.946 23.4449 288.946 20.7269C288.946 18.0449 288.442 17.7569 285.76 17.7569C284.752 17.7569 282.988 17.5589 282.772 18.8909H281.35V12.5549H289.846V13.8149H282.772ZM294.791 23.3549V25.0469H293.315V23.3549H294.791ZM302.951 13.7069C299.891 13.7069 299.081 13.7249 299.081 16.9649V20.6369C299.081 23.8769 299.891 23.8949 302.951 23.8949C306.047 23.8949 306.875 23.8769 306.875 20.6369V16.9649C306.875 13.7249 306.047 13.7069 302.951 13.7069ZM302.987 25.1549C299.099 25.1549 297.659 24.6329 297.659 20.6369V16.9649C297.659 12.9689 299.099 12.4649 302.951 12.4649C306.857 12.4649 308.279 12.9689 308.279 16.9649V20.6369C308.279 24.6329 306.857 25.1549 302.987 25.1549Z" fill="white"/>
<path d="M156.486 10.2289L159.056 15.4197L164.712 16.2393C165.187 16.3174 165.582 16.6296 165.74 17.098C165.899 17.5273 165.78 18.0347 165.424 18.3469L161.311 22.3669L162.3 28.0651C162.379 28.5335 162.181 29.0018 161.785 29.275C161.39 29.5872 160.876 29.5872 160.441 29.3921L155.378 26.6991L150.276 29.3921C149.881 29.5872 149.367 29.5872 148.971 29.275C148.576 29.0018 148.378 28.5335 148.457 28.0651L149.406 22.3669L145.293 18.3469C144.977 18.0347 144.858 17.5273 144.977 17.098C145.135 16.6296 145.53 16.3174 146.005 16.2393L151.7 15.4197L154.231 10.2289C154.429 9.79957 154.864 9.52637 155.378 9.52637C155.853 9.52637 156.288 9.79957 156.486 10.2289Z" fill="#E03A3A"/>
<path d="M179.266 10.2289L181.837 15.4197L187.493 16.2393C187.967 16.3174 188.363 16.6296 188.521 17.098C188.679 17.5273 188.561 18.0347 188.205 18.3469L184.091 22.3669L185.08 28.0651C185.159 28.5335 184.962 29.0018 184.566 29.275C184.171 29.5872 183.656 29.5872 183.221 29.3921L178.159 26.6991L173.057 29.3921C172.662 29.5872 172.147 29.5872 171.752 29.275C171.356 29.0018 171.159 28.5335 171.238 28.0651L172.187 22.3669L168.074 18.3469C167.757 18.0347 167.639 17.5273 167.757 17.098C167.916 16.6296 168.311 16.3174 168.786 16.2393L174.481 15.4197L177.012 10.2289C177.21 9.79957 177.645 9.52637 178.159 9.52637C178.634 9.52637 179.069 9.79957 179.266 10.2289Z" fill="#E03A3A"/>
<path d="M202.047 10.2289L204.618 15.4197L210.273 16.2393C210.748 16.3174 211.143 16.6296 211.302 17.098C211.46 17.5273 211.341 18.0347 210.985 18.3469L206.872 22.3669L207.861 28.0651C207.94 28.5335 207.742 29.0018 207.347 29.275C206.951 29.5872 206.437 29.5872 206.002 29.3921L200.94 26.6991L195.838 29.3921C195.442 29.5872 194.928 29.5872 194.533 29.275C194.137 29.0018 193.939 28.5335 194.018 28.0651L194.968 22.3669L190.854 18.3469C190.538 18.0347 190.419 17.5273 190.538 17.098C190.696 16.6296 191.092 16.3174 191.566 16.2393L197.261 15.4197L199.793 10.2289C199.99 9.79957 200.425 9.52637 200.94 9.52637C201.414 9.52637 201.849 9.79957 202.047 10.2289Z" fill="#E03A3A"/>
<path d="M224.828 10.2289L227.398 15.4197L233.054 16.2393C233.529 16.3174 233.924 16.6296 234.082 17.098C234.24 17.5273 234.122 18.0347 233.766 18.3469L229.653 22.3669L230.641 28.0651C230.721 28.5335 230.523 29.0018 230.127 29.275C229.732 29.5872 229.218 29.5872 228.783 29.3921L223.72 26.6991L218.618 29.3921C218.223 29.5872 217.709 29.5872 217.313 29.275C216.918 29.0018 216.72 28.5335 216.799 28.0651L217.748 22.3669L213.635 18.3469C213.319 18.0347 213.2 17.5273 213.319 17.098C213.477 16.6296 213.872 16.3174 214.347 16.2393L220.042 15.4197L222.573 10.2289C222.771 9.79957 223.206 9.52637 223.72 9.52637C224.195 9.52637 224.63 9.79957 224.828 10.2289Z" fill="#E03A3A"/>
<path d="M247.608 10.2289L250.179 15.4197L255.835 16.2393C256.309 16.3174 256.705 16.6296 256.863 17.098C257.021 17.5273 256.902 18.0347 256.547 18.3469L252.433 22.3669L253.422 28.0651C253.501 28.5335 253.303 29.0018 252.908 29.275C252.512 29.5872 251.998 29.5872 251.563 29.3921L246.501 26.6991L241.399 29.3921C241.003 29.5872 240.489 29.5872 240.094 29.275C239.698 29.0018 239.501 28.5335 239.58 28.0651L240.529 22.3669L236.416 18.3469C236.099 18.0347 235.981 17.5273 236.099 17.098C236.257 16.6296 236.653 16.3174 237.128 16.2393L242.823 15.4197L245.354 10.2289C245.552 9.79957 245.987 9.52637 246.501 9.52637C246.975 9.52637 247.411 9.79957 247.608 10.2289Z" fill="#E03A3A"/>
<defs>
<linearGradient id="paint0_linear_984_1664" x1="29.3985" y1="5.02637" x2="29.3985" y2="19.5248" gradientUnits="userSpaceOnUse">
<stop stop-color="#0280DD"/>
<stop offset="1" stop-color="#02B1F3"/>
</linearGradient>
<linearGradient id="paint1_linear_984_1664" x1="35.6214" y1="26.7736" x2="22.7422" y2="26.7736" gradientUnits="userSpaceOnUse">
<stop stop-color="#0280DD"/>
<stop offset="1" stop-color="#02B1F3"/>
</linearGradient>
<linearGradient id="paint2_linear_984_1664" x1="13.1736" y1="12.2756" x2="0" y2="12.2756" gradientUnits="userSpaceOnUse">
<stop stop-color="#0280DD"/>
<stop offset="1" stop-color="#02B1F3"/>
</linearGradient>
<linearGradient id="paint3_linear_984_1664" x1="12.8613" y1="12.2403" x2="-0.165144" y2="12.2403" gradientUnits="userSpaceOnUse">
<stop stop-color="#0280DD"/>
<stop offset="1" stop-color="#02B1F3"/>
</linearGradient>
<clipPath id="clip0_984_1664">
<rect width="131" height="28.9969" fill="white" transform="translate(0 5.02637)"/>
</clipPath>
</defs>
</svg>
