<svg width="309" height="38" viewBox="0 0 309 38" fill="none" xmlns="http://www.w3.org/2000/svg">
<g clip-path="url(#clip0_984_1774)">
<path d="M22.0211 5.52114C22.1419 5.30909 21.9866 5.02637 21.7449 5.02637H16.4275C16.1858 5.02637 16.0304 5.30909 16.1513 5.52114L18.81 10.2391C18.9308 10.4512 19.2416 10.4512 19.3624 10.2391L22.0211 5.52114Z" fill="#E31E24"/>
<path d="M13.9742 5.52114C14.0951 5.30909 13.9397 5.02637 13.698 5.02637H8.38063C8.13894 5.02637 7.98356 5.30909 8.10441 5.52114L10.7631 10.2391C10.8839 10.4512 11.1947 10.4512 11.3155 10.2391L13.9742 5.52114Z" fill="#E31E24"/>
<path d="M17.7214 11.2107C17.9631 11.2107 18.1185 10.928 17.9977 10.7159L15.339 5.9979C15.2181 5.78586 14.9074 5.78586 14.7865 5.9979L12.1278 10.7159C12.007 10.928 12.1624 11.2107 12.4041 11.2107H17.7214Z" fill="#E31E24"/>
<path d="M7.2921 5.9979C7.17125 5.78586 6.8605 5.78586 6.73965 5.9979L4.08097 10.7159C3.96012 10.928 4.1155 11.2107 4.3572 11.2107H9.67456C9.91626 11.2107 10.0716 10.928 9.95079 10.7159L7.2921 5.9979Z" fill="#AE2B30"/>
<path d="M9.95079 12.6588C10.0716 12.4468 9.91626 12.1641 9.67456 12.1641H4.3572C4.1155 12.1641 3.96012 12.4468 4.08097 12.6588L6.73965 17.3768C6.8605 17.5889 7.17125 17.5889 7.2921 17.3768L9.95079 12.6588Z" fill="#AE2B30"/>
<path d="M3.26867 13.1366C3.14782 12.9245 2.83706 12.9245 2.71621 13.1366L0.0575318 17.8546C-0.0633174 18.0666 0.0920601 18.3494 0.333758 18.3494H5.65112C5.89282 18.3494 6.0482 18.0666 5.92735 17.8546L3.26867 13.1366Z" fill="#AE2B30"/>
<path d="M25.7683 11.2107C26.01 11.2107 26.1654 10.928 26.0445 10.7159L23.3859 5.9979C23.265 5.78586 22.9542 5.78586 22.8334 5.9979L20.1747 10.7159C20.0539 10.928 20.2092 11.2107 20.4509 11.2107H25.7683Z" fill="#D7D5D3"/>
<path d="M22.8334 17.3768C22.9542 17.5889 23.265 17.5889 23.3859 17.3768L26.0445 12.6588C26.1654 12.4468 26.01 12.1641 25.7683 12.1641H20.4509C20.2092 12.1641 20.0539 12.4468 20.1747 12.6588L22.8334 17.3768Z" fill="#D7D5D3"/>
<path d="M29.7878 18.3494C30.0295 18.3494 30.1849 18.0666 30.0641 17.8546L27.4054 13.1366C27.2845 12.9245 26.9738 12.9245 26.8529 13.1366L24.1943 17.8546C24.0734 18.0666 24.2288 18.3494 24.4705 18.3494H29.7878Z" fill="#D7D5D3"/>
<path d="M0.318133 19.3037C0.0764351 19.3037 -0.0789424 19.5864 0.0419068 19.7985L2.70059 24.5165C2.82144 24.7285 3.13219 24.7285 3.25304 24.5165L5.91172 19.7985C6.03257 19.5864 5.87719 19.3037 5.6355 19.3037H0.318133Z" fill="#4A63AB"/>
<path d="M4.06534 24.9923C3.9445 25.2043 4.09987 25.4871 4.34157 25.4871H9.65893C9.90063 25.4871 10.056 25.2043 9.93516 24.9923L7.27648 20.2743C7.15563 20.0622 6.84487 20.0622 6.72403 20.2743L4.06534 24.9923Z" fill="#4A63AB"/>
<path d="M26.8529 24.5165C26.9738 24.7285 27.2845 24.7285 27.4054 24.5165L30.0641 19.7985C30.1849 19.5864 30.0295 19.3037 29.7878 19.3037H24.4705C24.2288 19.3037 24.0734 19.5864 24.1943 19.7985L26.8529 24.5165Z" fill="#EEEEEC"/>
<path d="M20.1747 24.9923C20.0539 25.2043 20.2092 25.4871 20.4509 25.4871H25.7683C26.01 25.4871 26.1654 25.2043 26.0445 24.9923L23.3859 20.2743C23.265 20.0622 22.9542 20.0622 22.8334 20.2743L20.1747 24.9923Z" fill="#EEEEEC"/>
<path d="M22.8334 31.6532C22.9542 31.8653 23.265 31.8653 23.3859 31.6532L26.0445 26.9352C26.1654 26.7232 26.01 26.4404 25.7683 26.4404H20.4509C20.2092 26.4404 20.0539 26.7232 20.1747 26.9352L22.8334 31.6532Z" fill="#EEEEEC"/>
<path d="M12.4041 26.4404C12.1624 26.4404 12.007 26.7232 12.1278 26.9352L14.7865 31.6532C14.9074 31.8653 15.2181 31.8653 15.339 31.6532L17.9977 26.9352C18.1185 26.7232 17.9631 26.4404 17.7214 26.4404H12.4041Z" fill="#363789"/>
<path d="M4.34157 26.4404C4.09987 26.4404 3.9445 26.7232 4.06534 26.9352L6.72403 31.6532C6.84487 31.8653 7.15563 31.8653 7.27648 31.6532L9.93516 26.9352C10.056 26.7232 9.90063 26.4404 9.65893 26.4404H4.34157Z" fill="#4A63AB"/>
<path d="M8.08878 32.1124C7.96793 32.3244 8.12331 32.6072 8.36501 32.6072H13.6824C13.9241 32.6072 14.0794 32.3244 13.9586 32.1124L11.2999 27.3944C11.1791 27.1823 10.8683 27.1823 10.7475 27.3944L8.08878 32.1124Z" fill="#363789"/>
<path d="M16.1318 32.1124C16.0109 32.3244 16.1663 32.6072 16.408 32.6072H21.7253C21.967 32.6072 22.1224 32.3244 22.0016 32.1124L19.3429 27.3944C19.222 27.1823 18.9113 27.1823 18.7904 27.3944L16.1318 32.1124Z" fill="#363789"/>
<path d="M36.2266 16.7062H41.2677V17.5367H42.7697V15.0984H42.0446V9.39146H40.1801V14.9924H38.1084V9.39146H36.2438V16.7062H36.2266ZM48.1561 13.1019V16.7062C48.7949 16.7062 49.4164 16.7062 50.0379 16.7062V9.35612H49.3819L45.7564 12.9605V9.37379C45.1349 9.37379 44.5134 9.37379 43.8918 9.37379V16.6886H44.5479L48.1561 13.0842V13.1019ZM58.0485 13.0312C58.0485 14.0736 57.2716 14.3563 56.5292 14.3917V11.6884C57.3234 11.7237 58.0485 11.9887 58.0485 13.0312ZM53.3008 13.0312C53.3008 11.9887 54.0432 11.706 54.8201 11.6884V14.3917C54.0777 14.3563 53.3008 14.0736 53.3008 13.0312ZM54.8028 16.7416H56.5465V16.1232C58.3937 16.0525 59.913 15.3104 59.913 13.0312C59.913 10.7696 58.3937 10.0275 56.5465 9.97452V9.35612H54.7855V9.97452C52.9383 10.0452 51.419 10.7696 51.419 13.0312C51.419 15.3104 52.9383 16.0525 54.7855 16.1232V16.7416H54.8028ZM63.1241 16.7062V14.8334H64.4362C67.8545 14.8334 67.8545 9.39146 64.4362 9.39146C63.3831 9.39146 62.3127 9.39146 61.2941 9.39146C61.2941 11.8297 61.2941 14.268 61.2941 16.7062C61.8984 16.7062 62.5026 16.7062 63.1241 16.7062ZM64.4362 13.1549H63.1241C63.1241 12.5541 63.1241 11.653 63.1241 11.07C63.5385 11.07 64.0046 11.0523 64.4362 11.07C65.5066 11.0876 65.4375 13.1549 64.4362 13.1549ZM75.2954 13.0665C75.2954 8.01331 67.9581 8.01331 67.9581 13.0665C67.9581 18.1374 75.2954 18.1374 75.2954 13.0665ZM69.8399 13.0665C69.8399 10.4339 73.4308 10.4339 73.4308 13.0665C73.4308 15.7168 69.8399 15.7168 69.8399 13.0665ZM81.9593 11.653C81.9593 10.3809 80.9753 9.40913 79.7323 9.40913H76.6765V16.7239H80.0257C81.4932 16.7239 82.2356 15.6815 82.2528 14.4093C82.2528 13.7556 81.9766 13.2255 81.3896 12.9075C81.7349 12.6071 81.9593 12.0771 81.9593 11.6354V11.653ZM79.8876 13.8263C80.63 13.8263 80.63 15.0631 79.9049 15.0631H78.4374V13.8263H79.8876ZM79.5769 11.0876C80.3192 11.0876 80.3192 12.2714 79.5941 12.2714H78.4374V11.0876H79.5769ZM90.5741 13.0842C90.5741 8.03098 83.2369 8.03098 83.2369 13.0842C83.2369 18.1551 90.5741 18.1551 90.5741 13.0842ZM85.1187 13.0842C85.1187 10.4516 88.7096 10.4516 88.7096 13.0842C88.7096 15.7345 85.1187 15.7345 85.1187 13.0842ZM92.6631 16.7416H92.0071V9.4268C92.6286 9.4268 93.2501 9.4268 93.8716 9.4268V13.0135L97.4971 9.40913H98.1531V16.7593C97.5316 16.7593 96.8928 16.7593 96.2713 16.7593V13.1549L92.6631 16.7593V16.7416ZM94.6312 7.12988C94.2687 7.14755 93.9234 7.20056 93.5781 7.23589C93.6126 8.40202 94.2514 9.02042 95.3563 9.02042C96.4958 9.02042 97.1 8.40202 97.1518 7.23589C96.8065 7.20056 96.4612 7.14755 96.0987 7.12988C96.0296 7.5716 95.7534 7.71295 95.3391 7.71295C94.9074 7.71295 94.6657 7.51859 94.6312 7.12988ZM39.5758 24.0387L36.6582 20.2576H36.2266V27.5901H37.4178V23.0139L39.4895 25.7172H39.6449L41.7166 23.0139V27.5901H42.9078V20.2576H42.4762L39.5758 24.0387ZM49.0193 26.0706L49.7271 27.5901H50.9702V27.4311L47.6727 20.2223H47.1202L43.8055 27.4311V27.5901H45.0485L45.7391 26.0706H49.002H49.0193ZM47.3965 22.1128L48.6395 25.0458H46.1362L47.3965 22.1128ZM53.0591 27.5901V25.3992H54.8201C56.3911 25.3992 57.3406 24.2331 57.3406 22.8549C57.3406 21.4591 56.4084 20.2753 54.8201 20.2753H51.8506V27.5901H53.0419H53.0591ZM53.0419 24.3214V21.3177H54.8373C55.666 21.3177 56.2185 21.9715 56.2185 22.8196C56.2185 23.6677 55.6487 24.3214 54.8373 24.3214H53.0419ZM59.7231 20.2576H58.5319V27.5724H59.7231V24.4804C60.0684 24.4804 60.7589 24.4804 61.0697 24.3567L63.1069 27.5548H64.4535V27.3781L62.1055 23.8797C62.5889 23.438 62.8134 22.7136 63.0378 21.9185C63.245 21.1587 63.5039 21.035 64.229 21.0881V20.2576C62.7616 19.9749 62.2091 20.6287 61.9502 21.5828C61.7603 22.3425 61.5531 23.0846 61.1387 23.3143C60.828 23.4733 60.2755 23.491 59.7404 23.491V20.2576H59.7231ZM69.8744 20.2576H65.5238V27.5724H69.9435V26.4593H66.7323V24.3214H69.719V23.2436H66.7323V21.3177H69.8917V20.2576H69.8744ZM72.7921 21.3354V27.5724H73.9488V21.3354H76.0205V20.2576H70.7031V21.3354H72.7748H72.7921ZM77.1081 20.2576V27.5724C77.5052 27.5724 77.9022 27.5724 78.2993 27.5724V21.3531H81.5622V27.5724C81.9593 27.5724 82.3564 27.5724 82.7535 27.5724V20.2576H77.1081ZM86.6552 21.3531H89.0031V27.5901H90.1943V20.2753C88.8132 20.2753 87.0177 20.2753 85.6021 20.2753L85.0323 25.6112C84.946 26.4416 84.7389 26.795 83.8239 26.6713L83.8066 27.5724C85.4985 27.8198 86.0682 27.3427 86.2236 25.6465L86.6552 21.3531ZM96.3231 20.2576H91.9725V27.5724H96.3922V26.4593H93.181V24.3214H96.1677V23.2436H93.181V21.3177H96.3404V20.2576H96.3231ZM99.3271 18.1021C99.3961 19.0562 100.035 19.6746 101.053 19.6746C102.124 19.6746 102.659 19.0208 102.745 18.1021C102.521 18.0667 102.21 18.0314 101.986 18.0137C101.899 18.5084 101.52 18.6851 101.053 18.6851C100.57 18.6675 100.225 18.4731 100.173 18.0137L99.3443 18.1021H99.3271ZM98.274 27.5724H97.8596V20.2576H99.0508V22.9256L98.9645 25.1518L103.315 20.24H103.747V27.5901H102.573V24.9398L102.659 22.6252L98.2912 27.6078L98.274 27.5724ZM105.093 23.915C105.093 26.2649 106.785 27.6431 108.719 27.6431C110.169 27.6431 111.636 26.8657 111.999 25.0635H110.842C110.532 26.0353 109.703 26.53 108.719 26.53C107.251 26.53 106.285 25.3638 106.285 23.915C106.285 22.3602 107.251 21.2647 108.719 21.2647C109.651 21.2824 110.462 21.6888 110.808 22.6076H111.947C111.567 20.9467 110.117 20.1693 108.719 20.1693C106.768 20.1693 105.076 21.5651 105.076 23.9327L105.093 23.915Z" fill="#2B2A29"/>
</g>
<path d="M152.358 10.2288L154.901 15.4194L160.494 16.239C160.963 16.317 161.354 16.6292 161.511 17.0976C161.667 17.5269 161.55 18.0342 161.198 18.3464L157.13 22.3662L158.108 28.0641C158.186 28.5324 157.99 29.0007 157.599 29.2739C157.208 29.5861 156.7 29.5861 156.269 29.391L151.263 26.6982L146.217 29.391C145.826 29.5861 145.318 29.5861 144.927 29.2739C144.536 29.0007 144.34 28.5324 144.418 28.0641L145.357 22.3662L141.289 18.3464C140.976 18.0342 140.859 17.5269 140.976 17.0976C141.133 16.6292 141.524 16.317 141.993 16.239L147.626 15.4194L150.129 10.2288C150.324 9.79955 150.755 9.52637 151.263 9.52637C151.732 9.52637 152.163 9.79955 152.358 10.2288Z" fill="#E03A3A"/>
<path d="M174.887 10.2288L177.43 15.4194L183.023 16.239C183.492 16.317 183.883 16.6292 184.04 17.0976C184.196 17.5269 184.079 18.0342 183.727 18.3464L179.659 22.3662L180.637 28.0641C180.715 28.5324 180.52 29.0007 180.128 29.2739C179.737 29.5861 179.229 29.5861 178.799 29.391L173.792 26.6982L168.747 29.391C168.355 29.5861 167.847 29.5861 167.456 29.2739C167.065 29.0007 166.869 28.5324 166.947 28.0641L167.886 22.3662L163.818 18.3464C163.505 18.0342 163.388 17.5269 163.505 17.0976C163.662 16.6292 164.053 16.317 164.522 16.239L170.155 15.4194L172.658 10.2288C172.853 9.79955 173.284 9.52637 173.792 9.52637C174.262 9.52637 174.692 9.79955 174.887 10.2288Z" fill="#E03A3A"/>
<path d="M197.416 10.2288L199.959 15.4194L205.552 16.239C206.021 16.317 206.412 16.6292 206.569 17.0976C206.725 17.5269 206.608 18.0342 206.256 18.3464L202.188 22.3662L203.166 28.0641C203.244 28.5324 203.049 29.0007 202.658 29.2739C202.266 29.5861 201.758 29.5861 201.328 29.391L196.321 26.6982L191.276 29.391C190.885 29.5861 190.376 29.5861 189.985 29.2739C189.594 29.0007 189.398 28.5324 189.477 28.0641L190.415 22.3662L186.347 18.3464C186.035 18.0342 185.917 17.5269 186.035 17.0976C186.191 16.6292 186.582 16.317 187.051 16.239L192.684 15.4194L195.187 10.2288C195.383 9.79955 195.813 9.52637 196.321 9.52637C196.791 9.52637 197.221 9.79955 197.416 10.2288Z" fill="#E03A3A"/>
<path d="M219.946 10.2288L222.488 15.4194L228.081 16.239C228.55 16.317 228.942 16.6292 229.098 17.0976C229.255 17.5269 229.137 18.0342 228.785 18.3464L224.717 22.3662L225.695 28.0641C225.773 28.5324 225.578 29.0007 225.187 29.2739C224.796 29.5861 224.287 29.5861 223.857 29.391L218.85 26.6982L213.805 29.391C213.414 29.5861 212.905 29.5861 212.514 29.2739C212.123 29.0007 211.927 28.5324 212.006 28.0641L212.944 22.3662L208.877 18.3464C208.564 18.0342 208.446 17.5269 208.564 17.0976C208.72 16.6292 209.111 16.317 209.581 16.239L215.213 15.4194L217.716 10.2288C217.912 9.79955 218.342 9.52637 218.85 9.52637C219.32 9.52637 219.75 9.79955 219.946 10.2288Z" fill="#E03A3A"/>
<path d="M243.453 10.0727L246.151 15.5755L252.136 16.4731C252.488 16.5122 252.761 16.7854 252.879 17.0976C252.996 17.4488 252.918 17.8001 252.644 18.0732L248.303 22.3662L249.359 28.4153C249.398 28.7666 249.241 29.1178 248.968 29.352C248.655 29.5471 248.303 29.5861 247.99 29.43L242.631 26.5421L237.273 29.43C236.96 29.5861 236.569 29.5471 236.256 29.352C235.982 29.1178 235.826 28.7666 235.904 28.4153L236.921 22.3662L232.579 18.0732C232.305 17.8001 232.227 17.4488 232.344 17.0976C232.462 16.7854 232.736 16.5122 233.088 16.4731L239.072 15.5755L241.771 10.0727C241.927 9.76053 242.24 9.52637 242.592 9.52637C242.983 9.52637 243.296 9.76053 243.453 10.0727ZM242.631 24.5517C242.749 24.5517 242.905 24.5907 243.061 24.6688L247.168 26.8543L246.386 22.1711C246.308 21.8979 246.425 21.5857 246.66 21.3515L249.984 18.0342L245.369 17.3708C245.056 17.3317 244.822 17.1366 244.665 16.8634L242.631 12.6485V24.5517Z" fill="#E03A3A"/>
<rect x="272" y="0.046875" width="37" height="37" rx="4" fill="#E03A3A"/>
<path d="M284.946 12.5549V20.9429H286.764V22.2029H284.946V25.0469H283.524V22.2029H276.504V20.5109L282.768 12.5549H284.946ZM283.524 20.9429V13.4729H283.488L277.656 20.9429H283.524ZM290.791 23.3549V25.0469H289.315V23.3549H290.791ZM302.173 12.5549V20.9429H303.991V22.2029H302.173V25.0469H300.751V22.2029H293.731V20.5109L299.995 12.5549H302.173ZM300.751 20.9429V13.4729H300.715L294.883 20.9429H300.751Z" fill="white"/>
<defs>
<clipPath id="clip0_984_1774">
<rect width="112" height="27.5842" fill="white" transform="translate(0 5.02637)"/>
</clipPath>
</defs>
</svg>
