<svg width="305" height="40" viewBox="0 0 305 40" fill="none" xmlns="http://www.w3.org/2000/svg">
<g clip-path="url(#clip0_984_1716)">
<path d="M103.92 35.0378C106.058 35.0378 107.573 34.6576 108.701 33.8389V30.1251C107.543 30.9146 106.147 31.4118 104.187 31.4118C100.89 31.4118 99.524 28.8969 99.524 24.92C99.524 20.7384 101.187 18.6037 104.217 18.6037C105.999 18.6037 107.751 19.2178 108.672 19.8026V15.9426C107.692 15.4163 105.999 15.0361 103.682 15.0361C97.7717 15.0361 94.7126 19.2178 94.7126 25.0662C94.7423 31.4702 97.742 35.0378 103.92 35.0378ZM75.0213 33.3417V29.628C73.5957 30.593 71.1603 31.441 68.9328 31.441C65.5469 31.441 64.2698 29.8619 64.0619 26.6453H75.2292V24.2474C75.2292 17.551 72.2295 15.0361 67.6259 15.0361C61.9829 15.0361 59.3099 19.2762 59.3099 25.0954C59.3099 31.7919 62.666 35.0378 68.5467 35.0378C71.487 35.0378 73.6551 34.2482 75.0213 33.3417ZM32.639 15.387V22.99H26.4614V15.387H21.8281V34.6576H26.4614V26.616H32.639V34.6576H37.2723V15.387H32.639ZM58.1516 31.0316H56.1022V15.387H42.6183V17.0246C42.6183 21.7326 42.3213 27.815 40.6878 31.0316H39.2028V39.044H43.4796V34.6576H53.845V39.044H58.1219V31.0316H58.1516ZM89.7823 34.6576H95.0393L87.6142 24.2767L94.1483 15.387H89.4853L82.9513 24.2767V15.387H78.318V34.6576H82.9513V25.1832L89.7823 34.6576ZM67.5071 18.6037C69.7941 18.6037 70.5069 20.4752 70.5069 22.9023V23.2824H64.0619C64.1807 20.212 65.3093 18.6037 67.5071 18.6037ZM51.469 31.0316H44.9349C46.212 28.1366 46.5685 22.873 46.5685 19.5394V18.9546H51.469V31.0316Z" fill="black"/>
<path d="M17.9687 34.6573H13.2463V11.6437H11.1376C7.27657 11.6437 5.25695 13.5444 5.25695 16.3809C5.25695 19.5975 6.65286 21.0889 9.53379 22.9896L11.9098 24.5687L5.07875 34.6573H0L6.14796 25.6507C2.61362 23.1651 0.623706 20.738 0.623706 16.6441C0.623706 11.5267 4.24714 8.04688 11.1079 8.04688H17.939V34.6573H17.9687Z" fill="#FC3F1D"/>
</g>
<rect x="268" y="0.046875" width="37" height="36.9961" rx="4" fill="#EA4F4D"/>
<path d="M283.48 21.7469H281.12V26.0469H279.56V21.7469H273.4V21.0869L280.04 11.8269H281.12V20.3469H283.48V21.7469ZM279.56 15.9869L279.76 14.3469H279.7L279 15.7069L276.18 19.5269L275.22 20.5069L276.62 20.3469H279.56V15.9869ZM284.878 25.1269C284.878 24.7669 284.978 24.4869 285.178 24.2869C285.392 24.0735 285.672 23.9669 286.018 23.9669C286.378 23.9669 286.665 24.0735 286.878 24.2869C287.092 24.4869 287.198 24.7669 287.198 25.1269C287.198 25.4735 287.092 25.7535 286.878 25.9669C286.665 26.1802 286.378 26.2869 286.018 26.2869C285.672 26.2869 285.392 26.1802 285.178 25.9669C284.978 25.7535 284.878 25.4735 284.878 25.1269ZM298.656 21.7469H296.296V26.0469H294.736V21.7469H288.576V21.0869L295.216 11.8269H296.296V20.3469H298.656V21.7469ZM294.736 15.9869L294.936 14.3469H294.876L294.176 15.7069L291.356 19.5269L290.396 20.5069L291.796 20.3469H294.736V15.9869Z" fill="white"/>
<rect x="268" y="0.0664062" width="37" height="37" rx="4" fill="#E03A3A"/>
<path d="M280.946 12.5744V20.9624H282.764V22.2224H280.946V25.0664H279.524V22.2224H272.504V20.5304L278.768 12.5744H280.946ZM279.524 20.9624V13.4924H279.488L273.656 20.9624H279.524ZM286.791 23.3744V25.0664H285.315V23.3744H286.791ZM295.275 18.5864C292.521 18.5864 291.765 18.7484 291.765 20.7464C291.765 23.4644 291.999 23.9144 294.969 23.9144C298.065 23.9144 298.191 23.5004 298.191 21.2504C298.191 18.8924 297.939 18.5864 295.275 18.5864ZM290.343 20.7464V15.8144C290.343 12.8444 292.125 12.4844 295.041 12.4844C297.093 12.4844 299.325 12.4664 299.325 15.3464V15.7424H297.903V15.4004C297.903 13.7264 296.895 13.7264 295.041 13.7264C292.755 13.7264 291.765 13.6904 291.765 15.8144V18.4964H291.783C292.107 17.7044 293.079 17.3444 294.969 17.3444C298.443 17.3444 299.595 17.7404 299.595 21.2504C299.595 24.6164 298.515 25.1744 294.969 25.1744C291.477 25.1744 290.343 24.6344 290.343 20.7464Z" fill="white"/>
<path d="M148.488 10.2494L151.059 15.4399L156.715 16.2595C157.19 16.3375 157.585 16.6498 157.744 17.1181C157.902 17.5474 157.783 18.0547 157.427 18.3669L153.314 22.3867L154.302 28.0846C154.382 28.5529 154.184 29.0213 153.788 29.2944C153.393 29.6067 152.878 29.6067 152.443 29.4115L147.38 26.7187L142.278 29.4115C141.882 29.6067 141.368 29.6067 140.972 29.2944C140.577 29.0213 140.379 28.5529 140.458 28.0846L141.407 22.3867L137.294 18.3669C136.977 18.0547 136.859 17.5474 136.977 17.1181C137.135 16.6498 137.531 16.3375 138.006 16.2595L143.702 15.4399L146.233 10.2494C146.431 9.82006 146.866 9.54688 147.38 9.54688C147.855 9.54688 148.29 9.82006 148.488 10.2494Z" fill="#E03A3A"/>
<path d="M171.272 10.2494L173.843 15.4399L179.499 16.2595C179.974 16.3375 180.369 16.6498 180.527 17.1181C180.686 17.5474 180.567 18.0547 180.211 18.3669L176.097 22.3867L177.086 28.0846C177.165 28.5529 176.967 29.0213 176.572 29.2944C176.176 29.6067 175.662 29.6067 175.227 29.4115L170.164 26.7187L165.061 29.4115C164.666 29.6067 164.152 29.6067 163.756 29.2944C163.361 29.0213 163.163 28.5529 163.242 28.0846L164.191 22.3867L160.077 18.3669C159.761 18.0547 159.642 17.5474 159.761 17.1181C159.919 16.6498 160.315 16.3375 160.789 16.2595L166.485 15.4399L169.017 10.2494C169.215 9.82006 169.65 9.54688 170.164 9.54688C170.639 9.54688 171.074 9.82006 171.272 10.2494Z" fill="#E03A3A"/>
<path d="M194.055 10.2494L196.626 15.4399L202.283 16.2595C202.757 16.3375 203.153 16.6498 203.311 17.1181C203.469 17.5474 203.351 18.0547 202.995 18.3669L198.881 22.3867L199.87 28.0846C199.949 28.5529 199.751 29.0213 199.356 29.2944C198.96 29.6067 198.446 29.6067 198.011 29.4115L192.948 26.7187L187.845 29.4115C187.45 29.6067 186.935 29.6067 186.54 29.2944C186.144 29.0213 185.947 28.5529 186.026 28.0846L186.975 22.3867L182.861 18.3669C182.545 18.0547 182.426 17.5474 182.545 17.1181C182.703 16.6498 183.099 16.3375 183.573 16.2595L189.269 15.4399L191.801 10.2494C191.998 9.82006 192.434 9.54688 192.948 9.54688C193.422 9.54688 193.858 9.82006 194.055 10.2494Z" fill="#E03A3A"/>
<path d="M216.839 10.2494L219.41 15.4399L225.067 16.2595C225.541 16.3375 225.937 16.6498 226.095 17.1181C226.253 17.5474 226.135 18.0547 225.779 18.3669L221.665 22.3867L222.654 28.0846C222.733 28.5529 222.535 29.0213 222.139 29.2944C221.744 29.6067 221.23 29.6067 220.795 29.4115L215.732 26.7187L210.629 29.4115C210.233 29.6067 209.719 29.6067 209.324 29.2944C208.928 29.0213 208.73 28.5529 208.809 28.0846L209.759 22.3867L205.645 18.3669C205.329 18.0547 205.21 17.5474 205.329 17.1181C205.487 16.6498 205.882 16.3375 206.357 16.2595L212.053 15.4399L214.584 10.2494C214.782 9.82006 215.217 9.54688 215.732 9.54688C216.206 9.54688 216.641 9.82006 216.839 10.2494Z" fill="#E03A3A"/>
<path d="M238.476 9.54688C238.871 9.54688 239.188 9.78104 239.346 10.0933L242.075 15.596L248.127 16.4936C248.483 16.5327 248.76 16.7668 248.879 17.1181C248.997 17.4693 248.918 17.8206 248.641 18.0937L244.251 22.3867L245.279 28.4359C245.358 28.7871 245.2 29.1774 244.923 29.3725C244.607 29.5676 244.211 29.6067 243.895 29.4506L238.476 26.5626L233.096 29.4506C232.74 29.6067 232.384 29.5676 232.068 29.3725C231.791 29.1383 231.633 28.7871 231.712 28.4359L232.74 22.3867L228.35 18.0937C228.073 17.8206 227.994 17.4693 228.112 17.1181C228.231 16.8059 228.508 16.5327 228.864 16.4936L234.916 15.596L237.645 10.0933C237.803 9.78104 238.12 9.54688 238.476 9.54688ZM238.476 12.63L236.419 16.8839C236.261 17.1571 236.023 17.3522 235.707 17.3913L231.039 18.0547L234.402 21.372C234.639 21.6062 234.758 21.9184 234.678 22.1916L233.887 26.8748L238.041 24.6893C238.318 24.5332 238.674 24.5332 238.95 24.6893L243.104 26.8748L242.313 22.2306C242.233 21.9184 242.352 21.6062 242.589 21.411L245.952 18.0547L241.284 17.3913C240.968 17.3522 240.73 17.1571 240.572 16.8839L238.476 12.63Z" fill="#E03A3A"/>
<defs>
<clipPath id="clip0_984_1716">
<rect width="109" height="30.9967" fill="white" transform="translate(0 8.04688)"/>
</clipPath>
</defs>
</svg>
