<svg width="85" height="66" viewBox="0 0 85 66" fill="none" xmlns="http://www.w3.org/2000/svg">
<rect width="85" height="66" rx="10" fill="#E03A3A"/>
<path d="M62.6 10.6786H22.4C19.5734 10.6786 17.375 12.9866 17.375 15.7143V42.5714H15.7V15.7143C15.7 12.0424 18.6312 9 22.4 9H62.6C66.2641 9 69.3 12.0424 69.3 15.7143V42.5714H67.625V15.7143C67.625 12.9866 65.3219 10.6786 62.6 10.6786ZM10.9891 47.6071C10.7797 47.6071 10.675 47.817 10.675 48.0268C10.675 51.4888 13.5016 54.3214 16.9562 54.3214H67.9391C71.3937 54.3214 74.325 51.4888 74.325 48.0268C74.325 47.817 74.1156 47.6071 73.9062 47.6071H10.9891ZM9 48.0268C9 46.8728 9.8375 45.9286 10.9891 45.9286H73.9062C75.0578 45.9286 76 46.8728 76 48.0268C76 52.433 72.3359 56 67.9391 56H16.9562C12.5594 56 9 52.433 9 48.0268Z" fill="white"/>
<path d="M50.4562 25.0513C50.4562 21.3926 48.4541 17.9699 45.2742 16.0815C42.0354 14.2521 38.09 14.2521 34.9102 16.0815C31.6714 17.9699 29.7281 21.3926 29.7281 25.0513C29.7281 28.7691 31.6714 32.1918 34.9102 34.0802C38.09 35.9096 42.0354 35.9096 45.2742 34.0802C48.4541 32.1918 50.4562 28.7691 50.4562 25.0513ZM48.0419 34.3753C45.922 36.2637 43.0954 37.3259 40.0922 37.3259C33.3202 37.3259 27.8438 31.8378 27.8438 25.0513C27.8438 18.3239 33.3202 12.7768 40.0922 12.7768C46.8053 12.7768 52.3406 18.3239 52.3406 25.0513C52.3406 28.12 51.2218 30.8936 49.3963 33.077L57.6993 41.3977C58.0526 41.7518 58.0526 42.4009 57.6993 42.755C57.346 43.1091 56.6982 43.1091 56.3449 42.755L48.0419 34.3753Z" fill="white"/>
<path d="M40 17.8741C39.0156 17.8741 38.25 18.6663 38.25 19.6224H41.75C41.75 18.6663 40.957 17.8741 40 17.8741ZM37.375 19.6224C37.375 18.1746 38.5508 17 40 17C41.4492 17 42.625 18.1746 42.625 19.6224V19.7317C42.625 20.1688 42.2695 20.4966 41.832 20.4966H38.1406C37.7031 20.4966 37.375 20.1688 37.375 19.7317V19.6224ZM33.9844 19.759C34.1484 19.5951 34.4492 19.5951 34.6133 19.759L36.7734 21.9171C37.2383 21.5893 37.8398 21.3707 38.4688 21.3707H41.5312C42.1328 21.3707 42.7344 21.5893 43.1992 21.9171L45.3594 19.759C45.5234 19.5951 45.8242 19.5951 45.9883 19.759C46.1523 19.9229 46.1523 20.2234 45.9883 20.3873L43.8281 22.5454C44.1562 23.0098 44.375 23.5834 44.375 24.2117V24.4302H46.5625C46.7812 24.4302 47 24.6488 47 24.8673C47 25.1132 46.7812 25.3044 46.5625 25.3044H44.375V25.7415C44.375 26.5883 44.1289 27.3532 43.7461 28.0088L45.9883 30.2488C46.1523 30.4127 46.1523 30.7132 45.9883 30.8771C45.8242 31.041 45.5234 31.041 45.3594 30.8771L43.1992 28.719C42.4062 29.5932 41.2578 30.1122 40 30.1122C38.7148 30.1122 37.5664 29.5932 36.7734 28.719L34.6133 30.8771C34.4492 31.041 34.1484 31.041 33.9844 30.8771C33.8203 30.7132 33.8203 30.4127 33.9844 30.2488L36.2266 28.0088C35.8438 27.3532 35.625 26.5883 35.625 25.7415V25.3044H33.4375C33.1914 25.3044 33 25.1132 33 24.8673C33 24.6488 33.1914 24.4302 33.4375 24.4302H35.625V24.2117C35.625 23.6107 35.8164 23.0098 36.1719 22.5454L33.9844 20.3873C33.8203 20.2234 33.8203 19.9229 33.9844 19.759ZM36.5 25.7415C36.5 27.5444 37.8125 29.0195 39.5625 29.2107V23.9932C39.5625 23.7746 39.7539 23.5561 40 23.5561C40.2188 23.5561 40.4375 23.7746 40.4375 23.9932V29.2107C42.1602 29.0195 43.5 27.5444 43.5 25.7415V24.2117C43.5 23.1463 42.5977 22.2449 41.5312 22.2449H38.4688C37.375 22.2449 36.5 23.1463 36.5 24.2117V25.7415Z" fill="white"/>
</svg>
