<svg width="85" height="66" viewBox="0 0 85 66" fill="none" xmlns="http://www.w3.org/2000/svg">
<rect width="85" height="66" rx="10" fill="#E03A3A"/>
<path d="M33.35 10.5312C30.7766 10.5312 28.775 12.6367 28.775 15.125V18.2832C28.2031 18.2832 27.7266 18.1875 27.25 18.1875V15.125C27.25 11.7754 29.9187 9 33.35 9H66.9C70.2359 9 73 11.7754 73 15.125V42.6875C73 46.1328 70.2359 48.8125 66.9 48.8125H44.025C43.8344 48.334 43.5484 47.8555 43.2625 47.2812H66.9C69.3781 47.2812 71.475 45.2715 71.475 42.6875V15.125C71.475 12.6367 69.3781 10.5312 66.9 10.5312H33.35ZM51.65 20.4844C51.65 20.1016 51.9359 19.7188 52.4125 19.7188H61.5625C61.9437 19.7188 62.325 20.1016 62.325 20.4844V29.6719C62.325 30.1504 61.9437 30.4375 61.5625 30.4375C61.0859 30.4375 60.8 30.1504 60.8 29.6719V22.3984L49.0766 34.0742C48.7906 34.3613 48.3141 34.3613 48.0281 34.0742L40.4031 26.418C40.1172 26.1309 40.1172 25.6523 40.4031 25.3652C40.6891 25.0781 41.1656 25.0781 41.4516 25.3652L48.6 32.4473L59.6562 21.25H52.4125C51.9359 21.25 51.65 20.9629 51.65 20.4844ZM24.6766 44.2188C18.4812 44.2188 13.525 49.291 13.525 55.5117C13.525 56.0859 13.9062 56.4688 14.4781 56.4688H39.9266C40.4984 56.4688 40.975 56.0859 40.975 55.5117C40.975 49.291 35.9234 44.2188 29.7281 44.2188H24.6766ZM24.6766 42.6875H29.7281C36.7812 42.6875 42.5 48.4297 42.5 55.5117C42.5 56.9473 41.3562 58 39.9266 58H14.4781C13.0484 58 12 56.9473 12 55.5117C12 48.4297 17.6234 42.6875 24.6766 42.6875ZM19.625 30.4375C19.625 33.2129 21.0547 35.7012 23.4375 37.1367C25.725 38.4766 28.6797 38.4766 31.0625 37.1367C33.35 35.7012 34.875 33.2129 34.875 30.4375C34.875 27.7578 33.35 25.2695 31.0625 23.834C28.6797 22.4941 25.725 22.4941 23.4375 23.834C21.0547 25.2695 19.625 27.7578 19.625 30.4375ZM36.4 30.4375C36.4 33.7871 34.5891 36.7539 31.825 38.4766C28.9656 40.1035 25.4391 40.1035 22.675 38.4766C19.8156 36.7539 18.1 33.7871 18.1 30.4375C18.1 27.1836 19.8156 24.2168 22.675 22.4941C25.4391 20.8672 28.9656 20.8672 31.825 22.4941C34.5891 24.2168 36.4 27.1836 36.4 30.4375Z" fill="white"/>
</svg>
