<svg width="86" height="67" viewBox="0 0 86 67" fill="none" xmlns="http://www.w3.org/2000/svg">
<rect x="0.5" y="0.510986" width="85" height="66" rx="10" fill="#E03A3A"/>
<path d="M65.8333 7.71875H19.1667C16.3542 7.71875 14.1667 10.082 14.1667 12.875V43.8125C14.1667 46.7129 16.3542 48.9688 19.1667 48.9688H65.8333C68.5417 48.9688 70.8333 46.7129 70.8333 43.8125V12.875C70.8333 10.082 68.5417 7.71875 65.8333 7.71875ZM19.1667 50.6875C15.4167 50.6875 12.5 47.6797 12.5 43.8125V12.875C12.5 9.11523 15.4167 6 19.1667 6H65.8333C69.4792 6 72.5 9.11523 72.5 12.875V43.8125C72.5 47.6797 69.4792 50.6875 65.8333 50.6875H49.2708L50.625 59.2812H58.3333C58.75 59.2812 59.1667 59.7109 59.1667 60.1406C59.1667 60.6777 58.75 61 58.3333 61H26.6667C26.1458 61 25.8333 60.6777 25.8333 60.1406C25.8333 59.7109 26.1458 59.2812 26.6667 59.2812H34.2708L35.625 50.6875H19.1667ZM35.9375 59.2812H48.9583L47.6042 50.6875H37.2917L35.9375 59.2812ZM20.8333 14.5938V42.0938H64.1667V14.5938H20.8333ZM19.1667 14.5938C19.1667 13.7344 19.8958 12.875 20.8333 12.875H64.1667C65 12.875 65.8333 13.7344 65.8333 14.5938V42.0938C65.8333 43.0605 65 43.8125 64.1667 43.8125H20.8333C19.8958 43.8125 19.1667 43.0605 19.1667 42.0938V14.5938Z" fill="white"/>
<path d="M42.6432 17.2927C42.7995 17.4136 42.9167 17.615 42.9167 17.8164V24.9062H44.7917C45.1042 24.9062 45.4167 25.2285 45.4167 25.5508C45.4167 25.9133 45.1042 26.1953 44.7917 26.1953H39.7917C39.4401 26.1953 39.1667 25.9133 39.1667 25.5508C39.1667 25.2285 39.4401 24.9062 39.7917 24.9062H41.6667V18.7429L40.612 19.1055C40.2604 19.186 39.9089 19.0249 39.7917 18.6624C39.7135 18.3401 39.8698 17.9775 40.2214 17.8567L42.0964 17.2122C42.2526 17.1719 42.487 17.1719 42.6432 17.2927ZM33.8932 28.8943C34.0495 29.0151 34.1667 29.2166 34.1667 29.418V36.5078H36.0417C36.3542 36.5078 36.6667 36.8301 36.6667 37.1523C36.6667 37.5149 36.3542 37.7969 36.0417 37.7969H31.0417C30.6901 37.7969 30.4167 37.5149 30.4167 37.1523C30.4167 36.8301 30.6901 36.5078 31.0417 36.5078H32.9167V30.3445L31.862 30.707C31.5104 30.7876 31.1589 30.6265 31.0417 30.2639C30.9635 29.9417 31.1198 29.5791 31.4714 29.4583L33.3464 28.8137C33.5026 28.7734 33.737 28.7734 33.8932 28.8943ZM33.5417 17.1719H34.7917C36.5104 17.1719 37.9167 18.6221 37.9167 20.3945V22.9727C37.9167 24.7854 36.5104 26.1953 34.7917 26.1953H33.5417C31.7839 26.1953 30.4167 24.7854 30.4167 22.9727V20.3945C30.4167 18.6221 31.7839 17.1719 33.5417 17.1719ZM31.6667 20.3945V22.9727C31.6667 24.0603 32.487 24.9062 33.5417 24.9062H34.7917C35.8073 24.9062 36.6667 24.0603 36.6667 22.9727V20.3945C36.6667 19.3472 35.8073 18.4609 34.7917 18.4609H33.5417C32.487 18.4609 31.6667 19.3472 31.6667 20.3945ZM37.9167 31.9961C37.9167 30.2236 39.2839 28.7734 41.0417 28.7734H42.2917C44.0104 28.7734 45.4167 30.2236 45.4167 31.9961V34.5742C45.4167 36.387 44.0104 37.7969 42.2917 37.7969H41.0417C39.2839 37.7969 37.9167 36.387 37.9167 34.5742V31.9961ZM41.0417 30.0625C39.987 30.0625 39.1667 30.9487 39.1667 31.9961V34.5742C39.1667 35.6619 39.987 36.5078 41.0417 36.5078H42.2917C43.3073 36.5078 44.1667 35.6619 44.1667 34.5742V31.9961C44.1667 30.9487 43.3073 30.0625 42.2917 30.0625H41.0417ZM51.0417 26.1953C49.987 26.1953 49.1667 27.0815 49.1667 28.1289V30.0625H52.9167V28.1289C52.9167 27.0815 52.0573 26.1953 51.0417 26.1953ZM47.9167 28.1289C47.9167 26.3564 49.2839 24.9062 51.0417 24.9062C52.7604 24.9062 54.1667 26.3564 54.1667 28.1289V30.0625C54.8307 30.0625 55.4167 30.6667 55.4167 31.3516V36.5078C55.4167 37.2329 54.8307 37.7969 54.1667 37.7969H47.9167C47.2135 37.7969 46.6667 37.2329 46.6667 36.5078V31.3516C46.6667 30.6667 47.2135 30.0625 47.9167 30.0625V28.1289ZM47.9167 31.3516V36.5078H54.1667V31.3516H47.9167Z" fill="white"/>
</svg>
