<svg width="86" height="66" viewBox="0 0 86 66" fill="none" xmlns="http://www.w3.org/2000/svg">
<rect x="0.5" width="85" height="66" rx="10" fill="#E03A3A"/>
<path d="M65.8333 7.71875H19.1667C16.3542 7.71875 14.1667 10.082 14.1667 12.875V43.8125C14.1667 46.7129 16.3542 48.9688 19.1667 48.9688H65.8333C68.5417 48.9688 70.8333 46.7129 70.8333 43.8125V12.875C70.8333 10.082 68.5417 7.71875 65.8333 7.71875ZM19.1667 50.6875C15.4167 50.6875 12.5 47.6797 12.5 43.8125V12.875C12.5 9.11523 15.4167 6 19.1667 6H65.8333C69.4792 6 72.5 9.11523 72.5 12.875V43.8125C72.5 47.6797 69.4792 50.6875 65.8333 50.6875H49.2708L50.625 59.2812H58.3333C58.75 59.2812 59.1667 59.7109 59.1667 60.1406C59.1667 60.6777 58.75 61 58.3333 61H26.6667C26.1458 61 25.8333 60.6777 25.8333 60.1406C25.8333 59.7109 26.1458 59.2812 26.6667 59.2812H34.2708L35.625 50.6875H19.1667ZM35.9375 59.2812H48.9583L47.6042 50.6875H37.2917L35.9375 59.2812ZM20.8333 14.5938V42.0938H64.1667V14.5938H20.8333ZM19.1667 14.5938C19.1667 13.7344 19.8958 12.875 20.8333 12.875H64.1667C65 12.875 65.8333 13.7344 65.8333 14.5938V42.0938C65.8333 43.0605 65 43.8125 64.1667 43.8125H20.8333C19.8958 43.8125 19.1667 43.0605 19.1667 42.0938V14.5938Z" fill="white"/>
<path d="M34.1667 20.3945C34.1667 21.1196 34.5182 21.7239 35.1042 22.0864C35.651 22.449 36.3932 22.449 36.9792 22.0864C37.526 21.7239 37.9167 21.1196 37.9167 20.3945C37.9167 19.7097 37.526 19.1055 36.9792 18.7429C36.3932 18.3804 35.651 18.3804 35.1042 18.7429C34.5182 19.1055 34.1667 19.7097 34.1667 20.3945ZM39.1667 20.3945C39.1667 21.5627 38.5417 22.6101 37.6042 23.2144C36.6276 23.7783 35.4167 23.7783 34.4792 23.2144C33.5026 22.6101 32.9167 21.5627 32.9167 20.3945C32.9167 19.2666 33.5026 18.2192 34.4792 17.615C35.4167 17.051 36.6276 17.051 37.6042 17.615C38.5417 18.2192 39.1667 19.2666 39.1667 20.3945ZM42.9167 23.6172C42.0182 23.6172 41.1979 24.1409 40.7292 24.9062C40.2995 25.7119 40.2995 26.719 40.7292 27.4844C41.1979 28.29 42.0182 28.7734 42.9167 28.7734C43.776 28.7734 44.5964 28.29 45.0651 27.4844C45.4948 26.719 45.4948 25.7119 45.0651 24.9062C44.5964 24.1409 43.776 23.6172 42.9167 23.6172ZM42.9167 30.0625C41.5495 30.0625 40.3385 29.3374 39.6354 28.1289C38.9714 26.9607 38.9714 25.4702 39.6354 24.2617C40.3385 23.0935 41.5495 22.3281 42.9167 22.3281C44.2448 22.3281 45.4557 23.0935 46.1589 24.2617C46.8229 25.4702 46.8229 26.9607 46.1589 28.1289C45.4557 29.3374 44.2448 30.0625 42.9167 30.0625ZM40.612 32.6406C38.5026 32.6406 36.7448 34.3728 36.6667 36.5078H49.1276C49.0495 34.3728 47.2917 32.6406 45.1823 32.6406H40.612ZM40.612 31.3516H45.1823C48.0729 31.3516 50.4167 33.7686 50.4167 36.7495C50.4167 37.3538 49.9479 37.7969 49.362 37.7969H36.4323C35.8464 37.7969 35.4167 37.3135 35.4167 36.7495C35.4167 33.7686 37.7214 31.3516 40.612 31.3516ZM50.4167 18.4609C49.7135 18.4609 49.1276 18.8638 48.776 19.4277C48.4245 20.032 48.4245 20.7974 48.776 21.3613C49.1276 21.9656 49.7135 22.3281 50.4167 22.3281C51.0807 22.3281 51.6667 21.9656 52.0182 21.3613C52.3698 20.7974 52.3698 20.032 52.0182 19.4277C51.6667 18.8638 51.0807 18.4609 50.4167 18.4609ZM50.4167 23.6172C49.2839 23.6172 48.2682 23.0129 47.6823 22.0059C47.1354 21.0391 47.1354 19.7903 47.6823 18.7832C48.2682 17.8164 49.2839 17.1719 50.4167 17.1719C51.5104 17.1719 52.526 17.8164 53.112 18.7832C53.6589 19.7903 53.6589 21.0391 53.112 22.0059C52.526 23.0129 51.5104 23.6172 50.4167 23.6172ZM51.0417 26.1953H47.9167C47.9167 25.7522 47.8385 25.3494 47.7604 24.9062H51.0417C53.4245 24.9062 55.4167 26.9607 55.4167 29.418C55.4167 29.7805 55.1042 30.0625 54.7917 30.0625C54.4401 30.0625 54.1667 29.7805 54.1667 29.418C54.1667 27.6455 52.7604 26.1953 51.0417 26.1953ZM37.9167 26.1953H34.7917C33.0339 26.1953 31.6667 27.6455 31.6667 29.418C31.6667 29.7805 31.3542 30.0625 31.0417 30.0625C30.6901 30.0625 30.4167 29.7805 30.4167 29.418C30.4167 26.9607 32.3698 24.9062 34.7917 24.9062H38.0729C37.9557 25.3494 37.9167 25.7522 37.9167 26.1953Z" fill="white"/>
</svg>
