<svg width="85" height="67" viewBox="0 0 85 67" fill="none" xmlns="http://www.w3.org/2000/svg">
<rect y="0.510986" width="85" height="66" rx="10" fill="#E03A3A"/>
<path d="M34.7106 10.4309C30.7368 10.4309 27.2476 12.4952 25.3091 15.6854C23.2738 18.9695 23.2738 23.0042 25.3091 26.1944C27.2476 29.4784 30.7368 31.4489 34.7106 31.4489C38.5875 31.4489 42.0767 29.4784 44.0151 26.1944C46.0505 23.0042 46.0505 18.9695 44.0151 15.6854C42.0767 12.4952 38.5875 10.4309 34.7106 10.4309ZM30.2522 38.9553C21.5292 38.9553 14.5508 45.8049 14.5508 54.2496C14.5508 54.9064 15.1323 55.4694 15.8107 55.4694H53.5135C54.192 55.4694 54.8704 54.9064 54.8704 54.2496C54.8704 54.1558 54.8704 54.0619 54.8704 53.9681C55.3551 53.9681 55.8397 53.9681 56.4212 53.9681C56.4212 54.0619 56.4212 54.1558 56.4212 54.2496C56.4212 55.7509 55.0643 56.9707 53.5135 56.9707H15.8107C14.26 56.9707 13 55.7509 13 54.2496C13 44.9604 20.6569 37.454 30.2522 37.454H39.0721C39.7506 37.454 40.3321 37.5478 40.9136 37.5478C40.9136 38.017 40.9136 38.4861 40.9136 38.9553V39.0491C40.3321 39.0491 39.6536 38.9553 39.0721 38.9553H30.2522ZM47.1167 20.9399C47.1167 25.2561 44.6936 29.1969 40.9136 31.355C37.0367 33.5131 32.2875 33.5131 28.5076 31.355C24.6307 29.1969 22.3045 25.2561 22.3045 20.9399C22.3045 16.7175 24.6307 12.7767 28.5076 10.6186C32.2875 8.46048 37.0367 8.46048 40.9136 10.6186C44.6936 12.7767 47.1167 16.7175 47.1167 20.9399ZM56.4212 28.5401C52.4474 28.5401 48.9582 30.5106 47.0197 33.7946C44.9844 36.9848 44.9844 41.0195 47.0197 44.3036C48.9582 47.4938 52.4474 49.5581 56.4212 49.5581C60.2981 49.5581 63.7873 47.4938 65.7257 44.3036C67.7611 41.0195 67.7611 36.9848 65.7257 33.7946C63.7873 30.5106 60.2981 28.5401 56.4212 28.5401ZM56.4212 51.0594C49.5397 51.0594 44.0151 45.6172 44.0151 39.0491C44.0151 32.3872 49.5397 27.0389 56.4212 27.0389C63.2058 27.0389 68.8273 32.3872 68.8273 39.0491C68.8273 42.0517 67.5673 44.8666 65.7257 46.9308L74.7395 55.7509C75.0303 56.0324 75.0303 56.5015 74.7395 56.783C74.4488 57.0645 73.9641 57.0645 73.6734 56.783L64.5627 48.0568C62.4304 49.8396 59.5227 51.0594 56.4212 51.0594Z" fill="white"/>
<path d="M56.615 28.8216C52.7987 28.8216 49.2853 30.8155 47.3468 33.9823C45.469 37.2077 45.469 41.1368 47.3468 44.3036C49.2853 47.529 52.7987 49.4643 56.615 49.4643C60.3708 49.4643 63.8842 47.529 65.8227 44.3036C67.7005 41.1368 67.7005 37.2077 65.8227 33.9823C63.8842 30.8155 60.3708 28.8216 56.615 28.8216ZM56.615 51.3409C49.6488 51.3409 44.0151 45.887 44.0151 39.1429C44.0151 32.4575 49.6488 26.945 56.615 26.945C63.5208 26.945 69.2149 32.4575 69.2149 39.1429C69.2149 42.1924 68.064 44.9487 66.1861 47.1185L74.7274 55.3873C75.0909 55.7392 75.0909 56.3842 74.7274 56.7361C74.3639 57.088 73.6976 57.088 73.3341 56.7361L64.7929 48.4087C62.6121 50.2853 59.7044 51.3409 56.615 51.3409ZM51.7689 40.0812C51.7689 39.6121 52.193 39.1429 52.7382 39.1429C53.2228 39.1429 53.7074 39.6121 53.7074 40.0812V43.8345C53.7074 44.3622 53.2228 44.7728 52.7382 44.7728C52.193 44.7728 51.7689 44.3622 51.7689 43.8345V40.0812ZM55.6458 34.4514C55.6458 33.9823 56.0699 33.5131 56.615 33.5131C57.0997 33.5131 57.5843 33.9823 57.5843 34.4514V43.8345C57.5843 44.3622 57.0997 44.7728 56.615 44.7728C56.0699 44.7728 55.6458 44.3622 55.6458 43.8345V34.4514ZM59.5227 38.2046C59.5227 37.7355 59.9468 37.2663 60.4919 37.2663C60.9766 37.2663 61.4612 37.7355 61.4612 38.2046V43.8345C61.4612 44.3622 60.9766 44.7728 60.4919 44.7728C59.9468 44.7728 59.5227 44.3622 59.5227 43.8345V38.2046Z" fill="white"/>
</svg>
