<svg width="219" height="169" viewBox="0 0 219 169" fill="none" xmlns="http://www.w3.org/2000/svg">
<path d="M24.4553 35.3241C21.6247 29.1636 18.8709 23.1968 15.9184 16.8068C14.9438 19.0718 14.1773 20.8744 13.4187 22.7165C8.27205 35.1128 3.945 47.8322 1.62499 61.5245C1.37341 63.0765 1.67302 63.8116 3.18028 64.551C16.9175 71.3101 30.9732 77.0334 45.1129 82.4269C45.5597 82.5849 46.0195 82.6211 46.8072 82.7865C43.8417 76.5184 41.0219 70.5981 38.1862 64.599C38.7302 64.3054 39.1052 64.1085 39.4802 63.9115C52.4259 58.0016 65.2947 51.8979 78.3623 46.2175C99.0861 37.1866 120.369 29.4288 142.721 24.3422C154.905 21.5613 167.309 19.6838 180.264 20.5275C188.213 21.0489 195.987 22.7531 203.271 27.4395C204.618 28.3151 205.404 29.4054 205.929 30.8826C208.373 37.9247 209.127 45.0087 208.749 52.0811C208.019 65.6203 204.347 78.0355 199.736 90.0988C192.05 110.258 182.076 128.989 170.822 146.798C160.654 162.894 149.775 178.455 139.203 194.229C138.535 195.218 137.786 196.174 137.074 197.127C138.884 195.264 141.431 192.567 144.383 189.267C152.732 180.02 169.152 160.347 188.071 130.101C196.303 116.925 203.811 103.336 209.44 88.4812C213.371 78.0916 216.446 67.3823 216.52 55.6351C216.561 47.2683 214.727 39.3233 209.208 32.1753C206.701 28.9187 204.223 25.6191 201.687 22.4055C197.663 17.2444 192.774 13.212 187.21 10.129C177.322 4.68809 166.985 2.98934 156.525 2.54876C141.084 1.90418 126.233 4.17799 111.688 7.58836C100.849 10.1193 90.0868 12.8439 79.5635 16.1887C64.2168 21.0432 49.1089 26.5181 33.9161 31.7598C30.8205 32.8619 27.7119 34.0859 24.4553 35.3241Z" stroke="white" stroke-width="3"/>
</svg>
