<svg width="54" height="54" viewBox="0 0 54 54" fill="none" xmlns="http://www.w3.org/2000/svg">
<path d="M10.125 48.9375C7.32906 48.9375 5.0625 46.6709 5.0625 43.875V10.125C5.0625 7.32906 7.32906 5.0625 10.125 5.0625H37.125C38.057 5.0625 38.8125 5.81802 38.8125 6.75C38.8125 7.68198 38.057 8.4375 37.125 8.4375H10.125C9.19302 8.4375 8.4375 9.19302 8.4375 10.125V43.875C8.4375 44.807 9.19302 45.5625 10.125 45.5625H43.875C44.807 45.5625 45.5625 44.807 45.5625 43.875V27C45.5625 26.068 46.318 25.3125 47.25 25.3125C48.182 25.3125 48.9375 26.068 48.9375 27V43.875C48.9375 46.6709 46.6709 48.9375 43.875 48.9375H10.125Z" fill="white"/>
<path d="M28.1932 34.9432L51.8182 11.3182C52.4773 10.6592 52.4773 9.59077 51.8182 8.93176C51.1592 8.27275 50.0908 8.27275 49.4318 8.93176L27 31.3635L18.0682 22.4318C17.4092 21.7727 16.3408 21.7727 15.6818 22.4318C15.0227 23.0908 15.0227 24.1592 15.6818 24.8182L25.8068 34.9432C26.4658 35.6023 27.5342 35.6023 28.1932 34.9432Z" fill="white"/>
</svg>
