<svg width="427" height="40" viewBox="0 0 427 40" fill="none" xmlns="http://www.w3.org/2000/svg">
<path d="M186.712 1.89344V13.3334H185.268V1.89344H181.174V0.610099H190.824V1.89344H186.712ZM195.723 0.518433H197.423C200.585 0.518433 201.554 1.6001 201.554 4.79011V9.31844C201.554 12.3251 200.475 13.4434 197.423 13.4434H195.723C192.671 13.4434 191.593 12.3251 191.593 9.31844V4.79011C191.593 1.6001 192.562 0.518433 195.723 0.518433ZM197.441 1.78344H195.705C193.567 1.78344 193.019 2.31511 193.019 4.79011V9.31844C193.019 11.8484 193.841 12.1601 195.705 12.1601H197.441C199.306 12.1601 200.128 11.8484 200.128 9.31844V4.79011C200.128 2.31511 199.58 1.78344 197.441 1.78344ZM213.745 0.610099V13.3334H212.302V1.87511H204.881V13.3334H203.456V0.610099H213.745ZM214.94 8.05344H219.345V9.33677H214.94V8.05344ZM226.916 0.610099V13.3334H225.49V1.71011L222.237 5.30344L221.342 4.42344L224.851 0.610099H226.916ZM236.815 1.78344C233.708 1.78344 232.886 1.80177 232.886 5.10177V8.84177C232.886 12.1418 233.708 12.1601 236.815 12.1601C239.959 12.1601 240.799 12.1418 240.799 8.84177V5.10177C240.799 1.80177 239.959 1.78344 236.815 1.78344ZM236.852 13.4434C232.904 13.4434 231.442 12.9118 231.442 8.84177V5.10177C231.442 1.03177 232.904 0.518433 236.815 0.518433C240.781 0.518433 242.225 1.03177 242.225 5.10177V8.84177C242.225 12.9118 240.781 13.4434 236.852 13.4434ZM248.47 1.78344C245.363 1.78344 244.541 1.80177 244.541 5.10177V8.84177C244.541 12.1418 245.363 12.1601 248.47 12.1601C251.614 12.1601 252.455 12.1418 252.455 8.84177V5.10177C252.455 1.80177 251.614 1.78344 248.47 1.78344ZM248.507 13.4434C244.559 13.4434 243.097 12.9118 243.097 8.84177V5.10177C243.097 1.03177 244.559 0.518433 248.47 0.518433C252.436 0.518433 253.88 1.03177 253.88 5.10177V8.84177C253.88 12.9118 252.436 13.4434 248.507 13.4434ZM271.645 0.610099V13.3334H270.201V1.87511H262.781V13.3334H261.355V0.610099H271.645ZM277.664 0.518433H279.364C282.526 0.518433 283.494 1.6001 283.494 4.79011V9.31844C283.494 12.3251 282.416 13.4434 279.364 13.4434H277.664C274.612 13.4434 273.534 12.3251 273.534 9.31844V4.79011C273.534 1.6001 274.502 0.518433 277.664 0.518433ZM279.382 1.78344H277.646C275.508 1.78344 274.959 2.31511 274.959 4.79011V9.31844C274.959 11.8484 275.782 12.1601 277.646 12.1601H279.382C281.246 12.1601 282.069 11.8484 282.069 9.31844V4.79011C282.069 2.31511 281.52 1.78344 279.382 1.78344ZM290.66 13.4434H288.632C286.329 13.4434 284.958 11.9768 284.958 9.42844V4.51511C284.958 0.921766 287.17 0.518433 290.24 0.518433H291.428C294.078 0.518433 294.9 1.67342 294.9 4.18509V4.58844H293.457V4.22177C293.457 2.44344 293.091 1.78344 291.227 1.78344H290.404C287.444 1.78344 286.384 2.15011 286.384 4.46011V7.96177C286.384 10.8584 286.512 12.1601 288.906 12.1601H290.605C292.908 12.1601 293.621 11.8484 293.621 10.0334V9.00677H295.065V10.1984C295.065 13.1134 293.201 13.4434 290.66 13.4434ZM301.045 1.89344V13.3334H299.601V1.89344H295.507V0.610099H305.157V1.89344H301.045ZM314.225 10.6384H307.828L306.841 13.3334H305.343L309.948 0.610099H311.977L316.711 13.3334H315.23L314.225 10.6384ZM313.823 9.44677L310.99 1.80177L308.212 9.44677H313.823ZM319.284 7.43011V12.0684H323.835C325.389 12.0684 326.156 11.8668 326.156 9.92344C326.156 8.25511 325.9 7.43011 324 7.43011H319.284ZM324.584 13.3334H317.84V0.610099H324.274C326.65 0.610099 327.216 1.74677 327.216 3.96509C327.216 5.30342 326.942 6.22011 325.626 6.66011V6.67844C327.308 6.99011 327.582 8.21844 327.582 9.79511C327.582 12.0868 326.741 13.3334 324.584 13.3334ZM319.284 1.89344V6.16511H323.47C325.187 6.16511 325.772 5.76177 325.772 3.78177C325.772 2.07677 325.114 1.89344 323.616 1.89344H319.284ZM329.748 13.3334V0.610099H331.174V12.0684H338.046V0.610099H339.489V12.0684H346.361V0.610099H347.805V12.0684H348.957V16.6884H347.513V13.3334H329.748ZM360.474 0.610099V13.3334H359.03V2.42511H358.975L352.067 13.3334H350.184V0.610099H351.61V11.5184H351.665L358.573 0.610099H360.474ZM373.804 13.3334H373.183C371.19 13.3334 371.245 12.0868 371.245 10.4001V9.86844C371.245 8.25511 370.843 7.48511 369.107 7.48511H364.3V13.3334H362.875V0.610099H364.3V6.22011H368.833C370.569 6.22011 370.971 5.45011 370.971 3.83677V3.54344C370.971 1.85677 370.916 0.610099 372.908 0.610099H373.53V1.87511H373.256C372.47 1.87511 372.397 2.31511 372.397 2.81011V4.51511C372.397 5.81677 371.922 6.69677 370.679 6.75177V6.80677C371.958 6.89844 372.671 7.46677 372.671 9.19011V11.1334C372.671 11.6284 372.744 12.0684 373.53 12.0684H373.804V13.3334ZM379.182 0.518433H380.882C384.044 0.518433 385.012 1.6001 385.012 4.79011V9.31844C385.012 12.3251 383.934 13.4434 380.882 13.4434H379.182C376.13 13.4434 375.052 12.3251 375.052 9.31844V4.79011C375.052 1.6001 376.02 0.518433 379.182 0.518433ZM380.9 1.78344H379.164C377.026 1.78344 376.477 2.31511 376.477 4.79011V9.31844C376.477 11.8484 377.3 12.1601 379.164 12.1601H380.9C382.764 12.1601 383.587 11.8484 383.587 9.31844V4.79011C383.587 2.31511 383.038 1.78344 380.9 1.78344ZM388.176 7.43011V12.0684H392.727C394.28 12.0684 395.048 11.8668 395.048 9.92344C395.048 8.25511 394.792 7.43011 392.891 7.43011H388.176ZM393.476 13.3334H386.732V0.610099H393.165C395.541 0.610099 396.108 1.74677 396.108 3.96509C396.108 5.30342 395.834 6.22011 394.518 6.66011V6.67844C396.199 6.99011 396.473 8.21844 396.473 9.79511C396.473 12.0868 395.633 13.3334 393.476 13.3334ZM388.176 1.89344V6.16511H392.361C394.079 6.16511 394.664 5.76177 394.664 3.78177C394.664 2.07677 394.006 1.89344 392.507 1.89344H388.176ZM414.768 0.610099V13.3334H413.324V2.42511H413.269L406.361 13.3334H404.478V0.610099H405.904V11.5184H405.959L412.867 0.610099H414.768ZM421.572 1.89344V13.3334H420.128V1.89344H416.034V0.610099H425.684V1.89344H421.572ZM193.748 38.355H192.304V35H182.618V38.355H181.174V33.735H182.161C183.038 32.91 183.952 32.1584 183.952 28.29V22.2767H192.596V33.735H193.748V38.355ZM191.153 33.735V23.5417H185.377V28.29C185.377 32.03 184.591 33.1117 183.97 33.735H191.153ZM197.812 31.0584C197.812 33.8817 196.697 35 194.321 35H193.992V33.735H194.047C196.295 33.735 196.386 32.4334 196.386 29.225V22.2767H205.287V35H203.843V23.5417H197.812V31.0584ZM215.709 28.0517V23.5417H211.305C209.532 23.5417 209.093 24.1467 209.093 25.76C209.093 27.9234 209.788 28.0517 211.835 28.0517H215.709ZM211.14 29.3167C209.404 29.3167 209.258 29.9034 209.258 31.5167V32.0667C209.258 33.7534 209.313 35 207.321 35H206.699V33.735H206.973C207.759 33.735 207.832 33.295 207.832 32.8V31.1684C207.832 29.445 208.417 28.84 209.569 28.7484V28.6934C208.307 28.5834 207.668 27.4467 207.668 25.5767C207.668 23.9634 208.234 22.2767 210.683 22.2767H217.135V35H215.709V29.3167H211.14ZM235.649 35H235.027C233.035 35 233.09 33.7534 233.09 32.0667V31.5167C233.09 29.9034 232.944 29.3167 231.208 29.3167H226.639V35H225.213V22.2767H231.665C234.114 22.2767 234.68 23.9634 234.68 25.5767C234.68 27.4467 234.04 28.5834 232.779 28.6934V28.7484C233.931 28.84 234.516 29.445 234.516 31.1684V32.8C234.516 33.295 234.589 33.735 235.375 33.735H235.649V35ZM233.255 25.76C233.255 24.1467 232.816 23.5417 231.043 23.5417H226.639V28.0517H230.513C232.56 28.0517 233.255 27.9234 233.255 25.76ZM238.033 23.56V27.8867H244.448V29.06H238.033V33.735H244.74V35H236.589V22.2767H244.74V23.56H238.033ZM250.964 23.56V35H249.52V23.56H245.427V22.2767H255.076V23.56H250.964ZM262.52 32.305H256.123L255.136 35H253.638L258.243 22.2767H260.272L265.005 35H263.525L262.52 32.305ZM262.118 31.1134L259.285 23.4684L256.507 31.1134H262.118ZM267.76 22.2767V35H266.335V22.2767H267.76ZM271.671 22.2767V33.735H278.123V35H270.227V22.2767H271.671ZM286.693 29.0967V33.735H291.243C292.797 33.735 293.565 33.5334 293.565 31.59C293.565 29.9217 293.309 29.0967 291.408 29.0967H286.693ZM291.993 35H285.249V22.2767H291.682C294.058 22.2767 294.625 23.4134 294.625 25.6317C294.625 26.97 294.35 27.8867 293.035 28.3267V28.345C294.716 28.6567 294.99 29.885 294.99 31.4617C294.99 33.7534 294.149 35 291.993 35ZM286.693 23.56V27.8317H290.878C292.596 27.8317 293.181 27.4284 293.181 25.4484C293.181 23.7434 292.523 23.56 291.024 23.56H286.693ZM312.133 33.735V35H303.013V32.855C303.013 29.5367 304.402 29.3167 307.455 29.005C310.141 28.73 310.726 28.84 310.726 26.2C310.726 23.5784 310.159 23.45 307.765 23.45C304.713 23.45 304.439 23.6334 304.439 25.98V26.64H303.013V25.98C303.013 23.1934 303.361 22.185 307.765 22.185C311.128 22.185 312.17 22.9734 312.17 26.2C312.17 29.5734 310.982 30.0134 307.783 30.27C305.097 30.49 304.439 30.7834 304.439 32.635V33.735H312.133ZM319.254 23.45C316.147 23.45 315.325 23.4684 315.325 26.7684V30.5084C315.325 33.8084 316.147 33.8267 319.254 33.8267C322.398 33.8267 323.239 33.8084 323.239 30.5084V26.7684C323.239 23.4684 322.398 23.45 319.254 23.45ZM319.291 35.11C315.343 35.11 313.881 34.5784 313.881 30.5084V26.7684C313.881 22.6984 315.343 22.185 319.254 22.185C323.22 22.185 324.664 22.6984 324.664 26.7684V30.5084C324.664 34.5784 323.22 35.11 319.291 35.11ZM335.442 33.735V35H326.322V32.855C326.322 29.5367 327.711 29.3167 330.763 29.005C333.45 28.73 334.035 28.84 334.035 26.2C334.035 23.5784 333.468 23.45 331.074 23.45C328.022 23.45 327.748 23.6334 327.748 25.98V26.64H326.322V25.98C326.322 23.1934 326.67 22.185 331.074 22.185C334.437 22.185 335.479 22.9734 335.479 26.2C335.479 29.5734 334.291 30.0134 331.092 30.27C328.406 30.49 327.748 30.7834 327.748 32.635V33.735H335.442ZM341.395 29.115V27.85H342.912C344.721 27.85 345.471 27.8867 345.471 25.7417C345.471 23.6334 345.178 23.45 342.181 23.45C339.75 23.45 339.348 23.6517 339.348 25.6317V26.1817H337.904V25.6317C337.904 22.3867 339.421 22.1667 342.364 22.185C345.069 22.185 346.915 22.185 346.915 25.485C346.915 27.1167 346.677 28.3267 344.813 28.455V28.4917C346.75 28.6384 347.171 29.5367 347.171 31.4067C347.171 35.2384 345.27 35.11 342.236 35.11C339.33 35.11 337.74 34.6884 337.74 31.7184V30.875H339.165V31.7184C339.165 33.7167 339.513 33.7717 342.236 33.8267C345.306 33.8817 345.727 33.7717 345.727 31.26C345.727 29.0967 344.721 29.115 342.912 29.115H341.395ZM356.784 23.56V35H355.34V22.2767H363.126V23.56H356.784ZM368.349 22.185H370.049C373.211 22.185 374.179 23.2667 374.179 26.4567V30.985C374.179 33.9917 373.101 35.11 370.049 35.11H368.349C365.297 35.11 364.219 33.9917 364.219 30.985V26.4567C364.219 23.2667 365.188 22.185 368.349 22.185ZM370.067 23.45H368.331C366.193 23.45 365.644 23.9817 365.644 26.4567V30.985C365.644 33.515 366.467 33.8267 368.331 33.8267H370.067C371.932 33.8267 372.754 33.515 372.754 30.985V26.4567C372.754 23.9817 372.206 23.45 370.067 23.45ZM387.523 38.355H386.079V35H376.393V38.355H374.949V33.735H375.936C376.813 32.91 377.727 32.1584 377.727 28.29V22.2767H386.371V33.735H387.523V38.355ZM384.928 33.735V23.5417H379.152V28.29C379.152 32.03 378.366 33.1117 377.745 33.735H384.928ZM392.318 32.36L387.438 22.2767H389.12L393.031 30.655H393.067L396.905 22.2767H398.568L393.341 33.24C392.665 34.67 391.898 35 389.979 35H389.759V33.735H390.07C391.587 33.735 391.879 33.24 392.318 32.36Z" fill="#2D2D2D"/>
<mask id="mask0_984_676" style="mask-type:luminance" maskUnits="userSpaceOnUse" x="0" y="1" width="167" height="34">
<path d="M166.148 1.66663H0V35H166.148V1.66663Z" fill="white"/>
</mask>
<g mask="url(#mask0_984_676)">
<path d="M17.183 1.66663H18.7631C20.6658 1.82624 22.7064 1.94384 24.3353 3.08631C25.2623 3.71216 25.735 4.99114 25.3394 6.07691C24.818 7.57431 23.2926 8.83018 21.7004 8.52986C20.8017 8.26944 20.0512 7.66461 19.3393 7.06606C18.1809 6.08531 17.0634 5.01214 15.688 4.35689C14.6089 3.80246 13.3411 3.83396 12.189 4.09228C10.1341 4.60051 8.51137 6.21551 7.47079 8.05943C6.18678 10.3948 5.51941 13.0956 5.58028 15.7816C5.57622 19.0263 6.45655 22.3046 8.23957 24.9886C10.0408 27.702 12.8259 29.7455 15.9558 30.4155C18.1729 30.9383 20.5726 30.8145 22.6558 29.8336C23.5787 29.4136 24.4407 28.8613 25.2603 28.2565C25.6964 28.5211 26.1405 28.769 26.6051 28.9748C24.5219 31.4193 21.822 33.3366 18.7935 34.2818C15.615 35.2668 12.0977 35.21 9.01036 33.9038C5.64112 32.5008 2.92708 29.6341 1.4544 26.2215C0.557823 24.2346 0.133876 22.0548 0 19.8726V18.4068C0.137937 16.376 0.539565 14.3515 1.34486 12.4865C2.7526 9.13473 5.24353 6.31843 8.26388 4.44306C10.9455 2.74404 14.051 1.83464 17.183 1.66663Z" fill="black"/>
<path d="M50.1657 1.66663H50.184C50.4415 1.75904 50.693 1.85774 50.9486 1.95224C50.7539 3.70376 50.5977 5.46156 50.3948 7.21308C53.3077 5.02054 56.3687 2.79229 59.9488 1.98374C60.6323 1.81784 61.3302 1.74643 62.026 1.66663H63.2937C64.6264 1.78424 65.9896 1.99004 67.1842 2.64949C68.5981 3.36354 69.7037 4.64041 70.3304 6.12101C71.2452 8.21484 71.3994 10.5544 71.4157 12.8204C71.4157 17.3483 71.4177 21.8741 71.4157 26.402C71.4075 27.347 71.4278 28.2963 71.515 29.2371C71.6347 30.0058 71.728 30.8333 72.2168 31.4591C72.6693 32.0681 73.3731 32.4041 74.0709 32.6016C74.9795 32.8556 75.9047 33.051 76.8397 33.1498C76.858 33.513 76.862 33.8763 76.862 34.2396H60.6141C60.6242 33.8826 60.5675 33.511 60.6588 33.1603C62.0522 32.9103 63.5655 32.757 64.746 31.875C65.8637 30.9635 65.9205 29.3716 66.024 28.0233C66.091 24.8395 66.0483 21.6515 66.0606 18.4656C66.0423 16.3108 66.1436 14.1393 65.7725 12.0077C65.4885 10.3864 64.9367 8.73149 63.7785 7.54911C62.2491 5.89211 59.9143 5.37758 57.7743 5.43848C56.6667 5.39438 55.5552 5.57288 54.5085 5.94881C53.1049 6.47804 51.8654 7.38739 50.7761 8.43118C50.6219 8.54668 50.6889 8.75879 50.6706 8.92259C50.6829 15.2398 50.6646 21.557 50.6788 27.8763C50.7457 28.9411 50.768 30.05 51.2123 31.0328C51.5916 31.8476 52.407 32.3223 53.2143 32.568C54.1596 32.8431 55.1272 33.0448 56.105 33.154C56.109 33.5151 56.109 33.8785 56.109 34.2398C50.697 34.2398 45.2811 34.2398 39.8672 34.2418C39.8793 33.8785 39.8815 33.5151 39.8894 33.1518C40.8632 33.0426 41.8287 32.8326 42.768 32.5345C43.6502 32.2446 44.4941 31.6545 44.8348 30.7283C45.3725 29.1658 45.2589 27.4815 45.3238 25.8518V11.4764C45.3055 10.525 45.3157 9.53583 44.906 8.66008C44.2588 7.32859 43.0418 6.43603 41.916 5.56658C41.914 5.32506 41.912 5.08564 41.9078 4.84623C44.6564 3.77516 47.4191 2.74399 50.1657 1.66663Z" fill="black"/>
<path d="M89.6389 1.66663H91.0608C91.9371 1.76324 92.8175 1.85564 93.6674 2.10136C95.9576 2.69569 98.0366 4.16999 99.3186 6.23023C100.446 8.00694 100.97 10.1302 101.067 12.2387C94.3469 12.2282 87.6267 12.245 80.9084 12.2303C80.7603 13.4043 80.6995 14.5909 80.6244 15.7733C80.3182 19.1503 81.2086 22.6533 83.1701 25.3835C84.9105 27.8511 87.578 29.588 90.4807 30.1361C92.3894 30.4826 94.4057 30.47 96.2435 29.7748C98.2233 29.0525 99.8338 27.534 101.067 25.8098C101.42 26.0745 101.773 26.3411 102.122 26.6163C100.276 29.8378 97.5154 32.5638 94.1339 33.9751C89.6105 35.8863 84.1458 34.9411 80.3669 31.77C78.3221 30.092 76.7764 27.805 75.8312 25.2953C74.7744 22.5503 74.4904 19.522 74.8353 16.6006C75.3526 11.7557 77.8273 7.06814 81.7665 4.32329C84.0748 2.67049 86.8518 1.82834 89.6389 1.66663ZM87.0485 3.37194C85.0911 3.76256 83.5373 5.29566 82.5536 7.02408C81.8903 8.23164 81.3203 9.53584 81.1275 10.9177C82.6611 10.7476 84.2047 10.819 85.7403 10.6888C88.6552 10.5796 91.5681 10.4536 94.4808 10.3045C94.0103 8.18754 93.1988 6.02441 91.5781 4.56481C90.361 3.45174 88.6328 2.99811 87.0485 3.37194Z" fill="black"/>
<path d="M155.841 1.66663H157.026C159.525 1.83463 162.067 2.53818 164.119 4.05868C164.198 6.18401 164.243 8.31564 164.353 10.441C163.839 10.5523 163.32 10.6384 162.807 10.7497C162.174 8.60128 161.405 6.36253 159.799 4.77481C158.093 3.09051 155.137 2.87839 153.32 4.48079C152.176 5.50356 151.667 7.12696 151.758 8.66216C151.746 10.3024 152.729 11.741 153.896 12.7637C155.837 14.4396 158.182 15.4834 160.346 16.8045C162.101 17.8755 163.868 19.0936 165.008 20.8871C165.987 22.4118 166.314 24.3208 166.071 26.1226C165.85 28.2333 164.821 30.2138 163.314 31.6418C161.081 33.7925 158.016 34.8488 155.001 34.9558C151.878 35.0336 148.683 34.2061 146.117 32.316C145.952 30.4133 145.873 28.5043 145.699 26.6015C145.61 25.8433 145.667 25.0705 145.521 24.3166C146.07 24.199 146.622 24.0666 147.186 24.0393C147.671 26.5448 148.683 29.0146 150.391 30.8941C151.685 32.2825 153.527 33.1308 155.401 33.091C156.799 33.1288 158.217 32.5826 159.212 31.56C161.154 29.5628 161.355 25.9988 159.578 23.8251C158.567 22.5461 157.166 21.6851 155.776 20.9143C153.577 19.6836 151.216 18.684 149.293 16.9935C148.011 15.8971 147.015 14.4081 146.628 12.7217C146.206 10.8232 146.312 8.75036 147.149 6.98413C147.934 5.29353 149.31 3.95574 150.896 3.07788C152.413 2.22103 154.123 1.79893 155.841 1.66663Z" fill="black"/>
<path d="M97.7864 2.37237C102.685 2.38077 107.586 2.38077 112.487 2.37237C112.48 2.73151 112.48 3.09062 112.485 3.44974C111.572 3.51066 110.626 3.54846 109.77 3.92437C109.217 4.12809 108.73 4.57542 108.578 5.17816C108.462 5.86489 108.555 6.57474 108.768 7.23209C109.237 8.73999 109.839 10.1975 110.387 11.6739C112.306 16.7731 114.259 21.8555 116.16 26.9608C118.343 21.721 120.462 16.4476 122.623 11.1972C122.769 10.8695 122.552 10.544 122.454 10.2395C121.771 8.56149 121.304 6.74697 120.249 5.26217C119.357 4.00629 117.775 3.70387 116.383 3.44976C116.387 3.09064 116.387 2.73361 116.389 2.37449C121.347 2.37449 126.308 2.39129 131.268 2.36609C131.268 2.72521 131.268 3.08642 131.27 3.44766C130.199 3.53166 129.095 3.60727 128.108 4.08819C127.473 4.40322 126.97 5.07316 127.004 5.82711C127.032 6.82257 127.426 7.75714 127.755 8.67699C129.953 14.7737 132.209 20.8473 134.383 26.9503C135.288 25.033 136.085 23.063 136.931 21.1161C138.335 17.7833 139.718 14.4355 140.895 11.0081C141.366 9.52962 141.856 8.04274 142.053 6.49494C142.181 5.66327 141.946 4.70562 141.244 4.21419C140.335 3.61354 139.225 3.61354 138.197 3.45394C138.201 3.09271 138.199 2.73359 138.197 2.37237C142.116 2.38707 146.035 2.36817 149.954 2.38077C149.95 2.73359 149.95 3.08642 149.952 3.43924C148.771 3.56526 147.566 3.89077 146.631 4.68462C145.179 5.87961 144.445 7.69832 143.676 9.38892C139.966 17.9156 136.298 26.4631 132.58 34.9833C132.284 34.975 131.99 34.9791 131.696 35.0001H131.639C128.88 27.6875 126.103 20.3811 123.355 13.0642C120.416 20.3621 117.543 27.6916 114.626 35.0001H114.574C114.249 34.975 113.925 34.9708 113.6 34.975C110.123 26.0451 106.655 17.1133 103.16 8.18977C102.646 6.95489 102.119 5.66121 101.137 4.73716C100.228 3.86979 98.983 3.53797 97.7803 3.44136C97.7863 3.08434 97.7864 2.72939 97.7864 2.37237Z" fill="black"/>
<path d="M25.4243 11.4724C26.7936 10.3089 28.471 9.51296 30.2459 9.34916C32.8201 9.05514 35.4955 10.0548 37.311 11.9638C38.9155 13.6334 39.8548 15.973 39.8222 18.3335C39.8425 20.3665 39.1446 22.3931 37.9093 23.9703C36.5969 25.6671 34.67 26.8516 32.5969 27.1981C30.542 27.551 28.3595 27.1583 26.5867 26.0116C24.3452 24.6108 22.7773 22.1096 22.4931 19.4151C22.1647 16.9096 22.9577 14.3097 24.5419 12.3986C24.0652 13.1861 23.7976 14.1081 23.9192 15.0427C24.0875 16.6703 25.4182 18.0795 26.9841 18.2936C28.8362 18.6276 30.7409 17.2205 31.0755 15.3178C31.2237 14.4609 31.1202 13.539 30.6962 12.7766C30.0594 11.5564 28.7307 10.7479 27.3839 10.834C26.6779 10.8235 26.0308 11.1364 25.4243 11.4724Z" fill="#005DA3"/>
</g>
</svg>
