<svg width="18" height="16" viewBox="0 0 18 16" fill="none" xmlns="http://www.w3.org/2000/svg">
<path d="M8.99707 1.5C6.65332 1.5 4.52832 2.75 3.34082 4.75C2.18457 6.78125 2.18457 9.25 3.34082 11.25C4.52832 13.2812 6.65332 14.5 8.99707 14.5C11.3096 14.5 13.4346 13.2812 14.6221 11.25C15.7783 9.25 15.7783 6.78125 14.6221 4.75C13.4346 2.75 11.3096 1.5 8.99707 1.5ZM8.99707 16C6.12207 16 3.49707 14.5 2.05957 12C0.62207 9.53125 0.62207 6.5 2.05957 4C3.49707 1.53125 6.12207 0 8.99707 0C11.8408 0 14.4658 1.53125 15.9033 4C17.3408 6.5 17.3408 9.53125 15.9033 12C14.4658 14.5 11.8408 16 8.99707 16ZM8.99707 4C9.40332 4 9.74707 4.34375 9.74707 4.75V8.25C9.74707 8.6875 9.40332 9 8.99707 9C8.55957 9 8.24707 8.6875 8.24707 8.25V4.75C8.24707 4.34375 8.55957 4 8.99707 4ZM9.99707 11C9.99707 11.5625 9.52832 12 8.99707 12C8.43457 12 7.99707 11.5625 7.99707 11C7.99707 10.4688 8.43457 10 8.99707 10C9.52832 10 9.99707 10.4688 9.99707 11Z" fill="#2D2D2D"/>
</svg>
