<svg width="388" height="56" viewBox="0 0 388 56" fill="none" xmlns="http://www.w3.org/2000/svg">
<g clip-path="url(#clip0_984_2353)">
<mask id="mask0_984_2353" style="mask-type:luminance" maskUnits="userSpaceOnUse" x="0" y="5" width="51" height="53">
<path d="M50.3896 5H0V57.6061H50.3896V5Z" fill="white"/>
</mask>
<g mask="url(#mask0_984_2353)">
<path d="M20.8494 45.4731L27.3112 38.9094L20.8494 32.3458L14.3877 38.9094L20.8494 45.4731Z" fill="#2D2D2D"/>
<path d="M20.8912 17.3495L25.7793 12.3843L20.8912 7.41907L16.0029 12.3843L20.8912 17.3495Z" fill="#2D2D2D"/>
<path d="M7.85821 45.4283L14.32 38.8647L7.85821 32.301L1.39648 38.8647L7.85821 45.4283Z" fill="#2D2D2D"/>
<path d="M7.85821 18.948L14.32 12.3843L7.85821 5.82068L1.39648 12.3843L7.85821 18.948Z" fill="#2D2D2D"/>
<path d="M20.8472 56.7862L25.3458 52.2166L20.8472 47.647L16.3486 52.2166L20.8472 56.7862Z" fill="#2D2D2D"/>
<path d="M20.8492 30.6542L25.7366 25.6899L20.8492 20.7255L15.9619 25.6899L20.8492 30.6542Z" fill="#2D2D2D"/>
<path d="M7.85667 56.5715L12.2563 52.1024L7.85667 47.6334L3.45703 52.1024L7.85667 56.5715Z" fill="#2D2D2D"/>
<path d="M7.85821 32.1873L14.32 25.6236L7.85821 19.0601L1.39648 25.6236L7.85821 32.1873Z" fill="#2D2D2D"/>
<path d="M33.84 40.611L35.4697 38.9558L33.84 37.3004L32.2104 38.9558L33.84 40.611Z" fill="#2D2D2D"/>
<path d="M33.838 15.7858L37.0968 12.4755L33.838 9.16528L30.5791 12.4755L33.838 15.7858Z" fill="#2D2D2D"/>
<path d="M46.9069 40.611L48.5365 38.9558L46.9069 37.3004L45.2773 38.9558L46.9069 40.611Z" fill="#2D2D2D"/>
<path d="M40.3882 47.1953L42.0178 45.5399L40.3882 43.8846L38.7588 45.5399L40.3882 47.1953Z" fill="#2D2D2D"/>
<path d="M28.9846 47.1953L30.6142 45.5399L28.9846 43.8846L27.355 45.5399L28.9846 47.1953Z" fill="#2D2D2D"/>
<path d="M46.9104 15.7501L50.1344 12.4754L46.9104 9.20068L43.6865 12.4754L46.9104 15.7501Z" fill="#2D2D2D"/>
<path d="M33.84 53.8157L35.4697 52.1605L33.84 50.5052L32.2104 52.1605L33.84 53.8157Z" fill="#2D2D2D"/>
<path d="M33.836 29.0258L37.1298 25.6799L33.836 22.3341L30.542 25.6799L33.836 29.0258Z" fill="#2D2D2D"/>
<path d="M46.9069 53.8157L48.5365 52.1605L46.9069 50.5052L45.2773 52.1605L46.9069 53.8157Z" fill="#2D2D2D"/>
<path d="M46.9078 28.9902L50.1667 25.6799L46.9078 22.3696L43.6489 25.6799L46.9078 28.9902Z" fill="#2D2D2D"/>
<path d="M40.3897 22.3698L43.6486 19.0597L40.3897 15.7494L37.1309 19.0597L40.3897 22.3698Z" fill="#2D2D2D"/>
<path d="M40.3897 35.6108L43.6486 32.3005L40.3897 28.9902L37.1309 32.3005L40.3897 35.6108Z" fill="#2D2D2D"/>
<path d="M28.983 35.6108L32.2418 32.3005L28.983 28.9902L25.7241 32.3005L28.983 35.6108Z" fill="#2D2D2D"/>
<path d="M27.3555 22.3698L30.6144 19.0597L27.3555 15.7494L24.0967 19.0597L27.3555 22.3698Z" fill="#2D2D2D"/>
</g>
<path d="M69.9072 21.1095V26.2614H74.9261C76.6393 26.2614 77.4858 26.0374 77.4858 23.8789C77.4858 22.0258 77.2037 21.1095 75.1075 21.1095H69.9072ZM75.7525 27.6665H68.3149V13.5342H75.4098C78.0301 13.5342 78.6549 14.7967 78.6549 17.2607C78.6549 18.7473 78.3526 19.7655 76.9013 20.2542V20.2745C78.7557 20.6207 79.058 21.9851 79.058 23.7364C79.058 26.2817 78.1308 27.6665 75.7525 27.6665ZM69.9072 14.9596V19.7044H74.5229C76.4176 19.7044 77.0626 19.2564 77.0626 17.0571C77.0626 15.1633 76.337 14.9596 74.6842 14.9596H69.9072ZM92.0706 13.5342L87.596 20.356L92.4133 27.6665H90.5388L86.2859 21.1705L81.9524 27.6665H79.9973L84.9959 20.356L80.4205 13.5342H82.3152L86.2859 19.5822L90.1961 13.5342H92.0706ZM97.6037 13.4324H99.4782C102.965 13.4324 104.033 14.6338 104.033 18.1771V23.2069C104.033 26.5465 102.844 27.7886 99.4782 27.7886H97.6037C94.2377 27.7886 93.0485 26.5465 93.0485 23.2069V18.1771C93.0485 14.6338 94.1168 13.4324 97.6037 13.4324ZM99.4984 14.8375H97.5836C95.2253 14.8375 94.6207 15.428 94.6207 18.1771V23.2069C94.6207 26.017 95.5277 26.3632 97.5836 26.3632H99.4984C101.554 26.3632 102.461 26.017 102.461 23.2069V18.1771C102.461 15.428 101.857 14.8375 99.4984 14.8375ZM118.749 31.393H117.157V27.6665H106.474V31.393H104.882V26.2614H105.97C106.938 25.3451 107.946 24.5102 107.946 20.2135V13.5342H117.479V26.2614H118.749V31.393ZM115.887 26.2614V14.9393H109.518V20.2135C109.518 24.3676 108.651 25.5691 107.966 26.2614H115.887ZM131.474 13.5342V27.6665H129.882V15.5502H129.822L122.203 27.6665H120.127V13.5342H121.699V25.6505H121.759L129.378 13.5342H131.474ZM138.979 14.9596V27.6665H137.387V14.9596H132.872V13.5342H143.514V14.9596H138.979ZM152.755 21.1095V26.2614H157.774C159.487 26.2614 160.333 26.0374 160.333 23.8789C160.333 22.0258 160.051 21.1095 157.955 21.1095H152.755ZM158.6 27.6665H151.163V13.5342H158.257C160.878 13.5342 161.502 14.7967 161.502 17.2607C161.502 18.7473 161.2 19.7655 159.749 20.2542V20.2745C161.603 20.6207 161.906 21.9851 161.906 23.7364C161.906 26.2817 160.978 27.6665 158.6 27.6665ZM152.755 14.9596V19.7044H157.371C159.265 19.7044 159.91 19.2564 159.91 17.0571C159.91 15.1633 159.185 14.9596 157.532 14.9596H152.755ZM170.51 27.6665V13.5342H177.625C180.326 13.5342 180.951 15.3873 180.951 17.8105C180.951 19.0731 180.951 22.1684 177.544 22.1684H172.082V27.6665H170.51ZM176.94 14.9393H172.082V20.7633H176.194C178.29 20.7633 179.379 20.7633 179.379 18.0142C179.379 15.3058 178.895 14.9393 176.94 14.9393ZM184.082 14.9596V19.7655H191.156V21.0687H184.082V26.2614H191.479V27.6665H182.489V13.5342H191.479V14.9596H184.082ZM194.514 14.9596V19.7655H201.589V21.0687H194.514V26.2614H201.911V27.6665H192.922V13.5342H201.911V14.9596H194.514ZM209.723 27.7886H207.486C204.946 27.7886 203.435 26.1595 203.435 23.3291V17.8716C203.435 13.8804 205.873 13.4324 209.26 13.4324H210.57C213.492 13.4324 214.399 14.7153 214.399 17.5051V17.9531H212.807V17.5458C212.807 15.5705 212.404 14.8375 210.348 14.8375H209.441C206.176 14.8375 205.007 15.2447 205.007 17.8105V21.7C205.007 24.9175 205.148 26.3632 207.788 26.3632H209.663C212.202 26.3632 212.988 26.017 212.988 24.0011V22.8607H214.581V24.1844C214.581 27.4221 212.525 27.7886 209.723 27.7886ZM221.177 14.9596V27.6665H219.584V14.9596H215.069V13.5342H225.712V14.9596H221.177ZM226.904 27.6665V13.5342H234.019C236.72 13.5342 237.345 15.3873 237.345 17.8105C237.345 19.0731 237.345 22.1684 233.939 22.1684H228.476V27.6665H226.904ZM233.334 14.9393H228.476V20.7633H232.588C234.684 20.7633 235.773 20.7633 235.773 18.0142C235.773 15.3058 235.289 14.9393 233.334 14.9393ZM244.462 27.6665V13.5342H251.577C254.278 13.5342 254.902 15.3873 254.902 17.8105C254.902 19.0731 254.902 22.1684 251.496 22.1684H246.034V27.6665H244.462ZM250.891 14.9393H246.034V20.7633H250.146C252.242 20.7633 253.33 20.7633 253.33 18.0142C253.33 15.3058 252.847 14.9393 250.891 14.9393ZM260.996 13.4324H262.871C266.358 13.4324 267.426 14.6338 267.426 18.1771V23.2069C267.426 26.5465 266.237 27.7886 262.871 27.7886H260.996C257.63 27.7886 256.441 26.5465 256.441 23.2069V18.1771C256.441 14.6338 257.509 13.4324 260.996 13.4324ZM262.891 14.8375H260.976C258.618 14.8375 258.013 15.428 258.013 18.1771V23.2069C258.013 26.017 258.92 26.3632 260.976 26.3632H262.891C264.947 26.3632 265.854 26.017 265.854 23.2069V18.1771C265.854 15.428 265.249 14.8375 262.891 14.8375ZM275.329 27.7886H273.091C270.552 27.7886 269.04 26.1595 269.04 23.3291V17.8716C269.04 13.8804 271.479 13.4324 274.865 13.4324H276.175C279.098 13.4324 280.005 14.7153 280.005 17.5051V17.9531H278.413V17.5458C278.413 15.5705 278.009 14.8375 275.954 14.8375H275.047C271.781 14.8375 270.612 15.2447 270.612 17.8105V21.7C270.612 24.9175 270.753 26.3632 273.394 26.3632H275.268C277.808 26.3632 278.594 26.017 278.594 24.0011V22.8607H280.186V24.1844C280.186 27.4221 278.13 27.7886 275.329 27.7886ZM287.73 27.7886H285.492C282.953 27.7886 281.441 26.1595 281.441 23.3291V17.8716C281.441 13.8804 283.88 13.4324 287.266 13.4324H288.576C291.499 13.4324 292.406 14.7153 292.406 17.5051V17.9531H290.813V17.5458C290.813 15.5705 290.41 14.8375 288.354 14.8375H287.447C284.182 14.8375 283.013 15.2447 283.013 17.8105V21.7C283.013 24.9175 283.154 26.3632 285.795 26.3632H287.669C290.209 26.3632 290.995 26.017 290.995 24.0011V22.8607H292.587V24.1844C292.587 27.4221 290.531 27.7886 287.73 27.7886ZM305.673 13.5342V27.6665H304.081V15.5502H304.021L296.402 27.6665H294.324V13.5342H295.898V25.6505H295.957L303.577 13.5342H305.673ZM319.668 13.5342V27.6665H318.076V15.5502H318.015L310.397 27.6665H308.32V13.5342H309.893V25.6505H309.953L317.572 13.5342H319.668ZM317.189 10.948C316.746 12.5567 315.738 12.7807 314.085 12.7807C312.392 12.7807 311.465 12.5364 311.082 10.948H312.614C312.835 11.5996 313.218 11.6607 314.105 11.6607C315.032 11.6607 315.375 11.5996 315.597 10.948H317.189ZM328.12 27.7886H325.883C323.343 27.7886 321.832 26.1595 321.832 23.3291V17.8716C321.832 13.8804 324.27 13.4324 327.657 13.4324H328.967C331.889 13.4324 332.796 14.7153 332.796 17.5051V17.9531H331.204V17.5458C331.204 15.5705 330.801 14.8375 328.745 14.8375H327.838C324.573 14.8375 323.404 15.2447 323.404 17.8105V21.7C323.404 24.9175 323.545 26.3632 326.185 26.3632H328.06C330.599 26.3632 331.385 26.017 331.385 24.0011V22.8607H332.978V24.1844C332.978 27.4221 330.922 27.7886 328.12 27.7886ZM346.768 27.6665H346.082C343.885 27.6665 343.946 26.2817 343.946 24.4084V23.8178C343.946 22.0258 343.503 21.1705 341.588 21.1705H336.287V27.6665H334.715V13.5342H336.287V19.7655H341.285C343.2 19.7655 343.644 18.9102 343.644 17.1182V16.7924C343.644 14.9189 343.583 13.5342 345.78 13.5342H346.465V14.9393H346.163C345.296 14.9393 345.216 15.428 345.216 15.9778V17.8716C345.216 19.3175 344.692 20.2949 343.321 20.356V20.4171C344.732 20.5189 345.518 21.1502 345.518 23.0644V25.2229C345.518 25.7727 345.599 26.2614 346.465 26.2614H346.768V27.6665ZM352.7 13.4324H354.575C358.062 13.4324 359.13 14.6338 359.13 18.1771V23.2069C359.13 26.5465 357.941 27.7886 354.575 27.7886H352.7C349.334 27.7886 348.145 26.5465 348.145 23.2069V18.1771C348.145 14.6338 349.213 13.4324 352.7 13.4324ZM354.595 14.8375H352.68C350.322 14.8375 349.717 15.428 349.717 18.1771V23.2069C349.717 26.017 350.624 26.3632 352.68 26.3632H354.595C356.651 26.3632 357.558 26.017 357.558 23.2069V18.1771C357.558 15.428 356.953 14.8375 354.595 14.8375ZM362.701 14.9596V27.6665H361.109V13.5342H369.695V14.9596H362.701ZM375.455 13.4324H377.329C380.816 13.4324 381.884 14.6338 381.884 18.1771V23.2069C381.884 26.5465 380.695 27.7886 377.329 27.7886H375.455C372.089 27.7886 370.899 26.5465 370.899 23.2069V18.1771C370.899 14.6338 371.968 13.4324 375.455 13.4324ZM377.349 14.8375H375.434C373.076 14.8375 372.472 15.428 372.472 18.1771V23.2069C372.472 26.017 373.379 26.3632 375.434 26.3632H377.349C379.405 26.3632 380.312 26.017 380.312 23.2069V18.1771C380.312 15.428 379.707 14.8375 377.349 14.8375ZM79.8642 37.2918V51.424H78.2719V38.6968H70.0887V51.424H68.5165V37.2918H79.8642ZM82.2897 51.424V37.2918H89.4047C92.1056 37.2918 92.7304 39.1448 92.7304 41.568C92.7304 42.8306 92.7304 45.9259 89.324 45.9259H83.8618V51.424H82.2897ZM88.7194 38.6968H83.8618V44.5208H87.9736C90.0698 44.5208 91.1582 44.5208 91.1582 41.7717C91.1582 39.0633 90.6745 38.6968 88.7194 38.6968ZM98.8242 37.1899H100.699C104.186 37.1899 105.254 38.3913 105.254 41.9346V46.9644C105.254 50.304 104.065 51.5462 100.699 51.5462H98.8242C95.4581 51.5462 94.269 50.304 94.269 46.9644V41.9346C94.269 38.3913 95.3372 37.1899 98.8242 37.1899ZM100.719 38.5949H98.804C96.4458 38.5949 95.8411 39.1855 95.8411 41.9346V46.9644C95.8411 49.7746 96.7481 50.1208 98.804 50.1208H100.719C102.775 50.1208 103.682 49.7746 103.682 46.9644V41.9346C103.682 39.1855 103.077 38.5949 100.719 38.5949ZM108.823 38.7171V51.424H107.231V37.2918H115.817V38.7171H108.823ZM117.366 51.424V37.2918H124.481C127.181 37.2918 127.806 39.1448 127.806 41.568C127.806 42.8306 127.806 45.9259 124.4 45.9259H118.938V51.424H117.366ZM123.795 38.6968H118.938V44.5208H123.049C125.146 44.5208 126.234 44.5208 126.234 41.7717C126.234 39.0633 125.75 38.6968 123.795 38.6968ZM138.496 48.4306H131.441L130.353 51.424H128.7L133.779 37.2918H136.016L141.237 51.424H139.604L138.496 48.4306ZM138.052 47.1069L134.928 38.6153L131.864 47.1069H138.052ZM156.41 38.4931L151.149 51.424H149.577L144.276 38.4931H144.236V51.424H142.664V37.2918H145.405L150.343 49.3877L155.301 37.2918H158.043V51.424H156.45V38.4931H156.41ZM174.4 38.4931L169.139 51.424H167.568L162.267 38.4931H162.226V51.424H160.654V37.2918H163.395L168.333 49.3877L173.291 37.2918H176.033V51.424H174.44V38.4931H174.4ZM190.012 37.2918V51.424H188.42V44.928H180.237V51.424H178.665V37.2918H180.237V43.5229H188.42V37.2918H190.012ZM196.65 37.1899H198.525C202.012 37.1899 203.08 38.3913 203.08 41.9346V46.9644C203.08 50.304 201.891 51.5462 198.525 51.5462H196.65C193.284 51.5462 192.095 50.304 192.095 46.9644V41.9346C192.095 38.3913 193.163 37.1899 196.65 37.1899ZM198.545 38.5949H196.63C194.272 38.5949 193.667 39.1855 193.667 41.9346V46.9644C193.667 49.7746 194.574 50.1208 196.63 50.1208H198.545C200.601 50.1208 201.508 49.7746 201.508 46.9644V41.9346C201.508 39.1855 200.903 38.5949 198.545 38.5949ZM206.649 38.7171V51.424H205.057V37.2918H213.643V38.7171H206.649ZM219.405 37.1899H221.279C224.766 37.1899 225.834 38.3913 225.834 41.9346V46.9644C225.834 50.304 224.645 51.5462 221.279 51.5462H219.405C216.039 51.5462 214.849 50.304 214.849 46.9644V41.9346C214.849 38.3913 215.918 37.1899 219.405 37.1899ZM221.299 38.5949H219.385C217.026 38.5949 216.422 39.1855 216.422 41.9346V46.9644C216.422 49.7746 217.329 50.1208 219.385 50.1208H221.299C223.355 50.1208 224.262 49.7746 224.262 46.9644V41.9346C224.262 39.1855 223.658 38.5949 221.299 38.5949ZM238.36 37.1899H240.234C243.721 37.1899 244.789 38.3913 244.789 41.9346V46.9644C244.789 50.304 243.6 51.5462 240.234 51.5462H238.36C234.994 51.5462 233.804 50.304 233.804 46.9644V41.9346C233.804 38.3913 234.873 37.1899 238.36 37.1899ZM240.254 38.5949H238.339C235.981 38.5949 235.376 39.1855 235.376 41.9346V46.9644C235.376 49.7746 236.283 50.1208 238.339 50.1208H240.254C242.31 50.1208 243.217 49.7746 243.217 46.9644V41.9346C243.217 39.1855 242.612 38.5949 240.254 38.5949ZM248.278 44.8669V50.0189H253.297C255.01 50.0189 255.857 49.7949 255.857 47.6364C255.857 45.7833 255.574 44.8669 253.478 44.8669H248.278ZM257.429 47.4939C257.429 50.0393 256.501 51.424 254.123 51.424H246.686V37.2918H256.28V38.7171H248.278V43.4619H253.619C256.582 43.4619 257.429 44.6837 257.429 47.4939ZM260.848 38.7171V43.5229H267.923V44.8262H260.848V50.0189H268.246V51.424H259.256V37.2918H268.246V38.7171H260.848ZM276.056 51.5462H273.819C271.279 51.5462 269.767 49.9171 269.767 47.0866V41.6291C269.767 37.6379 272.206 37.1899 275.592 37.1899H276.903C279.825 37.1899 280.732 38.4728 280.732 41.2626V41.7106H279.14V41.3033C279.14 39.328 278.737 38.5949 276.681 38.5949H275.774C272.509 38.5949 271.34 39.0022 271.34 41.568V45.4575C271.34 48.6749 271.481 50.1208 274.121 50.1208H275.996C278.535 50.1208 279.321 49.7746 279.321 47.7586V46.6182H280.914V47.9419C280.914 51.1797 278.858 51.5462 276.056 51.5462ZM294 37.2918V51.424H292.407V38.6968H284.224V51.424H282.652V37.2918H294ZM297.675 38.7171V43.5229H304.75V44.8262H297.675V50.0189H305.072V51.424H296.083V37.2918H305.072V38.7171H297.675ZM315.162 44.5208V37.2918H316.754V51.424H315.162V45.9259H312.138C309.095 45.9259 306.616 45.8444 306.616 41.8531V37.2918H308.188V41.8735C308.188 44.1746 308.732 44.5208 312.138 44.5208H315.162ZM320.429 38.7171V43.5229H327.504V44.8262H320.429V50.0189H327.826V51.424H318.837V37.2918H327.826V38.7171H320.429ZM341.181 37.2918V51.424H339.589V44.928H331.406V51.424H329.833V37.2918H331.406V43.5229H339.589V37.2918H341.181ZM355.176 37.2918V51.424H353.584V39.3077H353.523L345.904 51.424H343.828V37.2918H345.401V49.408H345.461L353.08 37.2918H355.176ZM366.672 43.7062V38.6968H361.814C359.859 38.6968 359.375 39.3688 359.375 41.1608C359.375 43.5637 360.141 43.7062 362.399 43.7062H366.672ZM361.633 45.1113C359.718 45.1113 359.557 45.7629 359.557 47.5549V48.1659C359.557 50.0393 359.617 51.424 357.42 51.424H356.735V50.0189H357.037C357.904 50.0189 357.984 49.5302 357.984 48.9804V47.168C357.984 45.2539 358.629 44.5819 359.899 44.48V44.4189C358.509 44.2968 357.803 43.0342 357.803 40.9571C357.803 39.1651 358.428 37.2918 361.129 37.2918H368.244V51.424H366.672V45.1113H361.633Z" fill="#2D2D2D"/>
</g>
<defs>
<clipPath id="clip0_984_2353">
<rect width="388" height="56" fill="white"/>
</clipPath>
</defs>
</svg>
