<svg width="331" height="60" viewBox="0 0 331 60" fill="none" xmlns="http://www.w3.org/2000/svg">
<path d="M228.073 23.4533L222.744 12.4533H224.58L228.852 21.5933H228.892L233.083 12.4533H234.9L229.191 24.4133C228.453 25.9733 227.614 26.3333 225.519 26.3333H225.279V24.9533H225.618C227.275 24.9533 227.594 24.4133 228.073 23.4533ZM244.076 19.5533V12.4533H245.653V26.3333H244.076V20.9333H241.082C238.068 20.9333 235.613 20.8533 235.613 16.9333V12.4533H237.17V16.9533C237.17 19.2133 237.709 19.5533 241.082 19.5533H244.076ZM256.777 23.3933H249.791L248.714 26.3333H247.077L252.107 12.4533H254.322L259.492 26.3333H257.875L256.777 23.3933ZM256.338 22.0933L253.244 13.7533L250.21 22.0933H256.338ZM266.672 26.4533H264.457C261.942 26.4533 260.445 24.8533 260.445 22.0733V16.7133C260.445 12.7933 262.86 12.3533 266.213 12.3533H267.511C270.405 12.3533 271.303 13.6133 271.303 16.3533V16.7933H269.726V16.3933C269.726 14.4533 269.327 13.7333 267.291 13.7333H266.393C263.159 13.7333 262.002 14.1333 262.002 16.6533V20.4733C262.002 23.6333 262.141 25.0533 264.756 25.0533H266.612C269.127 25.0533 269.906 24.7133 269.906 22.7333V21.6133H271.483V22.9133C271.483 26.0933 269.447 26.4533 266.672 26.4533ZM278.014 13.8533V26.3333H276.438V13.8533H271.967V12.4533H282.505V13.8533H278.014ZM295.143 12.4533V26.3333H293.566V19.9533H285.463V26.3333H283.906V12.4533H285.463V18.5733H293.566V12.4533H295.143ZM309.002 12.4533V26.3333H307.425V14.4333H307.365L299.821 26.3333H297.765V12.4533H299.322V24.3533H299.381L306.926 12.4533H309.002ZM323.559 26.3333H322.881C320.705 26.3333 320.765 24.9733 320.765 23.1333V22.5533C320.765 20.7933 320.326 19.9533 318.43 19.9533H313.18V26.3333H311.623V12.4533H313.18V18.5733H318.13C320.027 18.5733 320.466 17.7333 320.466 15.9733V15.6533C320.466 13.8133 320.406 12.4533 322.581 12.4533H323.26V13.8333H322.961C322.102 13.8333 322.023 14.3133 322.023 14.8533V16.7133C322.023 18.1333 321.504 19.0933 320.146 19.1533V19.2133C321.543 19.3133 322.322 19.9333 322.322 21.8133V23.9333C322.322 24.4733 322.402 24.9533 323.26 24.9533H323.559V26.3333ZM223.982 49.6666V35.7866H231.027C233.702 35.7866 234.321 37.6066 234.321 39.9866C234.321 41.2266 234.321 44.2666 230.948 44.2666H225.539V49.6666H223.982ZM230.349 37.1666H225.539V42.8866H229.61C231.686 42.8866 232.764 42.8866 232.764 40.1866C232.764 37.5266 232.285 37.1666 230.349 37.1666ZM240.275 46.7866L234.946 35.7866H236.783L241.054 44.9266H241.094L245.285 35.7866H247.102L241.393 47.7466C240.655 49.3066 239.816 49.6666 237.721 49.6666H237.481V48.2866H237.82C239.477 48.2866 239.796 47.7466 240.275 46.7866ZM254.023 49.7866H251.807C249.292 49.7866 247.795 48.1866 247.795 45.4066V40.0466C247.795 36.1266 250.21 35.6866 253.564 35.6866H254.861C257.755 35.6866 258.653 36.9466 258.653 39.6866V40.1266H257.077V39.7266C257.077 37.7866 256.677 37.0666 254.642 37.0666H253.743C250.51 37.0666 249.352 37.4666 249.352 39.9866V43.8066C249.352 46.9666 249.492 48.3866 252.107 48.3866H253.963C256.478 48.3866 257.256 48.0466 257.256 46.0666V44.9466H258.833V46.2466C258.833 49.4266 256.797 49.7866 254.023 49.7866ZM266.301 49.7866H264.086C261.571 49.7866 260.074 48.1866 260.074 45.4066V40.0466C260.074 36.1266 262.489 35.6866 265.842 35.6866H267.14C270.034 35.6866 270.932 36.9466 270.932 39.6866V40.1266H269.355V39.7266C269.355 37.7866 268.956 37.0666 266.92 37.0666H266.022C262.788 37.0666 261.631 37.4666 261.631 39.9866V43.8066C261.631 46.9666 261.771 48.3866 264.385 48.3866H266.242C268.756 48.3866 269.535 48.0466 269.535 46.0666V44.9466H271.112V46.2466C271.112 49.4266 269.076 49.7866 266.301 49.7866ZM276.785 35.6866H278.642C282.095 35.6866 283.152 36.8666 283.152 40.3466V45.2866C283.152 48.5666 281.975 49.7866 278.642 49.7866H276.785C273.452 49.7866 272.274 48.5666 272.274 45.2866V40.3466C272.274 36.8666 273.332 35.6866 276.785 35.6866ZM278.662 37.0666H276.765C274.43 37.0666 273.831 37.6466 273.831 40.3466V45.2866C273.831 48.0466 274.729 48.3866 276.765 48.3866H278.662C280.697 48.3866 281.596 48.0466 281.596 45.2866V40.3466C281.596 37.6466 280.997 37.0666 278.662 37.0666ZM291.737 35.7866H293.294V36.7666H296.986C299.9 36.7666 300.28 38.5866 300.28 40.9666V43.8266C300.28 45.0666 300.28 48.1066 296.906 48.1066H293.294V49.6666H291.737V48.1066H288.124C284.751 48.1066 284.751 45.0666 284.751 43.8266V40.9666C284.751 38.5866 285.13 36.7666 288.044 36.7666H291.737V35.7866ZM291.737 46.7266V38.1666H288.723C286.787 38.1666 286.308 38.5066 286.308 41.1666V44.0266C286.308 46.7466 287.386 46.7266 289.461 46.7266H291.737ZM298.723 44.0266V41.1666C298.723 38.5066 298.244 38.1666 296.308 38.1666H293.294V46.7266H295.569C297.645 46.7266 298.723 46.7466 298.723 44.0266ZM307.018 37.1866V49.6666H305.441V37.1866H300.97V35.7866H311.509V37.1866H307.018Z" fill="#2D2D2D"/>
<path d="M107.263 38.3793C106.367 38.8861 105.362 39.4088 104.216 39.6623C103.069 39.9156 101.923 40.0424 100.776 40.0424C97.6041 40.0424 95.0599 39.0128 93.2695 37.0963C91.3694 35.3063 90.4742 32.7403 90.4742 29.3983C90.4742 26.1986 91.4949 23.6326 93.6465 21.7003C95.6724 19.9104 98.358 19.0074 101.53 19.0074C102.551 19.0074 103.556 19.1343 104.703 19.3876C105.723 19.6411 106.744 19.8944 107.749 20.4173C107.624 20.6706 107.498 21.0666 107.372 21.4468C107.247 21.9536 107.247 22.3496 107.121 22.6031L106.996 22.7298C106.744 22.3496 106.367 22.0963 105.849 21.7003C104.451 20.6706 102.928 20.1638 101.405 20.1638C98.7349 20.1638 96.8345 21.0666 95.2955 22.9833C94.0234 24.6464 93.2695 26.8323 93.2695 29.5249C93.2695 32.3444 94.0235 34.6569 95.4368 36.3201C96.9603 37.9833 98.8762 38.8861 101.153 38.8861C102.174 38.8861 103.321 38.6326 104.451 38.2524C105.472 37.8723 106.493 37.2229 107.372 36.4626L107.263 38.3793ZM87.0506 19.5303H88.5738C88.3227 20.1638 87.5531 22.4764 86.1554 26.4521C84.5064 30.9346 83.2343 34.7836 82.2135 37.8564C80.6902 42.0856 79.795 44.7784 79.4181 46.0614L78.7899 45.9346L77.7691 46.0614C78.2716 44.9051 78.9155 43.1153 79.8106 40.8026C80.062 40.0264 80.4545 39.1394 80.8314 38.1099C80.3289 36.7003 79.9364 35.1638 79.4337 33.7541C78.413 30.6813 77.4078 27.8618 76.6384 25.2958C75.4918 22.0963 74.8638 20.1638 74.5967 19.5303H77.1409C77.7691 21.8428 78.5385 24.2821 79.3082 26.5788C80.2034 29.3983 81.0828 31.9643 81.9779 34.2768H82.2293C83.3756 31.0773 84.2552 28.1311 85.1502 25.6918C86.1554 22.6031 86.7992 20.5598 87.0506 19.5303ZM62.5042 29.2714H65.4251C66.823 29.1448 67.9693 28.6379 68.8645 27.7351C69.6183 26.8323 70.0109 25.8184 70.0109 24.3929C70.0109 23.3634 69.7597 22.4764 69.2414 21.8269C68.7389 21.1934 68.0949 20.7974 67.3411 20.6706C66.713 20.6706 66.069 20.5439 65.6921 20.5439H62.5042V29.2714ZM62.5042 39.6623L61.2321 39.5354L59.96 39.6623V19.5303H65.174C67.9693 19.5303 70.0109 19.7836 71.1416 20.5598C72.1625 21.2093 72.665 22.4764 72.665 24.2821C72.665 26.0719 72.1625 27.3549 71.1416 28.3844C70.1208 29.2873 68.5976 29.9209 66.4459 30.3011C66.1947 30.4278 65.802 30.4278 65.4251 30.4278H62.5042V39.6623ZM111.581 30.1743C111.958 30.1743 112.351 30.1743 112.477 29.9209C112.728 29.7943 112.853 29.5408 112.853 29.1448C112.853 28.6379 112.728 28.3844 112.602 28.2419C112.477 28.1153 112.225 28.1153 111.958 28.1153H111.581V30.1743ZM110.561 27.6083H112.461C112.963 27.6083 113.356 27.7351 113.607 27.9884C113.858 28.2419 113.984 28.4954 113.984 28.8913C113.984 29.2714 113.858 29.5249 113.607 29.7943C113.482 30.0476 113.105 30.3011 112.712 30.3011C112.963 30.6813 113.215 31.0773 113.34 31.4573C113.591 31.7108 113.843 32.0909 114.11 32.4869L114.361 32.9938H113.23L111.832 30.4278H111.581V32.9938H110.561V27.6083ZM108.409 30.3011C108.409 31.4573 108.786 32.3603 109.555 33.1204C110.184 33.8808 111.079 34.4034 112.225 34.4034C113.246 34.4034 114.126 33.8966 114.895 33.1204C115.664 32.3444 116.042 31.4573 116.042 30.3011C116.042 29.1448 115.664 28.2578 114.895 27.4816C114.126 26.7054 113.246 26.3253 112.225 26.3253C111.079 26.3253 110.184 26.7054 109.555 27.4816C108.786 28.2419 108.409 29.1448 108.409 30.3011ZM107.639 30.3011C107.639 29.0181 108.016 27.8618 108.912 26.9748C109.807 26.0719 110.953 25.5651 112.225 25.5651C113.497 25.5651 114.518 26.0719 115.397 26.9748C116.293 27.8776 116.795 29.0339 116.795 30.3011C116.795 31.5841 116.293 32.7403 115.397 33.6433C114.502 34.6728 113.497 35.0529 112.225 35.0529C110.953 35.0529 109.807 34.6728 108.912 33.6433C108.032 32.7403 107.639 31.5841 107.639 30.3011ZM197.909 39.6623L196.639 39.5354L195.366 39.6623V20.9399H192.194C191.439 20.9399 190.42 21.0666 189.021 21.1934V19.5303H204.019V21.1934C203.392 21.1934 202.495 21.0666 201.349 21.0666C200.203 20.9399 199.057 20.9399 197.926 20.9399V39.6623H197.909ZM174.008 37.8564C170.836 37.8564 168.291 37.0804 166.375 35.4173C164.475 33.8808 163.58 31.8216 163.58 29.3983C163.58 26.9589 164.475 24.9156 166.249 23.3793C168.166 21.8428 170.819 21.0666 174.008 21.0666V19.5303H176.677V21.0666C179.849 21.0666 182.519 21.8428 184.31 23.3793C186.226 24.9156 187.105 26.9748 187.105 29.3983C187.105 31.8374 186.21 33.8808 184.435 35.4173C182.535 37.0804 179.866 37.8564 176.677 37.8564V39.6464C176.3 39.6464 176.034 39.5196 175.656 39.5196H174.761C174.51 39.5196 174.259 39.6464 173.993 39.6464V37.8564H174.008ZM174.008 36.8428V21.9694C171.714 21.9694 169.814 22.7456 168.417 24.1553C167.145 25.5651 166.516 27.2283 166.516 29.4141C166.516 31.5999 167.145 33.2631 168.559 34.6728C169.941 36.0666 171.714 36.8428 174.008 36.8428ZM176.677 21.9694V36.8428C178.971 36.8428 180.744 36.0666 182.143 34.6569C183.54 33.2473 184.31 31.5841 184.31 29.3983C184.31 27.3391 183.54 25.6759 182.268 24.2663C180.87 22.7298 178.971 21.9694 176.677 21.9694ZM156.968 22.8564C156.324 21.9536 155.444 21.1934 154.298 20.6706C153.277 20.2904 152.131 20.0213 150.984 20.0213C148.315 20.0213 146.414 20.9241 144.891 22.7139C143.368 24.5038 142.724 26.9431 142.724 29.8893C142.724 32.8354 143.493 35.0213 145.017 36.6844C146.54 38.2208 148.315 38.9969 150.608 38.9969C153.403 38.9969 155.57 37.8406 157.093 35.4014C158.24 33.4848 158.868 31.5524 158.868 29.3824C158.868 27.9726 158.743 26.8164 158.491 25.7868C158.24 24.7889 157.737 23.7594 156.968 22.8564ZM139.803 29.5249C139.803 26.4521 140.823 23.8861 142.975 21.8269C144.875 19.9104 147.561 19.0074 150.608 19.0074C153.654 19.0074 156.198 19.7678 158.24 21.4468C160.533 23.2366 161.679 25.8026 161.679 29.1448C161.679 32.3444 160.658 35.0371 158.633 36.9694C156.591 39.0128 153.921 40.0424 150.623 40.0424C147.325 40.0424 144.781 39.0128 142.739 37.2229C140.823 35.3063 139.803 32.7403 139.803 29.5249ZM137.4 38.3793C136.505 38.8861 135.625 39.4088 134.479 39.6623C133.332 39.9156 132.186 40.0424 130.914 40.0424C127.741 40.0424 125.197 39.0128 123.407 37.0963C121.507 35.3063 120.611 32.7403 120.611 29.3983C120.611 26.1986 121.758 23.6326 123.784 21.7003C125.825 19.9104 128.48 19.0074 131.668 19.0074C132.688 19.0074 133.709 19.1343 134.84 19.3876C135.986 19.6411 137.007 19.8944 138.012 20.4173C137.887 20.6706 137.761 21.0666 137.635 21.4468C137.51 21.9536 137.384 22.3496 137.384 22.6031L137.133 22.7298C136.882 22.3496 136.489 22.0963 135.986 21.7003C134.589 20.6706 133.065 20.1638 131.526 20.1638C128.982 20.1638 126.956 21.0666 125.559 22.9833C124.161 24.6464 123.517 26.8323 123.517 29.5249C123.517 32.3444 124.161 34.6569 125.684 36.3201C127.082 37.9833 128.982 38.8861 131.275 38.8861C132.422 38.8861 133.442 38.6326 134.589 38.2524C135.735 37.8723 136.756 37.2229 137.51 36.4626L137.4 38.3793Z" fill="#2A3860"/>
<path d="M48.8884 13.9548C51.1499 13.5905 53.4271 14.7785 53.961 16.885C54.5107 18.9917 52.9559 21.0984 50.4275 21.4469C48.6214 21.732 46.8939 20.9084 46.0772 19.7204L37.738 21.0034C37.5654 23.205 36.7487 25.4859 35.4766 27.4975L42.1826 33.4374C43.8158 32.6137 45.9046 32.7879 47.5378 34.166C49.7992 36.0825 50.4431 39.7415 48.7156 42.2124C46.9096 44.7784 43.5488 44.9527 41.2874 42.6719C39.7483 41.0245 39.1986 38.7435 39.7483 36.7162L33.1208 30.2219C31.3148 32.0435 29.1319 33.3265 26.7763 33.8809L26.148 44.4934C27.5928 45.317 28.6923 47.4237 28.5979 49.9739C28.4095 53.6327 26.0537 56.8324 23.3369 56.8324C20.62 56.8324 18.8925 53.8229 19.3479 50.243C19.6149 47.772 20.887 45.6655 22.5202 44.6675L23.6038 34.2452C21.3424 34.1502 19.5206 33.3265 18.1699 31.9485L11.7311 39.092C11.8253 40.8344 11.1814 42.9252 9.7366 44.5725C7.7421 46.6792 5.38639 46.8534 4.47551 44.8419C3.65887 42.9252 4.47551 39.8999 6.29726 37.9834C7.66357 36.526 9.20264 36.0667 10.2863 36.621L16.5367 29.8577C15.7201 28.3054 15.3589 26.3889 15.5473 24.3772L9.20264 25.3909C8.38599 26.6739 7.01969 27.6719 5.84183 27.8619C4.20853 28.1312 3.39189 26.7689 4.03578 24.8365C4.58546 23.0942 6.29726 21.4469 7.83633 21.1775C9.01417 20.9875 9.7366 21.5419 9.92505 22.6349L16.1912 21.5419C16.7252 19.7204 17.7303 17.978 19.0024 16.5208L15.6102 13.2262C14.5265 13.7806 13.4272 13.8756 12.799 13.2262C12.0766 12.4976 12.532 10.8503 13.8041 9.74149C14.982 8.55352 16.6153 8.18922 17.4319 8.91784C18.0602 9.47222 18.0602 10.3751 17.5261 11.3888L20.9655 14.4933C22.4102 13.2895 24.0436 12.3867 25.7711 11.8481L26.2266 6.5419C25.3157 6.36767 24.6875 5.71825 24.8603 4.79957C24.9544 3.6116 26.3207 2.3286 27.7656 1.9643C29.3047 1.59999 30.4825 2.23357 30.3883 3.5324C30.3883 4.4511 29.6658 5.44899 28.5665 6.00337L28.2054 11.4046C30.0114 11.2146 31.6446 11.4997 33.0109 12.1333L37.7224 7.11214C37.267 6.28847 37.4554 5.10052 38.272 4.18182C39.4499 2.99387 41.4444 2.53452 42.8892 3.1681C44.3341 3.89672 44.6167 5.44899 43.4389 6.82702C42.5281 7.8249 41.0831 8.37929 39.811 8.18922L35.0055 13.4955C36.1833 14.5884 37.0942 16.1565 37.5496 18.073L45.5277 16.695C45.9831 15.3328 47.2552 14.2399 48.8884 13.9548Z" fill="#FC7C14"/>
<path fill-rule="evenodd" clip-rule="evenodd" d="M23.761 20.0847C23.761 21.0825 23.8553 20.9084 23.8553 21.9062C24.6719 21.0825 29.4775 18.0572 27.9384 17.978C27.0276 17.978 25.7555 18.2474 23.8553 20.0847H23.761ZM23.761 26.864C23.8553 27.4184 23.8553 27.8619 23.8553 28.2262V28.9549C23.761 29.1449 23.761 29.2399 23.5884 29.3192H23.0387C22.7717 29.4142 22.6774 29.4142 22.5832 29.4142C22.4889 29.3192 22.3948 29.2399 22.3005 29.1449V27.4025C22.3948 26.6739 22.3948 26.0245 22.3948 25.2959C22.3948 25.1217 22.4889 24.5672 22.4889 23.9179C21.6724 23.7437 21.5937 23.2842 22.5832 22.7299C22.5832 22.2705 22.5832 22.0012 22.6774 21.5419C22.6774 20.544 21.4053 22.3655 21.4053 21.1777C23.0387 19.4352 27.6559 15.3329 29.6503 17.0594C30.5612 18.5165 27.3889 20.7182 24.3893 22.6349C26.3837 22.92 32.8226 26.7532 30.8281 29.129C30.5612 29.4934 29.7445 29.3984 29.4619 28.939C27.8285 26.468 25.6614 24.1872 23.7454 24.092V26.864H23.761Z" fill="white"/>
</svg>
