<svg width="353" height="52" viewBox="0 0 353 52" fill="none" xmlns="http://www.w3.org/2000/svg">
<g clip-path="url(#clip0_984_688)">
<mask id="mask0_984_688" style="mask-type:luminance" maskUnits="userSpaceOnUse" x="0" y="-1" width="52" height="52">
<path d="M51.5303 -1H0V50.537H51.5303V-1Z" fill="white"/>
</mask>
<g mask="url(#mask0_984_688)">
<path d="M12.8825 -0.999512C5.76815 -0.999512 0 4.76854 0 11.8846V37.6537C0 44.7695 5.76815 50.5376 12.8825 50.5376H38.6483C45.763 50.5376 51.5312 44.7695 51.5312 37.6537V-0.999512H12.8825Z" fill="#B1EC52"/>
<path d="M14.0826 19.5803C13.6612 17.7371 15.5 16.1063 17.8783 16.1063C20.0208 16.1063 22.1683 16.5867 22.9855 19.5742H25.7319V24.1333C22.3076 21.3182 14.8843 23.0845 14.0826 19.5803ZM42.5797 18.3182H36.3928L30.5074 24.765V11.8849H25.7319V15.0057C25.5761 14.8045 25.4117 14.6046 25.2277 14.4095C23.4912 12.571 20.9892 11.6388 17.7904 11.6388C14.0912 11.6388 11.988 13.2946 10.8748 14.6834C9.49226 16.4076 8.87498 18.761 9.30216 20.6785C10.4088 25.6424 15.0143 26.4352 18.3975 26.875C21.0686 27.2226 23.6241 27.7075 23.5563 30.0886C23.4855 32.5596 20.7003 33.1672 18.8722 33.1672C14.1109 33.1672 13.9503 29.6475 13.9503 29.6475H8.82959C8.90442 30.9693 9.30381 33.0912 10.9308 34.9122C12.7123 36.9075 15.3843 37.9186 18.8722 37.9186C21.5477 37.9186 23.9851 37.0469 25.7319 35.499V37.6263H30.5074V31.5461L32.197 29.6978L37.0204 37.6263H42.578L35.559 26.014L42.5797 18.3182Z" fill="#4D5759"/>
</g>
<path d="M67.7026 17.7013V3.73168H74.756C77.4334 3.73168 78.0529 5.56342 78.0529 7.95877C78.0529 9.20677 78.0529 12.2664 74.6761 12.2664H69.2612V17.7013H67.7026ZM74.0766 5.12058H69.2612V10.8775H73.3373C75.4154 10.8775 76.4943 10.8775 76.4943 8.16006C76.4943 5.4829 76.0148 5.12058 74.0766 5.12058ZM81.1564 5.14071V9.89116H88.1698V11.1794H81.1564V16.3123H88.4895V17.7013H79.5779V3.73168H88.4895V5.14071H81.1564ZM100.07 13.7559C100.07 17.9629 97.9922 17.822 94.6753 17.822C91.4983 17.822 89.76 17.3591 89.76 14.0981V13.1722H91.3185V14.0981C91.3185 16.2922 91.6981 16.413 94.6753 16.413C98.0322 16.413 98.4917 16.3526 98.4917 13.5949C98.4917 11.2197 97.3928 11.2398 95.4146 11.2398H93.7562V9.8509H95.4146C97.3928 9.8509 98.212 9.89116 98.212 7.53607C98.212 5.22123 97.8923 5.01994 94.6154 5.01994C91.9579 5.01994 91.5183 5.24136 91.5183 7.41529V8.01916H89.9398V7.41529C89.9398 3.85245 91.5982 3.6109 94.8152 3.63103C97.7724 3.63103 99.7905 3.63103 99.7905 7.25426C99.7905 9.04574 99.5307 10.3743 97.4927 10.5152V10.5554C99.6107 10.7165 100.07 11.7028 100.07 13.7559ZM113.358 3.73168V17.7013H111.78V5.72445H111.72L104.167 17.7013H102.109V3.73168H103.668V15.7085H103.727L111.28 3.73168H113.358ZM128.491 21.3849H126.912V17.7013H116.322V21.3849H114.744V16.3123H115.823C116.782 15.4065 117.781 14.5812 117.781 10.334V3.73168H127.232V16.3123H128.491V21.3849ZM125.653 16.3123V5.12058H119.339V10.334C119.339 14.4403 118.48 15.6279 117.801 16.3123H125.653ZM130.875 5.14071V9.89116H137.889V11.1794H130.875V16.3123H138.208V17.7013H129.297V3.73168H138.208V5.14071H130.875ZM151.447 3.73168V17.7013H149.869V11.2801H141.757V17.7013H140.198V3.73168H141.757V9.89116H149.869V3.73168H151.447ZM158.887 5.14071V17.7013H157.309V5.14071H152.833V3.73168H163.382V5.14071H158.887ZM182.414 3.73168V17.7013H180.836V5.72445H180.776L173.223 17.7013H171.165V3.73168H172.724V15.7085H172.784L180.336 3.73168H182.414ZM196.288 3.73168V17.7013H194.71V11.2801H186.597V17.7013H185.039V3.73168H186.597V9.89116H194.71V3.73168H196.288ZM210.162 3.73168V17.7013H208.583V11.2801H200.471V17.7013H198.912V3.73168H200.471V9.89116H208.583V3.73168H210.162ZM216.742 3.63103H218.6C222.057 3.63103 223.116 4.81865 223.116 8.3211V13.293C223.116 16.5942 221.937 17.822 218.6 17.822H216.742C213.405 17.822 212.226 16.5942 212.226 13.293V8.3211C212.226 4.81865 213.285 3.63103 216.742 3.63103ZM218.62 5.01994H216.722C214.384 5.01994 213.785 5.60368 213.785 8.3211V13.293C213.785 16.0708 214.684 16.413 216.722 16.413H218.62C220.658 16.413 221.558 16.0708 221.558 13.293V8.3211C221.558 5.60368 220.958 5.01994 218.62 5.01994ZM226.574 11.2197V16.3123H231.55C233.248 16.3123 234.087 16.0909 234.087 13.9572C234.087 12.1255 233.808 11.2197 231.73 11.2197H226.574ZM232.369 17.7013H224.996V3.73168H232.029C234.627 3.73168 235.246 4.97968 235.246 7.41529C235.246 8.88471 234.947 9.89116 233.508 10.3743V10.3944C235.346 10.7366 235.646 12.0852 235.646 13.8163C235.646 16.3325 234.727 17.7013 232.369 17.7013ZM226.574 5.14071V9.83077H231.15C233.028 9.83077 233.668 9.38794 233.668 7.214C233.668 5.342 232.948 5.14071 231.31 5.14071H226.574ZM246.527 14.7423H239.534L238.455 17.7013H236.816L241.852 3.73168H244.07L249.245 17.7013H247.626L246.527 14.7423ZM246.088 13.4339L242.991 5.04007L239.953 13.4339H246.088ZM261.61 17.7013H250.68V3.73168H252.239V16.3123H260.351V3.73168H261.929V16.3123H263.188V21.3849H261.61V17.7013ZM275.803 3.73168V17.7013H274.224V5.72445H274.165L266.612 17.7013H264.554V3.73168H266.112V15.7085H266.172L273.725 3.73168H275.803ZM282.383 3.63103H284.242C287.698 3.63103 288.757 4.81865 288.757 8.3211V13.293C288.757 16.5942 287.579 17.822 284.242 17.822H282.383C279.047 17.822 277.868 16.5942 277.868 13.293V8.3211C277.868 4.81865 278.927 3.63103 282.383 3.63103ZM284.262 5.01994H282.363C280.026 5.01994 279.426 5.60368 279.426 8.3211V13.293C279.426 16.0708 280.325 16.413 282.363 16.413H284.262C286.3 16.413 287.199 16.0708 287.199 13.293V8.3211C287.199 5.60368 286.599 5.01994 284.262 5.01994ZM302.087 3.73168V17.7013H300.508V11.2801H292.396V17.7013H290.837V3.73168H292.396V9.89116H300.508V3.73168H302.087ZM315.96 3.73168V17.7013H314.382V11.2801H306.269V17.7013H304.711V3.73168H306.269V9.89116H314.382V3.73168H315.96ZM322.541 3.63103H324.399C327.855 3.63103 328.914 4.81865 328.914 8.3211V13.293C328.914 16.5942 327.736 17.822 324.399 17.822H322.541C319.204 17.822 318.025 16.5942 318.025 13.293V8.3211C318.025 4.81865 319.084 3.63103 322.541 3.63103ZM324.419 5.01994H322.521C320.183 5.01994 319.583 5.60368 319.583 8.3211V13.293C319.583 16.0708 320.482 16.413 322.521 16.413H324.419C326.457 16.413 327.356 16.0708 327.356 13.293V8.3211C327.356 5.60368 326.757 5.01994 324.419 5.01994ZM332.453 5.14071V17.7013H330.874V3.73168H339.386V5.14071H332.453ZM345.098 3.63103H346.956C350.413 3.63103 351.472 4.81865 351.472 8.3211V13.293C351.472 16.5942 350.293 17.822 346.956 17.822H345.098C341.761 17.822 340.582 16.5942 340.582 13.293V8.3211C340.582 4.81865 341.641 3.63103 345.098 3.63103ZM346.976 5.01994H345.078C342.74 5.01994 342.14 5.60368 342.14 8.3211V13.293C342.14 16.0708 343.039 16.413 345.078 16.413H346.976C349.014 16.413 349.913 16.0708 349.913 13.293V8.3211C349.913 5.60368 349.314 5.01994 346.976 5.01994ZM78.8521 41.1851H67.9224V27.2156H69.481V39.7962H77.5933V27.2156H79.1718V39.7962H80.4306V44.8687H78.8521V41.1851ZM82.815 28.6246V33.3751H89.8284V34.6633H82.815V39.7962H90.1481V41.1851H81.2365V27.2156H90.1481V28.6246H82.815ZM103.387 27.2156V41.1851H101.809V34.764H93.6964V41.1851H92.1379V27.2156H93.6964V33.3751H101.809V27.2156H103.387ZM110.827 28.6246V41.1851H109.248V28.6246H104.773V27.2156H115.323V28.6246H110.827ZM116.504 41.1851V27.2156H123.558C126.235 27.2156 126.854 29.0473 126.854 31.4427C126.854 32.6907 126.854 35.7503 123.478 35.7503H118.063V41.1851H116.504ZM122.878 28.6045H118.063V34.3614H122.139C124.217 34.3614 125.296 34.3614 125.296 31.644C125.296 28.9668 124.816 28.6045 122.878 28.6045ZM137.451 38.2262H130.458L129.379 41.1851H127.74L132.775 27.2156H134.993L140.168 41.1851H138.55L137.451 38.2262ZM137.011 36.9178L133.914 28.524L130.877 36.9178H137.011ZM150.201 30.4765L151.26 31.1407L149.082 35.8107L151.5 40.5209L150.481 41.1851L147.704 35.8107L150.201 30.4765ZM153.618 30.4765L154.677 31.1407L152.499 35.8107L154.917 40.5209L153.918 41.1851L151.121 35.8107L153.618 30.4765ZM163.026 41.3059H160.808C158.291 41.3059 156.792 39.6956 156.792 36.8976V31.5031C156.792 27.5578 159.21 27.1149 162.566 27.1149H163.865C166.763 27.1149 167.662 28.3831 167.662 31.1407V31.5836H166.083V31.181C166.083 29.2285 165.683 28.5038 163.645 28.5038H162.746C159.51 28.5038 158.351 28.9064 158.351 31.4427V35.2873C158.351 38.4677 158.491 39.8969 161.108 39.8969H162.966C165.484 39.8969 166.263 39.5547 166.263 37.5619V36.4347H167.842V37.7431C167.842 40.9436 165.803 41.3059 163.026 41.3059ZM181.514 41.1851H180.834C178.656 41.1851 178.716 39.8164 178.716 37.9645V37.3807C178.716 35.6094 178.277 34.764 176.379 34.764H171.123V41.1851H169.565V27.2156H171.123V33.3751H176.079C177.977 33.3751 178.417 32.5296 178.417 30.7583V30.4362C178.417 28.5844 178.357 27.2156 180.535 27.2156H181.214V28.6045H180.914C180.055 28.6045 179.975 29.0876 179.975 29.6311V31.5031C179.975 32.9322 179.456 33.8984 178.097 33.9588V34.0192C179.496 34.1198 180.275 34.7438 180.275 36.636V38.7696C180.275 39.3131 180.355 39.7962 181.214 39.7962H181.514V41.1851ZM187.395 27.1149H189.253C192.71 27.1149 193.769 28.3025 193.769 31.805V36.7769C193.769 40.078 192.59 41.3059 189.253 41.3059H187.395C184.058 41.3059 182.879 40.078 182.879 36.7769V31.805C182.879 28.3025 183.938 27.1149 187.395 27.1149ZM189.273 28.5038H187.375C185.037 28.5038 184.438 29.0876 184.438 31.805V36.7769C184.438 39.5547 185.337 39.8969 187.375 39.8969H189.273C191.311 39.8969 192.21 39.5547 192.21 36.7769V31.805C192.21 29.0876 191.611 28.5038 189.273 28.5038ZM198.926 36.8574C198.926 39.9573 197.707 41.1851 195.109 41.1851H194.749V39.7962H194.809C197.267 39.7962 197.367 38.3671 197.367 34.8445V27.2156H207.098V41.1851H205.519V28.6045H198.926V36.8574ZM221.671 41.1851H220.991C218.813 41.1851 218.873 39.8164 218.873 37.9645V37.3807C218.873 35.6094 218.434 34.764 216.536 34.764H211.281V41.1851H209.722V27.2156H211.281V33.3751H216.236C218.134 33.3751 218.574 32.5296 218.574 30.7583V30.4362C218.574 28.5844 218.514 27.2156 220.692 27.2156H221.371V28.6045H221.071C220.212 28.6045 220.132 29.0876 220.132 29.6311V31.5031C220.132 32.9322 219.613 33.8984 218.254 33.9588V34.0192C219.653 34.1198 220.432 34.7438 220.432 36.636V38.7696C220.432 39.3131 220.512 39.7962 221.371 39.7962H221.671V41.1851ZM227.552 27.1149H229.41C232.867 27.1149 233.926 28.3025 233.926 31.805V36.7769C233.926 40.078 232.747 41.3059 229.41 41.3059H227.552C224.215 41.3059 223.036 40.078 223.036 36.7769V31.805C223.036 28.3025 224.095 27.1149 227.552 27.1149ZM229.43 28.5038H227.532C225.194 28.5038 224.595 29.0876 224.595 31.805V36.7769C224.595 39.5547 225.494 39.8969 227.532 39.8969H229.43C231.468 39.8969 232.367 39.5547 232.367 36.7769V31.805C232.367 29.0876 231.768 28.5038 229.43 28.5038ZM237.384 34.7036V39.7962H242.36C244.058 39.7962 244.897 39.5748 244.897 37.4411C244.897 35.6094 244.617 34.7036 242.539 34.7036H237.384ZM243.179 41.1851H235.806V27.2156H242.839C245.437 27.2156 246.056 28.4636 246.056 30.8992C246.056 32.3686 245.756 33.3751 244.318 33.8582V33.8783C246.156 34.2205 246.456 35.5691 246.456 37.3002C246.456 39.8164 245.537 41.1851 243.179 41.1851ZM237.384 28.6246V33.3147H241.96C243.838 33.3147 244.478 32.8718 244.478 30.6979C244.478 28.8259 243.758 28.6246 242.12 28.6246H237.384ZM252.783 27.1149H254.641C258.098 27.1149 259.157 28.3025 259.157 31.805V36.7769C259.157 40.078 257.978 41.3059 254.641 41.3059H252.783C249.446 41.3059 248.267 40.078 248.267 36.7769V31.805C248.267 28.3025 249.326 27.1149 252.783 27.1149ZM254.661 28.5038H252.763C250.425 28.5038 249.826 29.0876 249.826 31.805V36.7769C249.826 39.5547 250.725 39.8969 252.763 39.8969H254.661C256.699 39.8969 257.598 39.5547 257.598 36.7769V31.805C257.598 29.0876 256.999 28.5038 254.661 28.5038ZM264.614 31.1407L265.693 30.4765L268.17 35.8107L265.393 41.1851L264.374 40.5209L266.791 35.8107L264.614 31.1407ZM261.197 31.1407L262.256 30.4765L264.753 35.8107L261.976 41.1851L260.957 40.5209L263.375 35.8107L261.197 31.1407Z" fill="#2D2D2D"/>
</g>
<defs>
<clipPath id="clip0_984_688">
<rect width="353" height="52" fill="white"/>
</clipPath>
</defs>
</svg>
