<svg width="97" height="279" viewBox="0 0 97 279" fill="none" xmlns="http://www.w3.org/2000/svg">
<g opacity="0.5">
<rect width="2" height="2" transform="matrix(1 0 0 -1 22 116)" fill="white"/>
<rect width="2" height="2" transform="matrix(1 0 0 -1 73 116)" fill="white"/>
<rect x="39" y="100" width="19" height="2" fill="white"/>
<rect x="43" y="96" width="11" height="2" fill="white"/>
<rect x="34" y="104" width="29" height="2" fill="white"/>
<rect x="29" y="108" width="39" height="2" fill="white"/>
<rect x="24" y="112" width="49" height="2" fill="white"/>
<rect x="41.0127" y="98" width="2" height="2" fill="white"/>
<rect x="37" y="102" width="2" height="2" fill="white"/>
<rect x="32" y="106" width="2" height="2" fill="white"/>
<rect x="68" y="110" width="2" height="2" fill="white"/>
<rect x="27" y="110" width="2" height="2" fill="white"/>
<rect x="63" y="106" width="2" height="2" fill="white"/>
<rect x="58" y="102" width="2" height="2" fill="white"/>
<rect x="54" y="98" width="2" height="2" fill="white"/>
<rect x="58" y="130" width="19" height="2" transform="rotate(-180 58 130)" fill="white"/>
<rect x="54" y="134" width="11" height="2" transform="rotate(-180 54 134)" fill="white"/>
<rect x="63" y="126" width="29" height="2" transform="rotate(-180 63 126)" fill="white"/>
<rect x="68" y="122" width="39" height="2" transform="rotate(-180 68 122)" fill="white"/>
<rect x="73" y="118" width="49" height="2" transform="rotate(-180 73 118)" fill="white"/>
<rect x="55.9873" y="132" width="2" height="2" transform="rotate(-180 55.9873 132)" fill="white"/>
<rect x="60" y="128" width="2" height="2" transform="rotate(-180 60 128)" fill="white"/>
<rect x="65" y="124" width="2" height="2" transform="rotate(-180 65 124)" fill="white"/>
<rect x="29" y="120" width="2" height="2" transform="rotate(-180 29 120)" fill="white"/>
<rect x="70" y="120" width="2" height="2" transform="rotate(-180 70 120)" fill="white"/>
<rect x="34" y="124" width="2" height="2" transform="rotate(-180 34 124)" fill="white"/>
<rect x="39" y="128" width="2" height="2" transform="rotate(-180 39 128)" fill="white"/>
<rect x="43" y="132" width="2" height="2" transform="rotate(-180 43 132)" fill="white"/>
<rect width="2" height="2" transform="matrix(1 0 0 -1 22 68)" fill="white"/>
<rect width="2" height="2" transform="matrix(1 0 0 -1 73 68)" fill="white"/>
<rect x="39" y="52" width="19" height="2" fill="white"/>
<rect x="43" y="48" width="11" height="2" fill="white"/>
<rect x="34" y="56" width="29" height="2" fill="white"/>
<rect x="29" y="60" width="39" height="2" fill="white"/>
<rect x="24" y="64" width="49" height="2" fill="white"/>
<rect x="41.0127" y="50" width="2" height="2" fill="white"/>
<rect x="37" y="54" width="2" height="2" fill="white"/>
<rect x="32" y="58" width="2" height="2" fill="white"/>
<rect x="68" y="62" width="2" height="2" fill="white"/>
<rect x="27" y="62" width="2" height="2" fill="white"/>
<rect x="63" y="58" width="2" height="2" fill="white"/>
<rect x="58" y="54" width="2" height="2" fill="white"/>
<rect x="54" y="50" width="2" height="2" fill="white"/>
<rect x="58" y="82" width="19" height="2" transform="rotate(-180 58 82)" fill="white"/>
<rect x="54" y="86" width="11" height="2" transform="rotate(-180 54 86)" fill="white"/>
<rect x="63" y="78" width="29" height="2" transform="rotate(-180 63 78)" fill="white"/>
<rect x="68" y="74" width="39" height="2" transform="rotate(-180 68 74)" fill="white"/>
<rect x="73" y="70" width="49" height="2" transform="rotate(-180 73 70)" fill="white"/>
<rect x="55.9873" y="84" width="2" height="2" transform="rotate(-180 55.9873 84)" fill="white"/>
<rect x="60" y="80" width="2" height="2" transform="rotate(-180 60 80)" fill="white"/>
<rect x="65" y="76" width="2" height="2" transform="rotate(-180 65 76)" fill="white"/>
<rect x="29" y="72" width="2" height="2" transform="rotate(-180 29 72)" fill="white"/>
<rect x="70" y="72" width="2" height="2" transform="rotate(-180 70 72)" fill="white"/>
<rect x="34" y="76" width="2" height="2" transform="rotate(-180 34 76)" fill="white"/>
<rect x="39" y="80" width="2" height="2" transform="rotate(-180 39 80)" fill="white"/>
<rect x="43" y="84" width="2" height="2" transform="rotate(-180 43 84)" fill="white"/>
<rect width="2" height="2" transform="matrix(1 0 0 -1 22 20)" fill="white"/>
<rect width="2" height="2" transform="matrix(1 0 0 -1 73 20)" fill="white"/>
<rect x="39" y="4" width="19" height="2" fill="white"/>
<rect x="43" width="11" height="2" fill="white"/>
<rect x="34" y="8" width="29" height="2" fill="white"/>
<rect x="29" y="12" width="39" height="2" fill="white"/>
<rect x="24" y="16" width="49" height="2" fill="white"/>
<rect x="41.0127" y="2" width="2" height="2" fill="white"/>
<rect x="37" y="6" width="2" height="2" fill="white"/>
<rect x="32" y="10" width="2" height="2" fill="white"/>
<rect x="68" y="14" width="2" height="2" fill="white"/>
<rect x="27" y="14" width="2" height="2" fill="white"/>
<rect x="63" y="10" width="2" height="2" fill="white"/>
<rect x="58" y="6" width="2" height="2" fill="white"/>
<rect x="54" y="2" width="2" height="2" fill="white"/>
<rect x="58" y="34" width="19" height="2" transform="rotate(-180 58 34)" fill="white"/>
<rect x="54" y="38" width="11" height="2" transform="rotate(-180 54 38)" fill="white"/>
<rect x="63" y="30" width="29" height="2" transform="rotate(-180 63 30)" fill="white"/>
<rect x="68" y="26" width="39" height="2" transform="rotate(-180 68 26)" fill="white"/>
<rect x="73" y="22" width="49" height="2" transform="rotate(-180 73 22)" fill="white"/>
<rect x="55.9873" y="36" width="2" height="2" transform="rotate(-180 55.9873 36)" fill="white"/>
<rect x="60" y="32" width="2" height="2" transform="rotate(-180 60 32)" fill="white"/>
<rect x="65" y="28" width="2" height="2" transform="rotate(-180 65 28)" fill="white"/>
<rect x="29" y="24" width="2" height="2" transform="rotate(-180 29 24)" fill="white"/>
<rect x="70" y="24" width="2" height="2" transform="rotate(-180 70 24)" fill="white"/>
<rect x="34" y="28" width="2" height="2" transform="rotate(-180 34 28)" fill="white"/>
<rect x="39" y="32" width="2" height="2" transform="rotate(-180 39 32)" fill="white"/>
<rect x="43" y="36" width="2" height="2" transform="rotate(-180 43 36)" fill="white"/>
<rect width="2" height="2" transform="matrix(1 0 0 -1 22 164)" fill="white"/>
<rect width="2" height="2" transform="matrix(1 0 0 -1 73 164)" fill="white"/>
<rect x="39" y="148" width="19" height="2" fill="white"/>
<rect x="43" y="144" width="11" height="2" fill="white"/>
<rect x="34" y="152" width="29" height="2" fill="white"/>
<rect x="29" y="156" width="39" height="2" fill="white"/>
<rect x="24" y="160" width="49" height="2" fill="white"/>
<rect x="41.0127" y="146" width="2" height="2" fill="white"/>
<rect x="37" y="150" width="2" height="2" fill="white"/>
<rect x="32" y="154" width="2" height="2" fill="white"/>
<rect x="68" y="158" width="2" height="2" fill="white"/>
<rect x="27" y="158" width="2" height="2" fill="white"/>
<rect x="63" y="154" width="2" height="2" fill="white"/>
<rect x="58" y="150" width="2" height="2" fill="white"/>
<rect x="54" y="146" width="2" height="2" fill="white"/>
<rect x="58" y="178" width="19" height="2" transform="rotate(-180 58 178)" fill="white"/>
<rect x="54" y="182" width="11" height="2" transform="rotate(-180 54 182)" fill="white"/>
<rect x="63" y="174" width="29" height="2" transform="rotate(-180 63 174)" fill="white"/>
<rect x="68" y="170" width="39" height="2" transform="rotate(-180 68 170)" fill="white"/>
<rect x="73" y="166" width="49" height="2" transform="rotate(-180 73 166)" fill="white"/>
<rect x="55.9873" y="180" width="2" height="2" transform="rotate(-180 55.9873 180)" fill="white"/>
<rect x="60" y="176" width="2" height="2" transform="rotate(-180 60 176)" fill="white"/>
<rect x="65" y="172" width="2" height="2" transform="rotate(-180 65 172)" fill="white"/>
<rect x="29" y="168" width="2" height="2" transform="rotate(-180 29 168)" fill="white"/>
<rect x="70" y="168" width="2" height="2" transform="rotate(-180 70 168)" fill="white"/>
<rect x="34" y="172" width="2" height="2" transform="rotate(-180 34 172)" fill="white"/>
<rect x="39" y="176" width="2" height="2" transform="rotate(-180 39 176)" fill="white"/>
<rect x="43" y="180" width="2" height="2" transform="rotate(-180 43 180)" fill="white"/>
<rect width="2" height="2" transform="matrix(1 0 0 -1 23 212)" fill="white"/>
<rect width="2" height="2" transform="matrix(1 0 0 -1 74 212)" fill="white"/>
<rect x="40" y="196" width="19" height="2" fill="white"/>
<rect x="44" y="192" width="11" height="2" fill="white"/>
<rect x="35" y="200" width="29" height="2" fill="white"/>
<rect x="30" y="204" width="39" height="2" fill="white"/>
<rect x="25" y="208" width="49" height="2" fill="white"/>
<rect x="42.0127" y="194" width="2" height="2" fill="white"/>
<rect x="38" y="198" width="2" height="2" fill="white"/>
<rect x="33" y="202" width="2" height="2" fill="white"/>
<rect x="69" y="206" width="2" height="2" fill="white"/>
<rect x="28" y="206" width="2" height="2" fill="white"/>
<rect x="64" y="202" width="2" height="2" fill="white"/>
<rect x="59" y="198" width="2" height="2" fill="white"/>
<rect x="55" y="194" width="2" height="2" fill="white"/>
<rect width="2" height="2" transform="matrix(1 0 0 -1 23 261)" fill="white"/>
<rect width="2" height="2" transform="matrix(1 0 0 -1 74 261)" fill="white"/>
<rect x="40" y="244" width="19" height="2" fill="white"/>
<rect x="44" y="240" width="11" height="2" fill="white"/>
<rect x="35" y="248" width="29" height="2" fill="white"/>
<rect x="30" y="252" width="39" height="2" fill="white"/>
<rect x="25" y="256" width="49" height="2" fill="white"/>
<rect x="42.0127" y="242" width="2" height="2" fill="white"/>
<rect x="38" y="246" width="2" height="2" fill="white"/>
<rect x="33" y="250" width="2" height="2" fill="white"/>
<rect x="69" y="254" width="2" height="2" fill="white"/>
<rect x="28" y="254" width="2" height="2" fill="white"/>
<rect x="64" y="250" width="2" height="2" fill="white"/>
<rect x="59" y="246" width="2" height="2" fill="white"/>
<rect x="55" y="242" width="2" height="2" fill="white"/>
<rect x="59" y="226" width="19" height="2" transform="rotate(-180 59 226)" fill="white"/>
<rect x="55" y="230" width="11" height="2" transform="rotate(-180 55 230)" fill="white"/>
<rect x="64" y="222" width="29" height="2" transform="rotate(-180 64 222)" fill="white"/>
<rect x="69" y="218" width="39" height="2" transform="rotate(-180 69 218)" fill="white"/>
<rect x="74" y="214" width="49" height="2" transform="rotate(-180 74 214)" fill="white"/>
<rect x="56.9873" y="228" width="2" height="2" transform="rotate(-180 56.9873 228)" fill="white"/>
<rect x="61" y="224" width="2" height="2" transform="rotate(-180 61 224)" fill="white"/>
<rect x="66" y="220" width="2" height="2" transform="rotate(-180 66 220)" fill="white"/>
<rect x="30" y="216" width="2" height="2" transform="rotate(-180 30 216)" fill="white"/>
<rect x="71" y="216" width="2" height="2" transform="rotate(-180 71 216)" fill="white"/>
<rect x="35" y="220" width="2" height="2" transform="rotate(-180 35 220)" fill="white"/>
<rect x="40" y="224" width="2" height="2" transform="rotate(-180 40 224)" fill="white"/>
<rect x="44" y="228" width="2" height="2" transform="rotate(-180 44 228)" fill="white"/>
<rect x="59" y="275" width="19" height="2" transform="rotate(-180 59 275)" fill="white"/>
<rect x="55" y="279" width="11" height="2" transform="rotate(-180 55 279)" fill="white"/>
<rect x="64" y="271" width="29" height="2" transform="rotate(-180 64 271)" fill="white"/>
<rect x="69" y="267" width="39" height="2" transform="rotate(-180 69 267)" fill="white"/>
<rect x="74" y="263" width="49" height="2" transform="rotate(-180 74 263)" fill="white"/>
<rect x="56.9873" y="277" width="2" height="2" transform="rotate(-180 56.9873 277)" fill="white"/>
<rect x="61" y="273" width="2" height="2" transform="rotate(-180 61 273)" fill="white"/>
<rect x="66" y="269" width="2" height="2" transform="rotate(-180 66 269)" fill="white"/>
<rect x="30" y="265" width="2" height="2" transform="rotate(-180 30 265)" fill="white"/>
<rect x="71" y="265" width="2" height="2" transform="rotate(-180 71 265)" fill="white"/>
<rect x="35" y="269" width="2" height="2" transform="rotate(-180 35 269)" fill="white"/>
<rect x="40" y="273" width="2" height="2" transform="rotate(-180 40 273)" fill="white"/>
<rect x="44" y="277" width="2" height="2" transform="rotate(-180 44 277)" fill="white"/>
<rect x="3" y="156" width="2" height="2" transform="rotate(180 3 156)" fill="white"/>
<rect x="9" y="150" width="2" height="2" transform="rotate(180 9 150)" fill="white"/>
<rect x="5" y="154" width="2" height="2" transform="rotate(180 5 154)" fill="white"/>
<rect x="11" y="148" width="2" height="2" transform="rotate(180 11 148)" fill="white"/>
<rect x="7" y="152" width="2" height="2" transform="rotate(180 7 152)" fill="white"/>
<rect x="13" y="146" width="2" height="2" transform="rotate(180 13 146)" fill="white"/>
<rect x="3" y="204" width="2" height="2" transform="rotate(180 3 204)" fill="white"/>
<rect x="9" y="198" width="2" height="2" transform="rotate(180 9 198)" fill="white"/>
<rect x="5" y="202" width="2" height="2" transform="rotate(180 5 202)" fill="white"/>
<rect x="11" y="196" width="2" height="2" transform="rotate(180 11 196)" fill="white"/>
<rect x="7" y="200" width="2" height="2" transform="rotate(180 7 200)" fill="white"/>
<rect x="13" y="194" width="2" height="2" transform="rotate(180 13 194)" fill="white"/>
<rect x="4" y="252" width="2" height="2" transform="rotate(180 4 252)" fill="white"/>
<rect x="10" y="246" width="2" height="2" transform="rotate(180 10 246)" fill="white"/>
<rect x="6" y="250" width="2" height="2" transform="rotate(180 6 250)" fill="white"/>
<rect x="12" y="244" width="2" height="2" transform="rotate(180 12 244)" fill="white"/>
<rect x="8" y="248" width="2" height="2" transform="rotate(180 8 248)" fill="white"/>
<rect x="14" y="242" width="2" height="2" transform="rotate(180 14 242)" fill="white"/>
<rect x="2" y="108" width="2" height="2" transform="rotate(180 2 108)" fill="white"/>
<rect x="8" y="102" width="2" height="2" transform="rotate(180 8 102)" fill="white"/>
<rect x="4" y="106" width="2" height="2" transform="rotate(180 4 106)" fill="white"/>
<rect x="10" y="100" width="2" height="2" transform="rotate(180 10 100)" fill="white"/>
<rect x="6" y="104" width="2" height="2" transform="rotate(180 6 104)" fill="white"/>
<rect x="12" y="98" width="2" height="2" transform="rotate(180 12 98)" fill="white"/>
<rect x="3" y="60" width="2" height="2" transform="rotate(180 3 60)" fill="white"/>
<rect x="9" y="54" width="2" height="2" transform="rotate(180 9 54)" fill="white"/>
<rect x="5" y="58" width="2" height="2" transform="rotate(180 5 58)" fill="white"/>
<rect x="11" y="52" width="2" height="2" transform="rotate(180 11 52)" fill="white"/>
<rect x="7" y="56" width="2" height="2" transform="rotate(180 7 56)" fill="white"/>
<rect x="13" y="50" width="2" height="2" transform="rotate(180 13 50)" fill="white"/>
<rect width="2" height="2" transform="matrix(1 0 0 -1 11 134)" fill="white"/>
<rect width="2" height="2" transform="matrix(1 0 0 -1 5 128)" fill="white"/>
<rect width="2" height="2" transform="matrix(1 0 0 -1 9 132)" fill="white"/>
<rect width="2" height="2" transform="matrix(1 0 0 -1 3 126)" fill="white"/>
<rect width="2" height="2" transform="matrix(1 0 0 -1 7 130)" fill="white"/>
<rect width="2" height="2" transform="matrix(1 0 0 -1 1 124)" fill="white"/>
<rect width="2" height="2" transform="matrix(1 0 0 -1 11 182)" fill="white"/>
<rect width="2" height="2" transform="matrix(1 0 0 -1 5 176)" fill="white"/>
<rect width="2" height="2" transform="matrix(1 0 0 -1 9 180)" fill="white"/>
<rect width="2" height="2" transform="matrix(1 0 0 -1 3 174)" fill="white"/>
<rect width="2" height="2" transform="matrix(1 0 0 -1 7 178)" fill="white"/>
<rect width="2" height="2" transform="matrix(1 0 0 -1 1 172)" fill="white"/>
<rect width="2" height="2" transform="matrix(1 0 0 -1 12 230)" fill="white"/>
<rect width="2" height="2" transform="matrix(1 0 0 -1 6 224)" fill="white"/>
<rect width="2" height="2" transform="matrix(1 0 0 -1 10 228)" fill="white"/>
<rect width="2" height="2" transform="matrix(1 0 0 -1 4 222)" fill="white"/>
<rect width="2" height="2" transform="matrix(1 0 0 -1 8 226)" fill="white"/>
<rect width="2" height="2" transform="matrix(1 0 0 -1 2 220)" fill="white"/>
<rect width="2" height="2" transform="matrix(1 0 0 -1 10 86)" fill="white"/>
<rect width="2" height="2" transform="matrix(1 0 0 -1 4 80)" fill="white"/>
<rect width="2" height="2" transform="matrix(1 0 0 -1 8 84)" fill="white"/>
<rect width="2" height="2" transform="matrix(1 0 0 -1 2 78)" fill="white"/>
<rect width="2" height="2" transform="matrix(1 0 0 -1 6 82)" fill="white"/>
<rect width="2" height="2" transform="matrix(1 0 0 -1 0 76)" fill="white"/>
<rect width="2" height="2" transform="matrix(1 0 0 -1 11 38)" fill="white"/>
<rect width="2" height="2" transform="matrix(1 0 0 -1 5 32)" fill="white"/>
<rect width="2" height="2" transform="matrix(1 0 0 -1 9 36)" fill="white"/>
<rect width="2" height="2" transform="matrix(1 0 0 -1 3 30)" fill="white"/>
<rect width="2" height="2" transform="matrix(1 0 0 -1 7 34)" fill="white"/>
<rect width="2" height="2" transform="matrix(1 0 0 -1 1 28)" fill="white"/>
<rect x="2" y="135" width="93" height="8" stroke="white" stroke-width="2"/>
<rect x="2" y="183" width="93" height="8" stroke="white" stroke-width="2"/>
<rect x="3" y="231" width="93" height="8" stroke="white" stroke-width="2"/>
<rect x="1" y="87" width="93" height="8" stroke="white" stroke-width="2"/>
<rect x="2" y="39" width="93" height="8" stroke="white" stroke-width="2"/>
</g>
<g opacity="0.5">
<rect width="2" height="2" transform="matrix(1 0 0 -1 93 156)" fill="white"/>
<rect width="2" height="2" transform="matrix(1 0 0 -1 87 150)" fill="white"/>
<rect width="2" height="2" transform="matrix(1 0 0 -1 91 154)" fill="white"/>
<rect width="2" height="2" transform="matrix(1 0 0 -1 85 148)" fill="white"/>
<rect width="2" height="2" transform="matrix(1 0 0 -1 89 152)" fill="white"/>
<rect width="2" height="2" transform="matrix(1 0 0 -1 83 146)" fill="white"/>
</g>
<g opacity="0.5">
<rect width="2" height="2" transform="matrix(1 0 0 -1 93 204)" fill="white"/>
<rect width="2" height="2" transform="matrix(1 0 0 -1 87 198)" fill="white"/>
<rect width="2" height="2" transform="matrix(1 0 0 -1 91 202)" fill="white"/>
<rect width="2" height="2" transform="matrix(1 0 0 -1 85 196)" fill="white"/>
<rect width="2" height="2" transform="matrix(1 0 0 -1 89 200)" fill="white"/>
<rect width="2" height="2" transform="matrix(1 0 0 -1 83 194)" fill="white"/>
</g>
<g opacity="0.5">
<rect width="2" height="2" transform="matrix(1 0 0 -1 94 252)" fill="white"/>
<rect width="2" height="2" transform="matrix(1 0 0 -1 88 246)" fill="white"/>
<rect width="2" height="2" transform="matrix(1 0 0 -1 92 250)" fill="white"/>
<rect width="2" height="2" transform="matrix(1 0 0 -1 86 244)" fill="white"/>
<rect width="2" height="2" transform="matrix(1 0 0 -1 90 248)" fill="white"/>
<rect width="2" height="2" transform="matrix(1 0 0 -1 84 242)" fill="white"/>
</g>
<g opacity="0.5">
<rect width="2" height="2" transform="matrix(1 0 0 -1 92 108)" fill="white"/>
<rect width="2" height="2" transform="matrix(1 0 0 -1 86 102)" fill="white"/>
<rect width="2" height="2" transform="matrix(1 0 0 -1 90 106)" fill="white"/>
<rect width="2" height="2" transform="matrix(1 0 0 -1 84 100)" fill="white"/>
<rect width="2" height="2" transform="matrix(1 0 0 -1 88 104)" fill="white"/>
<rect width="2" height="2" transform="matrix(1 0 0 -1 82 98)" fill="white"/>
</g>
<g opacity="0.5">
<rect width="2" height="2" transform="matrix(1 0 0 -1 93 60)" fill="white"/>
<rect width="2" height="2" transform="matrix(1 0 0 -1 87 54)" fill="white"/>
<rect width="2" height="2" transform="matrix(1 0 0 -1 91 58)" fill="white"/>
<rect width="2" height="2" transform="matrix(1 0 0 -1 85 52)" fill="white"/>
<rect width="2" height="2" transform="matrix(1 0 0 -1 89 56)" fill="white"/>
<rect width="2" height="2" transform="matrix(1 0 0 -1 83 50)" fill="white"/>
</g>
<g opacity="0.5">
<rect x="85" y="134" width="2" height="2" transform="rotate(180 85 134)" fill="white"/>
<rect x="91" y="128" width="2" height="2" transform="rotate(180 91 128)" fill="white"/>
<rect x="87" y="132" width="2" height="2" transform="rotate(180 87 132)" fill="white"/>
<rect x="93" y="126" width="2" height="2" transform="rotate(180 93 126)" fill="white"/>
<rect x="89" y="130" width="2" height="2" transform="rotate(180 89 130)" fill="white"/>
<rect x="95" y="124" width="2" height="2" transform="rotate(180 95 124)" fill="white"/>
</g>
<g opacity="0.5">
<rect x="85" y="182" width="2" height="2" transform="rotate(180 85 182)" fill="white"/>
<rect x="91" y="176" width="2" height="2" transform="rotate(180 91 176)" fill="white"/>
<rect x="87" y="180" width="2" height="2" transform="rotate(180 87 180)" fill="white"/>
<rect x="93" y="174" width="2" height="2" transform="rotate(180 93 174)" fill="white"/>
<rect x="89" y="178" width="2" height="2" transform="rotate(180 89 178)" fill="white"/>
<rect x="95" y="172" width="2" height="2" transform="rotate(180 95 172)" fill="white"/>
</g>
<g opacity="0.5">
<rect x="86" y="230" width="2" height="2" transform="rotate(180 86 230)" fill="white"/>
<rect x="92" y="224" width="2" height="2" transform="rotate(180 92 224)" fill="white"/>
<rect x="88" y="228" width="2" height="2" transform="rotate(180 88 228)" fill="white"/>
<rect x="94" y="222" width="2" height="2" transform="rotate(180 94 222)" fill="white"/>
<rect x="90" y="226" width="2" height="2" transform="rotate(180 90 226)" fill="white"/>
<rect x="96" y="220" width="2" height="2" transform="rotate(180 96 220)" fill="white"/>
</g>
<g opacity="0.5">
<rect x="84" y="86" width="2" height="2" transform="rotate(180 84 86)" fill="white"/>
<rect x="90" y="80" width="2" height="2" transform="rotate(180 90 80)" fill="white"/>
<rect x="86" y="84" width="2" height="2" transform="rotate(180 86 84)" fill="white"/>
<rect x="92" y="78" width="2" height="2" transform="rotate(180 92 78)" fill="white"/>
<rect x="88" y="82" width="2" height="2" transform="rotate(180 88 82)" fill="white"/>
<rect x="94" y="76" width="2" height="2" transform="rotate(180 94 76)" fill="white"/>
</g>
<g opacity="0.5">
<rect x="85" y="38" width="2" height="2" transform="rotate(180 85 38)" fill="white"/>
<rect x="91" y="32" width="2" height="2" transform="rotate(180 91 32)" fill="white"/>
<rect x="87" y="36" width="2" height="2" transform="rotate(180 87 36)" fill="white"/>
<rect x="93" y="30" width="2" height="2" transform="rotate(180 93 30)" fill="white"/>
<rect x="89" y="34" width="2" height="2" transform="rotate(180 89 34)" fill="white"/>
<rect x="95" y="28" width="2" height="2" transform="rotate(180 95 28)" fill="white"/>
</g>
</svg>
