<svg width="86" height="66" viewBox="0 0 86 66" fill="none" xmlns="http://www.w3.org/2000/svg">
<rect x="0.5" width="85" height="66" rx="10" fill="#E03A3A"/>
<path d="M34.5513 30.3651C35.2726 30.159 35.9939 30.3651 36.4061 30.9834L38.1578 33.5595C38.673 34.4869 39.7035 35.0021 40.8369 35.0021H48.2561C49.0804 35.0021 49.9048 34.2808 49.9048 33.3534C49.9048 32.529 49.0804 31.7047 48.2561 31.7047H41.7643C41.1461 31.7047 40.6309 31.4986 40.3217 30.9834L35.9939 24.3886C34.8604 22.8429 33.1087 21.8125 31.1508 21.8125C28.7808 21.8125 26.823 23.8734 26.823 26.2434V35.3112C26.823 36.6508 27.3382 37.8873 28.2656 38.8147L36.4061 46.9551C36.6122 47.2643 36.8182 47.5734 36.8182 47.8825L38.3639 56.7443C38.4669 57.6717 39.2913 58.2899 40.2187 58.0839C41.1461 57.9808 41.7643 57.1565 41.5582 56.2291L40.0126 46.8521C39.9095 46.1308 39.6004 45.5125 39.0852 45.1004L33.83 39.8451C33.5208 39.536 33.4178 39.0208 33.4178 38.6086V31.9108C33.4178 31.1895 33.83 30.5712 34.5513 30.3651ZM51.0383 35.0021H61.4457C62.27 35.0021 63.0944 34.2808 63.0944 33.3534V20.1638C63.0944 19.3395 62.27 18.5151 61.4457 18.5151H48.2561C47.3287 18.5151 46.6074 19.3395 46.6074 20.1638V26.7586H44.9587V20.1638C44.9587 18.4121 46.4013 16.8664 48.2561 16.8664H61.4457C63.1974 16.8664 64.743 18.4121 64.743 20.1638V33.3534C64.743 35.2082 63.1974 36.6508 61.4457 36.6508H40.8369C39.1882 36.6508 37.6426 35.8264 36.7152 34.4869L36.6122 34.3838L34.9635 31.9108V38.6086L40.2187 43.8638C41.043 44.5851 41.4552 45.5125 41.6613 46.543L43.2069 55.9199C43.5161 57.7747 42.2796 59.4234 40.5278 59.7325C38.673 60.0417 37.0243 58.8052 36.7152 57.0534L35.2726 48.1917L27.0291 39.9482C25.7926 38.7117 25.1743 37.063 25.1743 35.3112V26.2434C25.1743 22.946 27.8534 20.1638 31.1508 20.1638C33.6239 20.1638 35.9939 21.4003 37.3335 23.4612L41.7643 30.056H48.2561C50.0078 30.056 51.5535 31.6017 51.5535 33.3534C51.5535 33.9717 51.3474 34.5899 51.0383 35.0021ZM33.4178 8.62294C31.563 8.62294 30.1204 10.1686 30.1204 11.9203C30.1204 13.7751 31.563 15.2177 33.4178 15.2177C35.1695 15.2177 36.7152 13.7751 36.7152 11.9203C36.7152 10.1686 35.1695 8.62294 33.4178 8.62294ZM38.3639 11.9203C38.3639 13.7751 37.3335 15.3208 35.8908 16.2482C34.3452 17.1756 32.3874 17.1756 30.9448 16.2482C29.3991 15.3208 28.4717 13.7751 28.4717 11.9203C28.4717 10.1686 29.3991 8.62294 30.9448 7.69554C32.3874 6.76815 34.3452 6.76815 35.8908 7.69554C37.3335 8.62294 38.3639 10.1686 38.3639 11.9203ZM25.1743 42.7304L26.823 44.3791V56.4352C26.823 57.3625 27.5443 58.0839 28.4717 58.0839C29.2961 58.0839 30.1204 57.3625 30.1204 56.4352V47.6764L31.7691 49.3251V56.4352C31.7691 58.2899 30.2235 59.7325 28.4717 59.7325C26.6169 59.7325 25.1743 58.2899 25.1743 56.4352V42.7304Z" fill="white"/>
<path d="M69.9562 7.79871L17.7549 60" stroke="white" stroke-width="1.8" stroke-linecap="round"/>
</svg>
