<svg width="43" height="44" fill="none" xmlns="http://www.w3.org/2000/svg"><path fill-rule="evenodd" clip-rule="evenodd" d="M2.688 37.672a2.688 2.688 0 0 0 2.687 2.687h32.25a2.688 2.688 0 0 0 2.688-2.687V5.422a2.687 2.687 0 0 0-2.688-2.688H5.375a2.688 2.688 0 0 0-2.688 2.688v32.25Zm40.312 0a5.375 5.375 0 0 1-5.375 5.375H5.375A5.375 5.375 0 0 1 0 37.672V5.422A5.375 5.375 0 0 1 5.375.047h32.25A5.375 5.375 0 0 1 43 5.422v32.25ZM30.906 22.89a1.344 1.344 0 0 0 0-2.688H15.338l5.768-5.768a1.344 1.344 0 0 0-1.9-1.9l-8.062 8.062a1.344 1.344 0 0 0 0 1.9l8.062 8.063a1.344 1.344 0 1 0 1.9-1.9l-5.768-5.77h15.568Z" fill="#E03A3A"/></svg>