<svg width="198" height="54" fill="none" xmlns="http://www.w3.org/2000/svg"><path d="M.73 41.134c.066-.106.132-.159.198-.265 1.315-2.859 2.63-5.77 3.945-8.63 3.025-6.618 6.05-13.184 9.14-19.802.066-.106.066-.212.132-.265h13.809a15252.08 15252.08 0 0 1 13.414 29.015H28.94c-.46-1.112-.855-2.224-1.315-3.389h-13.02c-.46 1.112-.855 2.224-1.315 3.39H.73v-.054Zm16.768-11.013h7.168c-1.184-3.124-2.367-6.195-3.55-9.266h-.067c-1.183 3.071-2.367 6.142-3.55 9.266Z" fill="#272A48"/><path d="M78.39.1V.048h11.573V.1H78.39Z" fill="#B2E2CF"/><path d="M197.934 12.12h.065v7.677h-.065v-7.678Z" fill="#B7B8C2"/><path d="M113.635 11.59c3.683.053 7.168.635 10.39 2.065 4.932 2.17 7.957 5.453 9.074 9.901.855 3.442.395 6.777-1.578 9.901-2.038 3.23-5.195 5.507-9.337 6.883-2.039.689-4.077 1.06-6.247 1.218-3.551.265-6.97-.053-10.258-1.059-3.946-1.218-7.102-3.23-9.338-6.142-1.25-1.641-1.972-3.441-2.367-5.347-.46-2.542-.263-5.03.79-7.466 1.577-3.653 4.602-6.354 8.876-8.101 2.17-.9 4.406-1.43 6.839-1.641a68.95 68.95 0 0 1 3.156-.212Zm-8.68 15.302c0 .476.066 1.218.329 1.906.658 1.959 2.039 3.441 4.274 4.394 1.71.689 3.486.9 5.327.689 3.222-.37 5.458-1.748 6.707-4.183.986-1.96.986-3.971.066-5.93-.855-1.853-2.433-3.177-4.735-3.865-1.512-.477-3.025-.583-4.603-.424-2.564.265-4.603 1.324-5.984 3.071-.986 1.27-1.381 2.647-1.381 4.342Z" fill="#272A48"/><path d="M137.374 12.12h27.486v7.624h-16.505v2.859H164.4c.066.264.132 7.042.066 7.677h-16.045l-.066.053v10.854H137.44c-.066-9.69-.066-19.378-.066-29.068Zm60.561 0v7.676h-9.469c-.066 0-.066.052-.066.052v21.285c-.263.053-9.929.106-10.981.053v-21.39h-9.732v-7.678h30.248Z" fill="#282B49"/><path d="M78.39.1h11.571l-.197.317c-2.696 3.071-5.326 6.09-8.022 9.107-4.603 5.19-9.14 10.378-13.743 15.62-.066.106-.198.159-.263.265l-.395-.318c-.657-.689-1.38-1.43-2.038-2.118-.855-.847-1.644-1.747-2.5-2.595-.328-.37-.723-.74-1.117-1.164-.263.317-.592.635-.855.9a301.166 301.166 0 0 0-4.406 5.03c-.131.159-.328.317-.46.476-.394-.423-.855-.847-1.25-1.27-3.747-3.919-7.43-7.89-11.178-11.808-.066-.053-.131-.159-.197-.264h11.968c2.104 2.276 4.274 4.553 6.378 6.883a.773.773 0 0 1 .197-.212C67.342 12.7 72.8 6.506 78.258.259c0-.053.066-.106.131-.16Z" fill="#19A871"/><path d="M70.63 27.95c.197-.211.394-.476.592-.688 4.34-4.977 8.745-9.901 13.085-14.878.066-.106.132-.159.263-.265h11.442v.159c0 .053-.066.053-.066.106-4.471 5.083-9.008 10.219-13.48 15.302v.053c4.209 4.394 8.351 8.842 12.56 13.29-.33.052-11.179.105-11.902.052-.592-.582-1.118-1.217-1.71-1.853a299.09 299.09 0 0 1-4.472-4.818c-.065-.053-.131-.159-.197-.212-.066-.106-.131-.212-.263-.317-.46-.477-.92-.9-1.38-1.377a183.319 183.319 0 0 0-4.472-4.554Z" fill="#18A871"/><path d="M70.63 27.95c1.447 1.482 2.96 2.964 4.407 4.447.46.476.92.9 1.38 1.376.066.106.132.212.263.318-.591.636-1.117 1.27-1.71 1.96a4725.574 4725.574 0 0 0-14.597 16.73c-.066.107-.132.16-.198.265H48.668c.066-.106.132-.212.197-.264 4.406-4.977 8.812-9.954 13.152-14.932a1093.37 1093.37 0 0 0 8.416-9.583c.066-.159.132-.212.198-.318Z" fill="#019FE3"/><path d="M55.901 25.62c.132-.158.329-.317.46-.476a301.558 301.558 0 0 0 4.406-5.03c.263-.318.526-.582.855-.9.395.423.723.794 1.118 1.165.855.847 1.644 1.747 2.499 2.594.657.689 1.38 1.43 2.038 2.118l.395.318c-.658.741-1.316 1.535-1.973 2.277-3.88 4.394-7.76 8.842-11.64 13.236a1.22 1.22 0 0 1-.262.265H42.224c.065-.106.131-.212.197-.265 4.406-5.03 8.877-10.06 13.283-15.09.131-.053.131-.159.197-.212Z" fill="#01A4B7"/></svg>