<svg width="32" height="33" fill="none" xmlns="http://www.w3.org/2000/svg"><path fill-rule="evenodd" clip-rule="evenodd" d="M18.333 3.714 27 12.38h-4.333a4.333 4.333 0 0 1-4.334-4.333V3.714Zm-2 4.333V2.734a3.285 3.285 0 0 0-.36-.02h-8.69A3.282 3.282 0 0 0 4 5.996v20.103a3.282 3.282 0 0 0 3.282 3.282h17.436A3.282 3.282 0 0 0 28 26.099V14.74c0-.12-.007-.24-.02-.36h-5.313a6.333 6.333 0 0 1-6.334-6.333Zm-7.75 16v-5.726h1.856c.703 0 1.161.028 1.375.086.328.085.603.273.824.562.221.287.332.658.332 1.113 0 .352-.064.648-.191.887a1.58 1.58 0 0 1-.489.566 1.673 1.673 0 0 1-.597.27c-.276.055-.676.082-1.2.082H9.74v2.16H8.583ZM9.74 19.29v1.625h.632c.456 0 .76-.03.915-.09a.762.762 0 0 0 .492-.727.74.74 0 0 0-.184-.515.8.8 0 0 0-.465-.254c-.138-.026-.415-.039-.832-.039H9.74Zm4.175-.968h2.114c.476 0 .84.036 1.09.11.335.098.623.274.863.526a2.5 2.5 0 0 1 .547.93c.125.365.187.815.187 1.352 0 .471-.058.877-.176 1.218-.143.417-.347.754-.613 1.012-.2.195-.471.348-.812.457-.256.08-.597.121-1.024.121h-2.176v-5.726Zm1.157.968v3.793h.863c.323 0 .556-.018.7-.054.187-.047.342-.127.464-.239.125-.112.227-.295.305-.55.078-.258.117-.608.117-1.051 0-.443-.04-.783-.117-1.02a1.31 1.31 0 0 0-.328-.554 1.1 1.1 0 0 0-.536-.27c-.161-.036-.477-.055-.949-.055h-.52Zm4.636-.968v5.726h1.157v-2.433h2.39v-.97h-2.39V19.29h2.77v-.968h-3.927Z" fill="#EA4F4D"/></svg>