<svg width="16" height="17" fill="none" xmlns="http://www.w3.org/2000/svg"><path d="M9.5.783a.74.74 0 0 1 .75-.75h4.969a.74.74 0 0 1 .75.75v5c0 .438-.313.75-.75.75a.74.74 0 0 1-.75-.75V2.596L7.5 9.564a.684.684 0 0 1-1.031 0c-.313-.28-.313-.75 0-1.062l6.968-6.969H10.25a.722.722 0 0 1-.75-.75Zm-7.25.25h4a.76.76 0 0 1 .75.75.74.74 0 0 1-.75.75h-4a.74.74 0 0 0-.75.75v10.5c0 .438.313.75.75.75h10.5a.74.74 0 0 0 .75-.75v-4a.74.74 0 0 1 .75-.75.76.76 0 0 1 .75.75v4a2.26 2.26 0 0 1-2.25 2.25H2.25c-1.25 0-2.25-1-2.25-2.25v-10.5c0-1.219 1-2.25 2.25-2.25Z" fill="#fff"/></svg>