<svg width="309" height="38" fill="none" xmlns="http://www.w3.org/2000/svg"><g clip-path="url(#a)"><path d="M22.021 5.521c.12-.212-.034-.495-.276-.495h-5.318c-.241 0-.397.283-.276.495l2.659 4.718a.32.32 0 0 0 .552 0l2.66-4.718Zm-8.047 0c.121-.212-.034-.495-.276-.495H8.381c-.242 0-.397.283-.277.495l2.66 4.718a.32.32 0 0 0 .552 0l2.658-4.718Zm3.747 5.689c.242 0 .398-.282.277-.494l-2.659-4.718a.32.32 0 0 0-.553 0l-2.658 4.718c-.121.212.034.495.276.495h5.317Z" fill="#E31E24"/><path d="M7.292 5.998a.32.32 0 0 0-.552 0l-2.66 4.718c-.12.212.034.495.276.495h5.318c.241 0 .397-.283.276-.495L7.292 5.998Zm2.658 6.661c.122-.212-.034-.495-.275-.495H4.357c-.242 0-.397.283-.276.495l2.659 4.718a.32.32 0 0 0 .552 0l2.659-4.718Zm-6.681.478a.32.32 0 0 0-.553 0L.058 17.855c-.121.212.034.494.276.494H5.65c.242 0 .397-.282.276-.494L3.27 13.137Z" fill="#AE2B30"/><path d="M25.768 11.21c.242 0 .397-.282.276-.494l-2.658-4.718a.32.32 0 0 0-.553 0l-2.658 4.718c-.121.212.034.495.276.495h5.317Zm-2.935 6.167a.32.32 0 0 0 .553 0l2.659-4.718c.12-.212-.035-.495-.277-.495h-5.317c-.242 0-.397.283-.276.495l2.658 4.718Zm6.955.973c.241 0 .397-.283.276-.495l-2.659-4.718a.32.32 0 0 0-.552 0l-2.659 4.718c-.12.212.035.494.277.494h5.317Z" fill="#D7D5D3"/><path d="M.318 19.304c-.242 0-.397.282-.276.495L2.7 24.517a.32.32 0 0 0 .552 0l2.659-4.718c.12-.213-.035-.495-.276-.495H.318Zm3.747 5.688c-.12.212.035.495.277.495h5.317c.242 0 .397-.283.276-.495l-2.659-4.718a.32.32 0 0 0-.552 0l-2.659 4.718Z" fill="#4A63AB"/><path d="M26.853 24.517a.32.32 0 0 0 .552 0l2.66-4.718c.12-.213-.036-.495-.277-.495H24.47c-.242 0-.398.282-.277.495l2.659 4.718Zm-6.678.475c-.121.212.034.495.276.495h5.317c.242 0 .397-.283.276-.495l-2.658-4.718a.32.32 0 0 0-.553 0l-2.658 4.718Zm2.658 6.661a.32.32 0 0 0 .553 0l2.659-4.718c.12-.212-.035-.495-.277-.495h-5.317c-.242 0-.397.283-.276.495l2.658 4.718Z" fill="#EEEEEC"/><path d="M12.404 26.44c-.242 0-.397.283-.276.495l2.659 4.718a.32.32 0 0 0 .552 0l2.659-4.718c.12-.212-.035-.495-.277-.495h-5.317Z" fill="#363789"/><path d="M4.342 26.44c-.242 0-.397.283-.277.495l2.659 4.718a.32.32 0 0 0 .552 0l2.66-4.718c.12-.212-.035-.495-.277-.495H4.342Z" fill="#4A63AB"/><path d="M8.089 32.112c-.121.212.034.495.276.495h5.317c.242 0 .397-.283.277-.495l-2.66-4.718a.32.32 0 0 0-.551 0l-2.66 4.718Zm8.043 0c-.121.212.034.495.276.495h5.317c.242 0 .397-.283.277-.495l-2.66-4.718a.32.32 0 0 0-.552 0l-2.658 4.718Z" fill="#363789"/><path d="M36.227 16.706h5.04v.83h1.503v-2.438h-.725V9.391H40.18v5.601h-2.072v-5.6h-1.864v7.314h-.017Zm11.93-3.604v3.604h1.88v-7.35h-.655l-3.626 3.604V9.374h-1.864v7.315h.656l3.608-3.605v.018Zm9.892-.07c0 1.042-.777 1.324-1.52 1.36v-2.704c.794.036 1.52.3 1.52 1.343Zm-4.748 0c0-1.043.742-1.326 1.52-1.344v2.704c-.743-.036-1.52-.318-1.52-1.36Zm1.502 3.71h1.744v-.619c1.847-.07 3.366-.813 3.366-3.092 0-2.261-1.52-3.004-3.366-3.056v-.619h-1.761v.619c-1.848.07-3.367.795-3.367 3.056 0 2.28 1.52 3.021 3.367 3.092v.619h.017Zm8.321-.036v-1.873h1.312c3.418 0 3.418-5.442 0-5.442h-3.142v7.315h1.83Zm1.312-3.551h-1.312V11.07c.414 0 .88-.018 1.312 0 1.07.018 1.001 2.085 0 2.085Zm10.86-.088c0-5.054-7.338-5.054-7.338 0 0 5.07 7.337 5.07 7.337 0Zm-5.456 0c0-2.633 3.59-2.633 3.59 0 0 2.65-3.59 2.65-3.59 0Zm12.12-1.414c0-1.272-.985-2.244-2.228-2.244h-3.055v7.315h3.349c1.467 0 2.21-1.043 2.227-2.315 0-.653-.276-1.184-.863-1.502.345-.3.57-.83.57-1.272v.018Zm-2.072 2.173c.742 0 .742 1.237.017 1.237h-1.468v-1.237h1.45Zm-.311-2.738c.742 0 .742 1.183.017 1.183h-1.157v-1.183h1.14Zm10.997 1.996c0-5.053-7.337-5.053-7.337 0 0 5.071 7.337 5.071 7.337 0Zm-5.455 0c0-2.632 3.59-2.632 3.59 0 0 2.65-3.59 2.65-3.59 0Zm7.544 3.658h-.656V9.427h1.865v3.587l3.625-3.605h.656v7.35h-1.882v-3.604l-3.608 3.604v-.017Zm1.968-9.612c-.362.018-.708.07-1.053.106.035 1.166.673 1.784 1.778 1.784 1.14 0 1.744-.618 1.796-1.784-.346-.035-.69-.088-1.053-.106-.07.442-.346.583-.76.583-.432 0-.673-.194-.708-.583ZM39.576 24.039l-2.918-3.781h-.431v7.332h1.19v-4.576l2.072 2.703h.156l2.072-2.703v4.576h1.19v-7.332h-.43l-2.901 3.78Zm9.443 2.032.708 1.52h1.243v-.16l-3.297-7.209h-.553l-3.314 7.21v.158h1.242l.691-1.52h3.28Zm-1.622-3.958 1.242 2.933h-2.503l1.26-2.933Zm5.662 5.477V25.4h1.761c1.571 0 2.52-1.167 2.52-2.545 0-1.396-.932-2.58-2.52-2.58h-2.97v7.315h1.21Zm-.017-3.269v-3.003h1.795c.829 0 1.381.653 1.381 1.502 0 .848-.57 1.501-1.38 1.501h-1.796Zm6.681-4.063h-1.191v7.314h1.191V24.48c.345 0 1.036 0 1.347-.123l2.037 3.198h1.347v-.177l-2.348-3.498c.483-.442.707-1.166.932-1.961.207-.76.466-.884 1.191-.83v-.831c-1.467-.283-2.02.37-2.279 1.325-.19.76-.397 1.502-.811 1.731-.311.16-.864.177-1.399.177v-3.233h-.017Zm10.151 0h-4.35v7.314h4.42V26.46h-3.212v-2.138h2.987v-1.077h-2.987v-1.926h3.16v-1.06h-.018Zm2.918 1.077v6.237h1.157v-6.237h2.072v-1.077h-5.318v1.077h2.089Zm4.316-1.077v7.314H78.3v-6.219h3.263v6.22h1.192v-7.315h-5.646Zm9.547 1.095h2.348v6.237h1.191v-7.315h-4.592l-.57 5.336c-.086.83-.293 1.184-1.208 1.06l-.017.901c1.692.248 2.261-.23 2.417-1.925l.431-4.294Zm9.668-1.095h-4.35v7.314h4.42V26.46H93.18v-2.138h2.987v-1.077H93.18v-1.926h3.16v-1.06h-.018Zm3.004-2.156c.07.954.708 1.573 1.726 1.573 1.071 0 1.606-.654 1.692-1.573-.224-.035-.535-.07-.759-.088-.087.494-.466.671-.933.671-.483-.017-.828-.212-.88-.671l-.829.088h-.017Zm-1.053 9.47h-.414v-7.314h1.19v2.668l-.085 2.226 4.35-4.912h.432v7.35h-1.174v-2.65l.086-2.315-4.368 4.983-.017-.036Zm6.819-3.657c0 2.35 1.692 3.728 3.626 3.728 1.45 0 2.917-.777 3.28-2.58h-1.157c-.31.972-1.139 1.467-2.123 1.467-1.468 0-2.434-1.166-2.434-2.615 0-1.555.966-2.65 2.434-2.65.932.017 1.743.424 2.089 1.343h1.139c-.38-1.661-1.83-2.439-3.228-2.439-1.951 0-3.643 1.396-3.643 3.764l.017-.018Z" fill="#2B2A29"/></g><path d="m152.358 10.229 2.543 5.19 5.593.82c.469.078.86.39 1.017.859.156.429.039.936-.313 1.248l-4.068 4.02.978 5.698c.078.468-.118.937-.509 1.21-.391.312-.899.312-1.33.117l-5.006-2.693-5.046 2.693c-.391.195-.899.195-1.29-.117a1.226 1.226 0 0 1-.509-1.21l.939-5.698-4.068-4.02c-.313-.312-.43-.82-.313-1.248a1.275 1.275 0 0 1 1.017-.859l5.633-.82 2.503-5.19c.195-.43.626-.703 1.134-.703.469 0 .9.274 1.095.703Zm22.529 0 2.543 5.19 5.593.82c.469.078.86.39 1.017.859.156.429.039.936-.313 1.248l-4.068 4.02.978 5.698c.078.468-.117.937-.509 1.21-.391.312-.899.312-1.329.117l-5.007-2.693-5.045 2.693c-.392.195-.9.195-1.291-.117a1.226 1.226 0 0 1-.509-1.21l.939-5.698-4.068-4.02c-.313-.312-.43-.82-.313-1.248a1.275 1.275 0 0 1 1.017-.859l5.633-.82 2.503-5.19c.195-.43.626-.703 1.134-.703.47 0 .9.274 1.095.703Zm22.529 0 2.543 5.19 5.593.82c.469.078.86.39 1.017.859.156.429.039.936-.313 1.248l-4.068 4.02.978 5.698c.078.468-.117.937-.508 1.21-.392.312-.9.312-1.33.117l-5.007-2.693-5.045 2.693c-.391.195-.9.195-1.291-.117a1.223 1.223 0 0 1-.508-1.21l.938-5.698-4.068-4.02c-.312-.312-.43-.82-.312-1.248a1.272 1.272 0 0 1 1.016-.859l5.633-.82 2.503-5.19c.196-.43.626-.703 1.134-.703.47 0 .9.274 1.095.703Zm22.53 0 2.542 5.19 5.593.82c.469.078.861.39 1.017.859.157.429.039.936-.313 1.248l-4.068 4.02.978 5.698c.078.468-.117.937-.508 1.21-.391.312-.9.312-1.33.117l-5.007-2.693-5.045 2.693c-.391.195-.9.195-1.291-.117a1.223 1.223 0 0 1-.508-1.21l.938-5.698-4.067-4.02c-.313-.312-.431-.82-.313-1.248a1.272 1.272 0 0 1 1.017-.859l5.632-.82 2.503-5.19c.196-.43.626-.703 1.134-.703.47 0 .9.274 1.096.703Zm23.507-.156 2.698 5.502 5.985.898c.352.04.625.312.743.625a.917.917 0 0 1-.235.975l-4.341 4.293 1.056 6.05c.039.35-.118.702-.391.936-.313.195-.665.234-.978.078l-5.359-2.888-5.358 2.888c-.313.156-.704.117-1.017-.078-.274-.234-.43-.585-.352-.937l1.017-6.049-4.342-4.293a.917.917 0 0 1-.235-.975c.118-.313.392-.586.744-.625l5.984-.897 2.699-5.503c.156-.312.469-.547.821-.547.391 0 .704.235.861.547Zm-.822 14.479c.118 0 .274.039.43.117l4.107 2.185-.782-4.683c-.078-.273.039-.585.274-.82l3.324-3.317-4.615-.663c-.313-.04-.547-.234-.704-.508l-2.034-4.214v11.903Z" fill="#E03A3A"/><rect x="272" y=".047" width="37" height="37" rx="4" fill="#E03A3A"/><path d="M284.946 12.555v8.388h1.818v1.26h-1.818v2.844h-1.422v-2.844h-7.02V20.51l6.264-7.956h2.178Zm-1.422 8.388v-7.47h-.036l-5.832 7.47h5.868Zm7.267 2.412v1.692h-1.476v-1.692h1.476Zm11.382-10.8v8.388h1.818v1.26h-1.818v2.844h-1.422v-2.844h-7.02V20.51l6.264-7.956h2.178Zm-1.422 8.388v-7.47h-.036l-5.832 7.47h5.868Z" fill="#fff"/><defs><clipPath id="a"><path fill="#fff" transform="translate(0 5.026)" d="M0 0h112v27.584H0z"/></clipPath></defs></svg>