<svg width="353" height="52" fill="none" xmlns="http://www.w3.org/2000/svg"><g clip-path="url(#a)"><mask id="b" style="mask-type:luminance" maskUnits="userSpaceOnUse" x="0" y="-1" width="52" height="52"><path d="M51.53-1H0v51.537h51.53V-1Z" fill="#fff"/></mask><g mask="url(#b)"><path d="M12.883-1C5.768-1 0 4.77 0 11.885v25.769c0 7.115 5.768 12.884 12.883 12.884h25.765c7.115 0 12.883-5.768 12.883-12.884V-1H12.883Z" fill="#B1EC52"/><path d="M14.083 19.58c-.422-1.843 1.417-3.474 3.795-3.474 2.143 0 4.29.48 5.107 3.468h2.747v4.56c-3.424-2.816-10.848-1.05-11.65-4.554Zm28.497-1.262h-6.187l-5.886 6.447v-12.88h-4.775v3.12a7.982 7.982 0 0 0-.504-.596c-1.737-1.838-4.239-2.77-7.438-2.77-3.699 0-5.802 1.656-6.915 3.044-1.383 1.725-2 4.078-1.573 5.995 1.107 4.964 5.712 5.757 9.096 6.197 2.67.348 5.226.832 5.158 3.214-.07 2.47-2.856 3.078-4.684 3.078-4.761 0-4.922-3.52-4.922-3.52H8.83c.074 1.322.474 3.444 2.1 5.265 1.782 1.995 4.454 3.007 7.942 3.007 2.676 0 5.113-.872 6.86-2.42v2.127h4.775v-6.08l1.69-1.848 4.823 7.928h5.558l-7.019-11.612 7.02-7.696Z" fill="#4D5759"/></g><path d="M67.703 17.701V3.731h7.053c2.677 0 3.297 1.832 3.297 4.228 0 1.248 0 4.307-3.377 4.307h-5.415v5.435h-1.558Zm6.374-12.58H69.26v5.756h4.076c2.078 0 3.157 0 3.157-2.717 0-2.677-.48-3.04-2.417-3.04Zm7.08.02v4.75h7.013v1.288h-7.014v5.133h7.334v1.39h-8.912V3.731h8.912V5.14h-7.334Zm18.913 8.615c0 4.207-2.078 4.066-5.395 4.066-3.177 0-4.915-.463-4.915-3.724v-.926h1.558v.926c0 2.194.38 2.315 3.357 2.315 3.357 0 3.817-.06 3.817-2.818 0-2.375-1.1-2.355-3.077-2.355h-1.659V9.85h1.659c1.978 0 2.797.041 2.797-2.314 0-2.315-.32-2.516-3.597-2.516-2.657 0-3.097.221-3.097 2.395v.604H89.94v-.604c0-3.563 1.658-3.804 4.875-3.784 2.957 0 4.975 0 4.975 3.623 0 1.792-.26 3.12-2.297 3.261v.04c2.118.162 2.577 1.148 2.577 3.2Zm13.288-10.024v13.97h-1.578V5.723h-.06L104.167 17.7h-2.058V3.731h1.559V15.71h.059l7.553-11.977h2.078Zm15.133 17.653h-1.579V17.7h-10.59v3.684h-1.578v-5.073h1.079c.959-.906 1.958-1.73 1.958-5.978V3.732h9.451v12.58h1.259v5.073Zm-2.838-5.073V5.121h-6.314v5.213c0 4.106-.859 5.294-1.538 5.978h7.852Zm5.222-11.171v4.75h7.014v1.288h-7.014v5.133h7.333v1.39h-8.911V3.731h8.911V5.14h-7.333Zm20.572-1.41v13.97h-1.578v-6.42h-8.112v6.42h-1.559V3.731h1.559v6.16h8.112v-6.16h1.578Zm7.44 1.41V17.7h-1.578V5.141h-4.476V3.73h10.549v1.41h-4.495Zm23.527-1.41v13.97h-1.578V5.724h-.06l-7.553 11.977h-2.058V3.731h1.559V15.71h.06l7.552-11.977h2.078Zm13.874 0v13.97h-1.578v-6.42h-8.113v6.42h-1.558V3.731h1.558v6.16h8.113v-6.16h1.578Zm13.874 0v13.97h-1.579v-6.42h-8.112v6.42h-1.559V3.731h1.559v6.16h8.112v-6.16h1.579Zm6.58-.1h1.858c3.457 0 4.516 1.188 4.516 4.69v4.972c0 3.301-1.179 4.529-4.516 4.529h-1.858c-3.337 0-4.516-1.228-4.516-4.529V8.321c0-3.502 1.059-4.69 4.516-4.69Zm1.878 1.389h-1.898c-2.338 0-2.937.584-2.937 3.301v4.972c0 2.778.899 3.12 2.937 3.12h1.898c2.038 0 2.938-.342 2.938-3.12V8.321c0-2.717-.6-3.301-2.938-3.301Zm7.954 6.2v5.092h4.976c1.698 0 2.537-.221 2.537-2.355 0-1.832-.279-2.737-2.357-2.737h-5.156Zm5.795 6.481h-7.373V3.731h7.033c2.598 0 3.217 1.249 3.217 3.684 0 1.47-.299 2.476-1.738 2.96v.02c1.838.342 2.138 1.69 2.138 3.421 0 2.516-.919 3.885-3.277 3.885Zm-5.795-12.56v4.69h4.576c1.878 0 2.518-.443 2.518-2.617 0-1.872-.72-2.073-2.358-2.073h-4.736Zm19.953 9.601h-6.993l-1.079 2.96h-1.639l5.036-13.97h2.218l5.175 13.97h-1.619l-1.099-2.96Zm-.439-1.308-3.097-8.394-3.038 8.394h6.135ZM261.61 17.7h-10.93V3.731h1.559v12.581h8.112V3.732h1.578v12.58h1.259v5.073h-1.578V17.7Zm14.193-13.97V17.7h-1.579V5.724h-.059l-7.553 11.977h-2.058V3.731h1.558V15.71h.06l7.553-11.977h2.078Zm6.58-.1h1.859c3.456 0 4.515 1.188 4.515 4.69v4.972c0 3.301-1.178 4.529-4.515 4.529h-1.859c-3.336 0-4.515-1.228-4.515-4.529V8.321c0-3.502 1.059-4.69 4.515-4.69Zm1.879 1.389h-1.899c-2.337 0-2.937.584-2.937 3.301v4.972c0 2.778.899 3.12 2.937 3.12h1.899c2.038 0 2.937-.342 2.937-3.12V8.321c0-2.717-.6-3.301-2.937-3.301Zm17.825-1.288v13.97h-1.579V11.28h-8.112v6.421h-1.559V3.731h1.559v6.16h8.112v-6.16h1.579Zm13.873 0v13.97h-1.578V11.28h-8.113v6.421h-1.558V3.731h1.558v6.16h8.113v-6.16h1.578Zm6.581-.101h1.858c3.456 0 4.515 1.188 4.515 4.69v4.972c0 3.301-1.178 4.529-4.515 4.529h-1.858c-3.337 0-4.516-1.228-4.516-4.529V8.321c0-3.502 1.059-4.69 4.516-4.69Zm1.878 1.389h-1.898c-2.338 0-2.938.584-2.938 3.301v4.972c0 2.778.899 3.12 2.938 3.12h1.898c2.038 0 2.937-.342 2.937-3.12V8.321c0-2.717-.599-3.301-2.937-3.301Zm8.034.12V17.7h-1.579V3.731h8.512v1.41h-6.933Zm12.645-1.509h1.858c3.457 0 4.516 1.188 4.516 4.69v4.972c0 3.301-1.179 4.529-4.516 4.529h-1.858c-3.337 0-4.516-1.228-4.516-4.529V8.321c0-3.502 1.059-4.69 4.516-4.69Zm1.878 1.389h-1.898c-2.338 0-2.938.584-2.938 3.301v4.972c0 2.778.899 3.12 2.938 3.12h1.898c2.038 0 2.937-.342 2.937-3.12V8.321c0-2.717-.599-3.301-2.937-3.301ZM78.852 41.185h-10.93v-13.97h1.559v12.581h8.112v-12.58h1.579v12.58h1.259v5.073h-1.579v-3.684Zm3.963-12.56v4.75h7.013v1.288h-7.013v5.133h7.333v1.39h-8.911v-13.97h8.911v1.409h-7.333Zm20.572-1.41v13.97h-1.578v-6.421h-8.113v6.421h-1.558v-13.97h1.558v6.16h8.113v-6.16h1.578Zm7.44 1.41v12.56h-1.579v-12.56h-4.475v-1.41h10.55v1.41h-4.496Zm5.677 12.56v-13.97h7.054c2.677 0 3.296 1.832 3.296 4.228 0 1.248 0 4.307-3.376 4.307h-5.415v5.435h-1.559Zm6.374-12.58h-4.815v5.756h4.076c2.078 0 3.157 0 3.157-2.717 0-2.677-.48-3.04-2.418-3.04Zm14.573 9.621h-6.993l-1.079 2.96h-1.639l5.035-13.97h2.218l5.175 13.97h-1.618l-1.099-2.96Zm-.44-1.308-3.097-8.394-3.037 8.394h6.134Zm13.19-6.441 1.059.664-2.178 4.67 2.418 4.71-1.019.664-2.777-5.374 2.497-5.334Zm3.417 0 1.059.664-2.178 4.67 2.418 4.71-.999.664-2.797-5.374 2.497-5.334Zm9.408 10.829h-2.218c-2.517 0-4.016-1.61-4.016-4.408v-5.395c0-3.945 2.418-4.388 5.774-4.388h1.299c2.898 0 3.797 1.268 3.797 4.026v.443h-1.579v-.403c0-1.953-.4-2.677-2.438-2.677h-.899c-3.236 0-4.395.402-4.395 2.939v3.844c0 3.18.14 4.61 2.757 4.61h1.858c2.518 0 3.297-.342 3.297-2.335v-1.127h1.579v1.308c0 3.2-2.039 3.563-4.816 3.563Zm18.488-.12h-.68c-2.178 0-2.118-1.37-2.118-3.221v-.584c0-1.772-.439-2.617-2.337-2.617h-5.256v6.421h-1.558v-13.97h1.558v6.16h4.956c1.898 0 2.338-.845 2.338-2.617v-.322c0-1.852-.06-3.22 2.118-3.22h.679v1.389h-.3c-.859 0-.939.483-.939 1.026v1.872c0 1.43-.519 2.395-1.878 2.456v.06c1.399.1 2.178.725 2.178 2.617v2.134c0 .543.08 1.026.939 1.026h.3v1.39Zm5.881-14.071h1.858c3.457 0 4.516 1.188 4.516 4.69v4.972c0 3.301-1.179 4.529-4.516 4.529h-1.858c-3.337 0-4.516-1.228-4.516-4.53v-4.971c0-3.503 1.059-4.69 4.516-4.69Zm1.878 1.389h-1.898c-2.338 0-2.937.584-2.937 3.301v4.972c0 2.778.899 3.12 2.937 3.12h1.898c2.038 0 2.937-.342 2.937-3.12v-4.972c0-2.717-.599-3.301-2.937-3.301Zm9.653 8.353c0 3.1-1.219 4.328-3.817 4.328h-.36v-1.389h.06c2.458 0 2.558-1.429 2.558-4.952v-7.628h9.731v13.97h-1.579V28.604h-6.593v8.252Zm22.745 4.328h-.68c-2.178 0-2.118-1.369-2.118-3.22v-.584c0-1.772-.439-2.617-2.337-2.617h-5.255v6.421h-1.559v-13.97h1.559v6.16h4.955c1.898 0 2.338-.845 2.338-2.617v-.322c0-1.852-.06-3.22 2.118-3.22h.679v1.389h-.3c-.859 0-.939.483-.939 1.026v1.872c0 1.43-.519 2.395-1.878 2.456v.06c1.399.1 2.178.725 2.178 2.617v2.134c0 .543.08 1.026.939 1.026h.3v1.39Zm5.881-14.07h1.858c3.457 0 4.516 1.188 4.516 4.69v4.972c0 3.301-1.179 4.529-4.516 4.529h-1.858c-3.337 0-4.516-1.228-4.516-4.53v-4.971c0-3.503 1.059-4.69 4.516-4.69Zm1.878 1.389h-1.898c-2.338 0-2.937.584-2.937 3.301v4.972c0 2.778.899 3.12 2.937 3.12h1.898c2.038 0 2.937-.342 2.937-3.12v-4.972c0-2.717-.599-3.301-2.937-3.301Zm7.954 6.2v5.092h4.976c1.698 0 2.537-.221 2.537-2.355 0-1.832-.28-2.737-2.358-2.737h-5.155Zm5.795 6.481h-7.373v-13.97h7.033c2.598 0 3.217 1.249 3.217 3.684 0 1.47-.3 2.476-1.738 2.96v.02c1.838.342 2.138 1.69 2.138 3.421 0 2.516-.919 3.885-3.277 3.885Zm-5.795-12.56v4.69h4.576c1.878 0 2.518-.443 2.518-2.617 0-1.872-.72-2.073-2.358-2.073h-4.736Zm15.399-1.51h1.858c3.457 0 4.516 1.188 4.516 4.69v4.972c0 3.301-1.179 4.529-4.516 4.529h-1.858c-3.337 0-4.516-1.228-4.516-4.53v-4.971c0-3.503 1.059-4.69 4.516-4.69Zm1.878 1.389h-1.898c-2.338 0-2.937.584-2.937 3.301v4.972c0 2.778.899 3.12 2.937 3.12h1.898c2.038 0 2.937-.342 2.937-3.12v-4.972c0-2.717-.599-3.301-2.937-3.301Zm9.953 2.637 1.079-.664 2.477 5.334-2.777 5.374-1.019-.664 2.417-4.71-2.177-4.67Zm-3.417 0 1.059-.664 2.497 5.334-2.777 5.374-1.019-.664 2.418-4.71-2.178-4.67Z" fill="#2D2D2D"/></g><defs><clipPath id="a"><path fill="#fff" d="M0 0h353v52H0z"/></clipPath></defs></svg>