<svg width="44" height="44" fill="none" xmlns="http://www.w3.org/2000/svg"><path d="M38.86 38.917h-2.59v5.062h-2.601V33.72h-2.57v2.506h-2.612v2.609h-2.57v2.598h-2.6V44h-2.602v-2.516h-2.59v-2.609h-2.612v-2.598h-2.57v-2.558h-2.612v10.26h-2.59v-5.083H5.14v2.516H2.57V44H.01v-2.557h2.528v-2.588h2.58v-2.578H.01v-2.62H10.3V31.06H7.751v-2.57h-2.59v-2.609H2.548v-2.578H.03v-2.567h2.497v-2.63h2.601V15.55H7.73v-2.62h2.654v-2.66l-.021.01h2.56V7.755h2.559V5.166h2.611V2.588h2.58V0h2.602v2.568h2.6v2.567h2.58v2.609h2.612v2.568h2.58V.01h2.591v5.115h2.591V2.547h2.653l-.01-.01v2.608h-2.58v2.589H44v2.578H33.7v2.598h2.549v2.61h2.59v2.567h2.591v2.608H44v2.61h-2.549v2.567H38.85v2.609h-2.59v2.567H33.7v2.589h10.29v2.619h-5.15v2.681l.02-.02ZM28.52 15.498V12.91h-2.643v-2.526h-2.602v5.083h-2.59v-5.083h-2.601v2.557h-2.528v2.588h2.538v2.589h2.58v2.547h-2.58v-2.547h-2.601V15.56h-2.57v2.567h-2.549v2.599h5.109v2.578h-5.109v2.598h2.58v2.516h2.58V25.85h2.612v-2.588h2.528v-2.63c.878.01 1.766.01 2.643.021v2.63h2.612v2.62h2.58v2.525h2.58v-2.557h2.55v-2.599H28.56v-2.588h5.077v-2.598h-2.56v-2.599c-.908.01-1.733.01-2.559.01Zm-7.804 18.118v-5.094h2.601v5.094h2.57v-2.567h2.549V28.46h-2.58v-2.598h-2.58v-2.526h-2.602v2.567h-2.611v2.599h-2.507v2.578h2.538v2.546c.898-.01 1.713-.01 2.622-.01Z" fill="#B9B9B9"/><path d="M5.108 5.145H7.71V.031h2.58c.021 3.417.053 6.843.074 10.26-3.458 0-6.905.01-10.363.01V7.765h5.108v-2.64c.01.01 0 .02 0 .02ZM38.84 38.927h2.59v2.474H44v2.578h-2.538v-2.526H38.85v-2.536c.01 0-.01.01-.01.01Z" fill="#B9B9B9"/><path d="M2.497 2.557h2.611v2.588l.01-.01h-2.61V2.547l-.011.01Zm38.985 0V.021H44v2.526h-2.528c0-.01.01.01.01.01ZM2.507 2.536H.01V.01h2.487v2.537c0 .01.01-.01.01-.01Zm26.022 12.952v2.63h-2.633v2.567h-2.611v-2.547h2.58v-2.65h2.664Z" fill="#B9B9B9"/></svg>