<svg width="86" height="66" fill="none" xmlns="http://www.w3.org/2000/svg"><rect x=".5" width="85" height="66" rx="10" fill="#E03A3A"/><path d="M34.551 30.365c.722-.206 1.443 0 1.855.618l1.752 2.576c.515.928 1.545 1.443 2.679 1.443h7.42c.823 0 1.648-.721 1.648-1.649 0-.824-.825-1.648-1.649-1.648h-6.492c-.618 0-1.133-.206-1.442-.722l-4.328-6.594c-1.134-1.546-2.885-2.576-4.843-2.576-2.37 0-4.328 2.06-4.328 4.43v9.068c0 1.34.515 2.576 1.443 3.504l8.14 8.14c.206.31.412.618.412.928l1.546 8.861c.103.928.927 1.546 1.855 1.34.927-.103 1.545-.928 1.34-1.855l-1.546-9.377c-.103-.721-.413-1.34-.928-1.752l-5.255-5.255c-.31-.309-.412-.824-.412-1.236V31.91c0-.722.412-1.34 1.133-1.546Zm16.487 4.637h10.408c.824 0 1.648-.721 1.648-1.649v-13.19c0-.823-.824-1.648-1.648-1.648h-13.19c-.927 0-1.649.825-1.649 1.649v6.595H44.96v-6.595c0-1.752 1.442-3.298 3.297-3.298h13.19c1.751 0 3.297 1.546 3.297 3.298v13.19c0 1.854-1.546 3.297-3.297 3.297h-20.61a5.034 5.034 0 0 1-4.12-2.164l-.104-.103-1.648-2.473v6.698l5.255 5.255c.824.721 1.236 1.649 1.442 2.679l1.546 9.377a3.293 3.293 0 0 1-2.68 3.813 3.293 3.293 0 0 1-3.812-2.68l-1.442-8.861-8.244-8.244c-1.236-1.236-1.855-2.885-1.855-4.637v-9.068c0-3.297 2.68-6.08 5.977-6.08 2.473 0 4.843 1.237 6.183 3.298l4.43 6.595h6.492c1.752 0 3.297 1.546 3.297 3.297 0 .619-.206 1.237-.515 1.65Zm-17.62-26.38c-1.855 0-3.298 1.547-3.298 3.298 0 1.855 1.443 3.298 3.298 3.298 1.752 0 3.297-1.443 3.297-3.298 0-1.751-1.546-3.297-3.297-3.297Zm4.946 3.298c0 1.855-1.03 3.4-2.473 4.328-1.546.928-3.504.928-4.946 0-1.546-.927-2.473-2.473-2.473-4.328 0-1.751.927-3.297 2.473-4.224 1.442-.928 3.4-.928 4.946 0 1.443.927 2.473 2.473 2.473 4.224Zm-13.19 30.81 1.649 1.65v12.055c0 .927.721 1.649 1.649 1.649.824 0 1.648-.722 1.648-1.649v-8.759l1.65 1.65v7.11c0 1.854-1.546 3.297-3.298 3.297-1.855 0-3.298-1.443-3.298-3.298V42.73Z" fill="#fff"/><path d="M69.956 7.799 17.755 60" stroke="#fff" stroke-width="1.8" stroke-linecap="round"/></svg>