<svg width="85" height="67" fill="none" xmlns="http://www.w3.org/2000/svg"><rect y=".511" width="85" height="66" rx="10" fill="#E03A3A"/><path d="M34.71 10.43c-3.973 0-7.462 2.065-9.4 5.255-2.036 3.284-2.036 7.32 0 10.51 1.938 3.283 5.427 5.254 9.4 5.254 3.877 0 7.367-1.97 9.305-5.255 2.035-3.19 2.035-7.224 0-10.509-1.938-3.19-5.428-5.254-9.304-5.254Zm-4.458 28.525c-8.723 0-15.701 6.85-15.701 15.295 0 .656.581 1.22 1.26 1.22h37.703c.678 0 1.356-.564 1.356-1.22v-.282h1.551v.282c0 1.5-1.357 2.72-2.907 2.72H15.81c-1.55 0-2.81-1.22-2.81-2.72 0-9.29 7.657-16.796 17.252-16.796h8.82c.679 0 1.26.094 1.842.094v1.501c-.582 0-1.26-.094-1.842-.094h-8.82ZM47.117 20.94c0 4.316-2.423 8.257-6.203 10.415-3.877 2.158-8.627 2.158-12.406 0-3.877-2.158-6.203-6.099-6.203-10.415 0-4.223 2.326-8.163 6.203-10.321 3.78-2.159 8.529-2.159 12.406 0 3.78 2.158 6.203 6.099 6.203 10.32Zm9.304 7.6c-3.974 0-7.463 1.97-9.401 5.255-2.036 3.19-2.036 7.224 0 10.509 1.938 3.19 5.427 5.254 9.401 5.254 3.877 0 7.366-2.064 9.305-5.254 2.035-3.285 2.035-7.32 0-10.51-1.939-3.283-5.428-5.254-9.305-5.254Zm0 22.52c-6.881 0-12.406-5.443-12.406-12.01 0-6.663 5.525-12.011 12.406-12.011 6.785 0 12.406 5.348 12.406 12.01 0 3.003-1.26 5.818-3.101 7.882l9.014 8.82a.72.72 0 0 1 0 1.032.778.778 0 0 1-1.067 0l-9.11-8.726c-2.133 1.783-5.04 3.002-8.142 3.002Z" fill="#fff"/><path d="M56.615 28.822c-3.816 0-7.33 1.994-9.268 5.16-1.878 3.226-1.878 7.155 0 10.322 1.938 3.225 5.452 5.16 9.268 5.16 3.756 0 7.27-1.935 9.208-5.16 1.878-3.167 1.878-7.096 0-10.322a10.857 10.857 0 0 0-9.208-5.16Zm0 22.519c-6.966 0-12.6-5.454-12.6-12.198 0-6.685 5.634-12.198 12.6-12.198 6.906 0 12.6 5.513 12.6 12.198 0 3.05-1.151 5.806-3.029 7.975l8.541 8.27c.364.351.364.996 0 1.348-.363.352-1.03.352-1.393 0l-8.541-8.327c-2.18 1.876-5.089 2.932-8.178 2.932Zm-4.846-11.26c0-.469.424-.938.97-.938.484 0 .968.47.968.938v3.753c0 .528-.484.939-.969.939-.545 0-.97-.41-.97-.939v-3.753Zm3.877-5.63c0-.469.424-.938.969-.938.485 0 .97.47.97.938v9.383c0 .528-.485.939-.97.939-.545 0-.97-.41-.97-.939v-9.383Zm3.877 3.754c0-.47.424-.939.969-.939.485 0 .97.47.97.939v5.63c0 .527-.485.938-.97.938-.545 0-.97-.41-.97-.939v-5.63Z" fill="#fff"/></svg>