<svg width="188" height="138" fill="none" xmlns="http://www.w3.org/2000/svg"><path d="M162.029 117.751a6849.177 6849.177 0 0 0 4.127 15.876 337.435 337.435 0 0 0 3.105-4.444c6.433-9.331 12.226-19.02 16.482-29.73.473-1.215.342-1.84-.81-2.613-10.498-7.062-21.439-13.33-32.506-19.344-.352-.18-.735-.264-1.374-.491 1.461 5.383 2.857 10.47 4.253 15.62-.51.171-.86.284-1.21.398-11.95 3.197-23.866 6.56-35.88 9.558-19.056 4.773-38.373 8.459-58.147 9.874-10.78.777-21.596.804-32.422-1.418-6.642-1.367-12.938-3.662-18.32-8.291-.993-.863-1.476-1.831-1.673-3.08-.89-5.94-.343-11.714 1.162-17.343 2.884-10.776 8.072-20.3 13.995-29.428C32.693 37.638 44.273 23.8 56.782 10.853 68.085-.848 79.901-12.036 91.492-23.43c.73-.714 1.525-1.392 2.287-2.072a244.957 244.957 0 0 0-7.504 5.435C77.66-13.644 60.465.182 39.384 22.193c-9.175 9.588-17.806 19.595-25.06 30.842-5.067 7.867-9.463 16.093-11.492 25.509-1.436 6.708-1.213 13.301 2.262 19.695 1.577 2.912 3.123 5.854 4.732 8.735 2.542 4.621 6.005 8.44 10.2 11.577 7.46 5.545 15.927 8.141 24.708 9.742 12.964 2.359 25.917 2.307 38.802 1.306 9.6-.738 19.167-1.64 28.636-3.069 13.805-2.064 27.511-4.654 41.251-7.047 2.805-.515 5.642-1.127 8.606-1.732Z" stroke="#fff" stroke-width="3"/></svg>