<svg width="54" height="54" fill="none" xmlns="http://www.w3.org/2000/svg"><path d="M10.125 48.938a5.063 5.063 0 0 1-5.063-5.063v-33.75a5.063 5.063 0 0 1 5.063-5.063h27a1.687 1.687 0 1 1 0 3.375h-27c-.932 0-1.688.756-1.688 1.688v33.75c0 .932.756 1.688 1.688 1.688h33.75c.932 0 1.688-.756 1.688-1.688V27a1.687 1.687 0 1 1 3.374 0v16.875a5.063 5.063 0 0 1-5.062 5.063h-33.75Z" fill="#fff"/><path d="m28.193 34.943 23.625-23.625a1.687 1.687 0 1 0-2.386-2.386L27 31.363l-8.932-8.931a1.687 1.687 0 1 0-2.386 2.386l10.125 10.125c.659.66 1.727.66 2.386 0Z" fill="#fff"/></svg>