<svg width="18" height="16" fill="none" xmlns="http://www.w3.org/2000/svg"><path d="M8.997 1.5c-2.344 0-4.469 1.25-5.656 3.25a6.524 6.524 0 0 0 0 6.5 6.507 6.507 0 0 0 5.656 3.25c2.313 0 4.438-1.219 5.625-3.25a6.524 6.524 0 0 0 0-6.5c-1.187-2-3.312-3.25-5.625-3.25Zm0 14.5c-2.875 0-5.5-1.5-6.937-4-1.438-2.469-1.438-5.5 0-8a8.018 8.018 0 0 1 6.937-4c2.844 0 5.469 1.531 6.906 4 1.438 2.5 1.438 5.531 0 8a7.94 7.94 0 0 1-6.906 4ZM7.216 9.781a2.509 2.509 0 0 0 3.531 0 .774.774 0 0 1 1.063 0 .775.775 0 0 1 0 1.063 3.999 3.999 0 0 1-5.657 0 3.999 3.999 0 0 1 0-5.656 3.999 3.999 0 0 1 5.657 0 .775.775 0 0 1 0 1.062.774.774 0 0 1-1.063 0 2.509 2.509 0 0 0-3.531 0 2.509 2.509 0 0 0 0 3.531Z" fill="#2D2D2D"/></svg>