<svg width="331" height="60" fill="none" xmlns="http://www.w3.org/2000/svg"><path d="m228.073 23.453-5.329-11h1.836l4.272 9.14h.04l4.191-9.14h1.817l-5.709 11.96c-.738 1.56-1.577 1.92-3.672 1.92h-.24v-1.38h.339c1.657 0 1.976-.54 2.455-1.5Zm16.003-3.9v-7.1h1.577v13.88h-1.577v-5.4h-2.994c-3.014 0-5.469-.08-5.469-4v-4.48h1.557v4.5c0 2.26.539 2.6 3.912 2.6h2.994Zm12.701 3.84h-6.986l-1.077 2.94h-1.637l5.03-13.88h2.215l5.17 13.88h-1.617l-1.098-2.94Zm-.439-1.3-3.094-8.34-3.034 8.34h6.128Zm10.334 4.36h-2.215c-2.515 0-4.012-1.6-4.012-4.38v-5.36c0-3.92 2.415-4.36 5.768-4.36h1.298c2.894 0 3.792 1.26 3.792 4v.44h-1.577v-.4c0-1.94-.399-2.66-2.435-2.66h-.898c-3.234 0-4.391.4-4.391 2.92v3.82c0 3.16.139 4.58 2.754 4.58h1.856c2.515 0 3.294-.34 3.294-2.32v-1.12h1.577v1.3c0 3.18-2.036 3.54-4.811 3.54Zm11.342-12.6v12.48h-1.576v-12.48h-4.471v-1.4h10.538v1.4h-4.491Zm17.129-1.4v13.88h-1.577v-6.38h-8.103v6.38h-1.557v-13.88h1.557v6.12h8.103v-6.12h1.577Zm13.859 0v13.88h-1.577v-11.9h-.06l-7.544 11.9h-2.056v-13.88h1.557v11.9h.059l7.545-11.9h2.076Zm14.557 13.88h-.678c-2.176 0-2.116-1.36-2.116-3.2v-.58c0-1.76-.439-2.6-2.335-2.6h-5.25v6.38h-1.557v-13.88h1.557v6.12h4.95c1.897 0 2.336-.84 2.336-2.6v-.32c0-1.84-.06-3.2 2.115-3.2h.679v1.38h-.299c-.859 0-.938.48-.938 1.02v1.86c0 1.42-.519 2.38-1.877 2.44v.06c1.397.1 2.176.72 2.176 2.6v2.12c0 .54.08 1.02.938 1.02h.299v1.38Zm-99.577 23.334v-13.88h7.045c2.675 0 3.294 1.82 3.294 4.2 0 1.24 0 4.28-3.373 4.28h-5.409v5.4h-1.557Zm6.367-12.5h-4.81v5.72h4.071c2.076 0 3.154 0 3.154-2.7 0-2.66-.479-3.02-2.415-3.02Zm9.926 9.62-5.329-11h1.837l4.271 9.14h.04l4.191-9.14h1.817l-5.709 11.96c-.738 1.56-1.577 1.92-3.672 1.92h-.24v-1.38h.339c1.657 0 1.976-.54 2.455-1.5Zm13.748 3h-2.216c-2.515 0-4.012-1.6-4.012-4.38v-5.36c0-3.92 2.415-4.36 5.769-4.36h1.297c2.894 0 3.792 1.26 3.792 4v.44h-1.576v-.4c0-1.94-.4-2.66-2.435-2.66h-.899c-3.233 0-4.391.4-4.391 2.92v3.82c0 3.16.14 4.58 2.755 4.58h1.856c2.515 0 3.293-.34 3.293-2.32v-1.12h1.577v1.3c0 3.18-2.036 3.54-4.81 3.54Zm12.278 0h-2.215c-2.515 0-4.012-1.6-4.012-4.38v-5.36c0-3.92 2.415-4.36 5.768-4.36h1.298c2.894 0 3.792 1.26 3.792 4v.44h-1.577v-.4c0-1.94-.399-2.66-2.435-2.66h-.898c-3.234 0-4.391.4-4.391 2.92v3.82c0 3.16.14 4.58 2.754 4.58h1.857c2.514 0 3.293-.34 3.293-2.32v-1.12h1.577v1.3c0 3.18-2.036 3.54-4.811 3.54Zm10.484-14.1h1.857c3.453 0 4.51 1.18 4.51 4.66v4.94c0 3.28-1.177 4.5-4.51 4.5h-1.857c-3.333 0-4.511-1.22-4.511-4.5v-4.94c0-3.48 1.058-4.66 4.511-4.66Zm1.877 1.38h-1.897c-2.335 0-2.934.58-2.934 3.28v4.94c0 2.76.898 3.1 2.934 3.1h1.897c2.035 0 2.934-.34 2.934-3.1v-4.94c0-2.7-.599-3.28-2.934-3.28Zm13.075-1.28h1.557v.98h3.692c2.914 0 3.294 1.82 3.294 4.2v2.86c0 1.24 0 4.28-3.374 4.28h-3.612v1.56h-1.557v-1.56h-3.613c-3.373 0-3.373-3.04-3.373-4.28v-2.86c0-2.38.379-4.2 3.293-4.2h3.693v-.98Zm0 10.94v-8.56h-3.014c-1.936 0-2.415.34-2.415 3v2.86c0 2.72 1.078 2.7 3.153 2.7h2.276Zm6.986-2.7v-2.86c0-2.66-.479-3-2.415-3h-3.014v8.56h2.275c2.076 0 3.154.02 3.154-2.7Zm8.295-6.84v12.48h-1.577v-12.48h-4.471v-1.4h10.539v1.4h-4.491Z" fill="#2D2D2D"/><path d="M107.263 38.38c-.896.506-1.901 1.029-3.047 1.282-1.147.254-2.293.38-3.44.38-3.172 0-5.716-1.03-7.507-2.946-1.9-1.79-2.795-4.356-2.795-7.698 0-3.2 1.02-5.765 3.172-7.698 2.026-1.79 4.712-2.693 7.884-2.693 1.021 0 2.026.127 3.173.38 1.02.254 2.041.507 3.046 1.03-.125.254-.251.65-.377 1.03-.125.507-.125.903-.251 1.156l-.125.127c-.252-.38-.629-.634-1.147-1.03-1.398-1.03-2.921-1.536-4.444-1.536-2.67 0-4.57.903-6.11 2.82-1.272 1.662-2.026 3.848-2.026 6.54 0 2.82.754 5.133 2.168 6.796 1.523 1.663 3.44 2.566 5.716 2.566 1.021 0 2.168-.253 3.298-.634 1.021-.38 2.042-1.03 2.921-1.79l-.109 1.917ZM87.051 19.53h1.523c-.251.634-1.02 2.946-2.419 6.922-1.649 4.483-2.92 8.332-3.942 11.404-1.523 4.23-2.418 6.922-2.795 8.205l-.628-.126-1.02.126c.502-1.156 1.145-2.946 2.04-5.258.252-.777.644-1.664 1.021-2.693-.502-1.41-.895-2.946-1.397-4.356-1.021-3.073-2.026-5.892-2.796-8.458-1.146-3.2-1.774-5.132-2.041-5.766h2.544c.628 2.313 1.397 4.752 2.167 7.049.895 2.82 1.775 5.385 2.67 7.698h.251c1.147-3.2 2.026-6.146 2.921-8.585 1.005-3.089 1.65-5.132 1.9-6.162Zm-24.547 9.741h2.921c1.398-.126 2.544-.633 3.44-1.536.753-.903 1.146-1.917 1.146-3.342 0-1.03-.251-1.917-.77-2.566-.502-.634-1.146-1.03-1.9-1.156-.628 0-1.272-.127-1.649-.127h-3.188v8.727Zm0 10.391-1.272-.127-1.272.127V19.53h5.214c2.795 0 4.837.254 5.968 1.03 1.02.65 1.523 1.916 1.523 3.722 0 1.79-.503 3.073-1.523 4.102-1.021.903-2.544 1.537-4.696 1.917-.251.127-.644.127-1.02.127h-2.922v9.234Zm49.077-9.488c.377 0 .77 0 .896-.253.251-.127.376-.38.376-.776 0-.507-.125-.76-.251-.903-.125-.127-.377-.127-.644-.127h-.377v2.06Zm-1.02-2.566h1.9c.502 0 .895.127 1.146.38.251.254.377.507.377.903 0 .38-.126.634-.377.903-.125.254-.502.507-.895.507.251.38.503.776.628 1.156.251.254.503.634.77 1.03l.251.507h-1.131l-1.398-2.566h-.251v2.566h-1.02v-5.386Zm-2.152 2.693c0 1.156.377 2.06 1.146 2.82.629.76 1.524 1.282 2.67 1.282 1.021 0 1.901-.506 2.67-1.283.769-.776 1.147-1.663 1.147-2.819s-.378-2.043-1.147-2.82c-.769-.776-1.649-1.156-2.67-1.156-1.146 0-2.041.38-2.67 1.157-.769.76-1.146 1.663-1.146 2.82Zm-.77 0c0-1.283.377-2.44 1.273-3.326.895-.903 2.041-1.41 3.313-1.41 1.272 0 2.293.507 3.172 1.41.896.903 1.398 2.059 1.398 3.326 0 1.283-.502 2.44-1.398 3.342-.895 1.03-1.9 1.41-3.172 1.41-1.272 0-2.418-.38-3.313-1.41-.88-.903-1.273-2.059-1.273-3.342Zm90.27 9.361-1.27-.127-1.273.127V20.94h-3.172c-.755 0-1.774.127-3.173.253V19.53h14.998v1.663c-.627 0-1.524-.126-2.67-.126-1.146-.127-2.292-.127-3.423-.127v18.722h-.017Zm-23.901-1.806c-3.172 0-5.717-.776-7.633-2.439-1.9-1.536-2.795-3.595-2.795-6.019 0-2.44.895-4.482 2.669-6.019 1.917-1.536 4.57-2.312 7.759-2.312V19.53h2.669v1.537c3.172 0 5.842.776 7.633 2.312 1.916 1.537 2.795 3.596 2.795 6.02 0 2.438-.895 4.482-2.67 6.018-1.9 1.663-4.569 2.44-7.758 2.44v1.79c-.377 0-.643-.127-1.021-.127h-.895c-.251 0-.502.126-.768.126v-1.79h.015Zm0-1.013V21.969c-2.294 0-4.194.777-5.591 2.186-1.272 1.41-1.901 3.073-1.901 5.26 0 2.185.629 3.848 2.043 5.258 1.382 1.394 3.155 2.17 5.449 2.17Zm2.669-14.874v14.874c2.294 0 4.067-.776 5.466-2.186 1.397-1.41 2.167-3.073 2.167-5.259 0-2.059-.77-3.722-2.042-5.132-1.398-1.536-3.297-2.297-5.591-2.297Zm-19.709.887a6.593 6.593 0 0 0-2.67-2.185c-1.021-.38-2.167-.65-3.314-.65-2.669 0-4.57.903-6.093 2.693-1.523 1.79-2.167 4.23-2.167 7.175 0 2.946.769 5.132 2.293 6.795 1.523 1.537 3.298 2.313 5.591 2.313 2.795 0 4.962-1.156 6.485-3.596 1.147-1.916 1.775-3.849 1.775-6.019 0-1.41-.125-2.566-.377-3.595a7.308 7.308 0 0 0-1.523-2.93Zm-17.165 6.669c0-3.073 1.02-5.639 3.172-7.698 1.9-1.917 4.586-2.82 7.633-2.82 3.046 0 5.59.76 7.632 2.44 2.293 1.79 3.439 4.356 3.439 7.698 0 3.2-1.021 5.892-3.046 7.824-2.042 2.044-4.712 3.073-8.01 3.073s-5.842-1.03-7.884-2.82c-1.916-1.916-2.936-4.482-2.936-7.697Zm-2.403 8.854c-.895.507-1.775 1.03-2.921 1.283-1.147.254-2.293.38-3.565.38-3.173 0-5.717-1.03-7.507-2.946-1.9-1.79-2.796-4.356-2.796-7.698 0-3.2 1.147-5.765 3.173-7.698 2.041-1.79 4.696-2.693 7.884-2.693 1.02 0 2.041.127 3.172.38 1.146.254 2.167.507 3.172 1.03-.125.254-.251.65-.377 1.03-.125.507-.251.903-.251 1.156l-.251.127c-.251-.38-.644-.634-1.147-1.03-1.397-1.03-2.921-1.536-4.46-1.536-2.544 0-4.57.903-5.967 2.82-1.398 1.662-2.042 3.848-2.042 6.54 0 2.82.644 5.133 2.167 6.796 1.398 1.663 3.298 2.566 5.591 2.566 1.147 0 2.167-.253 3.314-.634a7.488 7.488 0 0 0 2.921-1.79l-.11 1.917Z" fill="#2A3860"/><path d="M48.888 13.955c2.262-.364 4.54.823 5.073 2.93.55 2.107-1.005 4.213-3.533 4.562-1.807.285-3.534-.539-4.35-1.727l-8.34 1.283c-.173 2.202-.99 4.483-2.261 6.494l6.706 5.94c1.633-.823 3.722-.65 5.355.729 2.261 1.917 2.905 5.576 1.178 8.046-1.806 2.566-5.167 2.74-7.429.46-1.539-1.647-2.088-3.928-1.539-5.956l-6.627-6.494c-1.806 1.822-3.99 3.105-6.345 3.659l-.628 10.612c1.445.824 2.544 2.93 2.45 5.48-.188 3.66-2.544 6.86-5.261 6.86s-4.445-3.01-3.99-6.59c.268-2.471 1.54-4.578 3.173-5.576l1.084-10.422c-2.262-.095-4.083-.918-5.434-2.296l-6.439 7.143c.094 1.742-.55 3.833-1.994 5.48-1.995 2.107-4.35 2.281-5.261.27-.817-1.917 0-4.942 1.821-6.859 1.367-1.457 2.906-1.916 3.99-1.362l6.25-6.763c-.817-1.553-1.178-3.47-.99-5.48L9.203 25.39c-.817 1.283-2.183 2.28-3.361 2.47-1.633.27-2.45-1.092-1.806-3.024.55-1.743 2.261-3.39 3.8-3.66 1.178-.19 1.9.365 2.09 1.458l6.265-1.093c.534-1.822 1.54-3.564 2.811-5.021l-3.392-3.295c-1.083.555-2.183.65-2.811 0-.722-.728-.267-2.376 1.005-3.485 1.178-1.187 2.811-1.552 3.628-.823.628.554.628 1.457.094 2.47l3.44 3.105a14.081 14.081 0 0 1 4.805-2.645l.456-5.306c-.911-.174-1.54-.824-1.367-1.742.094-1.188 1.46-2.471 2.906-2.836 1.539-.364 2.717.27 2.622 1.568 0 .92-.722 1.917-1.822 2.471l-.36 5.402c1.805-.19 3.439.095 4.805.728l4.711-5.02c-.455-.825-.267-2.012.55-2.931 1.178-1.188 3.172-1.647 4.617-1.014 1.445.729 1.728 2.281.55 3.659-.91.998-2.356 1.552-3.628 1.362l-4.806 5.306c1.178 1.093 2.09 2.662 2.545 4.578l7.978-1.378c.455-1.362 1.727-2.455 3.36-2.74Z" fill="#FC7C14"/><path fill-rule="evenodd" clip-rule="evenodd" d="M23.761 20.085c0 .997.094.823.094 1.821.817-.823 5.622-3.849 4.083-3.928-.91 0-2.182.27-4.083 2.107h-.094Zm0 6.779c.094.554.094.998.094 1.362v.729c-.094.19-.094.285-.267.364h-.55c-.266.095-.36.095-.455.095-.094-.095-.188-.174-.282-.27v-1.741c.094-.73.094-1.378.094-2.107 0-.174.094-.729.094-1.378-.817-.174-.895-.634.094-1.188 0-.46 0-.729.094-1.188 0-.998-1.272.823-1.272-.364 1.634-1.743 6.25-5.845 8.245-4.119.911 1.457-2.261 3.66-5.26 5.576 1.994.285 8.433 4.118 6.438 6.494-.267.364-1.084.27-1.366-.19-1.634-2.471-3.8-4.752-5.717-4.847v2.772h.016Z" fill="#fff"/></svg>