<svg width="36" height="36" fill="none" xmlns="http://www.w3.org/2000/svg"><path d="M31.795 31.84h-2.12v4.143h-2.128V27.59h-2.103v2.05h-2.136v2.134h-2.103V33.9h-2.128V36h-2.128v-2.058h-2.12v-2.135h-2.137v-2.126H10.59v-2.092H8.453v8.394h-2.12v-4.159H4.205v2.058H2.103V36H.009v-2.092h2.068V31.79h2.111v-2.11H.008v-2.142h8.42v-2.126H6.341v-2.1h-2.12v-2.136H2.085v-2.109H.025v-2.1h2.043v-2.152h2.129v-2.092h2.128V10.58h2.17V8.403l-.016.008h2.094V6.344h2.094V4.227h2.136v-2.11h2.111V0h2.129v2.1h2.128v2.101h2.111v2.135h2.137v2.1h2.11V.009h2.12v4.185h2.12v-2.11h2.171l-.008-.008V4.21H31.82v2.118H36v2.109h-8.427v2.126h2.085v2.134h2.12v2.101h2.12v2.135H36v2.134h-2.086v2.101h-2.128v2.135h-2.12v2.1h-2.093v2.118h8.418v2.143h-4.213v2.194l.017-.017Zm-8.462-19.16v-2.117h-2.162V8.496h-2.128v4.16h-2.12v-4.16h-2.128v2.092h-2.069v2.118h2.077v2.117h2.111v2.084h-2.11v-2.084h-2.129v-2.092h-2.102v2.101H8.487v2.126h4.18v2.11h-4.18v2.125h2.111v2.059h2.111v-2.1h2.137v-2.119h2.069v-2.151c.718.008 1.444.008 2.162.017v2.151h2.137v2.143h2.11v2.067h2.112v-2.092h2.085v-2.126h-4.154v-2.118h4.154v-2.126h-2.094v-2.126c-.743.008-1.418.008-2.094.008ZM16.95 27.505v-4.168h2.128v4.168h2.102v-2.1h2.086v-2.118h-2.111V21.16h-2.111v-2.066h-2.128v2.1h-2.137v2.127h-2.052v2.109h2.077v2.084c.736-.009 1.402-.009 2.146-.009Z" fill="#fff"/><path d="M4.18 4.21h2.128V.025h2.11c.018 2.796.044 5.6.06 8.395-2.828 0-5.649.008-8.478.008V6.353h4.18v-2.16c.008.008 0 .017 0 .017Zm27.598 27.64h2.12v2.024H36v2.11h-2.077v-2.068h-2.137v-2.075c.009 0-.008.008-.008.008Z" fill="#fff"/><path d="M2.043 2.092h2.136V4.21l.009-.009H2.051V2.084l-.008.008Zm31.897 0V.017H36v2.067h-2.068c0-.009.008.008.008.008ZM2.051 2.075H.01V.008h2.034v2.076c0 .008.008-.009.008-.009Zm21.291 10.597v2.151h-2.154v2.101h-2.137v-2.083h2.111v-2.169h2.18Z" fill="#fff"/></svg>