<svg width="86" height="66" fill="none" xmlns="http://www.w3.org/2000/svg"><rect x=".5" width="85" height="66" rx="10" fill="#E03A3A"/><path d="M65.833 7.719H19.167c-2.813 0-5 2.363-5 5.156v30.938c0 2.9 2.187 5.156 5 5.156h46.666c2.709 0 5-2.256 5-5.157V12.875c0-2.793-2.291-5.156-5-5.156ZM19.167 50.687c-3.75 0-6.667-3.007-6.667-6.874V12.875C12.5 9.115 15.417 6 19.167 6h46.666C69.48 6 72.5 9.115 72.5 12.875v30.938c0 3.867-3.02 6.874-6.667 6.874H49.271l1.354 8.594h7.708c.417 0 .834.43.834.86a.834.834 0 0 1-.834.859H26.667c-.521 0-.834-.322-.834-.86 0-.43.313-.859.834-.859h7.604l1.354-8.593H19.167Zm16.77 8.594h13.021l-1.354-8.593H37.292l-1.355 8.593ZM20.834 14.594v27.5h43.334v-27.5H20.833Zm-1.666 0c0-.86.729-1.719 1.666-1.719h43.334c.833 0 1.666.86 1.666 1.719v27.5c0 .966-.833 1.718-1.666 1.718H20.833c-.937 0-1.666-.752-1.666-1.718v-27.5Z" fill="#fff"/><path d="M34.167 20.395c0 .725.351 1.329.937 1.691.547.363 1.29.363 1.875 0 .547-.362.938-.966.938-1.691 0-.685-.391-1.29-.938-1.652-.586-.363-1.328-.363-1.875 0a1.923 1.923 0 0 0-.937 1.652Zm5 0c0 1.168-.625 2.215-1.563 2.82-.976.563-2.187.563-3.125 0a3.284 3.284 0 0 1-1.562-2.82c0-1.128.586-2.176 1.562-2.78.938-.564 2.149-.564 3.125 0 .938.604 1.563 1.652 1.563 2.78Zm3.75 3.222c-.899 0-1.72.524-2.188 1.29-.43.805-.43 1.812 0 2.577.469.806 1.29 1.29 2.188 1.29.859 0 1.68-.484 2.148-1.29.43-.765.43-1.772 0-2.578-.469-.765-1.289-1.289-2.148-1.289Zm0 6.445c-1.367 0-2.578-.725-3.282-1.933-.664-1.168-.664-2.659 0-3.867.704-1.169 1.915-1.934 3.282-1.934 1.328 0 2.539.765 3.242 1.934.664 1.208.664 2.699 0 3.867-.703 1.208-1.914 1.933-3.242 1.933Zm-2.305 2.579c-2.11 0-3.867 1.732-3.945 3.867h12.46c-.078-2.135-1.835-3.867-3.945-3.867h-4.57Zm0-1.29h4.57c2.89 0 5.235 2.418 5.235 5.398 0 .605-.47 1.048-1.055 1.048h-12.93c-.586 0-1.015-.483-1.015-1.047 0-2.981 2.304-5.398 5.195-5.398Zm9.805-12.89c-.703 0-1.29.403-1.641.967-.352.604-.352 1.37 0 1.933.352.605.938.967 1.64.967.665 0 1.25-.362 1.602-.967.352-.564.352-1.329 0-1.933-.351-.564-.937-.967-1.601-.967Zm0 5.156c-1.133 0-2.149-.604-2.735-1.611-.547-.967-.547-2.216 0-3.223.586-.967 1.602-1.611 2.735-1.611 1.093 0 2.109.644 2.695 1.611.547 1.007.547 2.256 0 3.223-.586 1.007-1.602 1.611-2.695 1.611Zm.625 2.578h-3.125c0-.443-.078-.846-.157-1.289h3.282c2.383 0 4.375 2.055 4.375 4.512a.652.652 0 0 1-.625.645.627.627 0 0 1-.625-.645c0-1.773-1.407-3.223-3.125-3.223Zm-13.125 0h-3.125c-1.758 0-3.125 1.45-3.125 3.223a.652.652 0 0 1-.625.645.627.627 0 0 1-.625-.645c0-2.457 1.953-4.512 4.375-4.512h3.28a4.853 4.853 0 0 0-.155 1.29Z" fill="#fff"/></svg>