<svg width="43" height="44" viewBox="0 0 43 44" fill="none" xmlns="http://www.w3.org/2000/svg">
<path fill-rule="evenodd" clip-rule="evenodd" d="M2.6875 37.6719C2.6875 39.1561 3.89074 40.3594 5.375 40.3594L37.625 40.3594C39.1093 40.3594 40.3125 39.1561 40.3125 37.6719L40.3125 5.42187C40.3125 3.93761 39.1093 2.73437 37.625 2.73437L5.375 2.73437C3.89074 2.73437 2.6875 3.93761 2.6875 5.42187L2.6875 37.6719ZM43 37.6719C43 40.6404 40.5935 43.0469 37.625 43.0469L5.375 43.0469C2.40647 43.0469 2.10379e-07 40.6404 4.69897e-07 37.6719L3.28928e-06 5.42187C3.5488e-06 2.45334 2.40648 0.0468715 5.375 0.0468717L37.625 0.0468745C40.5935 0.0468748 43 2.45335 43 5.42188L43 37.6719ZM30.9063 22.8906C31.6484 22.8906 32.25 22.289 32.25 21.5469C32.25 20.8047 31.6484 20.2031 30.9063 20.2031L15.3379 20.2031L21.1064 14.4346C21.6312 13.9098 21.6312 13.059 21.1064 12.5342C20.5817 12.0094 19.7308 12.0094 19.2061 12.5342L11.1436 20.5967C10.6188 21.1215 10.6188 21.9723 11.1436 22.497L19.2061 30.5595C19.7308 31.0843 20.5817 31.0843 21.1064 30.5595C21.6312 30.0348 21.6312 29.184 21.1064 28.6592L15.3379 22.8906L30.9063 22.8906Z" fill="#E03A3A"/>
</svg>
