<svg width="219" height="169" fill="none" xmlns="http://www.w3.org/2000/svg"><path d="M24.455 35.324c-2.83-6.16-5.584-12.127-8.537-18.517a400.213 400.213 0 0 0-2.5 5.91C8.273 35.112 3.946 47.831 1.626 61.525c-.252 1.552.048 2.287 1.555 3.026 13.738 6.76 27.793 12.482 41.933 17.876.447.158.907.194 1.694.36-2.965-6.269-5.785-12.189-8.62-18.188.543-.294.918-.49 1.293-.688 12.946-5.91 25.815-12.013 38.882-17.694 20.724-9.03 42.007-16.788 64.359-21.875 12.184-2.78 24.588-4.658 37.543-3.814 7.949.52 15.723 2.225 23.007 6.912 1.347.875 2.133 1.965 2.658 3.443 2.444 7.042 3.198 14.126 2.82 21.198-.73 13.54-4.402 25.954-9.013 38.018-7.686 20.159-17.66 38.89-28.914 56.699-10.168 16.096-21.047 31.657-31.619 47.431-.668.989-1.417 1.945-2.129 2.898 1.81-1.863 4.357-4.56 7.309-7.86 8.349-9.247 24.769-28.92 43.688-59.166 8.232-13.176 15.74-26.765 21.369-41.62 3.931-10.39 7.006-21.099 7.08-32.846.041-8.367-1.793-16.312-7.312-23.46-2.507-3.256-4.985-6.556-7.521-9.77-4.024-5.16-8.913-9.193-14.477-12.276-9.888-5.44-20.225-7.14-30.685-7.58-15.441-.645-30.292 1.629-44.837 5.04-10.839 2.53-21.601 5.255-32.124 8.6-15.347 4.854-30.455 10.33-45.648 15.57-3.095 1.103-6.204 2.327-9.46 3.565Z" stroke="#fff" stroke-width="3"/></svg>