<svg width="427" height="40" fill="none" xmlns="http://www.w3.org/2000/svg"><path d="M186.712 1.893v11.44h-1.444V1.893h-4.094V.61h9.65v1.283h-4.112Zm9.011-1.375h1.7c3.162 0 4.131 1.082 4.131 4.272v4.528c0 3.007-1.079 4.125-4.131 4.125h-1.7c-3.052 0-4.13-1.118-4.13-4.125V4.79c0-3.19.969-4.272 4.13-4.272Zm1.718 1.265h-1.736c-2.138 0-2.686.532-2.686 3.007v4.528c0 2.53.822 2.842 2.686 2.842h1.736c1.865 0 2.687-.312 2.687-2.842V4.79c0-2.475-.548-3.007-2.687-3.007ZM213.745.61v12.723h-1.443V1.875h-7.421v11.458h-1.425V.61h10.289Zm1.195 7.443h4.405v1.284h-4.405V8.053ZM226.916.61v12.723h-1.426V1.71l-3.253 3.593-.895-.88L224.851.61h2.065Zm9.899 1.173c-3.107 0-3.929.019-3.929 3.319v3.74c0 3.3.822 3.318 3.929 3.318 3.144 0 3.984-.018 3.984-3.318v-3.74c0-3.3-.84-3.319-3.984-3.319Zm.037 11.66c-3.948 0-5.41-.531-5.41-4.601v-3.74c0-4.07 1.462-4.584 5.373-4.584 3.966 0 5.41.514 5.41 4.584v3.74c0 4.07-1.444 4.601-5.373 4.601Zm11.618-11.66c-3.107 0-3.929.019-3.929 3.319v3.74c0 3.3.822 3.318 3.929 3.318 3.144 0 3.985-.018 3.985-3.318v-3.74c0-3.3-.841-3.319-3.985-3.319Zm.037 11.66c-3.948 0-5.41-.531-5.41-4.601v-3.74c0-4.07 1.462-4.584 5.373-4.584 3.966 0 5.41.514 5.41 4.584v3.74c0 4.07-1.444 4.601-5.373 4.601ZM271.645.61v12.723h-1.444V1.875h-7.42v11.458h-1.426V.61h10.29Zm6.019-.092h1.7c3.162 0 4.13 1.082 4.13 4.272v4.528c0 3.007-1.078 4.125-4.13 4.125h-1.7c-3.052 0-4.13-1.118-4.13-4.125V4.79c0-3.19.968-4.272 4.13-4.272Zm1.718 1.265h-1.736c-2.138 0-2.687.532-2.687 3.007v4.528c0 2.53.823 2.842 2.687 2.842h1.736c1.864 0 2.687-.312 2.687-2.842V4.79c0-2.475-.549-3.007-2.687-3.007Zm11.278 11.66h-2.028c-2.303 0-3.674-1.466-3.674-4.015V4.515c0-3.593 2.212-3.997 5.282-3.997h1.188c2.65 0 3.472 1.155 3.472 3.667v.403h-1.443v-.366c0-1.779-.366-2.439-2.23-2.439h-.823c-2.96 0-4.02.367-4.02 2.677v3.502c0 2.896.128 4.198 2.522 4.198h1.699c2.303 0 3.016-.312 3.016-2.127V9.007h1.444v1.191c0 2.915-1.864 3.245-4.405 3.245Zm10.385-11.55v11.44h-1.444V1.893h-4.094V.61h9.65v1.283h-4.112Zm13.18 8.745h-6.397l-.987 2.695h-1.498L309.948.61h2.029l4.734 12.723h-1.481l-1.005-2.695Zm-.402-1.191-2.833-7.645-2.778 7.645h5.611Zm5.461-2.017v4.638h4.551c1.554 0 2.321-.201 2.321-2.145 0-1.668-.256-2.493-2.156-2.493h-4.716Zm5.3 5.903h-6.744V.61h6.434c2.376 0 2.942 1.137 2.942 3.355 0 1.338-.274 2.255-1.59 2.695v.018c1.682.312 1.956 1.54 1.956 3.117 0 2.292-.841 3.538-2.998 3.538Zm-5.3-11.44v4.272h4.186c1.717 0 2.302-.403 2.302-2.383 0-1.705-.658-1.889-2.156-1.889h-4.332Zm10.464 11.44V.61h1.426v11.458h6.872V.61h1.443v11.458h6.872V.61h1.444v11.458h1.152v4.62h-1.444v-3.355h-17.765ZM360.474.61v12.723h-1.444V2.425h-.055l-6.908 10.908h-1.883V.61h1.426v10.908h.055L358.573.61h1.901Zm13.33 12.723h-.621c-1.993 0-1.938-1.246-1.938-2.933v-.532c0-1.613-.402-2.383-2.138-2.383H364.3v5.848h-1.425V.61h1.425v5.61h4.533c1.736 0 2.138-.77 2.138-2.383v-.294c0-1.686-.055-2.933 1.937-2.933h.622v1.265h-.274c-.786 0-.859.44-.859.935v1.705c0 1.302-.475 2.182-1.718 2.237v.055c1.279.091 1.992.66 1.992 2.383v1.943c0 .495.073.935.859.935h.274v1.265ZM379.182.518h1.7c3.162 0 4.13 1.082 4.13 4.272v4.528c0 3.007-1.078 4.125-4.13 4.125h-1.7c-3.052 0-4.13-1.118-4.13-4.125V4.79c0-3.19.968-4.272 4.13-4.272Zm1.718 1.265h-1.736c-2.138 0-2.687.532-2.687 3.007v4.528c0 2.53.823 2.842 2.687 2.842h1.736c1.864 0 2.687-.312 2.687-2.842V4.79c0-2.475-.549-3.007-2.687-3.007Zm7.276 5.647v4.638h4.551c1.553 0 2.321-.201 2.321-2.145 0-1.668-.256-2.493-2.157-2.493h-4.715Zm5.3 5.903h-6.744V.61h6.433c2.376 0 2.943 1.137 2.943 3.355 0 1.338-.274 2.255-1.59 2.695v.018c1.681.312 1.955 1.54 1.955 3.117 0 2.292-.84 3.538-2.997 3.538Zm-5.3-11.44v4.272h4.185c1.718 0 2.303-.403 2.303-2.383 0-1.705-.658-1.889-2.157-1.889h-4.331ZM414.768.61v12.723h-1.444V2.425h-.055l-6.908 10.908h-1.883V.61h1.426v10.908h.055L412.867.61h1.901Zm6.804 1.283v11.44h-1.444V1.893h-4.094V.61h9.65v1.283h-4.112ZM193.748 38.355h-1.444V35h-9.686v3.355h-1.444v-4.62h.987c.877-.825 1.791-1.577 1.791-5.445v-6.013h8.644v11.458h1.152v4.62Zm-2.595-4.62V23.542h-5.776v4.748c0 3.74-.786 4.822-1.407 5.445h7.183Zm6.659-2.677c0 2.824-1.115 3.942-3.491 3.942h-.329v-1.265h.055c2.248 0 2.339-1.302 2.339-4.51v-6.948h8.901V35h-1.444V23.542h-6.031v7.516Zm17.897-3.006v-4.51h-4.404c-1.773 0-2.212.605-2.212 2.218 0 2.163.695 2.292 2.742 2.292h3.874Zm-4.569 1.265c-1.736 0-1.882.586-1.882 2.2v.55c0 1.686.055 2.933-1.937 2.933h-.622v-1.265h.274c.786 0 .859-.44.859-.935v-1.632c0-1.723.585-2.328 1.737-2.42v-.055c-1.262-.11-1.901-1.246-1.901-3.116 0-1.614.566-3.3 3.015-3.3h6.452V35h-1.426v-5.683h-4.569ZM235.649 35h-.622c-1.992 0-1.937-1.247-1.937-2.933v-.55c0-1.614-.146-2.2-1.882-2.2h-4.569V35h-1.426V22.277h6.452c2.449 0 3.015 1.686 3.015 3.3 0 1.87-.64 3.006-1.901 3.116v.055c1.152.092 1.737.697 1.737 2.42V32.8c0 .495.073.935.859.935h.274V35Zm-2.394-9.24c0-1.613-.439-2.218-2.212-2.218h-4.404v4.51h3.874c2.047 0 2.742-.129 2.742-2.292Zm4.778-2.2v4.327h6.415v1.173h-6.415v4.675h6.707V35h-8.151V22.277h8.151v1.283h-6.707Zm12.931 0V35h-1.444V23.56h-4.093v-1.283h9.649v1.283h-4.112Zm11.556 8.745h-6.397L255.136 35h-1.498l4.605-12.723h2.029L265.005 35h-1.48l-1.005-2.695Zm-.402-1.192-2.833-7.645-2.778 7.645h5.611Zm5.642-8.836V35h-1.425V22.277h1.425Zm3.911 0v11.458h6.452V35h-7.896V22.277h1.444Zm15.022 6.82v4.638h4.55c1.554 0 2.322-.202 2.322-2.145 0-1.668-.256-2.493-2.157-2.493h-4.715Zm5.3 5.903h-6.744V22.277h6.433c2.376 0 2.943 1.136 2.943 3.355 0 1.338-.275 2.255-1.59 2.695v.018c1.681.312 1.955 1.54 1.955 3.117 0 2.291-.841 3.538-2.997 3.538Zm-5.3-11.44v4.272h4.185c1.718 0 2.303-.404 2.303-2.384 0-1.705-.658-1.888-2.157-1.888h-4.331Zm25.44 10.175V35h-9.12v-2.145c0-3.318 1.389-3.538 4.442-3.85 2.686-.275 3.271-.165 3.271-2.805 0-2.622-.567-2.75-2.961-2.75-3.052 0-3.326.183-3.326 2.53v.66h-1.426v-.66c0-2.787.348-3.795 4.752-3.795 3.363 0 4.405.788 4.405 4.015 0 3.373-1.188 3.813-4.387 4.07-2.686.22-3.344.513-3.344 2.365v1.1h7.694Zm7.121-10.285c-3.107 0-3.929.018-3.929 3.318v3.74c0 3.3.822 3.319 3.929 3.319 3.144 0 3.985-.019 3.985-3.319v-3.74c0-3.3-.841-3.318-3.985-3.318Zm.037 11.66c-3.948 0-5.41-.532-5.41-4.602v-3.74c0-4.07 1.462-4.583 5.373-4.583 3.966 0 5.41.513 5.41 4.583v3.74c0 4.07-1.444 4.602-5.373 4.602Zm16.151-1.375V35h-9.12v-2.145c0-3.318 1.389-3.538 4.441-3.85 2.687-.275 3.272-.165 3.272-2.805 0-2.622-.567-2.75-2.961-2.75-3.052 0-3.326.183-3.326 2.53v.66h-1.426v-.66c0-2.787.348-3.795 4.752-3.795 3.363 0 4.405.788 4.405 4.015 0 3.373-1.188 3.813-4.387 4.07-2.686.22-3.344.513-3.344 2.365v1.1h7.694Zm5.953-4.62V27.85h1.517c1.809 0 2.559.037 2.559-2.108 0-2.109-.293-2.292-3.29-2.292-2.431 0-2.833.202-2.833 2.182v.55h-1.444v-.55c0-3.245 1.517-3.465 4.46-3.447 2.705 0 4.551 0 4.551 3.3 0 1.632-.238 2.842-2.102 2.97v.037c1.937.146 2.358 1.045 2.358 2.915 0 3.831-1.901 3.703-4.935 3.703-2.906 0-4.496-.422-4.496-3.392v-.843h1.425v.843c0 1.999.348 2.054 3.071 2.109 3.07.055 3.491-.055 3.491-2.567 0-2.163-1.006-2.145-2.815-2.145h-1.517Zm15.389-5.555V35h-1.444V22.277h7.786v1.283h-6.342Zm11.565-1.375h1.7c3.162 0 4.13 1.082 4.13 4.272v4.528c0 3.007-1.078 4.125-4.13 4.125h-1.7c-3.052 0-4.13-1.118-4.13-4.125v-4.528c0-3.19.969-4.272 4.13-4.272Zm1.718 1.265h-1.736c-2.138 0-2.687.532-2.687 3.007v4.528c0 2.53.823 2.842 2.687 2.842h1.736c1.865 0 2.687-.312 2.687-2.842v-4.528c0-2.475-.548-3.007-2.687-3.007Zm17.456 14.905h-1.444V35h-9.686v3.355h-1.444v-4.62h.987c.877-.825 1.791-1.577 1.791-5.445v-6.013h8.644v11.458h1.152v4.62Zm-2.595-4.62V23.542h-5.776v4.748c0 3.74-.786 4.822-1.407 5.445h7.183Zm7.39-1.375-4.88-10.083h1.682l3.911 8.378h.036l3.838-8.378h1.663l-5.227 10.963c-.676 1.43-1.443 1.76-3.362 1.76h-.22v-1.265h.311c1.517 0 1.809-.495 2.248-1.375Z" fill="#2D2D2D"/><mask id="a" style="mask-type:luminance" maskUnits="userSpaceOnUse" x="0" y="1" width="167" height="34"><path d="M166.148 1.667H0V35h166.148V1.667Z" fill="#fff"/></mask><g mask="url(#a)"><path d="M17.183 1.667h1.58c1.903.16 3.943.277 5.572 1.42.927.625 1.4 1.904 1.004 2.99-.521 1.497-2.046 2.753-3.639 2.453-.898-.26-1.649-.865-2.36-1.464-1.16-.98-2.277-2.054-3.652-2.71-1.08-.554-2.347-.522-3.499-.264-2.055.509-3.678 2.124-4.718 3.967a15.421 15.421 0 0 0-1.89 7.723c-.005 3.244.876 6.523 2.659 9.207 1.8 2.713 4.586 4.756 7.716 5.427 2.217.522 4.617.398 6.7-.582.923-.42 1.785-.973 2.604-1.578.436.265.88.513 1.345.719-2.083 2.444-4.783 4.362-7.811 5.307-3.179.985-6.696.928-9.784-.378-3.369-1.403-6.083-4.27-7.556-7.683C.558 24.235.134 22.055 0 19.873v-1.466c.138-2.031.54-4.056 1.345-5.92 1.408-3.352 3.899-6.169 6.919-8.044 2.681-1.699 5.787-2.608 8.919-2.776Zm32.983 0h.018c.258.092.509.19.765.285-.195 1.752-.351 3.51-.554 5.261 2.913-2.192 5.974-4.42 9.554-5.23.683-.165 1.381-.237 2.077-.316h1.268c1.332.117 2.696.323 3.89.982 1.414.715 2.52 1.991 3.146 3.472.915 2.094 1.07 4.433 1.086 6.7 0 4.527.002 9.053 0 13.581a28.11 28.11 0 0 0 .099 2.835c.12.769.213 1.596.702 2.222.452.61 1.156.945 1.854 1.143.909.254 1.834.449 2.769.548.018.363.022.726.022 1.09H60.614c.01-.357-.046-.729.045-1.08 1.393-.25 2.907-.403 4.087-1.285 1.118-.912 1.175-2.503 1.278-3.852.067-3.183.024-6.372.037-9.557-.019-2.155.083-4.327-.289-6.458-.284-1.622-.835-3.277-1.994-4.459-1.529-1.657-3.864-2.171-6.004-2.11a8.661 8.661 0 0 0-3.266.51c-1.403.529-2.643 1.438-3.732 2.482-.154.116-.087.328-.105.492.012 6.317-.006 12.634.008 18.953.067 1.065.089 2.174.533 3.157.38.815 1.195 1.29 2.002 1.535a17.19 17.19 0 0 0 2.891.586c.004.361.004.724.004 1.086-5.412 0-10.828 0-16.242.002.012-.363.015-.727.022-1.09.974-.11 1.94-.32 2.879-.617.882-.29 1.726-.88 2.067-1.807.538-1.562.424-3.247.489-4.876V11.476c-.018-.951-.008-1.94-.418-2.816-.647-1.331-1.864-2.224-2.99-3.093a84.999 84.999 0 0 0-.008-.72c2.748-1.072 5.511-2.103 8.258-3.18Zm39.473 0h1.422c.876.096 1.756.189 2.606.434 2.29.595 4.37 2.069 5.652 4.13 1.127 1.776 1.651 3.9 1.748 6.008-6.72-.01-13.44.006-20.159-.009-.148 1.174-.209 2.36-.284 3.543-.306 3.377.585 6.88 2.546 9.61 1.74 2.468 4.408 4.205 7.31 4.753 1.91.347 3.926.334 5.763-.361 1.98-.723 3.59-2.241 4.824-3.965.353.265.706.531 1.055.806-1.846 3.222-4.607 5.948-7.988 7.36-4.523 1.91-9.988.965-13.767-2.206-2.045-1.678-3.59-3.965-4.536-6.475-1.057-2.745-1.34-5.773-.996-8.694.518-4.845 2.992-9.533 6.931-12.278 2.309-1.653 5.086-2.495 7.873-2.656Zm-2.59 1.705c-1.958.39-3.512 1.924-4.495 3.652-.664 1.208-1.234 2.512-1.427 3.894 1.534-.17 3.078-.099 4.613-.23 2.915-.108 5.828-.234 8.74-.383-.47-2.117-1.281-4.28-2.902-5.74-1.217-1.113-2.945-1.567-4.53-1.193Zm68.792-1.705h1.185c2.499.168 5.041.871 7.093 2.392.079 2.125.124 4.257.234 6.382-.514.111-1.033.197-1.546.309-.633-2.149-1.402-4.387-3.008-5.975-1.706-1.684-4.662-1.897-6.479-.294-1.144 1.023-1.653 2.646-1.562 4.181-.012 1.64.971 3.079 2.138 4.102 1.941 1.676 4.286 2.72 6.45 4.04 1.755 1.072 3.522 2.29 4.662 4.083.979 1.525 1.306 3.434 1.063 5.236-.221 2.11-1.25 4.09-2.757 5.519-2.233 2.15-5.298 3.207-8.313 3.314-3.123.078-6.318-.75-8.884-2.64-.165-1.903-.244-3.812-.418-5.715-.089-.758-.032-1.53-.178-2.284.549-.118 1.101-.25 1.665-.278.485 2.506 1.497 4.976 3.205 6.855 1.294 1.389 3.136 2.237 5.01 2.197 1.398.038 2.816-.508 3.811-1.531 1.942-1.997 2.143-5.561.366-7.735-1.011-1.279-2.412-2.14-3.802-2.91-2.199-1.231-4.56-2.231-6.483-3.921-1.282-1.097-2.278-2.586-2.665-4.272-.422-1.899-.316-3.972.521-5.738.785-1.69 2.161-3.028 3.747-3.906 1.517-.857 3.227-1.28 4.945-1.411Z" fill="#000"/><path d="M97.786 2.372c4.899.009 9.8.009 14.701 0-.007.36-.007.719-.002 1.078-.913.06-1.859.098-2.715.474-.553.204-1.04.651-1.192 1.254-.116.687-.023 1.397.19 2.054.469 1.508 1.071 2.965 1.619 4.442 1.919 5.1 3.872 10.181 5.773 15.287 2.183-5.24 4.302-10.513 6.463-15.764.146-.327-.071-.653-.169-.957-.683-1.679-1.15-3.493-2.205-4.978-.892-1.256-2.474-1.558-3.866-1.812.004-.36.004-.716.006-1.076 4.958 0 9.919.017 14.879-.008 0 .36 0 .72.002 1.082-1.071.084-2.175.16-3.162.64-.635.315-1.138.985-1.104 1.74.028.995.422 1.93.751 2.849 2.198 6.097 4.454 12.17 6.628 18.273.905-1.917 1.702-3.887 2.548-5.834 1.404-3.333 2.787-6.68 3.964-10.108.471-1.478.961-2.965 1.158-4.513.128-.832-.107-1.79-.809-2.28-.909-.601-2.019-.601-3.047-.761.004-.361.002-.72 0-1.082 3.919.015 7.838-.004 11.757.009-.004.353-.004.705-.002 1.058-1.181.126-2.386.452-3.321 1.246-1.452 1.195-2.186 3.013-2.955 4.704-3.71 8.527-7.378 17.074-11.096 25.594a8.89 8.89 0 0 0-.884.017h-.057c-2.759-7.313-5.536-14.619-8.284-21.936-2.939 7.298-5.812 14.628-8.729 21.936h-.052c-.325-.025-.649-.03-.974-.025-3.477-8.93-6.945-17.862-10.44-26.785-.514-1.235-1.041-2.529-2.023-3.453-.909-.867-2.154-1.199-3.357-1.296.006-.357.006-.712.006-1.069Z" fill="#000"/><path d="M25.424 11.472c1.37-1.163 3.047-1.959 4.822-2.123 2.574-.294 5.25.706 7.065 2.615a9.13 9.13 0 0 1 2.511 6.37 9.094 9.094 0 0 1-1.913 5.636c-1.312 1.697-3.239 2.882-5.312 3.228-2.055.353-4.238-.04-6.01-1.186-2.242-1.401-3.81-3.902-4.094-6.597-.328-2.505.465-5.105 2.049-7.016-.477.787-.744 1.71-.623 2.644.168 1.627 1.5 3.037 3.065 3.25 1.852.335 3.757-1.072 4.091-2.975.149-.857.045-1.779-.379-2.541-.637-1.22-1.965-2.03-3.312-1.943-.706-.01-1.353.302-1.96.638Z" fill="#005DA3"/></g></svg>