<svg width="427" height="40" fill="none" xmlns="http://www.w3.org/2000/svg"><mask id="a" style="mask-type:luminance" maskUnits="userSpaceOnUse" x="0" y="1" width="167" height="34"><path d="M166.148 1.667H0V35h166.148V1.667Z" fill="#fff"/></mask><g mask="url(#a)"><path d="M17.183 1.667h1.58c1.903.16 3.943.277 5.572 1.42.927.625 1.4 1.904 1.004 2.99-.521 1.497-2.046 2.753-3.639 2.453-.898-.26-1.649-.865-2.36-1.464-1.16-.98-2.277-2.054-3.652-2.71-1.08-.554-2.347-.522-3.499-.264-2.055.509-3.678 2.124-4.718 3.967a15.421 15.421 0 0 0-1.89 7.723c-.005 3.244.876 6.523 2.659 9.207 1.8 2.713 4.586 4.756 7.716 5.427 2.217.522 4.617.398 6.7-.582.923-.42 1.785-.973 2.604-1.578.436.265.88.513 1.345.719-2.083 2.444-4.783 4.362-7.811 5.307-3.179.985-6.696.928-9.784-.378-3.369-1.403-6.083-4.27-7.556-7.683C.558 24.235.134 22.055 0 19.873v-1.466c.138-2.031.54-4.056 1.345-5.92 1.408-3.352 3.899-6.169 6.919-8.044 2.681-1.699 5.787-2.608 8.919-2.776Zm32.983 0h.018c.258.092.509.19.765.285-.195 1.752-.351 3.51-.554 5.261 2.913-2.192 5.974-4.42 9.554-5.23.683-.165 1.381-.237 2.077-.316h1.268c1.332.117 2.696.323 3.89.982 1.414.715 2.52 1.991 3.146 3.472.915 2.094 1.07 4.433 1.086 6.7 0 4.527.002 9.053 0 13.581a28.11 28.11 0 0 0 .099 2.835c.12.769.213 1.596.702 2.222.452.61 1.156.945 1.854 1.143.909.254 1.834.449 2.769.548.018.363.022.726.022 1.09H60.614c.01-.357-.046-.729.045-1.08 1.393-.25 2.907-.403 4.087-1.285 1.118-.912 1.175-2.503 1.278-3.852.067-3.183.024-6.372.037-9.557-.019-2.155.083-4.327-.289-6.458-.284-1.622-.835-3.277-1.994-4.459-1.529-1.657-3.864-2.171-6.004-2.11a8.661 8.661 0 0 0-3.266.51c-1.403.529-2.643 1.438-3.732 2.482-.154.116-.087.328-.105.492.012 6.317-.006 12.634.008 18.953.067 1.065.089 2.174.533 3.157.38.815 1.195 1.29 2.002 1.535a17.19 17.19 0 0 0 2.891.586c.004.361.004.724.004 1.086-5.412 0-10.828 0-16.242.002.012-.363.015-.727.022-1.09.974-.11 1.94-.32 2.879-.617.882-.29 1.726-.88 2.067-1.807.538-1.562.424-3.247.489-4.876V11.476c-.018-.951-.008-1.94-.418-2.816-.647-1.331-1.864-2.224-2.99-3.093a84.999 84.999 0 0 0-.008-.72c2.748-1.072 5.511-2.103 8.258-3.18Zm39.472 0h1.422c.877.096 1.757.189 2.607.434 2.29.595 4.37 2.069 5.651 4.13 1.128 1.776 1.651 3.9 1.749 6.008-6.72-.01-13.44.006-20.16-.009-.147 1.174-.208 2.36-.283 3.543-.306 3.377.584 6.88 2.546 9.61 1.74 2.468 4.408 4.205 7.31 4.753 1.909.347 3.925.334 5.763-.361 1.98-.723 3.59-2.241 4.824-3.965.353.265.706.531 1.054.806-1.845 3.222-4.606 5.948-7.988 7.36-4.523 1.91-9.988.965-13.767-2.206-2.044-1.678-3.59-3.965-4.535-6.475-1.057-2.745-1.341-5.773-.996-8.694.517-4.845 2.992-9.533 6.931-12.278 2.308-1.653 5.085-2.495 7.872-2.656Zm-2.59 1.705c-1.957.39-3.511 1.924-4.495 3.652-.663 1.208-1.233 2.512-1.426 3.894 1.534-.17 3.077-.099 4.613-.23 2.915-.108 5.828-.234 8.74-.383-.47-2.117-1.282-4.28-2.902-5.74-1.218-1.113-2.946-1.567-4.53-1.193Zm68.793-1.705h1.185c2.499.168 5.041.871 7.093 2.392.079 2.125.124 4.257.234 6.382-.514.111-1.033.197-1.546.309-.633-2.149-1.402-4.387-3.008-5.975-1.706-1.684-4.662-1.897-6.479-.294-1.144 1.023-1.653 2.646-1.562 4.181-.012 1.64.971 3.079 2.138 4.102 1.941 1.676 4.286 2.72 6.45 4.04 1.755 1.072 3.522 2.29 4.662 4.083.979 1.525 1.306 3.434 1.063 5.236-.221 2.11-1.25 4.09-2.757 5.519-2.233 2.15-5.298 3.207-8.313 3.314-3.123.078-6.318-.75-8.884-2.64-.165-1.903-.244-3.812-.418-5.715-.089-.758-.032-1.53-.178-2.284.549-.118 1.101-.25 1.665-.278.485 2.506 1.497 4.976 3.205 6.855 1.294 1.389 3.136 2.237 5.01 2.197 1.398.038 2.816-.508 3.811-1.531 1.942-1.997 2.143-5.561.366-7.735-1.011-1.279-2.412-2.14-3.802-2.91-2.199-1.231-4.56-2.231-6.483-3.921-1.282-1.097-2.278-2.586-2.665-4.272-.422-1.899-.316-3.972.521-5.738.785-1.69 2.161-3.028 3.747-3.906 1.517-.857 3.227-1.28 4.945-1.411Z" fill="#000"/><path d="M97.787 2.372c4.898.009 9.799.009 14.7 0-.006.36-.006.719-.002 1.078-.913.06-1.858.098-2.714.474-.554.204-1.041.651-1.193 1.254-.115.687-.022 1.397.191 2.054.468 1.508 1.071 2.965 1.619 4.442 1.918 5.1 3.872 10.181 5.773 15.287 2.182-5.24 4.302-10.513 6.462-15.764.146-.327-.071-.653-.168-.957-.684-1.679-1.15-3.493-2.205-4.978-.893-1.256-2.475-1.558-3.866-1.812.004-.36.004-.716.006-1.076 4.957 0 9.919.017 14.878-.008 0 .36 0 .72.002 1.082-1.071.084-2.174.16-3.162.64-.635.315-1.138.985-1.103 1.74.028.995.422 1.93.75 2.849 2.199 6.097 4.455 12.17 6.629 18.273.905-1.917 1.702-3.887 2.548-5.834 1.403-3.333 2.787-6.68 3.963-10.108.471-1.478.962-2.965 1.159-4.513.127-.832-.108-1.79-.81-2.28-.908-.601-2.018-.601-3.046-.761.004-.361.002-.72 0-1.082 3.918.015 7.837-.004 11.756.009-.004.353-.004.705-.002 1.058-1.18.126-2.385.452-3.32 1.246-1.453 1.195-2.187 3.013-2.956 4.704-3.71 8.527-7.377 17.074-11.095 25.594a8.91 8.91 0 0 0-.885.017h-.056c-2.759-7.313-5.536-14.619-8.285-21.936-2.939 7.298-5.811 14.628-8.728 21.936h-.053c-.324-.025-.649-.03-.973-.025-3.477-8.93-6.946-17.862-10.441-26.785-.513-1.235-1.04-2.529-2.022-3.453-.909-.867-2.154-1.199-3.357-1.296.006-.357.006-.712.006-1.069Z" fill="#000"/><path d="M25.425 11.472c1.369-1.163 3.046-1.959 4.821-2.123 2.575-.294 5.25.706 7.066 2.615a9.13 9.13 0 0 1 2.51 6.37 9.094 9.094 0 0 1-1.912 5.636c-1.313 1.697-3.24 2.882-5.313 3.228-2.055.353-4.237-.04-6.01-1.186-2.241-1.401-3.81-3.902-4.093-6.597-.329-2.505.464-5.105 2.048-7.016-.476.787-.744 1.71-.622 2.644.168 1.627 1.499 3.037 3.065 3.25 1.852.335 3.756-1.072 4.091-2.975.148-.857.045-1.779-.38-2.541-.636-1.22-1.965-2.03-3.312-1.943-.706-.01-1.353.302-1.96.638Z" fill="#005DA3"/></g><path d="M185.755 2.438v11.964h-1.5V2.438H180V1.096h10.029v1.342h-4.274ZM195.122 1h1.766c3.286 0 4.293 1.131 4.293 4.467v4.736c0 3.144-1.121 4.314-4.293 4.314h-1.766c-3.172 0-4.293-1.17-4.293-4.314V5.467c0-3.336 1.007-4.467 4.293-4.467Zm1.785 1.323h-1.804c-2.223 0-2.792.556-2.792 3.144v4.736c0 2.646.854 2.972 2.792 2.972h1.804c1.938 0 2.792-.326 2.792-2.972V5.467c0-2.588-.57-3.144-2.792-3.144Zm16.945-1.227v13.306h-1.501V2.419h-7.712v11.983h-1.481V1.096h10.694Zm1.241 7.784h4.577v1.342h-4.577V8.88Zm15.332 4.199v1.323h-9.478v-2.244c0-3.47 1.443-3.7 4.615-4.026 2.792-.287 3.4-.172 3.4-2.933 0-2.742-.589-2.876-3.077-2.876-3.172 0-3.457.192-3.457 2.646v.69h-1.481v-.69c0-2.915.361-3.969 4.938-3.969 3.495 0 4.578.824 4.578 4.199 0 3.528-1.235 3.988-4.559 4.256-2.792.23-3.476.537-3.476 2.473v1.15h7.997Zm4.287-10.641v3.969h.019c.645-1.074 2.431-1.112 3.551-1.112 4.122 0 4.426 1.936 4.426 4.505 0 4.16-.855 4.717-4.843 4.717-3.552 0-4.673-.384-4.863-3.605l-.019-.326h1.501v.441c0 2.07 1.025 2.148 3.381 2.148 3.096 0 3.361-.48 3.361-3.375 0-2.857-.531-3.163-3.361-3.163-1.064 0-2.926-.211-3.153 1.208h-1.501v-6.75h8.965v1.343h-7.464Zm27.199-1.342v13.306h-1.5V2.419h-7.712v11.983h-1.481V1.096h10.693ZM268.167 1h1.766c3.286 0 4.293 1.131 4.293 4.467v4.736c0 3.144-1.121 4.314-4.293 4.314h-1.766c-3.172 0-4.293-1.17-4.293-4.314V5.467c0-3.336 1.007-4.467 4.293-4.467Zm1.785 1.323h-1.804c-2.222 0-2.792.556-2.792 3.144v4.736c0 2.646.854 2.972 2.792 2.972h1.804c1.938 0 2.792-.326 2.792-2.972V5.467c0-2.588-.569-3.144-2.792-3.144Zm11.721 12.194h-2.108c-2.393 0-3.818-1.534-3.818-4.2V5.18c0-3.758 2.299-4.18 5.489-4.18h1.235c2.754 0 3.609 1.208 3.609 3.835v.421h-1.501v-.383c0-1.86-.379-2.55-2.317-2.55h-.855c-3.077 0-4.178.383-4.178 2.8v3.661c0 3.03.133 4.39 2.621 4.39h1.766c2.394 0 3.134-.325 3.134-2.223V9.877h1.501v1.246c0 3.049-1.937 3.394-4.578 3.394Zm10.793-12.079v11.964h-1.5V2.438h-4.255V1.096h10.029v1.342h-4.274Zm13.698 9.145h-6.648l-1.026 2.819h-1.558l4.787-13.306h2.108l4.92 13.306h-1.539l-1.044-2.819Zm-.418-1.246-2.944-7.995-2.887 7.995h5.831Zm5.675-2.109v4.85h4.729c1.615 0 2.413-.21 2.413-2.242 0-1.745-.266-2.608-2.242-2.608h-4.9Zm5.508 6.174h-7.009V1.096h6.686c2.469 0 3.058 1.189 3.058 3.508 0 1.4-.285 2.359-1.652 2.819v.019c1.747.326 2.032 1.61 2.032 3.26 0 2.396-.874 3.7-3.115 3.7Zm-5.508-11.964v4.467h4.349c1.786 0 2.394-.422 2.394-2.492 0-1.783-.684-1.975-2.242-1.975h-4.501Zm10.876 11.964V1.096h1.481v11.983h7.142V1.096h1.501v11.983h7.141V1.096h1.501v11.983h1.196v4.831h-1.5v-3.508h-18.462Zm31.932-13.306v13.306h-1.501V2.994h-.057l-7.179 11.408h-1.957V1.096h1.482v11.408h.057l7.179-11.408h1.976Zm13.853 13.306h-.646c-2.07 0-2.013-1.304-2.013-3.068v-.556c0-1.687-.418-2.492-2.223-2.492h-4.995v6.116h-1.482V1.096h1.482v5.867h4.71c1.805 0 2.223-.806 2.223-2.493v-.307c0-1.763-.057-3.067 2.013-3.067h.646v1.323h-.285c-.817 0-.893.46-.893.978V5.18c0 1.36-.494 2.281-1.785 2.339v.057c1.329.096 2.07.69 2.07 2.493V12.1c0 .518.076.978.893.978h.285v1.323ZM373.672 1h1.767c3.286 0 4.292 1.131 4.292 4.467v4.736c0 3.144-1.12 4.314-4.292 4.314h-1.767c-3.172 0-4.292-1.17-4.292-4.314V5.467c0-3.336 1.006-4.467 4.292-4.467Zm1.786 1.323h-1.805c-2.222 0-2.792.556-2.792 3.144v4.736c0 2.646.855 2.972 2.792 2.972h1.805c1.937 0 2.792-.326 2.792-2.972V5.467c0-2.588-.57-3.144-2.792-3.144Zm7.561 5.905v4.85h4.73c1.614 0 2.412-.21 2.412-2.242 0-1.745-.266-2.608-2.241-2.608h-4.901Zm5.508 6.174h-7.008V1.096h6.686c2.469 0 3.058 1.189 3.058 3.508 0 1.4-.285 2.359-1.653 2.819v.019c1.748.326 2.032 1.61 2.032 3.26 0 2.396-.873 3.7-3.115 3.7Zm-5.508-11.964v4.467h4.35c1.785 0 2.393-.422 2.393-2.492 0-1.783-.684-1.975-2.241-1.975h-4.502Zm27.635-1.342v13.306h-1.5V2.994h-.057l-7.18 11.408h-1.956V1.096h1.481v11.408h.057l7.18-11.408h1.975Zm7.072 1.342v11.964h-1.5V2.438h-4.255V1.096H422v1.342h-4.274ZM193.068 39h-1.501v-3.509h-10.066V39H180v-4.831h1.026c.911-.863 1.861-1.65 1.861-5.695v-6.288h8.984v11.983h1.197V39Zm-2.697-4.831v-10.66h-6.002v4.965c0 3.912-.817 5.043-1.463 5.695h7.465Zm6.92-2.799c0 2.952-1.159 4.121-3.628 4.121h-.342V34.17h.057c2.336 0 2.431-1.362 2.431-4.717v-7.266h9.25V35.49h-1.5V23.51h-6.268v7.86Zm18.601-3.145v-4.716h-4.577c-1.843 0-2.298.632-2.298 2.32 0 2.262.721 2.396 2.849 2.396h4.026Zm-4.748 1.323c-1.805 0-1.957.614-1.957 2.3v.576c0 1.764.057 3.067-2.013 3.067h-.646V34.17h.285c.817 0 .893-.46.893-.978v-1.707c0-1.802.608-2.435 1.804-2.53v-.058c-1.31-.115-1.975-1.304-1.975-3.26 0-1.686.589-3.45 3.134-3.45h6.705V35.49h-1.482v-5.943h-4.748Zm22.753 3.125h-6.647l-1.026 2.818h-1.558l4.787-13.305h2.108l4.92 13.305h-1.539l-1.045-2.818Zm-.417-1.246-2.944-7.995-2.888 7.995h5.832Zm15.058-9.241V35.49h-1.501V23.51h-7.711v11.98h-1.482V22.186h10.694Zm13.853 13.305h-.646c-2.07 0-2.013-1.303-2.013-3.067v-.556c0-1.687-.418-2.493-2.223-2.493h-4.995v6.116h-1.482V22.186h1.482v5.866h4.71c1.805 0 2.223-.805 2.223-2.492v-.307c0-1.764-.057-3.067 2.013-3.067h.646v1.323h-.285c-.817 0-.893.46-.893.977v1.783c0 1.362-.494 2.282-1.785 2.34v.057c1.329.096 2.07.69 2.07 2.492v2.033c0 .517.076.977.893.977h.285v1.323Zm9.206-6.173v4.85h4.729c1.615 0 2.412-.21 2.412-2.243 0-1.744-.266-2.607-2.241-2.607h-4.9Zm5.508 6.173h-7.009V22.186h6.686c2.469 0 3.058 1.188 3.058 3.508 0 1.4-.285 2.358-1.652 2.819v.019c1.747.326 2.032 1.61 2.032 3.26 0 2.396-.874 3.7-3.115 3.7Zm-5.508-11.963v4.467h4.349c1.786 0 2.393-.422 2.393-2.492 0-1.784-.683-1.975-2.241-1.975h-4.501Zm26.438 10.641v1.322h-9.478v-2.243c0-3.47 1.444-3.7 4.616-4.026 2.792-.288 3.399-.173 3.399-2.933 0-2.742-.588-2.876-3.077-2.876-3.172 0-3.456.191-3.456 2.645v.69h-1.482v-.69c0-2.914.361-3.968 4.938-3.968 3.495 0 4.578.824 4.578 4.199 0 3.527-1.235 3.987-4.559 4.256-2.792.23-3.475.537-3.475 2.473v1.15h7.996Zm7.402-10.756c-3.229 0-4.084.019-4.084 3.47v3.911c0 3.451.855 3.47 4.084 3.47 3.267 0 4.141-.019 4.141-3.47v-3.911c0-3.451-.874-3.47-4.141-3.47Zm.038 12.193c-4.103 0-5.622-.556-5.622-4.812v-3.911c0-4.256 1.519-4.793 5.584-4.793 4.122 0 5.622.537 5.622 4.793v3.911c0 4.256-1.5 4.812-5.584 4.812Zm16.785-1.437v1.322h-9.478v-2.243c0-3.47 1.443-3.7 4.615-4.026 2.792-.288 3.4-.173 3.4-2.933 0-2.742-.589-2.876-3.077-2.876-3.172 0-3.457.191-3.457 2.645v.69h-1.481v-.69c0-2.914.361-3.968 4.938-3.968 3.495 0 4.578.824 4.578 4.199 0 3.527-1.235 3.987-4.559 4.256-2.792.23-3.476.537-3.476 2.473v1.15h7.997Zm6.186-4.832v-1.323h1.576c1.881 0 2.66.038 2.66-2.205 0-2.205-.304-2.396-3.419-2.396-2.526 0-2.944.21-2.944 2.281v.575h-1.501v-.575c0-3.393 1.577-3.623 4.635-3.604 2.811 0 4.729 0 4.729 3.45 0 1.707-.247 2.973-2.184 3.107v.038c2.013.154 2.45 1.093 2.45 3.049 0 4.007-1.975 3.872-5.128 3.872-3.02 0-4.673-.44-4.673-3.547v-.881h1.482v.881c0 2.09.361 2.148 3.191 2.205 3.191.058 3.628-.057 3.628-2.684 0-2.262-1.045-2.243-2.926-2.243h-1.576Zm15.993-5.809V35.49h-1.5V22.186h8.091v1.342h-6.591Zm12.02-1.438h1.767c3.286 0 4.292 1.131 4.292 4.467v4.736c0 3.144-1.12 4.313-4.292 4.313h-1.767c-3.172 0-4.293-1.17-4.293-4.313v-4.736c0-3.336 1.007-4.467 4.293-4.467Zm1.786 1.323h-1.805c-2.222 0-2.792.556-2.792 3.144v4.736c0 2.645.855 2.971 2.792 2.971h1.805c1.937 0 2.792-.326 2.792-2.971v-4.736c0-2.588-.57-3.144-2.792-3.144ZM376.386 39h-1.501v-3.509h-10.067V39h-1.5v-4.831h1.025c.912-.863 1.862-1.65 1.862-5.695v-6.288h8.984v11.983h1.197V39Zm-2.698-4.831v-10.66h-6.002v4.965c0 3.912-.816 5.043-1.462 5.695h7.464Zm7.68-1.439-5.071-10.544h1.747l4.065 8.762h.038l3.989-8.762h1.728l-5.432 11.465c-.703 1.495-1.501 1.84-3.495 1.84h-.228V34.17h.323c1.577 0 1.88-.518 2.336-1.438Z" fill="#2D2D2D"/></svg>