<svg width="32" height="33" viewBox="0 0 32 33" fill="none" xmlns="http://www.w3.org/2000/svg">
<path fill-rule="evenodd" clip-rule="evenodd" d="M18.3334 3.71388L27 12.3805H22.6667C20.2735 12.3805 18.3334 10.4404 18.3334 8.0472V3.71388ZM16.3334 8.0472V2.7336C16.2145 2.72051 16.0945 2.71387 15.9738 2.71387H7.28205C5.46942 2.71387 4 4.18329 4 5.99592V26.0985C4 27.9111 5.46942 29.3805 7.28205 29.3805H24.7179C26.5305 29.3805 28 27.9111 28 26.0985V14.74C28 14.6193 27.9934 14.4993 27.9802 14.3805H22.6667C19.1689 14.3805 16.3334 11.545 16.3334 8.0472ZM8.5833 24.0472V18.3207H10.4388C11.1419 18.3207 11.6002 18.3493 11.8138 18.4066C12.1419 18.4925 12.4167 18.68 12.638 18.969C12.8594 19.2556 12.9701 19.6266 12.9701 20.0823C12.9701 20.4339 12.9063 20.7295 12.7787 20.969C12.6511 21.2086 12.4883 21.3974 12.2904 21.5354C12.095 21.6709 11.8958 21.7608 11.6927 21.805C11.4167 21.8597 11.0169 21.887 10.4935 21.887H9.73957V24.0472H8.5833ZM9.73957 19.2894V20.9144H10.3724C10.8281 20.9144 11.1328 20.8845 11.2865 20.8246C11.4401 20.7647 11.5599 20.6709 11.6459 20.5433C11.7344 20.4157 11.7786 20.2673 11.7786 20.098C11.7786 19.8897 11.7174 19.7178 11.5951 19.5824C11.4727 19.4469 11.3177 19.3623 11.1302 19.3284C10.9922 19.3024 10.7148 19.2894 10.2982 19.2894H9.73957ZM13.9154 18.3207H16.0286C16.5052 18.3207 16.8685 18.3571 17.1185 18.4301C17.4544 18.529 17.7422 18.7048 17.9818 18.9574C18.2214 19.2099 18.4036 19.5199 18.5287 19.887C18.6536 20.2516 18.7161 20.7021 18.7161 21.2386C18.7161 21.71 18.6576 22.1162 18.5404 22.4574C18.3971 22.874 18.1927 23.2113 17.9271 23.4691C17.7265 23.6643 17.4558 23.8167 17.1146 23.9261C16.8594 24.0068 16.5182 24.0472 16.0912 24.0472H13.9154V18.3207ZM15.0716 19.2894V23.0824H15.9349C16.2578 23.0824 16.4909 23.0641 16.6341 23.0276C16.8216 22.9808 16.9766 22.9014 17.099 22.7894C17.224 22.6774 17.3255 22.4938 17.4037 22.2386C17.4818 21.9808 17.5208 21.6305 17.5208 21.1878C17.5208 20.7451 17.4818 20.4053 17.4037 20.1683C17.3255 19.9313 17.2162 19.7464 17.0755 19.6136C16.9349 19.4808 16.7565 19.391 16.5404 19.3441C16.3789 19.3076 16.0625 19.2894 15.5911 19.2894H15.0716ZM19.7083 18.3207V24.0472H20.8646V21.6136H23.2552V20.6449H20.8646V19.2894H23.6341V18.3207H19.7083Z" fill="#EA4F4D"/>
</svg>
