<svg width="1192" height="468" fill="none" xmlns="http://www.w3.org/2000/svg"><g clip-path="url(#a)"><path d="M63.634 65.618a9.099 9.099 0 0 1-.719 4.1 11.258 11.258 0 0 1-2.315 3.444c-2.315 1.968-5.19 3.034-8.224 2.87h-9.58v12.956h-4.312V55.532h13.733a12.934 12.934 0 0 1 8.543 2.624 8.147 8.147 0 0 1 2.315 3.362c.559 1.312.719 2.706.719 4.018l-.16.082Zm-4.471 0c0-4.264-2.555-6.478-7.585-6.478h-8.783v13.12h9.022c4.87 0 7.346-2.214 7.346-6.642ZM70.9 88.906V55.532h24.83v3.772H75.29v10.66h19.003v3.608H75.291v11.644h21.318v3.69h-25.71Zm56.288-3.936h4.072v13.448h-4.232v-9.512h-22.595V98.5h-4.231V84.97h3.353c1.437-1.968 2.475-4.1 3.034-6.396a64.598 64.598 0 0 0 2.156-11.07l1.517-12.054h16.766l.16 29.52Zm-4.311 0V59.304h-8.703l-1.118 8.692a81.815 81.815 0 0 1-1.916 10.578c-.479 2.296-1.357 4.428-2.475 6.478l14.212-.082ZM32.575 16.5H0v33.21h32.575V16.5Zm0 39.032H0v33.21h32.575v-33.21ZM70.9 16.5H38.324v33.21H70.9V16.5Z" fill="#CC2B24"/><path d="M188.187 59.14c-1.517-.082-3.114.164-4.551.82-1.437.574-2.715 1.558-3.753 2.706-2.075 2.706-3.113 6.068-2.954 9.512-.159 3.444.879 6.888 3.034 9.594 1.038 1.23 2.316 2.132 3.753 2.788 1.437.656 3.034.902 4.551.82 4.471 0 7.824-2.214 10.06-6.724L202 80.46c-1.198 2.624-3.114 4.92-5.589 6.396a14.99 14.99 0 0 1-8.144 2.132c-2.954.082-5.829-.656-8.384-2.05-2.315-1.312-4.231-3.362-5.349-5.822a20.505 20.505 0 0 1-1.836-9.02c0-5.166 1.357-9.266 4.151-12.218 2.795-2.952 6.547-4.428 11.418-4.428 2.954-.082 5.908.574 8.543 2.05a12.138 12.138 0 0 1 5.03 5.986l-4.072 1.394c-.719-1.804-1.916-3.28-3.593-4.264-1.916-.902-3.912-1.476-5.988-1.476Zm-19.721 13.038c.08 3.116-.559 6.15-1.916 8.938a13.864 13.864 0 0 1-5.509 5.904c-2.555 1.394-5.509 2.132-8.384 2.05a16.823 16.823 0 0 1-8.463-2.05c-2.395-1.312-4.232-3.362-5.429-5.822-1.278-2.788-1.916-5.904-1.916-9.02 0-5.166 1.437-9.266 4.231-12.136 2.795-2.952 6.707-4.428 11.657-4.428 2.954-.082 5.829.656 8.384 1.968 2.395 1.312 4.231 3.28 5.429 5.74 1.357 2.706 1.996 5.74 1.916 8.856Zm-4.471 0c.16-3.444-.878-6.806-3.034-9.512-1.038-1.148-2.395-2.132-3.833-2.706a10.853 10.853 0 0 0-4.551-.738 11.221 11.221 0 0 0-4.63.738c-1.437.574-2.795 1.476-3.833 2.706-2.155 2.706-3.193 6.15-3.034 9.594-.159 3.526.879 6.97 3.034 9.676 2.236 2.296 5.27 3.526 8.384 3.608 3.193 0 6.227-1.23 8.463-3.444a14.509 14.509 0 0 0 3.034-9.922Z" fill="#000"/></g><g clip-path="url(#b)"><path d="M358.343.5h-93.486v93.822h93.486V.5Z" fill="#FC0"/><path d="M404.743 108.344c-2.514-1.368-4.8-.228-4.114-6.156.457-4.218-1.943-7.524-5.143-9.69-3.428-2.28-7.771-2.736-11.543-4.218-.571-.228-1.257-.456-1.828-.798-2.743-1.254-5.715-3.078-7.886-5.244-.686-.684-1.257-1.254-1.829-2.052-.457-6.612 1.829-13.566 2.058-19.152.114-2.052-.115-3.99-.343-6.042-.686-3.99-3.543-8.892-.686-12.54.343-.456.686-.684 1.143-1.14 1.486-1.368 2.857-3.192 3.086-5.358 0-.456 0-.912.114-1.14.343-.456.686-1.14.571-1.71 0-.342-.114-.57-.343-.798-.228-.228-.571-.342-.914-.342 0 .114.114.228.114.342v.342a.627.627 0 0 1-.342.57c0 .114-.115.114-.229.228v-.456a.866.866 0 0 0-.229-.57 196.69 196.69 0 0 0-.457-.456c-.685.114-1.371.114-2.057.114-.457 0-.914 0-1.371-.114-1.029-.114-2.172-.228-3.657-.456-2.515-.342-5.029-.456-7.543.114-3.543.912-6.286 3.306-7.543 6.726-.8 2.508-1.029 5.244-1.6 7.866-.343 1.596-1.6 3.876-4.343 7.182-2.743.57-6.057 0-6.971-.114-.343 0-.572-.114-.915-.228-.114.114-.228.228-.228.342l-.343.684v.342c-.572-.456-.686-1.026-.457-1.482 0-.114 0-.114.114-.228h-.114c-.343-.114-.686-.114-.8-.114a.888.888 0 0 0-.457.456c0 .114-.115.228-.115.228v.684c0 .114 0 .114.115.228 0 .114.114.228.114.342 0 .114.114.114.114.228l.114.114c.343.57 1.143 1.71 3.658 2.736-.686.114-2.172-.114-3.772-1.482-1.943 2.736 3.2 5.928 5.029 7.296.114 2.964-1.715 5.472-3.315 6.84-2.742 2.508-6.4 4.218-9.485 6.384-4.115 2.736-7.772 5.928-10.515 10.032a14.616 14.616 0 0 0-1.257 2.28c-1.028 2.394-1.257 4.902-1.028 7.41.343 3.192 1.257 6.84-2.172 8.892-1.371.798-8.571 2.622-10.628 8.208 5.143-2.736 8.114-1.026 12-1.824 3.428-.684 5.371-3.306 5.143-6.156.228 3.078 1.485 5.928 4.571 7.068 1.6.57 3.314.798 5.029.57 1.485-.114 3.085-.798 4.571-.57 3.2.57 6.286 1.482 9.6.57 1.029-.228 1.943-.57 2.743-.798 1.486.57 2.971.912 4.343 1.254 2.171.456 4.343.798 6.514.798 2.514 0 4.914-.342 7.086-.912 1.028-.342 2.057-.684 2.971-1.254 1.257.228 2.514.456 3.886.456h.8c.571.228 1.371.57 2.171.57.915 0 1.715-.342 2.286-1.14.457-.684.571-1.482.343-2.166-.114-.228-.229-.342-.343-.57 0-.342-.114-.798-.229-1.14 3.315.456 6.858 0 9.486-.684-1.143 3.078-5.371 3.99-8.229 3.534 2.401 2.28 5.829 2.622 8.801 1.824 1.714-.456 3.314-1.14 4.685-2.28 1.143-.912 2.172-2.28 3.772-1.824.914.228 1.371 1.14 2.057 1.71a6.618 6.618 0 0 0 2.857 1.71c2.971 1.026 5.943-.456 9.029 1.026-1.486-1.938-3.086-3.648-5.715-4.902Z" fill="#fff"/><path d="M351.486 87.938c-.686-.57-1.257-.342-1.257-.342-.114.342.343.912.686 1.71.342.912 1.028 1.254 1.257.456.228-.912-.343-1.482-.686-1.824Zm-6.401-.798c.457-.228.8-.342 1.029-.342.228 0 .457-.114.343-.228 0-.114-.229-.228-.457-.228-.343-.114-.686-.114-1.143 0-.115 0-.229.114-.229.114-.8.456-1.143 1.026-1.028 1.254.228.228.8-.228 1.485-.57Zm3.657 2.394c0-.228-.114-.342-.228-.57.343 0 .686-.114.686-.342.114-.342-.572-.798-1.372-1.026-.8-.228-1.486-.114-1.714.228 0 .114 0 .228.114.342 0 .114.114.114.229.228 0 0-.115 0-.115.114a.245.245 0 0 0-.228.228h-.8c-.457 0-1.029.114-1.372.456.572-.114 1.029 0 1.486 0h.343v.114c-.114 0-.229 0-.343.114-.571.114-1.371.456-1.828.912.8-.342 1.485-.342 1.942-.456v.114c-.457.114-1.6.684-1.942 1.368.8-.456 1.485-.684 1.828-.684 0 .456.114.798.229 1.026-.229 0-.457.114-.457.342-.115.342.228.798.914 1.026h.114c.457.114.914.114 1.143-.114l.114-.114c.115-.114 0-.342-.114-.57.343-.114.686-.342 1.029-.684.228.228.685.798 1.142 1.824.115-.798-.571-2.052-.8-2.394v-.114c.229.228.8.684 1.372 1.482 0-.912-.914-1.938-1.143-2.166v-.114c.343.114.914.456 1.6 1.14-.457-.684-1.371-1.482-1.829-1.71Z" fill="#1D1D1B"/><path d="M404.743 108.344c-2.514-1.368-4.685-.228-4.114-6.156.457-4.218-1.943-7.524-5.143-9.69-3.428-2.28-7.771-2.736-11.543-4.218-.571-.228-1.257-.456-1.828-.798-2.743-1.254-5.715-3.078-7.886-5.244-.686-.684-1.257-1.254-1.829-2.052-.457-6.612 1.829-13.566 2.058-19.152.114-2.052-.115-3.99-.343-6.042-.686-3.99-3.543-8.892-.686-12.54.343-.456.686-.684 1.143-1.14 1.486-1.368 2.857-3.192 3.086-5.358 0-.456 0-.912.114-1.14.343-.456.686-1.14.571-1.71 0-.342-.114-.57-.343-.798-.228-.228-.571-.342-.914-.342 0 .114.114.228.114.342v.342a.627.627 0 0 1-.342.57c0 .114-.115.114-.229.228v-.456a.866.866 0 0 0-.229-.57 196.69 196.69 0 0 0-.457-.456c-.685.114-1.371.114-2.057.114-.457 0-.914 0-1.371-.114-1.029-.114-2.172-.228-3.657-.456-2.515-.342-5.029-.456-7.543.114-3.543.912-6.286 3.306-7.543 6.726-.8 2.508-1.029 5.244-1.6 7.866-.343 1.596-1.6 3.876-4.343 7.182-2.743.57-6.057 0-6.971-.114-.343 0-.572-.114-.915-.228-.114.114-.228.228-.228.342l-.343.684v.342c-.572-.456-.686-1.026-.457-1.482 0-.114 0-.114.114-.228h-.114c-.343-.114-.686-.114-.8-.114a.888.888 0 0 0-.457.456c0 .114-.115.228-.115.228v.684c0 .114 0 .114.115.228 0 .114.114.228.114.342 0 .114.114.114.114.228l.114.114c.343.57 1.143 1.71 3.658 2.736-.686.114-2.172-.114-3.772-1.482-1.943 2.736 3.2 5.928 5.029 7.296.114 2.964-1.715 5.472-3.315 6.84-2.742 2.508-6.4 4.218-9.485 6.384-4.115 2.736-7.772 5.928-10.515 10.032a14.616 14.616 0 0 0-1.257 2.28c-1.028 2.394-1.257 4.902-1.028 7.41.343 3.192 1.257 6.84-2.172 8.892-1.371.798-8.571 2.622-10.628 8.208 5.143-2.736 8.114-1.026 12-1.824 3.428-.684 5.371-3.306 5.143-6.156.228 3.078 1.485 5.928 4.571 7.068 1.6.57 3.314.798 5.029.57 1.485-.114 3.085-.798 4.571-.57 3.2.57 6.286 1.482 9.6.57 1.029-.228 1.943-.57 2.743-.798 1.486.57 2.971.912 4.343 1.254 2.171.456 4.343.798 6.514.798 2.514 0 4.914-.342 7.086-.912 1.028-.342 2.057-.684 2.971-1.254 1.257.228 2.514.456 3.886.456h.8c.571.228 1.371.57 2.171.57.915 0 1.715-.342 2.286-1.14.457-.684.571-1.482.343-2.166-.114-.228-.229-.342-.343-.57 0-.342-.114-.798-.229-1.14 3.315.456 6.858 0 9.486-.684-1.143 3.078-5.371 3.99-8.229 3.534 2.401 2.28 5.829 2.622 8.801 1.824 1.714-.456 3.314-1.14 4.685-2.28 1.143-.912 2.172-2.28 3.772-1.824.914.228 1.371 1.14 2.057 1.71a6.618 6.618 0 0 0 2.857 1.71c2.971 1.026 5.943-.456 9.029 1.026-1.486-1.938-3.086-3.648-5.715-4.902Zm-51.771-60.762c1.028-2.052 1.486-4.446 2.057-6.156 0-.114.114-.342.229-.456.914.342 1.942-.228 2.514-1.482.457-1.026.343-2.052-.229-2.622 2.057-2.622 5.143-4.446 8.686-3.99 3.543.342 5.143.456 9.143-.228-1.257 1.482-3.657 1.596-5.257 1.368.457.342.571.798.571.798s-1.371 3.192-4.8 1.254c1.486.456 2.743.57 3.886-1.596-1.486-1.254-3.543-.57-4 0-.572.912-1.372 1.14-2.629 2.394-1.143 1.254-1.6 3.534-1.6 3.534s-.457-.912.343-2.964c-1.371 1.254-2.4 2.508-3.086 4.104-.914 2.052-1.371 7.638 1.486 12.654-1.6-1.482-3.086-3.762-3.2-7.182-1.828 4.902 2.514 9.918 4.572 14.022 2.057 4.104 2.514 6.384 3.314 8.208 1.371 3.306 2.4 5.016 4.114 7.296-3.543-2.166-5.828-9.348-7.314-12.54l-.343-.684c-1.143-2.394-2.4-5.016-4.343-6.84-.343-.342-.686-.57-1.028-.798-1.486-1.026-3.543-2.508-7.429-2.508 1.257-1.14 2.514-1.938 4.343-5.586Zm14.514-12.654c.114.228.229.456.457.456l-.114.114c-.457.228-.8.114-.914-.228-.115-.342.228-.798.571-1.026h.114c-.114.228-.228.456-.114.684Zm-39.428 62.244c-2.858 1.14-5.143 2.85-6.858 5.358.229-.342-1.714-5.358-1.828-6.27-1.143-11.058 9.143-16.188 16.8-21.204 5.371-3.534 7.657-6.84 7.086-10.602 2.4 2.394 3.657 5.586 3.085 10.146-.8 5.7 0 7.638 0 7.638s-4.228.912-6.514 7.296c-1.829 3.876-4.229 4.902-6.057 5.586 1.371-1.14 2.171-2.736 2.4-3.876-2.743 2.85-5.029 4.674-8.114 5.928Zm24.571 14.706c-1.143-.228-2.4-.57-3.657-1.026-.114 0-.229-.114-.457-.114.571-.228 1.028-.456 1.6-.684.8-.342 1.371-1.254 1.714-2.28.343-.798.457-1.596.571-2.166 0-.228.115-.342.115-.57.114-.57.114-.912 0-.912 0 0-.115.114-.229.456-.114.228-.228.456-.343.798-.343.798-.8 1.824-1.371 2.622-.457.57-.914 1.14-1.372 1.368-1.714.798-2.628 1.368-4.342 1.938-.229.114-.343.114-.572.228-2.057.57-3.2.456-4.686.114h-.114c-.114 0-.228-.114-.343-.114a30.17 30.17 0 0 1-1.485-.342c-.229-.114-.572-.114-.915-.114-.457 0-.8-.114-1.371-.228-.343-.114-.572-.228-.686-.342-.114-.114 0-.456.114-.684.115-.228.343-.57.572-1.026.914-1.368 2.857-1.254 4.343-.798 1.828.57 3.085.114 3.771-.684l.229-.228c.914-1.026.685-2.166.343-3.534-.115-.684-.343-1.482-.343-2.28v-.57c-.115 0-.229.228-.457.684-.229.57-.343 1.254-.343 2.28v.57c.114 1.482.114 1.482-.457 2.28.114 0 0 0-.115.114l-.114.114c-.229-.114-.8-.684-1.486-1.824v-.114l-.114-.114c-.114-.228-.229-.57-.343-.912-.228-.57-.343-1.14-.457-1.938-.114-.456-.114-.798-.229-1.254a26.043 26.043 0 0 1 0-4.218c.229-2.394.915-4.674 2.172-7.068 0-.114.114-.228.114-.228.229-.342.343-.798.572-1.14.571-1.026 1.142-1.71 1.828-2.166l1.029-.684c.343-.114.685-.342 1.028-.342.457-.114 1.029-.114 1.486-.114 1.029 0 1.943.342 2.4.456 2.743 1.14 4.114 3.42 3.429 5.928-.115.684-.343 1.254-.572 1.824-.8 2.394-.914 4.104 1.372 5.7 1.028.684 2.057.912 3.885 1.482 1.257 4.902-1.943 10.146-5.714 11.856Zm23.657-.684c-.114.114-.114.228-.228.228-.572.342-1.258 0-2.172-.342-.114-.114-.343-.114-.457-.228-.457-.114-.8-.342-1.029-.342-.571-.228-1.142-.228-1.714-.228.343-.228.572-.57.572-.912v-.57s-.115 0-.229.114a14.88 14.88 0 0 1-2.857 1.71c-.686.342-1.372.57-2.172.912-1.257.456-3.657.798-6.171.912 4.571-1.368 7.429-5.814 8.571-7.068 1.943.228 3.2 1.824 3.772 2.166.571.456 1.257.684 2.4.912 1.257.228 1.486.456 1.486 1.14-.458-.228-1.486-.456-2.058-.114 1.143.114 2.286.912 2.515 1.368-.115 0 0 .114-.229.342Zm5.143-16.074c-2.514-.114-4-.912-5.257-1.824-1.029-.798-1.829-1.71-2.629-2.622-.685-.798-1.828-1.254-2.514-.114-.571 1.026 0 2.166.114 3.306.115 1.824-.685 3.648-1.714 5.13-.343.456-.8 1.254-1.371 2.166.457-1.596.914-3.648 1.028-5.928-1.028 3.648-2.971 7.752-4.571 10.602-2.172 2.508-4.915 4.788-7.772 5.13 2.515-2.736 3.429-5.7 3.772-8.094-.229-2.28-.572-7.638 1.6-11.172-.457 1.254-.572 2.964-.572 4.56.115-.57.343-1.14.572-1.71.8-1.824 2.285-2.964 3.657-4.332 1.371-1.368.343-2.964-1.143-3.648-2.286-1.14-7.2-6.156-8.686-15.276-.571 2.508-.343 5.7 0 7.638-2.4-5.016-1.028-10.944-1.828-16.302-.457-2.964-1.943-5.244-5.029-6.042-.686-.228-1.371-.228-2.057-.342h-.114c-.457.114-.915.342-1.257.798.228.342.457.57.685.684.229.228.457.342.8.342a.626.626 0 0 0 .343-.57c0-.342 0-.684-.228-.912h.114c.571.228 1.028.912.914 1.368 0 .228-.114.342-.343.342.686 0 1.257-.114 1.257-.114s-1.6.912-2.514.456c-.228-.114-.343-.228-.571-.342-.572-.342-1.143-.684-1.257-.798-.115 0-.115-.114-.115-.114s.115-.456.572-.798c.228-.114.343-.342.685-.456h-.457c-3.543-.228-4.114-1.596-4.114-1.596 1.371.456 2.971.456 4.914.342.457 0 1.029 0 1.6-.114h.8c2.743-.114 5.143 1.026 7.2 3.762-.114 0-.228.114-.228.114-.572.456-.457 1.71.343 2.736v.114c.342.456.8.684 1.142.912.458.228.915.228 1.258 0 .114.114.114.228.228.342.8 1.368 1.486 2.964 2.629 5.016 1.371 2.736 2.514 5.586 4.228 8.094 1.829 2.736 4.8 4.56 7.315 6.726 2.4 2.052 4.571 4.104 7.314 5.814 3.771 2.394 8.228 1.938 12 4.902-5.372.228-7.429 2.052-10.743 1.824ZM260.286 64.682l-9.486-1.026c.343-1.596.914-2.964 1.486-3.876.685-.912 1.6-1.824 2.971-2.508.914-.456 2.172-.912 3.772-1.14 1.6-.228 3.314-.456 5.142-.456 2.972 0 5.372.114 7.2.456 1.829.342 3.315 1.026 4.572 2.052.8.684 1.486 1.824 2.057 3.078.457 1.368.686 2.622.686 3.876v11.514c0 1.254.114 2.166.228 2.85.115.684.457 1.596 1.029 2.622h-9.372c-.342-.684-.571-1.14-.685-1.482-.115-.342-.229-.912-.343-1.71-1.257 1.254-2.629 2.166-3.886 2.736-1.714.684-3.771 1.026-6.171 1.026-3.086 0-5.486-.684-7.086-2.166-1.6-1.14-2.4-2.964-2.4-5.016 0-1.938.571-3.648 1.714-4.902s3.315-2.28 6.4-2.85c3.772-.798 6.172-1.254 7.315-1.596 1.142-.342 2.285-.684 3.542-1.14 0-1.254-.228-2.052-.8-2.622-.457-.456-1.371-.684-2.628-.684-1.6 0-2.857.228-3.657.798-.686.342-1.143 1.026-1.6 2.166Zm8.685 5.358c-1.371.456-2.742.912-4.228 1.254-2.057.57-3.314 1.026-3.886 1.596-.571.57-.8 1.14-.8 1.824 0 .798.229 1.482.8 1.938.572.456 1.372.798 2.4.798 1.029 0 2.172-.228 3.086-.798.914-.57 1.6-1.254 2.057-1.938.457-.684.571-1.824.571-3.078V70.04Zm25.944-23.712h-9.943v36.024h9.943V46.328Zm18.513 0v9.918h5.486v7.296h-5.486v9.234c0 1.14.114 1.824.343 2.166.343.57.914.798 1.714.798.686 0 1.715-.228 3.086-.684l.686 6.954c-2.515.57-4.8.798-6.857.798-2.515 0-4.343-.342-5.486-.912-1.143-.684-2.057-1.596-2.629-2.964-.571-1.254-.8-3.42-.8-6.27v-9.12h-3.657v-7.296h3.657v-4.788l9.943-5.13Zm-40.342-29.526h6.171v8.322c.572-.684 1.258-1.254 2.058-1.596.8-.342 1.6-.57 2.514-.57 1.943 0 3.543.798 4.8 2.28 1.257 1.482 1.943 3.762 1.943 6.612 0 1.938-.343 3.534-.915 5.016-.571 1.482-1.371 2.508-2.4 3.192a6.055 6.055 0 0 1-3.428 1.026c-1.029 0-2.057-.228-2.972-.798-.685-.342-1.371-1.14-2.171-2.166v2.622h-5.714v-23.94h.114Zm6.057 15.276c0 1.482.229 2.622.8 3.306.457.684 1.143 1.026 1.943 1.026.686 0 1.371-.342 1.829-1.026.457-.684.685-1.824.685-3.306 0-1.368-.228-2.394-.685-3.078-.458-.684-1.029-.912-1.715-.912-.8 0-1.485.342-2.057 1.026-.571.57-.8 1.596-.8 2.964Zm19.772-2.964-5.829-.684a9.944 9.944 0 0 1 .914-2.622c.458-.684 1.029-1.14 1.829-1.71.571-.342 1.371-.57 2.286-.798 1.028-.228 2.057-.228 3.2-.228 1.828 0 3.314.114 4.343.342 1.142.228 2.057.684 2.742 1.368.572.456.915 1.14 1.258 2.052.342.912.457 1.71.457 2.622v7.638c0 .798 0 1.482.114 1.938.114.456.343 1.026.571 1.824h-5.714c-.228-.456-.343-.798-.457-1.026-.114-.228-.114-.57-.229-1.14-.8.798-1.6 1.482-2.4 1.824-1.028.456-2.285.684-3.771.684-1.943 0-3.314-.456-4.343-1.482-1.028-.912-1.486-2.166-1.486-3.534 0-1.368.343-2.394 1.029-3.306.686-.798 2.057-1.482 3.886-1.938 2.285-.456 3.771-.912 4.457-1.026a26.307 26.307 0 0 0 2.171-.798c0-.798-.114-1.368-.457-1.71-.343-.342-.8-.456-1.6-.456-1.028 0-1.714.228-2.286.57-.114.342-.457.798-.685 1.596Zm5.257 3.42c-.8.342-1.714.57-2.629.912-1.257.342-2.057.684-2.4 1.026-.343.342-.457.798-.457 1.254 0 .57.114.912.457 1.254.343.342.8.456 1.486.456.686 0 1.257-.228 1.943-.57.571-.342 1.028-.798 1.257-1.368.229-.57.343-1.14.343-2.052v-.912Zm8.571 3.42 6.057-.57c.229.798.572 1.368 1.029 1.71.457.342 1.028.456 1.828.456s1.486-.228 1.943-.57c.343-.228.572-.684.572-1.026 0-.456-.229-.798-.686-1.14-.343-.228-1.143-.456-2.629-.684-2.057-.456-3.542-.798-4.342-1.14-.8-.342-1.486-.912-2.058-1.71-.571-.798-.8-1.71-.8-2.85 0-1.14.343-2.166.915-2.964.571-.798 1.485-1.482 2.514-1.824 1.029-.456 2.514-.57 4.229-.57 1.942 0 3.314.114 4.228.456.914.342 1.6.798 2.286 1.482a7.771 7.771 0 0 1 1.486 2.736l-5.715.57c-.114-.57-.343-.912-.8-1.254a2.81 2.81 0 0 0-1.714-.57c-.686 0-1.143.114-1.486.456-.343.228-.457.57-.457 1.026 0 .456.229.798.572.912.342.228 1.257.456 2.628.57 2.057.228 3.543.57 4.457 1.026 1.029.456 1.715 1.14 2.286 1.938s.8 1.71.8 2.736c0 1.026-.229 1.938-.8 2.964-.571.912-1.371 1.71-2.629 2.28-1.142.57-2.857.798-4.914.798-2.857 0-4.914-.456-6.171-1.368-1.486-.912-2.286-2.166-2.629-3.876Zm37.371-2.166h-12.229c.115 1.026.343 1.824.8 2.394.572.798 1.372 1.14 2.286 1.14a3.23 3.23 0 0 0 1.714-.456c.343-.228.686-.57 1.029-1.14l5.943.57c-.915 1.71-2.057 2.964-3.315 3.762-1.257.798-3.2 1.14-5.6 1.14-2.057 0-3.771-.342-4.914-1.026-1.257-.684-2.171-1.71-2.971-3.078-.8-1.368-1.143-3.078-1.143-5.016 0-2.736.8-4.902 2.4-6.612 1.6-1.71 3.771-2.508 6.628-2.508 2.286 0 4.115.342 5.372 1.14 1.257.798 2.286 1.824 2.971 3.306.686 1.482 1.029 3.306 1.029 5.586v.798Zm-6.172-3.192c-.114-1.254-.457-2.166-.914-2.736-.457-.57-1.143-.798-2.057-.798-.914 0-1.714.456-2.286 1.254-.343.57-.571 1.254-.685 2.394h5.942v-.114Z" fill="#1D1D1B"/></g><g clip-path="url(#c)" fill="#000"><path d="M635.665 54.6c-.06.232-.119.464-.119.696V79.54c0 1.45-.238 1.682-1.665 1.74h-3.449c-1.189.058-1.664-.522-1.664-1.682v-41.18c0-1.74.118-1.914 1.843-1.914 4.4.058 3.211-.638 4.935 3.19 3.389 7.424 6.659 14.848 9.989 22.272.179.406.416.754.833 1.102.059-.232.118-.406.118-.638V38.418c0-1.74.238-1.914 2.022-1.914h3.092c1.486 0 1.724.232 1.724 1.682v40.948c0 2.03-.178 1.972-2.2 2.204-2.438.232-3.627-.58-4.578-2.842-3.151-7.656-6.66-15.196-10.049-22.794-.178-.406-.416-.754-.594-1.16-.06 0-.179.058-.238.058Zm-12.486 24.65c-2.616-13.282-5.292-26.506-7.908-39.788-.654-3.364-.06-3.074-3.746-3.074h-.773c-2.319 0-2.319 0-2.735 2.204a4448.913 4448.913 0 0 1-5.411 27.26c-.892 4.524-1.843 9.106-2.735 13.63-.298 1.45-.06 1.74 1.486 1.74 1.189 0 2.379-.058 3.627 0 1.011.058 1.487-.464 1.665-1.392.119-.928.357-1.798.416-2.726.119-1.16.654-1.74 1.903-1.682 1.427.058 2.913 0 4.341 0 2.556 0 2.437-.464 3.032 2.552.654 3.248-.238 3.248 3.746 3.19h1.546c1.843.058 1.962-.058 1.546-1.914Zm-14.806-9.918a2434.625 2434.625 0 0 0 2.914-16.646h.476l2.973 16.646h-6.363Zm56.07-26.042c0-.464-.356-.812-.832-.812h-4.222c-.594 0-1.07-.116-1.308-.406-.297-.29-.238-.696-.238-1.74V38.36c-.118-.522-.178-1.218.238-1.566.357-.348.833-.348.952-.348 5.886 0 11.832 0 17.719.058.416 0 1.07.696 1.129 1.16.179 1.16.06 2.378.06 3.538 0 .928-.476 1.276-1.368 1.276h-3.627c-1.724 0-1.724 0-1.724 1.682v35.032c0 1.914-.179 2.088-2.141 2.088h-3.211c-.891 0-1.486-.348-1.486-1.334V43.29h.059ZM561.994 61.792V44.218c0-1.682-.059-1.74-1.724-1.74h-3.746c-.892 0-1.368-.406-1.308-1.334v-3.306c0-.928.357-1.392 1.367-1.392h17.6c.833 0 1.249.464 1.309 1.276v3.422c0 .928-.476 1.392-1.427 1.392-1.309 0-2.557.058-3.865 0-1.13-.058-1.487.406-1.487 1.508.06 6.264 0 12.528 0 18.85v16.82c0 1.334-.594 1.682-1.784 1.682-1.129 0-2.2-.058-3.329 0-1.189.058-1.665-.464-1.665-1.682.059-6.032.059-12.006.059-17.922Zm17.779-2.958V38.476c0-1.856.179-2.03 2.022-2.03h3.33c.891 0 1.367.406 1.367 1.276v35.67c0 1.798 0 1.798 1.843 1.798h6.541c1.427 0 1.724.29 1.724 1.682 0 .986-.059 1.914 0 2.9.06 1.16-.594 1.45-1.605 1.45h-13.616c-1.487 0-1.725-.232-1.725-1.74.119-6.844.119-13.746.119-20.648ZM554.324 79.25c-2.616-13.282-5.292-26.506-7.908-39.788-.654-3.364-.059-3.074-3.746-3.074h-.773c-2.319 0-2.319 0-2.735 2.204a4374.765 4374.765 0 0 1-5.411 27.26c-.892 4.524-1.843 9.106-2.735 13.63-.297 1.45-.059 1.74 1.487 1.74 1.189 0 2.378-.058 3.627 0 1.011.058 1.486-.464 1.665-1.392.118-.928.356-1.798.416-2.726.119-1.16.654-1.74 1.902-1.682 1.428.058 2.914 0 4.341 0 2.557 0 2.438-.464 3.032 2.552.655 3.248-.237 3.248 3.746 3.19h1.546c1.784.058 1.903-.116 1.546-1.914Zm-14.805-9.918a2434.123 2434.123 0 0 0 2.913-16.646h.476l2.973 16.646h-6.362Zm-52.443-20.184h.119c2.14 5.568 4.221 11.136 6.362 16.704-4.341 0-8.741-.058-13.081-.058a815.49 815.49 0 0 0 6.6-16.646Zm9.394 25.288h-18.551c-1.308 2.958-2.557 5.916-3.865 8.874a27.113 27.113 0 0 0 8.087 2.726c2.318.406 4.162.406 5.351.406 1.843 0 4.816-.058 8.324-1.102 1.962-.58 3.508-1.276 4.579-1.856a514.554 514.554 0 0 0-3.925-9.048ZM487.611 28.5h-.238.238Zm-20.216 32.248-3.152-2.784H458c0 1.044.059 2.088.238 3.074 2.557 0 5.113.058 7.67.058 1.13.986 2.319 2.03 3.449 3.016.059-.058.178-.058.297-.116 0 0 .178-.058.357-.058.238 0 .416.058.594.116.536-1.102 1.011-2.262 1.546-3.364l-4.756.058Zm3.924-6.148c0-.406-.357-.754-.773-.754-.416 0-.773.348-.773.754s.357.754.773.754c.416 0 .773-.29.773-.754Zm-8.384-11.252c.179-.696.773-1.218 1.546-1.218.892 0 1.605.696 1.605 1.566 0 .87-.713 1.566-1.605 1.566-.713 0-1.308-.464-1.486-1.044h-1.725a20.196 20.196 0 0 0-1.367 3.074h5.648l3.033-2.784c-.179-.232-.238-.522-.238-.812 0-.87.713-1.566 1.605-1.566s1.606.696 1.606 1.566c0 .87-.714 1.566-1.606 1.566-.237 0-.475-.058-.713-.174-1.13 1.044-2.26 2.03-3.33 3.074h-6.362a29.089 29.089 0 0 0-.892 3.248h5.53l3.092-2.784h5.47c.178-.638.773-1.102 1.546-1.102.892 0 1.605.696 1.605 1.566 0 .87-.713 1.566-1.605 1.566-.714 0-1.308-.464-1.546-1.102h-5.114c-1.01.928-2.081 1.856-3.091 2.784h-6.065c-.119.638-.238 1.276-.298 1.914H469c.178-.638.773-1.102 1.546-1.102.892 0 1.605.696 1.605 1.566 0 .87-.713 1.566-1.605 1.566-.714 0-1.308-.464-1.546-1.102h-10.881a17.28 17.28 0 0 0-.119 1.914c2.2 0 4.4 0 6.6.058l3.092 2.726h4.757c4.756-10.44 9.454-20.88 14.21-31.378-10.702.29-20.037 6.206-24.973 14.848h1.249Zm7.016 21.402c-.416 0-.773.348-.773.754 0 .29.179.58.417.696.178-.464.416-.928.594-1.392-.059 0-.178-.058-.238-.058Zm0-20.3c.417 0 .773-.348.773-.754s-.356-.754-.773-.754c-.416 0-.773.348-.773.754 0 .464.357.754.773.754Zm-4.756 20.996c0-.406-.357-.754-.773-.754-.417 0-.773.348-.773.754s.356.754.773.754c.475 0 .773-.348.773-.754Zm3.151.058c0-.29.119-.638.238-.87l-3.152-2.784h-7.135c.179 1.044.357 2.088.654 3.074h3.925c.178-.638.773-1.102 1.546-1.102.892 0 1.605.696 1.605 1.566 0 .87-.713 1.566-1.605 1.566-.714 0-1.308-.464-1.546-1.102h-3.627c1.189 3.886 3.21 7.424 5.767 10.44 1.427-3.132 2.795-6.206 4.222-9.338-.535-.232-.892-.812-.892-1.45Zm5.886-15.718c.417 0 .773-.348.773-.754s-.356-.754-.773-.754c-.059 0-.178 0-.237.058-.238.058-.357.232-.417.29 0 .058-.119.174-.119.406 0 .232.119.406.119.464.179.174.417.29.654.29Zm-9.037-6.09c0-.406-.357-.754-.773-.754-.417 0-.773.348-.773.754s.356.754.773.754c.475 0 .773-.29.773-.754Zm51.551 17.342c.119-1.044.178-2.03.238-3.074h-6.125l-3.151 2.784h-4.876c.536 1.16 1.011 2.32 1.546 3.48.238-.116.536-.232.833-.232.178 0 .357.058.357.058.118.058.237.058.297.116 1.13-.986 2.259-2.03 3.389-3.016 2.497-.058 4.995-.116 7.492-.116Zm-9.335-1.16 3.092-2.726c2.14 0 4.34 0 6.481-.058 0-.696-.06-1.392-.119-2.03h-10.762c-.179.638-.773 1.102-1.546 1.102-.892 0-1.606-.696-1.606-1.566 0-.87.714-1.566 1.606-1.566.713 0 1.308.464 1.546 1.102h10.702c-.059-.638-.178-1.276-.297-1.914h-5.886c-1.011-.928-2.081-1.856-3.092-2.784h-5.114c-.178.638-.773 1.102-1.546 1.102-.892 0-1.605-.696-1.605-1.566 0-.87.713-1.566 1.605-1.566.714 0 1.308.464 1.546 1.102h5.47l3.092 2.784h5.352a29.089 29.089 0 0 0-.892-3.248h-6.184c-1.13-1.044-2.259-2.03-3.33-3.074a1.613 1.613 0 0 1-.713.174c-.892 0-1.606-.696-1.606-1.566 0-.87.714-1.566 1.606-1.566.892 0 1.605.696 1.605 1.566 0 .29-.119.58-.238.812l3.033 2.784h5.53a48.714 48.714 0 0 0-1.368-3.074h-1.546a1.587 1.587 0 0 1-1.486 1.044c-.892 0-1.606-.696-1.606-1.566 0-.87.714-1.566 1.606-1.566.773 0 1.367.522 1.545 1.218h1.011c-4.935-8.468-14.092-14.326-24.735-14.732 4.638 10.44 9.216 20.88 13.854 31.32l4.995.058Zm-1.427 5.626c0-.406-.357-.754-.773-.754a.685.685 0 0 0-.476.174c.179.464.416.87.595 1.334.356 0 .654-.348.654-.754Zm3.924-21.808c0 .406.357.754.773.754.416 0 .773-.348.773-.754s-.357-.754-.773-.754c-.416 0-.773.348-.773.754Zm2.26 22.156c-.179.638-.773 1.102-1.546 1.102-.892 0-1.606-.696-1.606-1.566 0-.87.714-1.566 1.606-1.566.713 0 1.308.464 1.546 1.102h3.805c.297-.986.476-2.03.654-3.074h-6.957l-3.151 2.784c.178.232.238.522.238.87 0 .696-.476 1.334-1.13 1.508 1.368 3.132 2.795 6.322 4.162 9.454 2.676-3.074 4.757-6.67 5.946-10.614h-3.567Zm-2.26-.406c0 .406.357.754.773.754.416 0 .773-.348.773-.754s-.357-.754-.773-.754c-.416 0-.773.348-.773.754Zm-5.47-21.75c0 .406.357.754.773.754.416 0 .773-.348.773-.754s-.357-.754-.773-.754c-.416 0-.773.348-.773.754Zm-.595 10.904c0 .406.357.754.773.754.416 0 .773-.348.773-.754s-.357-.754-.773-.754c-.475 0-.773.348-.773.754Zm-2.973-6.322c-.416 0-.773.348-.773.754s.357.754.773.754c.06 0 .179 0 .238-.058.238-.058.357-.232.416-.29a.49.49 0 0 0 .119-.464c0-.232-.119-.348-.119-.406-.178-.174-.356-.29-.654-.29Z"/></g><g clip-path="url(#d)"><path d="M749.332 84.5h-17.486c-3.236 0-5.846-2.646-5.846-5.94V34.226c0-2.052 1.67-3.726 3.654-3.726h42.698c3.236 0 5.846 2.646 5.846 5.94v18.9c0 1.404-.522 2.7-1.514 3.672l-23.698 23.976a5.214 5.214 0 0 1-3.654 1.512Zm-19.678-52.11c-.992 0-1.775.81-1.775 1.782V78.56c0 2.214 1.775 4.05 4.019 4.05h17.487c.887 0 1.722-.324 2.296-.972l23.75-23.976c.627-.594.94-1.458.94-2.322V36.386c0-2.214-1.775-4.05-4.019-4.05l-42.698.054Z" fill="#5A2F92"/><path d="M860.983 65.924c-1.879 0-3.445-.594-4.645-1.89-1.201-1.242-1.775-2.754-1.775-4.59 0-1.836.574-3.348 1.775-4.59 1.2-1.242 2.714-1.89 4.645-1.89 1.932 0 3.445.594 4.646 1.89 1.2 1.242 1.775 2.754 1.775 4.59 0 1.836-.575 3.348-1.775 4.59-1.201 1.242-2.714 1.89-4.646 1.89Zm0-2.16c1.253 0 2.297-.432 3.08-1.242.783-.81 1.148-1.836 1.148-3.024s-.365-2.214-1.148-3.024c-.783-.81-1.775-1.242-3.08-1.242-1.252 0-2.244.432-3.027 1.242-.783.81-1.149 1.836-1.149 3.024s.366 2.214 1.149 3.024 1.775 1.242 3.027 1.242Zm16.652-7.29v9.18h-2.088v-7.128h-4.385v7.128h-2.088v-9.18h8.561Zm6.368-.27c1.514 0 2.714.54 3.549 1.62.888 1.08 1.253 2.376 1.097 3.996h-7.204c.105.594.366 1.134.835 1.512.47.432 1.044.648 1.775.648.522 0 .992-.108 1.409-.324.418-.216.731-.486.888-.864h2.192c-.313.972-.835 1.782-1.67 2.322s-1.775.81-2.871.81c-1.462 0-2.61-.486-3.445-1.404-.835-.918-1.305-2.106-1.305-3.456 0-1.404.418-2.538 1.305-3.456.939-.918 2.036-1.404 3.445-1.404Zm-.052 1.944c-.627 0-1.149.162-1.618.54-.47.324-.731.81-.888 1.35h5.011c-.156-.594-.417-1.026-.887-1.404-.418-.324-.992-.486-1.618-.486Zm11.64-1.944c1.305 0 2.401.432 3.236 1.35.835.918 1.253 2.106 1.253 3.51 0 1.458-.418 2.592-1.253 3.51-.835.918-1.931 1.35-3.236 1.35-.679 0-1.253-.162-1.827-.432-.522-.27-.94-.648-1.305-1.134h-.104v5.022h-2.088V56.474h2.088v1.296h.104c.313-.432.731-.81 1.305-1.08.522-.324 1.148-.486 1.827-.486Zm-.418 7.668c.835 0 1.514-.27 2.036-.81s.783-1.188.783-1.998-.261-1.458-.783-1.998-1.201-.81-2.036-.81c-.783 0-1.461.27-1.983.81s-.783 1.188-.783 1.998.261 1.458.783 1.998 1.2.81 1.983.81Zm13.78-6.156V56.42h2.088v9.18h-2.088v-1.35h-.104c-.679 1.08-1.723 1.566-3.08 1.566-1.305 0-2.349-.432-3.236-1.35-.835-.918-1.253-2.106-1.253-3.51 0-1.458.418-2.592 1.253-3.51.835-.918 1.931-1.35 3.236-1.35.679 0 1.305.162 1.827.432s.94.648 1.253 1.08l.104.108Zm-2.766 6.156c.783 0 1.461-.27 1.983-.81s.783-1.242.783-1.998c0-.81-.261-1.458-.783-1.998s-1.2-.81-1.983-.81c-.835 0-1.462.27-1.984.81s-.783 1.188-.783 1.998.261 1.458.783 1.998c.47.54 1.149.81 1.984.81Zm15.711-.27h1.566v4.266h-2.035v-2.214h-8.091v-9.18h2.088v7.128h4.384v-7.128h2.088v7.128Zm5.063-.972 4.542-6.156h2.088v9.18h-2.088v-6.156l-4.542 6.156h-2.087v-9.18h2.087v6.156Zm13.207 3.294c-1.462 0-2.662-.486-3.55-1.404-.939-.918-1.357-2.106-1.357-3.456s.47-2.538 1.357-3.456c.888-.918 2.088-1.404 3.55-1.404 1.461 0 2.61.486 3.497 1.404.887.918 1.357 2.106 1.357 3.456 0 1.404-.47 2.538-1.357 3.456-.939.918-2.088 1.404-3.497 1.404Zm0-2.052c.783 0 1.461-.27 1.983-.81s.783-1.188.783-1.998-.261-1.458-.783-1.998-1.2-.81-1.983-.81c-.835 0-1.514.27-2.036.81s-.783 1.188-.783 1.998.261 1.458.783 1.998 1.201.81 2.036.81Zm13.101-3.942v-3.51h2.088v9.18h-2.088v-3.672h-4.489V65.6h-2.088v-9.18h2.088v3.51h4.489Zm10.962 0v-3.51h2.088v9.18h-2.088v-3.672h-4.489V65.6h-2.088v-9.18h2.088v3.51h4.489Zm6.42-.594h2.714c.94 0 1.671.324 2.297.918.574.594.887 1.35.887 2.214 0 .864-.313 1.62-.887 2.268-.574.648-1.357.918-2.297.918h-4.802v-9.18h2.088v2.862Zm0 4.32h2.61c.313 0 .626-.108.835-.378.209-.216.313-.54.313-.864 0-.324-.104-.594-.313-.81-.209-.216-.522-.378-.835-.378h-2.61v2.43Zm6.942 1.998v-9.18h2.088v9.18h-2.088Zm8.456-9.45c1.514 0 2.715.54 3.55 1.62.887 1.08 1.253 2.376 1.096 3.996h-7.203c.104.594.365 1.134.835 1.512.47.432 1.044.648 1.775.648.521 0 .991-.108 1.409-.324.417-.216.731-.486.887-.864h2.193c-.314.972-.836 1.782-1.671 2.322-.835.54-1.775.81-2.871.81-1.461 0-2.61-.486-3.445-1.404-.835-.918-1.305-2.106-1.305-3.456 0-1.404.418-2.538 1.305-3.456.888-.972 2.036-1.404 3.445-1.404Zm-.052 1.944c-.626 0-1.148.162-1.618.54-.47.324-.731.81-.887 1.35h5.011c-.157-.594-.418-1.026-.888-1.404-.417-.324-.992-.486-1.618-.486ZM864.742 78.614h2.296c-.261 1.512-.939 2.7-2.035 3.672-1.097.972-2.506 1.458-4.124 1.458-1.879 0-3.393-.594-4.541-1.89-1.201-1.242-1.775-2.754-1.775-4.59 0-1.836.574-3.348 1.775-4.59 1.2-1.242 2.714-1.89 4.541-1.89 1.618 0 2.975.486 4.071 1.404a6.038 6.038 0 0 1 2.088 3.618h-2.296c-.261-.864-.731-1.566-1.41-2.052-.678-.54-1.514-.81-2.453-.756-1.201 0-2.192.432-2.975 1.242-.783.81-1.149 1.836-1.149 3.024s.366 2.214 1.149 3.024 1.774 1.242 2.975 1.242c.992 0 1.827-.27 2.505-.81a3.775 3.775 0 0 0 1.358-2.106Zm5.898 1.836 4.541-6.156h2.088v9.18h-2.088v-6.156l-4.541 6.156h-2.088v-9.18h2.088v6.156Zm17.747-2.754h-2.244c-.157-.486-.47-.864-.888-1.188-.417-.324-.939-.432-1.513-.432-.836 0-1.462.27-1.984.81-.47.54-.731 1.188-.731 1.998s.261 1.458.731 1.998c.522.54 1.148.81 1.984.81.574 0 1.096-.162 1.513-.486.418-.324.731-.702.888-1.188h2.244c-.209 1.08-.731 1.998-1.566 2.646-.835.702-1.879 1.026-3.079 1.026-1.41 0-2.61-.486-3.498-1.404-.887-.918-1.305-2.106-1.305-3.456 0-1.404.418-2.538 1.305-3.456.888-.918 2.036-1.404 3.498-1.404 1.2 0 2.244.324 3.079 1.026.835.756 1.357 1.62 1.566 2.7Zm8.769-3.402v2.052h-3.079v7.128h-2.088v-7.128h-3.132v-2.052h8.299Zm5.273-.27c1.513 0 2.714.54 3.549 1.62.888 1.08 1.253 2.376 1.096 3.996h-7.203c.104.594.365 1.134.835 1.512.47.432 1.044.648 1.775.648.522 0 .992-.108 1.409-.324.418-.216.731-.486.888-.864h2.192c-.313.972-.835 1.782-1.67 2.322-.836.54-1.775.81-2.871.81-1.462 0-2.61-.486-3.445-1.404-.836-.918-1.305-2.106-1.305-3.456 0-1.404.417-2.538 1.305-3.456.939-.918 2.035-1.404 3.445-1.404Zm-.052 1.944c-.627 0-1.149.162-1.619.54-.469.324-.73.81-.887 1.35h5.011c-.157-.594-.418-1.026-.887-1.404a3.04 3.04 0 0 0-1.618-.486Zm17.59-1.674v9.18h-2.088V76.67l-2.714 6.804h-1.566l-2.714-6.858v6.858h-2.088v-9.18h3.288l2.401 6.102 2.402-6.102h3.079Zm4.385 2.862h2.714c.939 0 1.67.324 2.297.918.574.594.887 1.35.887 2.214 0 .864-.313 1.62-.887 2.268-.575.648-1.358.918-2.297.918h-4.802v-9.18h2.088v2.862Zm0 4.374h2.609c.314 0 .627-.108.836-.378.208-.216.313-.54.313-.864 0-.324-.105-.594-.313-.81-.209-.216-.47-.378-.836-.378h-2.609v2.43Zm6.942 1.944v-9.18h2.088v9.18h-2.088Zm-10.805-42.12h-6.055v-7.182h6.055v7.182Zm-10.231 0h-6.002v-7.182h6.002v7.182Zm8.561-10.8h-2.14l-2.245 2.268v-2.268h-8.456c-3.445 0-6.264 2.808-6.264 6.318v1.836c0 3.51 2.819 6.318 6.264 6.318h4.28v2.376h4.176v-2.376h4.385c3.445 0 6.263-2.808 6.263-6.318v-1.836c0-3.51-2.818-6.318-6.263-6.318Zm13.832 13.122V40.76h8.926v-3.618h-8.926v-2.97h12.058v-3.618h-16.495v16.794h16.808V43.73h-12.371v-.054Zm61.228-13.122v3.888h6.371v12.906h4.38V34.442h6.37v-3.888h-17.121Zm-120.316 0h-4.593L857.8 41.84h-.105V30.554h-4.384v16.794h4.593l11.222-11.286h.105v11.286h4.384V30.554h-.052Zm117.654 0h-4.593L975.453 41.84h-.104V30.554h-4.385v16.794h4.594l11.222-11.286h.105v11.286h4.384V30.554h-.052Zm-99.071 0h4.384v16.794h-4.384V40.76h-10.231v6.588h-4.385V30.554h4.385v6.318h10.231v-6.318Zm70.832 9.18h-9.552v-5.562h9.552v5.562Zm-.888-9.18h-6.42l-2.244 2.268v-2.268h-4.385v16.794h4.385v-3.942h8.664c3.132 0 5.638-2.538 5.638-5.67v-1.458c0-3.186-2.558-5.724-5.638-5.724Z" fill="#2D2A2B"/><path d="M825.959 30.5h-17.486c-1.357 0-2.662.54-3.654 1.512l-23.75 23.976c-.94.972-1.514 2.268-1.514 3.672v18.9c0 3.24 2.61 5.94 5.846 5.94h42.698c2.036 0 3.654-1.674 3.654-3.726V36.44c.052-3.294-2.558-5.94-5.794-5.94Z" fill="#5A2F92"/><path d="M811.291 77.048c-1.044 1.08-2.401 1.62-4.071 1.62s-3.028-.54-4.072-1.62-1.565-2.43-1.565-3.996c0-1.566.521-2.916 1.565-4.05 1.044-1.08 2.402-1.62 4.072-1.62s3.027.54 4.071 1.62c1.044 1.08 1.566 2.43 1.566 4.05 0 1.566-.522 2.916-1.566 3.996Zm12.006.324c-.992.864-2.193 1.242-3.602 1.242-1.618 0-2.975-.54-3.967-1.62-1.044-1.08-1.566-2.43-1.566-3.996 0-1.566.522-2.916 1.566-4.05 1.044-1.08 2.349-1.62 3.967-1.62 1.409 0 2.61.432 3.55 1.242.991.81 1.565 1.89 1.826 3.186h-1.983c-.209-.756-.626-1.35-1.201-1.836-.626-.486-1.305-.702-2.14-.702-1.044 0-1.931.378-2.61 1.08-.678.756-.991 1.62-.991 2.646 0 1.026.313 1.944.991 2.646.679.702 1.514 1.08 2.61 1.08.888 0 1.618-.216 2.193-.702.626-.486.991-1.08 1.2-1.89h1.984c-.261 1.404-.836 2.484-1.827 3.294Z" fill="#fff"/><path d="M807.22 69.218c-1.096 0-1.984.378-2.662 1.08-.679.702-1.044 1.62-1.044 2.646 0 1.026.313 1.944 1.044 2.646.678.756 1.566 1.08 2.662 1.08 1.096 0 1.983-.378 2.662-1.08.678-.702 1.044-1.62 1.044-2.646 0-1.026-.313-1.944-1.044-2.646-.679-.702-1.566-1.08-2.662-1.08Z" fill="#5A2F92"/></g><g clip-path="url(#e)" fill="#000"><path d="M1087.43 44.504c-.11.114-.11.228-.23.342-3.72 4.56-7.55 9.12-10.94 14.022-3.5 4.902-6.66 9.918-9.59 15.162-.79 1.482-1.58 3.078-2.03 4.788-.34 1.026-.56 2.166-.79 3.192 0 .114 0 .228-.11.342-1.36-.342-2.71-.684-4.06-.912 0-.228.11-.342.11-.57 1.13-4.674 3.27-9.006 5.98-13.11 5.75-8.55 11.51-17.1 18.05-25.194.68-.798 1.35-1.71 2.03-2.508.23-.228.23-.456.23-.798-2.26-7.98-4.63-15.96-7-23.94-1.13-3.762-2.14-7.524-3.5-11.286 0-.114-.11-.228-.11-.342 2.15-1.026 4.18-2.052 6.32-3.078.11.114.11.114.11.228 1.92 3.876 3.95 7.752 5.53 11.742 1.35 3.534 2.6 7.068 3.84 10.716.79 2.394 1.58 4.788 2.37 7.068 0 .228.11.342.22.57 8.35-9.69 17.26-18.924 26.18-28.158.9.798 1.69 1.71 2.59 2.508-.23.228-.45.456-.56.684-7.45 8.094-14.9 16.074-22.23 24.168-1.47 1.596-2.82 3.192-4.17 4.788-.34.342-.34.684-.23 1.14 1.69 5.814 3.27 11.628 4.85 17.556 1.81 6.954 3.39 13.908 4.97 20.862.79 3.648 1.46 7.296 2.14 10.944.56 2.85.9 5.7 1.35 8.436.45 2.964.91 5.928 1.36 8.892.22 1.824.56 3.648.79 5.586.11 1.596.11 3.192.11 4.788 0 .456 0 .798-.11 1.254-2.48-.456-4.97-1.026-7.45-1.482-.11-.798-.11-1.596-.22-2.394-.23-2.85-.57-5.814-1.13-8.664-1.36-7.638-3.16-15.048-5.08-22.572-2.93-11.514-6.2-22.914-9.36-34.428 0-.114-.12-.228-.12-.456 0 .228-.11.228-.11.114Z"/><path d="M1112.14 50.66v12.084h-4.85V28.43c.34-.114 3.61-.228 4.85-.114.11.684 0 1.368.11 2.052.11-.114.23-.228.34-.228.23-.228.56-.57.79-.798 1.13-1.14 2.59-1.482 4.06-1.368.45 0 .9.114 1.24.228 1.13.342 1.92 1.14 2.48 2.166.34.798.57 1.596.68 2.394.11.684.11 1.368.11 2.052V46.67c0 .798-.11 1.71-.22 2.508-.23 1.938-1.58 3.42-3.5 3.762-2.26.456-4.29-.114-5.75-2.052 0-.114-.12-.114-.23-.228h-.11Zm0-9.918V46.1c.22 1.596 1.58 2.508 3.27 2.052.56-.114 1.02-.57 1.24-1.026.23-.57.34-1.14.34-1.824v-9.234c0-.684-.23-1.368-.45-1.938-.23-.456-.57-.684-1.02-.912-1.01-.456-2.14-.114-2.82.798-.45.684-.67 1.368-.56 2.166v4.56Zm42.98 1.596h-9.7v3.306c0 2.166 1.92 2.736 3.27 2.394.45-.114.91-.456 1.13-.912.23-.456.34-.912.45-1.368h4.74c.11.456 0 .912-.11 1.368-.57 3.306-3.05 5.586-6.32 5.928-1.35.114-2.6 0-3.84-.456-2.48-.912-3.83-2.736-4.17-5.358-.11-.798-.11-1.596-.11-2.28v-9.006c0-.912.11-1.938.34-2.85.67-2.622 2.48-4.218 5.07-4.902 1.36-.342 2.82-.342 4.18.114 2.48.684 3.95 2.394 4.73 4.902a8.6 8.6 0 0 1 .34 2.394v6.726Zm-4.96-3.876c0-1.14.11-2.28 0-3.42-.11-1.482-1.47-2.394-2.93-2.166-1.13.228-1.92 1.14-1.92 2.394v2.736c0 .114 0 .228.11.342 1.58.114 3.16.114 4.74.114Zm-76.61 3.876h-9.7v3.306c0 1.368.79 2.166 2.14 2.394h1.02c.56-.114 1.02-.456 1.24-1.026.23-.456.34-.912.57-1.368h4.73v.684c-.22 2.28-1.12 4.104-2.93 5.358-.9.684-1.92 1.026-3.05 1.14-1.58.228-3.15.114-4.73-.684-2.15-1.026-3.28-2.622-3.73-4.902 0-.912-.11-1.938-.11-2.964v-8.094c0-.912.11-1.938.23-2.85.56-2.85 2.36-4.56 5.19-5.244 1.35-.228 2.59-.228 3.94.114 2.71.684 4.29 2.508 4.97 5.13.22.684.22 1.482.22 2.166v6.498c.12.114 0 .228 0 .342Zm-4.85-3.876c0-1.14.12-2.28 0-3.42-.11-1.596-1.46-2.508-3.04-2.052a2.324 2.324 0 0 0-1.81 2.28v3.078s0 .114.11.114h4.74Zm107.75 7.182h4.51c0 .114.11.342.11.456.11.228.11.456.23.684.56 1.254 1.24 1.71 2.71 1.482 1.12-.114 2.14-.912 2.36-2.052.23-1.14 0-2.052-.9-2.736-.34-.342-.79-.57-1.24-.684-.9-.342-1.8-.684-2.59-1.026a7.918 7.918 0 0 1-2.37-1.368c-1.81-1.482-2.49-3.306-2.49-5.586.12-3.306 2.49-6.042 5.76-6.726 3.72-.684 7.67 1.482 8.35 6.042v.912h-4.52c0-.228 0-.342-.11-.456-.34-1.824-2.14-2.394-3.27-1.938-1.02.342-1.69 1.482-1.58 2.622.11 1.026.68 1.71 1.69 2.166 1.13.456 2.37.912 3.5 1.368 2.71 1.026 4.17 2.964 4.51 5.928.34 2.85-.67 5.358-3.04 7.068-3.16 2.28-7.9 1.482-10.04-1.482-.91-1.254-1.36-2.736-1.47-4.218-.11-.228-.11-.342-.11-.456Zm-17.72 0h4.52c.11.342.22.798.33 1.14.57 1.482 1.58 1.824 3.05 1.596 1.02-.228 1.81-.798 2.03-1.824.23-1.14.11-2.166-.79-2.85-.45-.342-.9-.57-1.35-.798-.9-.342-1.81-.684-2.6-1.026-.67-.228-1.24-.57-1.8-.912-2.48-1.71-3.5-4.218-2.82-7.182.56-2.964 2.48-4.788 5.3-5.472 2.82-.684 5.3.114 7.11 2.394.9 1.14 1.35 2.508 1.46 3.99v.57h-4.51c0-.228 0-.342-.11-.456-.23-1.14-1.13-2.166-2.71-2.052-1.24.114-2.14 1.14-2.14 2.394 0 1.14.45 1.938 1.69 2.394 1.13.456 2.26.912 3.38 1.368 2.82 1.026 4.52 3.306 4.63 6.498a6.788 6.788 0 0 1-.68 3.648c-1.35 2.736-3.61 4.218-6.77 4.218a6.37 6.37 0 0 1-2.03-.342c-2.93-.798-4.51-2.85-4.96-5.814-.23-.684-.23-1.026-.23-1.482Zm-20.64-12.54a4.1 4.1 0 0 0-2.6-.114c-2.03.456-3.38 1.938-3.72 3.99-.11.456-.11.798-.11 1.254v14.364h-4.85v-24.51h4.85v2.508c1.91-1.596 3.83-2.964 6.43-2.85.11.684.11 4.332 0 5.358Z"/></g><g clip-path="url(#f)"><path fill-rule="evenodd" clip-rule="evenodd" d="M54.913 181.68c1.52-1.887 2.635-4.386 2.635-6.987 0-.357-.05-.714-.101-1.02-2.483.102-5.473 1.683-7.297 3.774-1.419 1.581-2.736 4.182-2.736 6.732 0 .408.05.765.101.918.152.051.406.051.66.051 2.28.051 5.066-1.479 6.738-3.468Zm1.774 4.08c-3.75 0-6.79 2.295-8.716 2.295-2.077 0-4.763-2.142-8.056-2.142-6.182-.051-12.415 5.1-12.415 14.739 0 6.018 2.28 12.393 5.169 16.524 2.482 3.468 4.61 6.324 7.702 6.324 3.09 0 4.408-2.04 8.209-2.04 3.8 0 4.712 1.989 8.107 1.989 3.395 0 5.574-3.06 7.702-6.12 2.382-3.519 3.344-6.885 3.395-7.038-.203-.051-6.587-2.703-6.587-10.098 0-6.375 5.067-9.231 5.32-9.486-3.395-4.845-8.462-4.947-9.83-4.947Z" fill="#0D0D0D"/><path d="M79.54 221.766h8.31v-21.777c0-4.284 2.787-7.446 6.79-7.446s6.284 2.448 6.284 6.426v22.797h8.056v-21.981c0-4.284 2.737-7.242 6.74-7.242s6.334 2.499 6.334 6.834v22.389h8.31v-24.429c0-7.14-4.561-11.832-11.553-11.832-5.118 0-9.324 2.754-10.996 7.14h-.203c-1.317-4.59-4.864-7.14-9.88-7.14-5.017 0-8.564 2.703-10.085 6.834h-.151v-6.171H79.54v35.598Zm69.066-5.712c-3.598 0-6.03-1.836-6.03-4.794 0-2.958 2.28-4.641 6.283-4.896l8.158-.51v2.703c.051 4.335-3.75 7.497-8.411 7.497Zm-2.534 6.273c4.561 0 8.969-2.397 10.996-6.222h.152v5.661h8.006v-24.531c0-7.14-5.726-11.832-14.492-11.832-8.766 0-14.644 4.794-14.999 11.424h7.702c.558-2.958 3.04-4.845 6.993-4.845 3.952 0 6.587 2.142 6.587 5.865v2.55l-9.323.561c-8.615.561-13.428 4.335-13.428 10.659 0 6.324 4.965 10.71 11.806 10.71Zm55.688-23.46c-.557-7.497-6.334-13.413-15.708-13.413-10.286 0-16.975 7.14-16.975 18.564s6.739 18.462 17.076 18.462c8.868 0 14.999-5.253 15.658-13.209h-7.854c-.76 4.029-3.496 6.426-7.702 6.426-5.27 0-8.665-4.284-8.665-11.73 0-7.446 3.395-11.73 8.614-11.73 4.459 0 7.094 2.856 7.753 6.63h7.803Zm25.691-26.367c-14.036 0-22.853 9.639-22.853 25.041 0 15.402 8.817 25.041 22.853 25.041 14.036 0 22.853-9.588 22.853-25.041 0-15.453-8.868-25.041-22.853-25.041Zm0 7.395c8.564 0 14.036 6.834 14.036 17.646 0 10.812-5.472 17.646-14.036 17.646s-14.036-6.834-14.036-17.646c0-10.812 5.422-17.646 14.036-17.646Zm26.349 28.254c.355 8.925 7.652 14.433 18.749 14.433 11.654 0 19.002-5.763 19.002-14.994 0-7.242-4.155-11.271-13.935-13.515l-5.523-1.275c-5.929-1.428-8.361-3.315-8.361-6.528 0-4.029 3.648-6.732 9.121-6.732 5.472 0 9.273 2.703 9.678 7.242h8.209c-.253-8.517-7.246-14.28-17.887-14.28-10.591 0-17.938 5.814-17.938 14.433 0 6.936 4.206 11.22 13.073 13.26l6.233 1.479c6.081 1.428 8.564 3.468 8.564 6.936 0 4.029-4.054 6.936-9.831 6.936-5.827 0-10.337-2.907-10.844-7.395h-8.31Z" fill="#000"/></g><g clip-path="url(#g)"><path d="M374.427 233.5c19.252 0 34.858-15.894 34.858-35.5s-15.606-35.5-34.858-35.5c-19.251 0-34.858 15.894-34.858 35.5s15.607 35.5 34.858 35.5Z" fill="#27A4E3"/><path d="M388.511 183.871a8.595 8.595 0 0 0-2.231.568c-5.996 2.201-11.782 4.686-17.638 7.242-3.277 1.42-6.554 2.84-9.761 4.26a74.665 74.665 0 0 0-5.368 2.556c-1.115.568-.976 1.775.14 2.272 2.021.923 4.183 1.42 6.344 2.059 2.022.568 3.834.142 5.507-.994l5.229-3.621c2.998-2.059 6.065-4.047 9.063-6.106.419-.284.907-.71 1.395-.142.418.568-.07.923-.419 1.278l-3.137 3.195c-2.51 2.485-5.089 4.899-7.599 7.384-1.255 1.349-1.185 2.272.139 3.408.21.142.419.355.628.497 3.277 2.272 6.553 4.544 9.9 6.816.627.426 1.254.781 1.952 1.065 1.603.568 2.649.142 3.346-1.42.418-.923.558-1.917.767-2.982.697-4.26 1.464-8.449 2.161-12.709.628-3.976 1.255-8.023 1.673-11.999.14-1.704-.557-2.556-2.091-2.627Z" fill="#27A4E3"/><path d="M548.927 194.876c.976-1.562 2.231-2.84 3.974-3.266 3.556-.994 6.554.923 7.39 4.686.07.355.209.71.209 1.065v12.354h-3.067v-7.952c0-1.42.069-2.84-.209-4.26-.349-1.846-1.325-3.053-2.719-3.337-1.604-.284-3.068.355-4.044 1.775-.627.923-.836 1.988-.836 3.124v10.65h-3.138v-1.136c-.069-6.39.14-7.952-.139-10.934-.209-1.775-1.255-3.124-2.649-3.408-1.604-.355-3.138.284-4.183 1.846-.697.994-.976 2.059-.976 3.266v10.508h-3.138c-.139-5.964.14-11.928-.209-17.892h2.928v2.556c1.464-1.846 3.207-2.982 5.578-3.053 2.509-.142 4.183 1.065 5.228 3.408Zm-51.241-.71c.209-.781-.069-1.562.279-2.343h2.649c.14.923 0 1.917 0 2.84 0 4.828 0 9.656-.139 14.555-.07 2.414-.697 4.757-2.649 6.461-1.255 1.065-2.719 1.562-4.323 1.775-2.579.426-5.856-.142-7.808-1.42.279-.781.488-1.562.767-2.485a13.262 13.262 0 0 0 3.904 1.278c4.322.639 6.972-1.633 6.972-6.035v-1.846c-2.789 2.84-5.926 3.55-8.854 2.059-2.58-1.278-3.904-3.55-4.253-6.319-.488-3.55.209-6.816 2.928-9.372 2.928-2.698 8.296-2.556 10.248.781.07 0 .14 0 .279.071Zm-.348 6.319v-1.775c-.07-2.272-1.464-4.047-3.556-4.615-2.091-.497-4.183.355-5.298 2.343-1.464 2.627-1.464 5.396-.209 8.094.906 1.846 2.997 2.911 4.949 2.556 2.022-.355 3.556-1.846 3.974-3.905.209-.852.14-1.775.14-2.698Zm29.629-2.201c.07-3.195-1.604-4.757-4.601-4.473-.698.071-1.395.142-2.092.426-.627.284-1.324.568-2.022.852-.209-.71-.488-1.349-.697-2.059 1.395-.994 2.998-1.42 4.601-1.562.907-.071 1.883-.142 2.789.071 3.346.568 5.159 2.84 5.229 6.532.07 3.905-.209 7.81.279 11.786h-2.928c-.07-.71-.21-1.349-.349-2.201-1.743 2.13-3.974 2.911-6.553 2.556-2.162-.284-3.835-1.846-4.253-3.905-.558-2.485.418-4.828 2.44-6.177 2.092-1.349 4.462-1.704 6.832-1.775.488-.071.907-.071 1.325-.071Zm.139 2.272c-1.394 0-2.719.071-4.043.355-.837.213-1.673.497-2.371 1.065-.976.852-1.324 1.917-1.115 3.195.139 1.136.767 1.917 1.882 2.343 2.51.852 5.438-1.065 5.647-3.834v-3.124Zm-74.874 6.106.627 2.343a3.353 3.353 0 0 1-.488.213c-.488.213-1.813.71-3.695.852a16.26 16.26 0 0 1-3.207-.071c-4.322-.568-6.971-3.763-7.181-8.236-.069-2.201.21-4.331 1.255-6.319 1.883-3.55 5.926-5.112 9.621-3.763 1.673.639 2.858 1.846 3.625 3.479.907 1.917 1.116 3.905.907 6.106h-12.27c-.21 3.408 2.091 6.035 5.298 6.177 1.882.213 3.695 0 5.508-.781Zm-1.604-7.597c.14-3.053-1.534-5.183-4.043-5.325-2.789-.071-4.95 2.13-5.09 5.325h9.133Zm30.466 2.343h-12.27c-.279 3.337 2.091 6.035 5.368 6.177 1.813.071 3.625-.142 5.368-.852.209.781.488 1.633.697 2.414-3.625 1.207-7.18 1.775-10.666-.142-2.58-1.42-3.626-3.976-3.835-6.816-.209-2.343.14-4.615 1.325-6.674 1.882-3.479 6.065-5.112 9.69-3.621 2.51.994 3.695 3.124 4.323 5.68.209 1.207.209 2.485 0 3.834Zm-2.998-2.343c-.07-3.55-1.813-5.396-4.671-5.325-2.37.071-4.531 2.698-4.392 5.325h9.063Zm-46.221 10.65h-3.207v-22.294h-7.46v-2.769h18.126v2.698h-7.459v22.365Zm26.143-26.199h3.137v26.199h-3.137v-26.199Zm47.476 8.307h2.789c.279 1.065.069 2.13.209 3.408.627-1.278 1.255-2.343 2.37-3.053 1.116-.71 2.231-.923 3.556-.71v3.124c-2.371-.355-4.044.497-5.02 2.769-.418 1.065-.557 2.13-.557 3.266v9.088h-3.138c-.069-5.964.07-11.857-.209-17.892Z" fill="#1A1A1A"/><path d="M388.511 183.871c1.534 0 2.161.923 2.022 2.556-.419 4.047-1.046 8.023-1.674 11.999a802.746 802.746 0 0 1-2.161 12.709c-.139.994-.348 1.988-.767 2.982-.697 1.562-1.743 1.988-3.346 1.42-.697-.213-1.325-.639-1.952-1.065-3.277-2.272-6.623-4.544-9.9-6.816a3.839 3.839 0 0 1-.627-.497c-1.325-1.136-1.395-2.059-.209-3.337 2.509-2.485 5.019-4.899 7.599-7.384 1.045-1.065 2.161-2.13 3.137-3.195.279-.355.836-.71.418-1.278-.488-.568-.976-.142-1.394.142-3.068 1.988-6.065 4.047-9.063 6.106l-5.229 3.621c-1.673 1.207-3.486 1.562-5.508.994-2.161-.639-4.322-1.136-6.344-2.059-1.185-.497-1.255-1.704-.139-2.272a74.463 74.463 0 0 1 5.368-2.556c3.277-1.42 6.484-2.84 9.76-4.26 5.856-2.556 11.713-5.041 17.638-7.242.907-.284 1.674-.497 2.371-.568Z" fill="#FEFEFE"/></g><g clip-path="url(#h)" fill="#0078D4"><path d="M718.28 212.245h-6.885l-6.717-25.706-6.829 25.706h-7.053l-9.292-33.395h6.269l6.661 26.604 7.277-26.604h6.325l6.829 26.716 6.326-26.716h6.101l-9.012 33.395Zm17.912-30.925c0 .898-.336 1.684-1.007 2.245-.672.617-1.456.898-2.351.898-.952 0-1.735-.281-2.351-.898-.672-.618-.952-1.347-.952-2.245 0-.898.336-1.684.952-2.301.672-.618 1.455-.955 2.351-.955.951 0 1.735.337 2.407.955.615.617.951 1.403.951 2.301Zm-6.269 30.925v-24.078h5.598v24.078h-5.598Zm27.148 0v-13.358c0-3.536-1.064-6.567-4.646-6.567-3.527 0-5.766 3.144-5.766 6.399v13.582h-5.485v-24.134h5.485v3.424h.112c1.792-2.806 4.422-3.817 7.893-3.817 2.575 0 4.59.618 5.989 2.301 1.4 1.628 2.071 4.154 2.071 7.521v14.705l-5.653-.056Zm27.54 0v-3.087h-.112c-1.735 2.919-5.318 3.592-7.781 3.592-7.333 0-10.075-5.725-10.075-11.842 0-4.041 1.007-7.297 3.022-9.71 2.015-2.413 4.702-3.48 8.117-3.48 5.261 0 6.717 2.919 6.717 2.919h.112v-13.863h5.709v35.527l-5.709-.056Zm0-13.695c0-2.918-1.847-6.23-5.822-6.23-4.478 0-6.269 3.929-6.269 8.475 0 3.929 1.679 7.521 5.933 7.577 4.199 0 6.102-4.041 6.102-7.352l.056-2.47Zm34.313 1.572c0 8.363-4.982 12.853-12.427 12.853-8.116 0-12.258-4.883-12.258-12.348 0-8.531 4.982-12.965 12.874-12.965 7.221 0 11.811 4.659 11.811 12.46Zm-5.821.168c0-3.704-1.288-7.857-6.326-7.857-4.814 0-6.661 3.592-6.661 7.97 0 4.77 2.239 7.801 6.661 7.801 4.702.056 6.27-3.536 6.326-7.914Zm35.88 11.955h-6.158l-4.701-17.399-5.094 17.455h-5.99l-6.997-24.022h5.878l4.59 18.634 5.318-18.634h5.485l4.758 18.578 4.422-18.578h5.374l-6.885 23.966Zm24.517-6.679c0 5.388-4.87 7.465-9.74 7.465-3.19 0-6.325-1.235-6.325-1.235v-5.725s2.743 2.414 6.549 2.414c2.631 0 3.807-.842 3.807-2.414.056-1.29-.728-1.964-1.624-2.469-.615-.393-1.623-.842-2.966-1.403-1.568-.674-2.743-1.347-3.527-1.965-.783-.617-1.343-1.403-1.735-2.245-.336-.842-.616-1.796-.616-2.918 0-4.322 3.583-7.409 9.348-7.409 3.806 0 5.43.954 5.43.954v5.444s-2.687-1.852-5.542-1.908c-2.015 0-3.526.73-3.582 2.414 0 2.132 2.631 3.199 4.142 3.816 2.295.898 3.918 1.908 4.87 3.031 1.063 1.122 1.511 2.245 1.511 4.153Zm-238.456-38.053h-26.532v26.603h26.532v-26.603Zm29.443 0h-26.532v26.604h26.532v-26.604Zm-29.443 29.522h-26.532v26.604h26.532v-26.604Zm29.443 0h-26.532v26.604h26.532v-26.604Z"/></g><g clip-path="url(#i)" fill-rule="evenodd" clip-rule="evenodd"><path d="M971.406 204.48h-26.75l3.076 5.72 26.75-.04-3.076-5.68Zm4.05 7.48-26.751.04 2.336 4.28c.468.88 1.363 1.4 2.337 1.4l25.193-.04-3.115-5.68Z" fill="#BFBFBF"/><path d="m966.812 178-13.901 24.72h6.385l13.94-24.72h-6.424Zm-6.815 0c-1.012 0-1.908.56-2.414 1.44L944.5 202.72h6.386l13.94-24.72h-4.829Z" fill="#C0D6DF"/><path d="m966.812 192.88 13.9 24.8 3.193-5.72-13.901-24.76-3.192 5.68Zm20.52 10.16-13.122-23.36-3.193 5.68 13.9 24.8 2.415-4.28c.506-.84.506-1.96 0-2.84Zm27.648 6.52h-12.58l-2.452 7.92h-7.281l12.343-36.84h7.36l12.34 36.84h-7.28l-2.45-7.92Zm-10.79-5.72h9.04l-4.44-14.6h-.16l-4.44 14.6Zm30.84 13.64h-7.2V178h7.2v39.48Zm14.45-34.04v6.72h4.48v5.16h-4.48v13.92c0 1.08.19 1.84.62 2.28.43.44 1.01.68 1.71.68.31 0 .67 0 .98-.08.27-.04.58-.12.93-.2l.62 5.32c-.7.24-1.4.44-2.1.56-.74.12-1.48.2-2.22.2-2.49 0-4.4-.68-5.72-2.08-1.33-1.4-2.03-3.6-2.03-6.64v-13.96h-3.89v-5.2h3.89v-6.68h7.21Zm20.87 34.56c-3.86 0-6.89-1.28-9.19-3.8-2.3-2.52-3.43-5.72-3.47-9.64v-1c0-4.04 1.09-7.4 3.27-10.04 2.18-2.64 5.1-3.92 8.76-3.92 3.59 0 6.39 1.12 8.38 3.32 1.98 2.24 2.99 5.24 2.99 9.04v4h-15.92l-.04.16c.12 1.8.74 3.28 1.75 4.44 1.01 1.16 2.46 1.72 4.25 1.72 1.59 0 2.92-.16 3.97-.48 1.21-.4 2.33-.92 3.46-1.56l1.95 4.56c-1.09.92-2.49 1.68-4.24 2.28-1.83.6-3.78.92-5.92.92Zm-.66-22.68c-1.33 0-2.38.52-3.16 1.56-.78 1.04-1.24 2.4-1.44 4.12l.08.12h8.8v-.64c0-1.56-.35-2.8-1.05-3.76-.7-.96-1.79-1.4-3.23-1.4Zm29.55 1.16-2.65-.08c-1.05 0-1.94.24-2.65.68-.7.48-1.24 1.12-1.55 1.92v18.48h-7.17v-27.36h6.66l.31 4.04c.63-1.44 1.44-2.56 2.42-3.36.97-.8 2.18-1.24 3.42-1.2.35 0 .66.04 1.02.08.31.08.62.12.93.2l-.74 6.6Zm33.1 5.88c0 4.52-1.4 8.24-4.17 11.2-2.76 2.96-6.38 4.44-10.86 4.44-4.4 0-7.99-1.48-10.75-4.44-2.76-2.96-4.13-6.68-4.13-11.2v-6.6c0-4.48 1.37-8.24 4.13-11.2 2.76-2.96 6.35-4.44 10.75-4.44 4.44 0 8.06 1.48 10.86 4.44 2.8 2.96 4.21 6.68 4.17 11.2v6.6Zm-7.21-6.68c0-2.88-.7-5.24-2.1-7.08-1.4-1.84-3.31-2.76-5.76-2.76-2.45 0-4.36.92-5.69 2.76-1.36 1.84-2.02 4.2-2.02 7.08v6.72c0 2.92.66 5.32 2.02 7.16 1.37 1.84 3.27 2.76 5.69 2.76 2.45 0 4.4-.92 5.76-2.76 1.36-1.84 2.06-4.24 2.06-7.16l.04-6.72Zm32.17 12.16c0-1.4-.51-2.56-1.48-3.4-.98-.84-2.69-1.68-5.14-2.4-4.29-1.28-7.48-2.76-9.66-4.52-2.18-1.72-3.27-4.12-3.27-7.12 0-3.04 1.25-5.48 3.74-7.4s5.68-2.88 9.58-2.88c3.93 0 7.16 1.08 9.61 3.24 2.46 2.16 3.66 4.8 3.59 7.96l-.04.16h-6.97c0-1.68-.55-3.04-1.68-4.08-1.09-1.04-2.64-1.56-4.67-1.56-1.91 0-3.39.44-4.44 1.32-1.05.88-1.59 1.96-1.59 3.32 0 1.24.54 2.24 1.67 3.04 1.13.8 3.08 1.64 5.84 2.52 3.97 1.12 6.97 2.6 9 4.48 2.02 1.88 3.11 4.28 3.11 7.28 0 3.16-1.21 5.64-3.62 7.48-2.42 1.84-5.61 2.72-9.62 2.72-3.89 0-7.32-1.04-10.2-3.12-2.88-2.08-4.32-4.96-4.24-8.68l.03-.16h7.01c0 2.2.66 3.8 1.95 4.8 1.28 1 3.11 1.52 5.45 1.52 1.95 0 3.47-.4 4.48-1.24 1.05-.8 1.56-1.88 1.56-3.28Z" fill="#506E7A"/></g><g clip-path="url(#j)" fill="#0097A7"><path d="m104.719 311.878-6.935-5.429c1.217-3.294 3.407-10.858.486-15.372-1.034-1.525-3.041-3.355-7.057-3.355-4.015 0-6.144 1.83-7.118 3.355-2.98 4.514-.669 12.078.548 15.372l-2.19 1.83-5.11-3.721c1.46-3.904 4.562-13.603.912-19.093-1.095-1.769-3.407-3.782-7.97-3.782s-6.935 2.074-8.03 3.782c-3.65 5.49-.548 15.189.912 19.093l-5.11 3.721-2.13-1.769c1.217-3.294 3.468-10.858.548-15.372-1.034-1.525-3.042-3.355-7.118-3.355-4.076 0-6.084 1.83-7.057 3.355-2.981 4.514-.73 12.078.487 15.311l-6.996 5.429a2.06 2.06 0 0 0-.73 2.074c4.136 19.398 23.3 31.72 42.768 27.572a35.886 35.886 0 0 0 27.681-27.572 2.223 2.223 0 0 0-.791-2.074Zm-65.278 2.44 7.057-5.551c.73-.61.973-1.586.608-2.44-1.52-3.538-3.224-10.187-1.399-12.932.243-.366.973-1.464 3.59-1.464 2.615 0 3.406 1.098 3.65 1.464 1.825 2.745.06 9.394-1.46 12.932-.426.854-.183 1.891.608 2.501l2.494 2.074-2.494 1.83c-.548.366-.852.976-.852 1.647v17.446c-5.84-4.392-9.977-10.553-11.802-17.507Zm15.94 20.13v-19.032l11.558-8.418a1.997 1.997 0 0 0 .67-2.501c-1.339-3.05-4.563-12.749-1.886-16.714.851-1.281 2.311-1.891 4.502-1.891 2.19 0 3.65.61 4.501 1.891 2.616 4.026-.608 13.664-1.885 16.714-.366.915-.122 1.952.669 2.501l11.559 8.418v19.032c-9.248 4.941-20.442 4.941-29.689 0Zm33.946-2.684v-17.446a2.14 2.14 0 0 0-.851-1.708l-2.495-1.83 2.495-2.013c.73-.61.973-1.586.608-2.44-1.034-2.379-3.529-9.76-1.46-12.932.243-.366.973-1.464 3.65-1.464s3.346 1.098 3.59 1.464c1.825 2.745.121 9.394-1.4 12.932-.365.854-.121 1.891.609 2.44l7.057 5.551c-1.886 7.015-6.023 13.176-11.803 17.446Zm49.097-48.19h-20.381a.48.48 0 0 0-.486.488v4.636a.48.48 0 0 0 .486.488h7.179v44.774a.48.48 0 0 0 .487.488h5.11a.48.48 0 0 0 .487-.488v-44.835h7.118a.48.48 0 0 0 .487-.488v-4.575a.48.48 0 0 0-.487-.488Zm9.551 14.823h-8.578a.48.48 0 0 0-.487.488v41.114a.48.48 0 0 0 .487.488h5.11a.48.48 0 0 0 .487-.488v-5.551h3.042c4.988 0 9.065-4.026 9.065-9.028v-18.056c-.122-4.941-4.137-8.967-9.126-8.967Zm0 30.012h-3.042v-24.034h3.042c1.643 0 2.981 1.342 3.042 2.989v18.056c-.061 1.647-1.399 2.989-3.042 2.989Zm124.96-30.012h-12.046c-4.989 0-9.065 4.026-9.065 9.028v17.995c0 5.002 4.076 9.028 9.065 9.028h3.042v5.551a.48.48 0 0 0 .487.488h5.11a.48.48 0 0 0 .487-.488v-5.551h3.041c4.989 0 9.065-4.026 9.065-9.028v-18.056c-.121-4.941-4.198-8.967-9.186-8.967Zm-9.004 30.012h-3.042c-1.643 0-3.042-1.342-3.042-2.989v-18.056c0-1.647 1.339-2.989 3.042-2.989h3.042v24.034Zm12.046-2.989c0 1.647-1.339 2.989-3.042 2.989h-3.042v-24.034h3.042c1.642 0 2.981 1.342 3.042 2.989v18.056ZM173.71 298.824v22.936c0 1.525-1.095 2.867-2.616 3.111-1.643.244-3.164-.915-3.407-2.562v-23.485a.48.48 0 0 0-.487-.488h-5.049a.48.48 0 0 0-.487.488v22.753c-.061 4.392 3.042 8.174 7.361 9.089a8.982 8.982 0 0 0 4.746-.366v1.037c0 1.647-1.339 2.989-3.042 2.989h-5.78a.48.48 0 0 0-.487.488v5.063a.48.48 0 0 0 .487.488h5.78c4.988 0 9.065-4.026 9.065-9.028v-32.513a.48.48 0 0 0-.487-.488h-5.111c-.243.061-.486.244-.486.488Zm28.897-.427h-5.11a.48.48 0 0 0-.487.488v10.187c0 1.647-1.338 2.989-3.042 2.989h-3.041v-13.237a.48.48 0 0 0-.487-.488h-5.111a.48.48 0 0 0-.486.488v35.136a.48.48 0 0 0 .486.488h5.111a.48.48 0 0 0 .487-.488v-15.25h3.041c1.643 0 2.981 1.342 3.042 2.989v12.261a.48.48 0 0 0 .487.488h5.11a.48.48 0 0 0 .487-.488v-12.261a9.067 9.067 0 0 0-2.616-6.344 8.92 8.92 0 0 0 2.616-6.344v-10.187c0-.244-.183-.427-.487-.427Zm13.75 0c-4.989 0-9.065 4.026-9.065 9.028v17.995c0 5.002 4.076 9.028 9.065 9.028 4.988 0 9.065-4.026 9.065-9.028v-18.056c0-4.941-4.077-8.967-9.065-8.967Zm0 30.012c-1.643 0-3.042-1.342-3.042-2.989v-18.056c0-1.647 1.338-2.989 3.042-2.989 1.642 0 3.042 1.342 3.042 2.989v18.056c0 1.647-1.4 2.989-3.042 2.989Zm25.308-29.585v14.579h-6.023v-14.579a.48.48 0 0 0-.486-.488h-5.111a.48.48 0 0 0-.486.488v35.136a.48.48 0 0 0 .486.488h5.111a.48.48 0 0 0 .486-.488v-14.579h6.023v14.579a.48.48 0 0 0 .487.488h5.11a.48.48 0 0 0 .487-.488v-35.136a.48.48 0 0 0-.487-.488h-5.11c-.304.061-.487.244-.487.488Z"/></g><g clip-path="url(#k)"><path d="M551.412 307.608a151.21 151.21 0 0 0-.729-2.623c-.061-.305-.183-.427-.548-.427-.912.061-1.763 0-2.675 0-.365 0-.426.061-.426.427v20.74c0 .305.061.427.426.427h3.648c.669 0 .669 0 .669-.671v-11.773c0-1.159.183-2.257.791-3.233.851-1.342 2.067-2.074 3.648-2.013 1.582.061 2.676.915 3.406 2.318.426.854.547 1.769.608 2.684v12.261c0 .183-.061.427.304.427h4.196c.243 0 .304-.061.304-.305v-12.383c0-1.281.304-2.501 1.155-3.538 1.703-2.135 4.804-2.013 6.386.244.668.976.912 2.135.912 3.294v12.2c0 .366.121.488.486.488h3.831c.365 0 .487-.061.487-.427v-12.749c0-1.708-.365-3.294-1.156-4.758-2.128-4.148-7.054-5.002-10.459-2.989-1.155.671-2.007 1.586-2.676 2.806-1.277-2.501-3.344-3.721-6.081-3.843-2.858-.122-4.926 1.037-6.507 3.416Zm-84.709-10.675c-.122 0-.122-.061-.182-.061h-5.595c-.243 0-.365.122-.487.244-3.223 3.66-6.385 7.381-9.608 11.041-.304.366-.608.61-1.155.61-.487 0-.547-.183-.547-.549v-10.797c0-.427-.061-.549-.487-.549a42.717 42.717 0 0 1-3.953 0c-.425 0-.547.122-.547.549v28.243c0 .427.061.549.487.549a42.696 42.696 0 0 1 3.952 0c.426 0 .548-.122.548-.549v-11.773c0-.122 0-.183.121-.244.426-.122 1.095.061 1.46.427 3.405 3.965 6.871 7.869 10.277 11.834.182.244.425.305.669.305h5.594c.122 0 .243.061.365-.061-.122-.122-.182-.244-.304-.366-4.257-4.758-8.453-9.577-12.709-14.335-.244-.244-.244-.366 0-.671 2.979-3.416 5.959-6.771 8.939-10.187 1.094-1.281 2.128-2.44 3.162-3.66Zm-54.182 0v.122c3.344 9.577 6.75 19.154 10.094 28.792.122.305.243.305.547.305h4.987c.608 0 1.277.183 1.763-.061.487-.305.487-1.037.669-1.647 3.284-9.028 6.568-18.117 9.852-27.145.121-.305.121-.427-.244-.427h-4.5c-.243 0-.364.061-.486.305-.912 2.684-1.885 5.307-2.797 7.991-1.825 5.124-3.649 10.309-5.473 15.433-.122.366-.304.366-.608.366s-.426-.122-.487-.366l-3.466-10.248c-1.46-4.331-2.98-8.723-4.439-13.054-.061-.244-.122-.427-.426-.427-1.642.061-3.284.061-4.986.061Zm107.148 23.424c-1.459-.244-2.797-.488-4.196-.732-.243-.061-.304.061-.425.244a5.82 5.82 0 0 1-1.764 1.464c-1.52.793-3.162.976-4.865.793-2.615-.366-4.743-2.44-5.169-5.063-.061-.305 0-.427.365-.427.608.061 1.156 0 1.764 0h14.594c.365 0 .487-.061.487-.427.061-.854.061-1.647-.061-2.501-.426-3.294-1.946-5.978-4.804-7.808-2.615-1.708-5.534-2.135-8.574-1.586-3.163.549-5.656 2.196-7.359 5.063-1.337 2.257-1.702 4.697-1.459 7.259.304 3.355 1.763 6.1 4.561 8.052 3.831 2.623 9.79 2.501 13.621-.305 1.521-1.037 2.615-2.379 3.284-4.026Zm17.696 2.379c.304 1.098.608 2.074.912 3.05.061.244.183.366.487.366.851 0 1.763-.061 2.615 0 .425 0 .547-.122.547-.549V313.83c0-.915-.061-1.83-.304-2.745-.547-2.623-1.824-4.758-4.257-5.917-2.98-1.464-6.02-1.281-9 .061-2.007.915-3.405 2.379-4.135 4.514-.061.183-.182.366.182.427 1.277.183 2.494.427 3.71.61.304.061.426-.061.547-.305 1.216-1.891 3.527-2.745 5.534-2.013 1.763.61 2.676 2.44 2.858 4.209 0 .305-.182.244-.365.244h-4.257c-1.641 0-3.223.183-4.804.671-4.621 1.586-6.202 6.71-3.162 10.431 2.372 2.867 7.419 3.416 10.581 1.159.912-.671 1.642-1.403 2.311-2.44Zm-49.317-25.803h-11.859c-.486 0-.547.122-.547.61v3.477c0 .427.122.488.487.488h8.878c.486 0 .547.122.547.61v23.546c0 .427.061.549.487.549 1.277-.061 2.554 0 3.77 0 .73 0 .669.122.669-.61v-23.546c0-.427.061-.549.486-.549h8.879c.486 0 .608-.122.547-.61 0-1.159-.061-2.257 0-3.416 0-.488-.121-.61-.608-.61-3.831.061-7.784.061-11.736.061Zm102.891 29.646c2.129-.061 4.014-.244 5.777-1.22 2.129-1.22 3.345-2.989 3.284-5.49 0-2.44-1.398-3.965-3.466-5.002-1.277-.61-2.615-1.037-3.953-1.403-1.216-.366-2.432-.671-3.527-1.281-.669-.366-1.094-.976-1.094-1.83 0-.854.486-1.342 1.155-1.708 2.068-.976 4.987-.549 6.264 2.074.06.183.121.305.364.305 1.277-.244 2.555-.488 3.832-.671.304-.061.304-.183.243-.427-.791-2.135-2.189-3.721-4.196-4.819-1.946-.976-4.014-1.159-6.081-.915-1.764.244-3.406.854-4.804 2.074-2.129 1.769-2.858 6.71.973 8.967 1.398.793 2.919 1.281 4.378 1.708 1.338.427 2.676.732 3.953 1.403.669.366 1.094.915 1.094 1.708 0 .793-.364 1.403-1.094 1.83a5.15 5.15 0 0 1-2.311.549c-2.311.061-4.196-.671-5.169-2.928-.061-.183-.182-.244-.365-.183-1.338.244-2.675.488-4.013.671-.304.061-.304.183-.244.427.426 1.586 1.277 2.989 2.554 4.026 1.886 1.647 4.196 2.074 6.446 2.135Z" fill="#FEFEFE"/><path d="M330 300.898c.182-.854.122-1.708.182-2.562.122-2.196.365-4.392.852-6.527 1.277-5.246 4.621-8.235 9.79-9.333 2.98-.61 6.021-.793 9.122-.854 6.568-.122 13.074-.061 19.642 0 3.101 0 6.263.122 9.304.671 2.432.427 4.743 1.159 6.689 2.745 2.25 1.769 3.466 4.209 4.135 6.954.73 3.111.852 6.344.912 9.516.122 6.588.122 13.176.061 19.825 0 3.111-.121 6.222-.669 9.333-.425 2.44-1.155 4.758-2.675 6.771-1.825 2.257-4.196 3.477-6.994 4.148-2.736.671-5.594.793-8.392.915-.182 0-.425-.061-.547.122H350.98c-.122 0-.183-.061-.304-.061-1.399-.061-2.798-.061-4.196-.183-2.189-.122-4.379-.366-6.507-.915-4.561-1.22-7.541-4.026-8.757-8.662-.851-3.172-1.034-6.466-1.094-9.76-.061-.793.121-1.586-.122-2.379v-19.764Zm31.865 19.886c0 1.464.669 3.05 1.946 4.392 1.52 1.525 3.04 3.111 4.621 4.636 1.277 1.281 2.859 1.952 4.683 1.952 2.736.061 5.169-1.586 6.324-4.148 1.034-2.44.487-5.429-1.398-7.32l-4.744-4.758a6.737 6.737 0 0 0-7.297-1.403c-2.432 1.037-4.074 3.477-4.135 6.649Zm-2.98-.732c-.121-2.562-1.399-4.758-4.074-5.917-2.676-1.159-5.169-.671-7.297 1.281-1.703 1.586-3.284 3.233-4.926 4.941-1.52 1.586-2.068 3.538-1.703 5.673.426 2.623 2.007 4.514 4.561 5.368 2.554.854 4.926.244 6.872-1.586a165.573 165.573 0 0 0 4.621-4.636c1.277-1.342 1.885-2.928 1.946-5.124Zm-11.371-27.694c-.183 0-.487.061-.73.061h-.243c-2.676.549-4.561 2.013-5.352 4.636-.79 2.562-.182 4.941 1.703 6.893 1.459 1.525 3.04 3.05 4.561 4.575 2.615 2.623 6.811 2.684 9.425.183 2.737-2.623 2.919-6.771.304-9.516-1.641-1.769-3.344-3.416-5.047-5.063-1.338-1.22-2.858-1.708-4.621-1.769Zm21.101 18.178c1.581 0 2.98-.427 4.196-1.464 1.277-1.098 2.432-2.379 3.588-3.538.79-.732 1.581-1.464 2.25-2.318.912-1.22 1.398-2.684 1.337-4.209-.06-1.708-.668-3.172-1.885-4.453-1.337-1.464-3.04-2.135-4.925-2.135-1.946 0-3.588.793-4.926 2.196-1.399 1.464-2.919 2.867-4.318 4.331-1.581 1.647-2.25 3.599-1.946 5.856.548 3.355 3.284 5.734 6.629 5.734Z" fill="#0077FE"/><path d="M330.122 323.041c.06 3.294.243 6.588 1.094 9.76 1.216 4.575 4.196 7.442 8.757 8.601 2.128.549 4.318.793 6.507.915l4.196.183c.121 0 .182.061.304.061h-20.554c-.365 0-.426-.061-.426-.427v-19.032c.061 0 .061 0 .122-.061Z" fill="#FDFEFE"/><path d="M330.122 323.041c-.061 0-.061.061-.122.061v-2.44c.182.793.061 1.586.122 2.379Z" fill="#00D8EC"/><path d="M551.412 307.608c1.52-2.379 3.649-3.538 6.385-3.477 2.737.122 4.804 1.342 6.081 3.843.669-1.22 1.521-2.135 2.676-2.806 3.405-2.013 8.331-1.159 10.459 2.989a10.17 10.17 0 0 1 1.156 4.758v12.749c0 .366-.122.427-.487.427h-3.831c-.365 0-.486-.061-.486-.488v-12.2c0-1.22-.243-2.318-.912-3.294-1.521-2.257-4.683-2.379-6.385-.244-.852 1.037-1.156 2.257-1.156 3.538v12.383c0 .244-.061.305-.304.305h-4.196c-.365 0-.243-.244-.304-.427v-12.261c0-.915-.182-1.83-.608-2.684-.73-1.403-1.824-2.257-3.405-2.318-1.642-.061-2.798.671-3.649 2.013-.608.976-.791 2.074-.791 3.233v11.773c0 .671 0 .671-.669.671h-3.648c-.365 0-.426-.122-.426-.427v-20.74c0-.366.122-.427.426-.427h2.675c.365 0 .487.122.548.427.365.915.608 1.769.851 2.684Zm-84.709-10.675a183.494 183.494 0 0 1-3.101 3.538 1550.76 1550.76 0 0 1-8.939 10.187c-.244.244-.244.366 0 .671 4.256 4.758 8.452 9.577 12.709 14.335.122.122.182.244.304.366-.122.183-.243.061-.365.061h-5.594c-.304 0-.487-.061-.669-.305-3.406-3.965-6.872-7.869-10.277-11.834-.304-.366-.973-.549-1.46-.427-.121.061-.121.122-.121.244v11.773c0 .427-.061.549-.548.549-1.338 0-2.615-.061-3.952 0-.426 0-.487-.122-.487-.549v-28.243c0-.427.122-.549.547-.549 1.338 0 2.615.061 3.953 0 .426 0 .487.122.487.549v10.797c0 .427.06.549.547.549.547 0 .851-.244 1.155-.61 3.162-3.721 6.385-7.381 9.608-11.041.122-.183.244-.244.487-.244h5.595c0 .183.06.183.121.183Zm-54.182 0h4.986c.365 0 .365.183.426.427 1.459 4.331 2.979 8.723 4.439 13.054l3.466 10.248c.061.244.183.366.487.366s.486 0 .608-.366a4190.02 4190.02 0 0 1 5.473-15.433c.912-2.684 1.885-5.307 2.797-7.991.122-.244.182-.305.486-.305h4.5c.365 0 .365.122.244.427-3.284 9.028-6.568 18.117-9.852 27.145-.182.549-.243 1.342-.669 1.647-.425.244-1.155.061-1.763.061h-4.987c-.243 0-.425 0-.547-.305-3.344-9.577-6.75-19.215-10.094-28.792.06-.122.06-.122 0-.183Zm107.148 23.424c-.669 1.708-1.703 3.05-3.162 4.087-3.831 2.745-9.791 2.928-13.622.305-2.797-1.952-4.257-4.636-4.561-8.052-.243-2.562.122-5.002 1.46-7.259 1.642-2.806 4.135-4.453 7.358-5.063 3.04-.549 5.959-.122 8.574 1.586 2.858 1.83 4.378 4.453 4.804 7.808.122.854.122 1.647.061 2.501 0 .427-.182.427-.487.427h-16.358c-.364 0-.425.122-.364.427.364 2.623 2.493 4.697 5.168 5.063 1.703.244 3.345.061 4.865-.793a5.82 5.82 0 0 0 1.764-1.464c.121-.122.182-.305.425-.244 1.217.183 2.615.427 4.075.671Zm-10.277-7.442h5.534c.243 0 .425.061.304-.305-.73-2.379-3.223-4.27-5.777-4.27-2.798-.061-5.109 1.586-5.899 4.148-.122.366-.061.427.304.427h5.534Z" fill="#010101"/><path d="M537.365 322.736c-.669 1.037-1.399 1.769-2.311 2.44-3.162 2.257-8.27 1.708-10.581-1.159-3.04-3.721-1.459-8.906 3.162-10.431 1.581-.549 3.162-.671 4.804-.671h4.257c.182 0 .365.061.365-.244-.183-1.769-1.095-3.538-2.858-4.209-2.007-.732-4.379.122-5.534 2.013-.122.244-.243.305-.547.305-1.217-.244-2.494-.427-3.71-.61-.304-.061-.243-.244-.182-.427.73-2.135 2.128-3.599 4.135-4.514 2.98-1.342 6.02-1.525 9-.061 2.432 1.22 3.709 3.355 4.257 5.917.182.915.304 1.83.304 2.745v11.773c0 .427-.061.549-.548.549-.851-.061-1.763 0-2.614 0-.304 0-.426-.122-.487-.366a96.585 96.585 0 0 1-.912-3.05Zm-3.101-6.1h-1.642c-1.095 0-2.189.122-3.223.488-2.311.854-1.946 3.66-.608 4.575 1.337.976 2.797.976 4.317.61 2.372-.549 3.892-2.684 4.014-5.429 0-.305-.183-.244-.365-.244h-2.493Zm-46.216-19.703h11.797c.486 0 .608.061.608.61a31.906 31.906 0 0 0 0 3.416c0 .427-.061.61-.547.61h-8.879c-.425 0-.486.122-.486.549v23.546c0 .732.061.61-.669.61h-3.77c-.426 0-.548-.122-.487-.549v-23.546c0-.427-.061-.61-.547-.61h-8.878c-.365 0-.487-.061-.487-.488v-3.477c0-.427.061-.61.547-.61 3.953-.061 7.845-.061 11.798-.061Z" fill="#020202"/><path d="M590.939 326.579c-2.25-.061-4.561-.488-6.446-2.074-1.277-1.098-2.068-2.44-2.554-4.026-.061-.244-.061-.366.243-.427 1.338-.183 2.676-.427 4.014-.671.182-.061.304 0 .365.183.973 2.318 2.858 2.989 5.169 2.928.79 0 1.581-.183 2.31-.549.73-.366 1.095-.976 1.095-1.83 0-.793-.426-1.342-1.095-1.708-1.216-.671-2.614-.976-3.952-1.403-1.521-.488-3.041-.915-4.379-1.708-3.77-2.257-3.04-7.198-.973-8.967 1.399-1.159 3.041-1.83 4.804-2.074 2.129-.244 4.196-.122 6.081.915 2.007 1.037 3.406 2.623 4.196 4.819.122.244.122.366-.243.427-1.277.183-2.554.427-3.831.671-.243.061-.304-.122-.365-.305-1.277-2.562-4.257-3.05-6.263-2.074-.73.366-1.156.854-1.156 1.708s.426 1.403 1.095 1.83c1.094.61 2.311.976 3.527 1.281 1.338.366 2.676.793 3.953 1.403 2.067 1.037 3.466 2.562 3.466 5.002 0 2.501-1.156 4.27-3.284 5.49-1.763.854-3.649 1.098-5.777 1.159Z" fill="#010101"/><path d="M361.865 320.784c0-3.172 1.642-5.612 4.135-6.649a6.739 6.739 0 0 1 7.298 1.403l4.743 4.758c1.885 1.952 2.432 4.88 1.399 7.32-1.095 2.562-3.588 4.209-6.325 4.148-1.824-.061-3.405-.671-4.682-1.952-1.52-1.525-3.102-3.05-4.622-4.636-1.277-1.342-1.885-2.989-1.946-4.392Zm-2.98-.732c-.06 2.135-.669 3.782-1.946 5.063a165.573 165.573 0 0 1-4.621 4.636c-1.946 1.891-4.257 2.44-6.872 1.586-2.554-.854-4.074-2.684-4.561-5.368-.365-2.135.183-4.087 1.703-5.673a94.08 94.08 0 0 1 4.926-4.941c2.128-2.013 4.621-2.44 7.297-1.281 2.676 1.22 3.953 3.416 4.074 5.978Zm-11.372-27.694c1.764.061 3.284.549 4.5 1.708 1.703 1.647 3.406 3.294 5.048 5.063 2.554 2.745 2.371 6.954-.304 9.516-2.615 2.501-6.75 2.44-9.426-.183-1.52-1.525-3.041-2.989-4.561-4.575-1.885-1.952-2.493-4.27-1.703-6.893.852-2.623 2.676-4.148 5.352-4.636h.243c.365.061.608.061.851 0Z" fill="#FDFEFE"/><path d="M368.615 310.536c-3.344 0-6.081-2.379-6.628-5.734-.365-2.318.365-4.27 1.946-5.856 1.399-1.464 2.919-2.867 4.317-4.331 1.338-1.403 2.98-2.196 4.926-2.196 1.885 0 3.588.671 4.926 2.135 1.216 1.281 1.824 2.806 1.885 4.453.061 1.525-.365 2.989-1.338 4.209-.669.854-1.459 1.586-2.25 2.318-1.216 1.159-2.311 2.44-3.588 3.538-1.216 1.037-2.615 1.464-4.196 1.464Z" fill="#00D8EC"/><path d="M509.392 312.915h-5.534c-.365 0-.426-.061-.304-.427.851-2.562 3.101-4.209 5.899-4.148 2.554 0 5.047 1.891 5.777 4.27.121.366-.122.305-.304.305h-5.534Zm24.871 3.721h2.494c.182 0 .364-.061.364.244-.06 2.806-1.641 4.88-4.013 5.429-1.52.366-2.98.305-4.318-.61-1.338-.976-1.702-3.721.608-4.575 1.034-.366 2.129-.488 3.223-.488h1.642Z" fill="#FDFEFE"/></g><g clip-path="url(#l)"><path d="M848.235 300.793v24.308c0 6.195 3.014 9.676 8.983 9.676 1.596 0 3.191-.059 4.728-.236 1.537-.118 2.896-.354 3.96-.649v-33.099h7.092v37.524c-2.128.767-4.61 1.298-7.388 1.652-2.777.354-5.614.59-8.451.59-5.319 0-9.338-1.711-12.057-4.307-2.718-2.655-4.137-6.667-4.137-12.036v-23.423h7.27Zm-109.81 0v24.308c0 6.195 3.014 9.676 8.983 9.676 1.596 0 3.192-.059 4.728-.236 1.537-.118 2.896-.354 3.96-.649v-33.099h7.092v37.524c-2.128.767-4.61 1.298-7.388 1.652-2.777.354-5.614.59-8.451.59-5.319 0-9.338-1.711-12.057-4.307-2.718-2.655-4.137-6.667-4.137-12.036v-23.423h7.27Zm80.732-12.567-6.383 1.18v38.704c0 7.434 4.019 12.272 12.825 12.272 2.187 0 6.383-.59 8.865-1.003l-.827-5.015c-.059.177-5.615.767-8.629.59-2.955-.177-5.674-2.596-5.91-5.074v-23.364h14.716v-5.664h-14.716l.059-12.626ZM696.522 281.5l-7.21 1.18v55.637c4.196 1.475 8.688 2.183 13.416 2.183.827 0 1.595 0 2.364-.059 13.948.059 21.217-11.033 19.326-23.836-1.478-9.145-8.984-16.815-17.79-16.815-3.487 0-6.264.944-8.392 1.711-.65.236-1.182.472-1.773.767l.059-20.768Zm9.988 24.072c7.861.413 10.993 7.316 11.229 14.101.355 9.322-6.146 15.871-14.893 15.104-2.01-.177-4.137-.236-6.383-.767v-25.606c.946-.826 2.009-1.416 3.132-1.888 1.714-.649 4.019-1.121 6.915-.944Zm73.522 33.925h-7.151v-37.17c2.186-.767 4.61-1.298 7.21-1.652 2.719-.354 5.437-.59 8.274-.59 10.579 0 15.898 5.251 15.898 15.812v23.541h-7.092v-24.485c0-6.077-2.955-9.086-8.806-9.086-1.536 0-3.073.059-4.551.236-1.477.118-2.718.354-3.841.59v32.804m-124.822-38.704v24.308c0 6.195 3.014 9.676 8.984 9.676 1.595 0 3.191-.059 4.728-.236 1.536-.118 2.896-.354 3.96-.649v-33.099h7.092v37.524c-2.128.767-4.61 1.298-7.388 1.652-2.778.354-5.615.59-8.451.59-5.32 0-9.338-1.711-12.057-4.307-2.719-2.655-4.137-6.667-4.137-12.036v-23.423h7.269Z" fill="#231F20"/><path d="M911.008 300.239c0 8.35-6.761 15.1-15.083 15.1-8.321 0-15.083-6.75-15.083-15.1-.043-8.308 6.718-15.1 15.083-15.1 8.322 0 15.083 6.792 15.083 15.1Z" fill="#F47421"/><path d="M900.042 293.1c.954.562 2.211.216 2.731-.736.563-.952.217-2.207-.737-2.769-.953-.562-2.21-.216-2.774.736-.52.995-.216 2.206.78 2.769Zm-4.117 13.023a5.89 5.89 0 0 1-2.47-.563l-1.387 2.51c1.17.562 2.47.908 3.9.908.824 0 1.604-.129 2.341-.302a2.738 2.738 0 0 1 1.387-1.991 3 3 0 0 1 2.427-.216c1.473-1.471 2.47-3.461 2.6-5.668l-2.86-.043c-.347 3.028-2.861 5.365-5.938 5.365Zm0-11.769a5.855 5.855 0 0 1 5.851 5.365l2.861-.043c-.13-2.206-1.127-4.197-2.601-5.668-.78.303-1.647.26-2.427-.216a2.736 2.736 0 0 1-1.387-1.99c-.737-.217-1.517-.303-2.34-.303a9.073 9.073 0 0 0-3.901.908l1.387 2.51c.823-.346 1.647-.563 2.557-.563Zm-5.894 5.885c0-1.991.997-3.765 2.514-4.803l-1.474-2.466c-1.777 1.168-3.077 2.985-3.641 5.105.65.519 1.04 1.298 1.04 2.207 0 .865-.39 1.687-1.04 2.206.564 2.121 1.864 3.894 3.641 5.106l1.474-2.466c-1.517-1.125-2.514-2.899-2.514-4.889Zm10.011 7.139a2.03 2.03 0 0 0-.736 2.769 2.038 2.038 0 0 0 2.774.735 2.03 2.03 0 0 0 .736-2.769 2.099 2.099 0 0 0-2.774-.735Zm-14.389-9.13c-1.127 0-1.993.909-1.993 2.034 0 1.125.91 2.033 1.993 2.033 1.127 0 1.994-.908 1.994-2.033s-.91-2.034-1.994-2.034Z" fill="#fff"/></g><g clip-path="url(#m)" fill="#0079C2"><path fill-rule="evenodd" clip-rule="evenodd" d="M976.607 307.059h3.35l6.458 22.631h-2.802l-1.828-6.527h-7.189l-1.706 6.527h-2.802l6.519-22.631Zm1.706 1.83-3.108 12.078h6.032l-2.924-12.078Z"/><path d="M990.924 322.553c0 3.355.974 5.429 4.325 5.429 2.559 0 4.326-1.098 4.326-3.782 0-2.928-1.402-3.66-3.717-4.514l-3.35-1.281c-2.072-.793-3.717-2.379-3.717-5.978 0-3.599 2.498-5.856 6.214-5.856 3.96 0 6.335 2.257 6.515 6.405h-2.555c0-2.501-1.218-4.148-3.777-4.148-2.802 0-3.777 1.708-3.777 3.599 0 2.074.548 2.989 2.01 3.538l3.656 1.342c3.653 1.403 5.183 3.538 5.183 6.527 0 4.27-2.685 6.405-7.072 6.405-4.386 0-6.823-2.806-6.823-7.686h2.559Zm21.136 7.137h-2.55v-20.374h-5.91v-2.257h14.37v2.257h-5.91v20.374Z"/><path fill-rule="evenodd" clip-rule="evenodd" d="M1023.4 329.69h-2.56v-22.631h6.94c4.02 0 6.64 1.891 6.64 6.161 0 2.562-1.52 4.819-4.14 5.246v.061c2.44.305 3.9 2.318 3.9 5.124 0 4.697.43 4.88.79 5.551v.488h-2.56c-.49-1.464-.73-2.806-.73-5.246 0-2.989-1.34-4.697-4.14-4.697h-4.14v9.943Zm0-12.261h4.38c1.77 0 4.02-.793 4.02-4.148 0-3.233-1.89-3.965-4.08-3.965h-4.32v8.113Zm20.71-10.37h3.35l6.46 22.631h-2.8l-1.83-6.527h-7.19l-1.71 6.527h-2.8l6.52-22.631Zm1.64 1.83-3.04 12.078h6.03l-2.99-12.078Z"/><path d="M1068.42 327.433h9.32v2.257h-11.88v-22.631h2.56v20.374Zm14.92 2.257h-2.49v-22.631h2.55v22.631h-.06Zm8.84-22.631 6.46 18.544c.3.793.48 1.464.79 2.501h.06c-.06-.793-.06-1.708-.06-2.501v-18.544h2.56v22.631h-4.21l-6.39-18.117a16.61 16.61 0 0 1-.86-3.416h-.06c.06 1.098.06 2.318.06 3.477v18.056h-2.56v-22.631h4.21Zm17 0v16.287c0 1.769.24 4.636 4.32 4.636s4.33-2.867 4.33-4.636v-16.287h2.56v17.202c0 4.026-2.69 5.978-6.89 5.978-4.14 0-6.88-1.952-6.88-5.978v-17.202h2.56Zm17.36 0 4.81 8.845 4.81-8.845h2.81l-6.16 11.041 6.28 11.59h-2.86l-4.88-9.516-4.93 9.516h-2.81l6.34-11.651-6.15-11.041h2.74v.061Z"/><path d="M1092.79 339.938H970.271c-4.813 0-8.712-3.843-8.712-8.662v-26.718c0-4.758 3.899-8.662 8.712-8.662h78.709c.73 0 1.28-.549 1.28-1.281 0-.671-.55-1.281-1.28-1.281h-78.709c-6.214.061-11.271 5.063-11.271 11.224v26.718c0 6.222 5.057 11.224 11.271 11.224h122.519v-2.562Z"/><path d="M1145.73 293.395h-78.71c-.67 0-1.28.549-1.28 1.281 0 .732.55 1.281 1.28 1.281h78.71c4.81 0 8.71 3.904 8.71 8.662v26.718c0 4.758-3.9 8.662-8.71 8.662h-52.94v2.562h52.94c6.21 0 11.27-5.002 11.27-11.224v-26.779c0-6.161-5.06-11.163-11.27-11.163Z"/><path fill-rule="evenodd" clip-rule="evenodd" d="M1067.02 290.284c-.13.183-3.05 3.294-3.9 4.209l1.09 7.32-6.15-3.355-6.21 3.355 1.09-7.32-4.81-5.185 6.76-1.159 3.11-6.649.67 1.342s1.95 4.148 2.56 5.307l6.7 1.159-.91.976Zm-.8-.488-5.6-.976-2.62-5.49-2.62 5.551-5.6.976 4.02 4.331-.92 6.1 5.18-2.806 5.18 2.806-.91-6.1 3.89-4.392Z"/><path d="m1054.22 295.286 1.89 2.501.79-.427-3.1-6.344 4.08 5.795.12-.061 1.4.793-3.11-6.893 5.37 8.052.73.427-.13-.793-3.47-7.991 2.99 4.697-.19-1.098.92-.976-1.22-2.928 1.52 2.562 2.2-2.379-4.82-.793-2.19-4.636-2.25 4.636-4.82.793 3.48 3.721-.19 1.342Zm-.18 1.281-.37 2.501 1.28-.732-.91-1.769Z"/><path fill-rule="evenodd" clip-rule="evenodd" d="M1146.52 309.865a2.99 2.99 0 0 1-2.98 2.989 2.993 2.993 0 0 1-2.99-2.989c0-1.647 1.34-2.928 2.99-2.928 1.64 0 2.98 1.342 2.98 2.928Zm-5.54 0c0 1.403 1.09 2.562 2.56 2.562 1.4 0 2.49-1.098 2.49-2.501 0-1.403-1.09-2.501-2.49-2.501a2.434 2.434 0 0 0-2.56 2.44Zm1.4-1.647h1.46c.55 0 1.16.183 1.16.915 0 .671-.49.915-1.04.915l.98 1.525h-.49l-.97-1.525h-.74v1.525h-.36v-3.355Zm.42 1.525h.98c.3 0 .79-.061.79-.61 0-.488-.49-.549-.85-.549h-.92v1.159Z"/></g><g clip-path="url(#n)"><path d="M108.724 424.38H93v31.724l5.267-.077v-12.474h9.694c3.053 0 5.496-.847 7.251-2.541 1.832-1.694 2.748-4.081 2.748-7.084 0-2.926-.839-5.313-2.442-7.007-1.68-1.694-3.893-2.541-6.794-2.541Zm3.817 9.702c0 3.388-1.603 4.851-5.267 4.851h-9.007v-9.856h9.541c3.283 0 4.733 1.54 4.733 5.005Zm17.785-.231c-3.664 0-6.488 1.155-8.549 3.388-1.832 2.002-2.748 4.697-2.748 8.085 0 3.311.916 6.083 2.825 8.162 1.068 1.155 2.289 2.002 3.74 2.541 1.374.539 2.977.77 4.732.77 3.817 0 6.794-1.155 8.855-3.311 1.832-2.002 2.748-4.697 2.748-8.162 0-3.465-.916-6.237-2.748-8.162-2.061-2.233-5.038-3.311-8.855-3.311Zm-6.411 11.473c0-1.155.152-2.156.457-3.08.306-.847.687-1.54 1.222-2.156 1.145-1.232 2.671-1.848 4.732-1.848 4.58 0 6.717 2.233 6.717 7.007 0 1.155-.152 2.233-.381 3.08s-.611 1.463-1.145 2.079c-1.069 1.232-2.748 1.848-5.114 1.848-2.138 0-3.664-.616-4.733-1.848-1.221-1.155-1.755-2.849-1.755-5.082Zm38.241-1.078c-1.069-.539-2.977-1.001-5.649-1.309-3.434-.462-4.732-.693-5.19-.847-1.145-.462-1.298-.924-1.298-1.463 0-.847.306-1.386.916-1.771.535-.308 1.68-.77 3.97-.77 4.274 0 4.808 1.771 4.808 3.311v.77h5.038v-.77c0-3.465-1.679-7.623-9.694-7.623-1.526 0-2.824.154-3.969.385a11.53 11.53 0 0 0-3.13 1.078c-1.832 1.155-2.748 3.003-2.748 5.39 0 2.464 1.069 4.312 3.13 5.236.534.231 1.756.693 6.03 1.309 3.893.539 4.656.77 4.733.77.916.385 1.297.924 1.297 1.848 0 .693 0 2.541-5.038 2.541-2.9 0-4.198-.539-4.808-1.078-.535-.385-.84-1.078-.916-1.925h-5.115c.153 1.078.382 2.079.764 2.849.458.924.992 1.771 1.755 2.31.916.77 2.061 1.309 3.512 1.617 1.297.308 2.977.462 4.808.462 8.397.154 10.153-3.696 10.153-6.93 0-2.541-1.145-4.389-3.359-5.39Zm113.505 0c-1.069-.539-2.901-1.001-5.649-1.309-3.435-.462-4.732-.693-5.19-.847-1.069-.462-1.298-.924-1.298-1.463 0-.847.306-1.386.916-1.771.534-.308 1.679-.77 3.969-.77 4.275 0 4.809 1.771 4.809 3.311v.77h4.962v-.77c0-3.465-1.679-7.623-9.694-7.623a20.43 20.43 0 0 0-3.97.385 11.523 11.523 0 0 0-3.129 1.078c-1.832 1.155-2.672 3.003-2.672 5.39 0 2.464 1.069 4.312 3.13 5.236.534.231 1.756.693 6.03 1.309 3.893.539 4.656.77 4.733.77.916.385 1.297.924 1.297 1.848 0 .693 0 2.541-5.038 2.541-2.9 0-4.198-.539-4.808-1.078-.535-.385-.84-1.078-.916-1.925h-5.115c.153 1.078.382 2.079.687 2.849.458.924.993 1.771 1.756 2.31.916.77 2.061 1.309 3.511 1.617 1.298.308 2.977.462 4.809.462 8.32 0 10.076-3.85 10.076-7.084.152-2.387-.993-4.235-3.206-5.236Zm-66.637-8.316a2.498 2.498 0 0 0-.611-.462c-1.603-1.078-3.74-1.617-6.259-1.617-3.664 0-6.565 1.078-8.549 3.08-1.909 1.925-2.901 4.62-2.901 8.162 0 1.694.229 3.234.687 4.62a10.085 10.085 0 0 0 2.137 3.619c1.985 2.002 4.809 3.003 8.32 3.003 2.901 0 5.267-.693 7.023-2.002v.462c0 4.004-.458 4.62-1.45 5.698-.916 1.001-2.596 1.463-4.962 1.463-2.824 0-4.122-.539-4.656-1.001-.534-.462-.992-1.386-1.221-2.618l-.153-1.001-4.885.077v1.386c.076.539.152 1.001.305 1.54.458 1.771 1.298 3.157 2.519 4.081 1.679 1.309 4.427 2.002 8.244 2.002 9.312 0 11.297-5.544 11.297-10.241v-21.714h-4.885v1.463Zm-3.588 15.4c-.763.308-1.679.462-2.672.462-4.732 0-6.869-2.079-6.869-6.776 0-2.156.534-3.773 1.755-4.928 1.145-1.155 2.748-1.771 4.962-1.771 2.213 0 3.816.539 4.885 1.771 1.069 1.232 1.603 2.772 1.603 4.851 0 2.233-.534 3.927-1.679 5.082-.611.616-1.298 1.078-1.985 1.309Zm17.48-16.247c-.076.077-.153.154-.229.154v-.77h-4.885v21.56h4.885v-10.549c0-6.237 2.824-6.93 4.961-6.93h3.283v-4.697h-2.825c-2.213 0-3.892.385-5.19 1.232Zm26.792 14.399c-.916 2.002-2.671 2.926-5.343 2.926-2.29 0-3.969-.616-5.114-2.002-.84-.924-1.298-2.002-1.45-3.388h17.785v-1.155c0-3.542-.916-6.391-2.672-8.47-.992-1.155-2.213-2.079-3.74-2.618-1.45-.539-3.13-.847-4.962-.847-3.587 0-6.411 1.001-8.396 3.08-1.985 2.079-3.053 4.774-3.053 8.162 0 3.388.992 6.16 2.9 8.239 2.061 2.31 5.038 3.465 8.702 3.465 1.45 0 2.824-.231 4.122-.616a9.293 9.293 0 0 0 3.435-1.848c1.526-1.309 2.595-2.926 3.129-4.851h-5.343v-.077Zm-10.228-9.702c.61-.616 1.297-1.001 2.061-1.309.763-.308 1.679-.462 2.671-.462 1.909 0 3.435.616 4.58 1.848.916.924 1.451 1.925 1.68 3.003h-12.519c.306-1.309.84-2.31 1.527-3.08Z" fill="#1090CF"/><path d="M188.033 455.334v-1.155h-4.809v2.079c0 .308-.153 1.54-.229 1.848-.153.539-.305 1.155-.382 1.463-.076.231-.152.385-.229.616-.839 1.694-2.747 2.464-4.579 2.156-2.748-.462-4.657-3.003-4.351-5.775.152-1.386.534-2.772 1.145-4.004 1.221-2.31 2.671-4.543 4.122-6.699.305-.385 1.297-1.925 2.595-4.389 1.297.539 2.366.924 3.129 1.078 1.374.308 2.214.385 2.825.231.076 0 .687-.077.839-.385.077-.077-.076-.231-.229-.308-2.061-.539-3.969-1.232-5.496-2.772 1.298-2.849 2.672-6.545 3.435-10.703.535-3.08 1.222-6.16 1.374-9.317.153-2.618.077-5.544-.305-8.008-.763-5.236-3.053-8.932-6.564-12.705-4.733-5.005-11.221-7.315-17.862-7.931-7.023-.693-11.144 1.309-14.274 3.85-3.74 3.08-4.427 5.929-4.733 10.01-.229 3.311.382 5.159 2.061 8.547 1.222 2.464 6.183 6.699 7.557 9.009 1.298 2.233.993 2.541 1.908 5.005.458 1.232 2.901 3.234 5.191 2.926 2.214-.308 3.969-1.925 5.191-5.005.458-1.155.458-2.233.61-3.234.382-2.618.229-4.774.535-8.008 0-.385.076-.77-.077-1.001-.458-.539-.992-.308-1.297.154-.153.308-.229.693-.306 1.078-.992 3.465-3.129 8.393-3.206 8.701-.305.847-1.068 2.464-1.603 2.387-.305-.077-.458-.077-.61-.539-.153-.539-.916-3.234-3.283-6.237-4.274-5.313-6.64-7.854-7.404-11.319-.839-3.85.916-7.931 4.199-9.779 1.679-.924 5.266-2.387 9.159-2.002 4.733.539 10 2.156 13.206 5.775 3.893 4.312 6.411 6.699 6.488 14.476.076 4.543-.916 9.933-2.061 14.322-.153.462-.305.847-.458 1.309a38.032 38.032 0 0 1-1.145 3.234c-.076-.154-.305-.385-.382-.462-.61-.847-1.145-1.617-1.755-2.31-.687-.847-1.451-1.771-2.367-2.387-1.145-.847-2.366-1.001-3.282.077-.458.539-.84 1.309-.458 2.233 1.069 2.618 3.13 4.62 5.343 6.391.153.077.535.385.993.693-.764 1.54-1.68 3.08-2.901 5.082-1.679 2.849-3.664 6.237-4.275 7.777-1.221 3.003-1.297 6.006-.61 9.163.305 1.386.992 2.464 1.908 3.542 3.053 3.234 8.168 4.004 12.06 2.464a6.025 6.025 0 0 0 2.367-1.771 13.065 13.065 0 0 0 2.824-6.699c0-.231.076-.924.076-1.54v-.308c.382-.077.382-.924.382-.924Zm-7.862-33.649c0 1.386-1.145 2.464-2.519 2.464s-2.443-1.155-2.443-2.464 1.069-2.464 2.443-2.464 2.519 1.078 2.519 2.464Z" fill="#003D52"/><path d="M300.545 424.38h-15.801v31.724l5.267-.077v-12.474h9.694c3.053 0 5.496-.847 7.252-2.541 1.832-1.694 2.747-4.081 2.747-7.084 0-2.926-.839-5.313-2.442-7.007-1.603-1.694-3.893-2.541-6.717-2.541Zm3.74 9.702c0 3.388-1.603 4.851-5.267 4.851h-9.007v-9.856h9.541c3.283 0 4.733 1.54 4.733 5.005Zm35.113-.231c-3.664 0-6.489 1.155-8.549 3.388-1.832 2.002-2.748 4.697-2.748 8.085 0 3.311.916 6.083 2.824 8.162 1.068 1.155 2.29 2.002 3.74 2.541 1.374.539 2.977.77 4.733.77 3.816 0 6.793-1.155 8.854-3.311 1.832-2.002 2.748-4.697 2.748-8.162 0-3.465-.916-6.237-2.748-8.162-2.061-2.233-5.038-3.311-8.854-3.311Zm-6.412 11.473c0-1.155.152-2.156.458-3.08.305-.847.687-1.54 1.221-2.156 1.145-1.232 2.672-1.848 4.733-1.848 4.579 0 6.717 2.233 6.717 7.007 0 1.155-.153 2.233-.382 3.08s-.611 1.463-1.145 2.079c-1.068 1.232-2.748 1.848-5.114 1.848-2.137 0-3.664-.616-4.733-1.848-1.221-1.155-1.755-2.849-1.755-5.082Zm-14.58-10.241c-.076.077-.152.154-.229.154v-.77h-4.885v21.56h4.885v-10.549c0-6.237 2.824-6.93 4.962-6.93h3.282v-4.697h-2.824c-2.29 0-3.97.385-5.191 1.232Z" fill="#1090CF"/></g><g clip-path="url(#o)"><path d="M582.892 429.22c-.23-.928-.46-1.74-.691-2.552-.172-.812-.345-1.624-.46-2.436h-.173a73.61 73.61 0 0 1 .173 5.162v24.36h-2.13v-34.742h2.821l5.813 22.214c.115.464.23 1.102.403 1.914.172.754.287 1.508.345 2.146h.173c.115-.638.23-1.334.403-2.146.172-.812.287-1.45.46-1.914l5.871-22.214h2.705v34.742h-2.302v-24.36c0-.87 0-1.682.057-2.552.058-.87.058-1.74.173-2.61h-.173c-.23.986-.46 1.856-.633 2.552l-.518 2.262-5.18 19.314h-1.899l-5.238-19.14Zm21.987 12.644c.057 3.364.518 5.916 1.381 7.714.863 1.74 2.187 2.61 3.971 2.61.806 0 1.497-.116 2.13-.406.633-.29 1.151-.58 1.554-.928.46-.348.921-.812 1.266-1.334l.748 1.856c-.403.522-.863 1.044-1.381 1.392-.46.348-1.094.638-1.784.928-.691.29-1.554.464-2.533.464-2.59 0-4.489-1.102-5.698-3.364-1.208-2.262-1.842-5.336-1.842-9.396 0-2.03.173-3.77.518-5.336.346-1.566.864-2.958 1.439-4.06.633-1.102 1.382-1.914 2.245-2.494a5.045 5.045 0 0 1 2.82-.87c1.036 0 2.015.29 2.821.812.863.522 1.496 1.392 2.072 2.494.518 1.102.92 2.494 1.151 4.118.23 1.624.23 3.538.057 5.684h-10.935v.116Zm4.892-11.194c-1.266 0-2.418.812-3.338 2.436-.921 1.566-1.382 3.944-1.497 7.018h8.806c.173-3.248-.115-5.626-.978-7.134-.748-1.566-1.784-2.32-2.993-2.32Zm17.209 21.576c.748 0 1.439-.116 2.015-.406a5.045 5.045 0 0 0 1.554-.928c.46-.348.921-.812 1.266-1.334l.748 1.914a4.845 4.845 0 0 1-1.324 1.334c-.46.348-1.036.638-1.784.928-.691.29-1.554.464-2.475.464-2.417 0-4.317-1.102-5.698-3.306-1.324-2.262-1.957-5.336-1.957-9.396 0-4.06.633-7.192 1.957-9.454 1.324-2.262 3.223-3.364 5.756-3.364 1.266 0 2.302.232 3.165.696.864.406 1.554.928 2.13 1.624l-.633 2.436c-.518-.754-1.209-1.392-1.957-1.972-.748-.522-1.669-.812-2.705-.812-1.842 0-3.223.928-4.144 2.842-.864 1.856-1.324 4.524-1.324 8.004 0 3.364.46 5.974 1.324 7.888.805 1.856 2.187 2.842 4.086 2.842Zm15.483 0c.748 0 1.439-.116 2.014-.406a5.045 5.045 0 0 0 1.554-.928 5.565 5.565 0 0 0 1.266-1.334l.749 1.914a4.859 4.859 0 0 1-1.324 1.334c-.461.348-1.036.638-1.784.928-.691.29-1.555.464-2.475.464-2.418 0-4.317-1.102-5.698-3.306-1.324-2.262-1.957-5.336-1.957-9.396 0-4.06.633-7.192 1.957-9.454 1.323-2.262 3.223-3.364 5.755-3.364 1.266 0 2.302.232 3.166.696.863.406 1.554.928 2.129 1.624l-.633 2.436c-.518-.754-1.208-1.392-1.957-1.972-.748-.522-1.669-.812-2.705-.812-1.842 0-3.223.928-4.144 2.842-.863 1.856-1.324 4.524-1.324 8.004 0 3.364.461 5.974 1.324 7.888.806 1.856 2.187 2.842 4.087 2.842Zm9.727-10.382c.058 3.364.518 5.916 1.381 7.714.864 1.74 2.188 2.61 3.972 2.61.806 0 1.496-.116 2.129-.406.633-.29 1.152-.58 1.554-.928a5.588 5.588 0 0 0 1.267-1.334l.748 1.856c-.403.522-.863 1.044-1.381 1.392-.461.348-1.094.638-1.785.928-.69.29-1.554.464-2.532.464-2.59 0-4.49-1.102-5.698-3.364-1.209-2.262-1.842-5.336-1.842-9.396 0-2.03.173-3.77.518-5.336.345-1.566.863-2.958 1.439-4.06.633-1.102 1.381-1.914 2.245-2.494a5.043 5.043 0 0 1 2.82-.87c1.036 0 2.014.29 2.82.812.863.522 1.497 1.392 2.072 2.494.518 1.102.921 2.494 1.151 4.118.23 1.624.23 3.538.058 5.684H652.19v.116Zm4.835-11.194c-1.266 0-2.418.812-3.338 2.436-.921 1.566-1.382 3.944-1.497 7.018h8.806c.173-3.248-.115-5.626-.978-7.134-.749-1.566-1.785-2.32-2.993-2.32Zm20.95 11.252h-8.288v11.832h-2.245V429.22h2.245v10.846h8.288V429.22h2.245v24.476h-2.245v-11.774Zm11.109 1.682c-.231 2.03-.518 3.712-.864 5.104-.345 1.334-.805 2.436-1.439 3.132h9.209v-20.764h-6.158c-.058 1.334-.058 2.726-.173 4.118-.057 1.218-.172 2.61-.23 4.06-.058 1.508-.23 2.958-.345 4.35Zm9.381 10.15h-13.18l-.288 4.814h-1.784v-6.67h1.036c.748-.406 1.324-1.392 1.784-2.958.461-1.566.864-3.48 1.094-5.858a60.05 60.05 0 0 0 .345-4.698c.115-1.624.173-3.132.23-4.466.058-1.566.115-3.132.173-4.64h10.418v22.62h2.187v6.67h-1.784l-.231-4.814Zm5.929 0h-2.36l7.598-12.992-7.252-11.542h2.244l7.252 11.542V429.22h2.245v11.542l7.252-11.542h2.187l-7.137 11.31 7.713 13.166h-2.475l-7.54-12.702v12.702h-2.245v-12.644l-7.482 12.702Zm23.252-11.89c.058 3.364.518 5.916 1.381 7.714.864 1.74 2.188 2.61 3.972 2.61.806 0 1.496-.116 2.129-.406.634-.29 1.152-.58 1.554-.928a5.588 5.588 0 0 0 1.267-1.334l.748 1.856c-.403.522-.863 1.044-1.381 1.392-.461.348-1.094.638-1.785.928-.69.29-1.554.464-2.532.464-2.59 0-4.49-1.102-5.698-3.364-1.209-2.262-1.842-5.336-1.842-9.396 0-2.03.173-3.77.518-5.336.345-1.566.863-2.958 1.439-4.06.633-1.102 1.381-1.914 2.245-2.494a5.043 5.043 0 0 1 2.82-.87c1.036 0 2.014.29 2.82.812.863.522 1.497 1.392 2.072 2.494.518 1.102.921 2.494 1.151 4.118.23 1.624.23 3.538.058 5.684h-10.936v.116Zm4.835-11.194c-1.266 0-2.418.812-3.338 2.436-.921 1.566-1.382 3.944-1.497 7.018h8.806c.173-3.248-.115-5.626-.978-7.134-.748-1.566-1.784-2.32-2.993-2.32Zm17.152 21.692c1.554 0 2.762-.928 3.683-2.784.921-1.856 1.381-4.756 1.381-8.642 0-3.248-.402-5.742-1.208-7.54-.806-1.798-1.9-2.668-3.338-2.668-.518 0-1.094.174-1.612.464-.461.232-.921.638-1.381 1.044a8.992 8.992 0 0 0-1.152 1.624c-.345.58-.633 1.218-.92 1.856v13.688c.46.986 1.093 1.74 1.784 2.262.748.464 1.669.696 2.763.696Zm-.173 1.798c-.921 0-1.784-.174-2.533-.58a5.23 5.23 0 0 1-1.784-1.566v9.28h-2.245V429.22h1.957l.173 4.06c.518-1.16 1.266-2.204 2.187-3.132.921-.928 2.015-1.392 3.396-1.392.978 0 1.899.29 2.705.87.806.58 1.497 1.392 2.015 2.494.518 1.044.978 2.32 1.266 3.77.288 1.45.46 3.074.46 4.872 0 4.524-.69 7.888-2.072 10.092-1.439 2.204-3.223 3.306-5.525 3.306Zm-340.273-13.746-5.87 13.34H399l6.446-14.21c-1.496-.754-2.705-1.914-3.683-3.422-.921-1.508-1.382-3.596-1.382-6.148 0-1.798.231-3.422.749-4.756.518-1.392 1.266-2.552 2.187-3.422.921-.928 2.014-1.566 3.223-2.03a10.817 10.817 0 0 1 3.856-.696h5.526v34.742h-3.684v-13.34h-3.051v-.058Zm3.051-18.27h-1.957c-.748 0-1.439.174-2.187.464-.691.232-1.324.696-1.899 1.334-.518.58-.979 1.392-1.324 2.378-.346.986-.461 2.204-.461 3.654 0 1.392.173 2.552.461 3.48.345.928.748 1.682 1.266 2.262.518.58 1.151.986 1.899 1.276a7.645 7.645 0 0 0 2.303.348h1.899v-15.196Zm40.922 36.424h-3.396v-4.814h-10.417v4.814h-3.396v-7.946h1.496a26.822 26.822 0 0 0 1.324-4.292c.345-1.566.576-3.19.748-4.872.173-1.682.288-3.364.346-5.104.057-1.74.115-3.422.115-5.046v-2.088h11.281v21.402h1.899v7.946Zm16.289-6.496c-.749.638-1.67 1.102-2.648 1.45-.979.348-2.13.522-3.338.522-2.533 0-4.49-.986-5.929-2.9-1.439-1.972-2.187-4.872-2.187-8.642 0-1.972.115-3.77.403-5.452.288-1.624.748-3.074 1.324-4.292.633-1.218 1.381-2.204 2.302-2.842.921-.696 2.015-1.044 3.338-1.044.979 0 1.9.232 2.763.638s1.554 1.044 2.13 1.972c.575.928 1.036 2.088 1.324 3.538.345 1.45.46 3.19.46 5.22v2.088h-10.13c0 2.784.345 4.872 1.094 6.322.748 1.45 1.899 2.146 3.395 2.146 1.036 0 2.015-.174 2.821-.522.863-.406 1.496-.754 1.957-1.102l.921 2.9Zm-35.628-22.852v24.476h-3.683v-10.962h-5.583v10.962h-3.742V429.22h3.742v10.44h5.583v-10.44h3.683Zm43.225 12.296v12.18h-3.799V429.22h3.741v11.31l5.871-11.31h3.799l-6.044 11.542 6.907 12.992h-4.086l-6.389-12.238Zm19.281 12.528c-2.59 0-4.662-1.044-6.101-3.132-1.496-2.088-2.244-5.278-2.244-9.454 0-1.914.172-3.654.518-5.22.403-1.566.921-2.842 1.611-3.944.748-1.102 1.612-1.972 2.705-2.552 1.094-.638 2.36-.928 3.742-.928 1.093 0 1.956.116 2.647.406a9.008 9.008 0 0 1 1.842.87l-.518 3.596a6.64 6.64 0 0 0-1.842-1.16 4.682 4.682 0 0 0-2.187-.522c-1.324 0-2.475.754-3.338 2.262-.864 1.508-1.324 3.828-1.324 6.96 0 3.074.345 5.452 1.036 7.134.748 1.624 1.899 2.494 3.396 2.494.921 0 1.726-.174 2.417-.464a10.51 10.51 0 0 0 1.669-1.044l.864 2.842a9.236 9.236 0 0 1-2.188 1.334c-.633.406-1.554.522-2.705.522Zm-48.807-21.75h-4.202v.464c0 1.276-.058 2.726-.115 4.292-.058 1.508-.115 3.074-.288 4.64a66.083 66.083 0 0 1-.691 4.698c-.287 1.508-.69 2.958-1.208 4.234h6.446v-18.328h.058Zm15.194-.29c-1.151 0-1.956.638-2.474 1.972-.461 1.276-.806 3.016-.921 5.22h6.216c0-1.044-.058-1.972-.173-2.842-.115-.928-.23-1.682-.46-2.32-.173-.638-.461-1.16-.864-1.508-.345-.348-.748-.522-1.324-.522Z" fill="#000"/><path d="M569.712 437.572c-.23-.638-.633-1.16-1.266-1.508l-46.39-26.216a3.049 3.049 0 0 0-1.382-.348c-.46 0-.921.116-1.381.406-.403.232-.748.58-.979.986-.23.406-.345.87-.345 1.392v9.86l-3.511-1.044a2.378 2.378 0 0 0-1.554 0 2.955 2.955 0 0 0-1.324.87 2.754 2.754 0 0 0-.633 1.45 2.942 2.942 0 0 0 .288 1.566l6.734 13.514-6.734 13.514a2.942 2.942 0 0 0-.288 1.566c.058.522.288 1.044.633 1.45.346.406.806.696 1.324.87a2.378 2.378 0 0 0 1.554 0l3.511-1.044v9.86c0 .464.115.928.345 1.392.231.406.576.754.979.986.403.232.863.348 1.381.406.461 0 .921-.116 1.382-.348l46.448-26.216a2.952 2.952 0 0 0 1.266-1.508c.115-.638.115-1.218-.058-1.856Z" fill="#fff"/><path d="M569.712 437.572c-.23-.638-.633-1.16-1.266-1.508l-46.391-26.216a3.045 3.045 0 0 0-1.381-.348c-.461 0-.921.116-1.381.406-.403.232-.749.58-.979.986-.23.406-.345.87-.345 1.392v9.86l51.743 15.428Z" fill="#98F9F9"/><path d="M517.969 464.716c0 .464.115.928.345 1.392.23.406.576.754.979.986.402.232.863.348 1.381.406.46 0 .921-.116 1.381-.348l46.448-26.216a2.947 2.947 0 0 0 1.266-1.508l-51.743 15.486v9.802h-.057Z" fill="#10CBD1"/><path d="m569.712 437.572-55.254-16.53a2.378 2.378 0 0 0-1.554 0 2.955 2.955 0 0 0-1.324.87 2.754 2.754 0 0 0-.633 1.45 2.942 2.942 0 0 0 .288 1.566l6.734 13.572h51.916c0-.29-.058-.638-.173-.928Z" fill="#57E0E9"/><path d="m517.969 438.5-6.734 13.514a2.942 2.942 0 0 0-.288 1.566c.058.522.288 1.044.633 1.45.346.406.806.696 1.324.87a2.378 2.378 0 0 0 1.554 0l55.254-16.53c.115-.29.173-.58.173-.928h-51.916v.058Z" fill="#6DEDED"/></g><g clip-path="url(#p)" fill-rule="evenodd" clip-rule="evenodd"><path d="M1025.91 425.488c0-3.456-2.93-4.698-6.07-4.698-4.17 0-7.63 1.35-10.83 2.754l-2.16-6.426c3.57-1.566 8.5-3.348 14.4-3.348 9.2 0 13.64 4.536 13.64 10.854 0 11.124-15.64 14.256-18.24 22.734h18.79v7.074h-29.95c1.68-19.872 20.42-21.006 20.42-28.944Z" fill="#0065A3"/><path d="M1048.59 438.124h3.74v-4.32c0-3.132.27-6.696.38-7.506l-9.32 12.042c.76-.108 3.74-.216 5.2-.216Zm-14.67 1.404 20.63-25.65h6.12v24.246h6.11v6.696h-6.11v9.612h-8.34v-9.612h-18.46c.05 0 .05-5.292.05-5.292Zm51.27-1.944c-5.95 0-10.72-4.698-10.72-10.53 0-5.832 4.82-10.53 10.72-10.53 5.96 0 10.72 4.698 10.72 10.53 0 5.832-4.76 10.53-10.72 10.53Zm0-24.084c-7.63 0-13.8 6.048-13.8 13.554 0 7.452 6.17 13.554 13.8 13.554 7.64 0 13.81-6.048 13.81-13.554s-6.17-13.554-13.81-13.554Z" fill="#0065A3"/><path d="M1086.71 421.006v4.536h4.6v3.024h-7.69v-7.56h3.09Z" fill="#0065A3"/><path d="M815.612 448.276c5.306 0 7.526-1.674 7.526-5.13 0-1.998-.812-3.348-2.111-4.158-1.408-.81-3.466-1.026-5.74-1.026h-2.544v10.314h2.869ZM805 418.09h24.419l-1.895 6.102h-14.781v7.614h2.544c4.007 0 7.58.486 10.342 1.944 3.248 1.674 5.252 4.644 5.252 9.288 0 6.48-4.007 11.394-15.377 11.394H805V418.09Zm29.996 10.26h7.363v10.422c0 2.16-.054 4.266-.216 5.724h.216c.596-1.026 1.895-3.24 3.465-5.4l7.635-10.746h7.471v26.082h-7.526V444.01c0-2.16.109-4.266.271-5.724h-.162a82.355 82.355 0 0 1-3.465 5.4l-7.581 10.746h-7.471V428.35Zm36.817 6.21h-7.959v-6.21h25.177l-1.949 6.21h-7.634v19.926h-7.635V434.56Zm30.429 14.31c4.548 0 6.822-2.916 6.822-7.506 0-5.076-2.815-7.56-7.526-7.56-.974 0-1.732.054-2.599.324v14.148a9.004 9.004 0 0 0 3.303.594Zm-10.883-19.44c2.924-.972 6.551-1.728 10.558-1.728 9.908 0 14.944 5.454 14.944 13.662 0 7.83-5.415 13.608-14.023 13.608-1.3 0-2.599-.162-3.845-.486V467.5h-7.634v-38.07Zm29.075-1.08h7.364v10.422c0 2.16-.054 4.266-.217 5.724h.163c.595-1.026 1.895-3.24 3.465-5.4l7.634-10.746h7.472v26.082h-7.418V444.01c0-2.16.109-4.266.271-5.724h-.162a82.536 82.536 0 0 1-3.466 5.4l-7.634 10.746h-7.472V428.35Zm30.754 0h7.634v9.99h2.816c3.194 0 3.086-5.292 5.468-8.37 1.029-1.404 2.599-2.268 5.035-2.268.813 0 2.22.108 3.032.378v6.318a5.037 5.037 0 0 0-1.57-.27c-.866 0-1.407.27-1.841.81-1.353 1.674-1.57 5.022-3.573 6.21v.108c1.299.486 2.274 1.458 3.032 3.078l4.819 10.044h-8.23l-3.14-8.154c-.65-1.62-1.354-2.322-2.112-2.322h-3.736v10.476h-7.634V428.35Zm26.043 13.176c0-8.262 6.551-13.824 14.402-13.824 3.628 0 5.956.972 7.364 1.89v6.21c-1.895-1.458-3.953-2.214-6.552-2.214-4.656 0-7.417 3.456-7.417 7.884 0 4.914 2.815 7.56 7.092 7.56 2.383 0 4.17-.648 6.173-1.782l2.167 5.076c-2.221 1.566-5.632 2.646-9.368 2.646-8.88 0-13.861-5.778-13.861-13.446Z" fill="#0BBBEF"/></g><defs><clipPath id="a"><path fill="#fff" transform="translate(0 16.5)" d="M0 0h202v82H0z"/></clipPath><clipPath id="b"><path fill="#fff" transform="translate(250 .5)" d="M0 0h160v114H0z"/></clipPath><clipPath id="c"><path fill="#fff" transform="translate(458 28.5)" d="M0 0h220v58H0z"/></clipPath><clipPath id="d"><path fill="#fff" transform="translate(726 30.5)" d="M0 0h285v54H0z"/></clipPath><clipPath id="e"><path fill="#fff" transform="translate(1059 .5)" d="M0 0h132v114H0z"/></clipPath><clipPath id="f"><path fill="#fff" transform="translate(27.5 172.5)" d="M0 0h264v51H0z"/></clipPath><clipPath id="g"><path fill="#fff" transform="translate(339.5 162.5)" d="M0 0h221v71H0z"/></clipPath><clipPath id="h"><path fill="#fff" transform="translate(608.5 167.5)" d="M0 0h288v61H0z"/></clipPath><clipPath id="i"><path fill="#fff" transform="translate(944.5 178)" d="M0 0h220v40H0z"/></clipPath><clipPath id="j"><path fill="#fff" transform="translate(35 281.5)" d="M0 0h247v61H0z"/></clipPath><clipPath id="k"><path fill="#fff" transform="translate(330 281.5)" d="M0 0h270v61H0z"/></clipPath><clipPath id="l"><path fill="#fff" transform="translate(648 281.5)" d="M0 0h263v59H0z"/></clipPath><clipPath id="m"><path fill="#fff" transform="translate(959 281.5)" d="M0 0h198v61H0z"/></clipPath><clipPath id="n"><path fill="#fff" transform="translate(93 390.5)" d="M0 0h258v77H0z"/></clipPath><clipPath id="o"><path fill="#fff" transform="translate(399 409.5)" d="M0 0h358v58H0z"/></clipPath><clipPath id="p"><path fill="#fff" transform="translate(805 413.5)" d="M0 0h294v54H0z"/></clipPath></defs></svg>