<svg width="313" height="38" fill="none" xmlns="http://www.w3.org/2000/svg"><g clip-path="url(#a)"><path d="m9.052 5.026 4.783 6.09h-.662l-.441.653-4.49-6.308.295-.435h.515Z" fill="#00B4F3"/><path d="m27.376 5.534-3.9 6.017-.221-.435h-.81L26.493 5.1h.589l.294.435Zm7.875 14.425H28.04l.22-.435-.22-.435h7.286l.22.435-.294.435ZM22.96 27.644l3.68 5.872-.294.508h-.663l-3.238-5.655.515-.725Z" fill="#02B1F3"/><path d="m18.107 20.032-3.827 6.09-.294-.508h-.736l3.9-6.09h.663l.294.508Z" fill="#00B4F3"/><path d="m.294 19.017 7.434.072-.295.435.22.58H.369L0 19.524l.294-.507Z" fill="#02B1F3"/><path d="m8.46 5.026 4.711 6.09H23.18l3.9-6.09H8.46Z" fill="#00B4F3"/><path d="M28.258 19.525h7.36L27.08 5.026l-3.9 6.09 5.078 8.409Z" fill="url(#b)"/><path d="M28.262 19.524h7.36l-9.274 14.499-3.606-6.09 5.52-8.409Z" fill="url(#c)"/><path d="m13.91 25.614 5.446 8.409h6.992L17.81 19.524l-3.9 6.09Z" fill="#47D4F8"/><path d="m0 19.524 3.9 6.09h10.01l3.9-6.09H0Z" fill="#00B4F3"/><path d="m13.174 11.116-5.74 8.409H0L8.463 5.026l4.71 6.09Z" fill="url(#d)"/><mask id="e" style="mask-type:luminance" maskUnits="userSpaceOnUse" x="0" y="5" width="14" height="15"><path d="m13.174 11.116-5.74 8.409H0L8.463 5.026l4.71 6.09Z" fill="#fff"/></mask><g mask="url(#e)"><path d="M12.878 4.737H-.148v15.006h13.026V4.737Z" fill="url(#f)"/></g><path d="M50.118 14.522c-.663-.217-2.06-.434-3.238-.434-2.135 0-3.312.434-3.312 2.03 0 1.087.589 1.667 3.017 1.884 3.018.29 4.342 1.377 4.342 3.697 0 2.827-1.913 3.842-5.372 3.842-1.325 0-2.797-.217-3.827-.58l.441-1.595c.81.29 2.208.435 3.312.435 2.135 0 3.386-.434 3.386-2.03 0-1.087-.589-1.884-3.091-2.102-2.944-.217-4.342-1.087-4.342-3.407 0-2.827 1.913-3.914 5.299-3.914 1.25 0 2.723.217 3.68.507l-.295 1.667Zm5.372 3.118v4.494c0 1.305.369 1.885 1.546 1.885.59 0 1.178-.073 1.693-.218l.294 1.378c-.588.217-1.545.362-2.281.362-2.06 0-3.017-.58-3.017-3.335V17.64h-1.62v-1.522h1.62v-1.74l1.766-.725v2.465h3.238v1.522h-3.238Zm12.733 7.249c-1.104.435-2.723.725-3.974.725-2.797 0-3.827-.652-3.827-3.045 0-2.61 1.545-3.044 3.68-3.044.883 0 1.619.072 2.502.29 0-1.885-.515-2.32-2.502-2.32-.957 0-1.987.145-2.723.435l-.368-1.45a13.7 13.7 0 0 1 3.385-.435c2.723 0 3.974.797 3.974 3.552v5.292h-.147Zm-1.693-3.842c-.588-.145-1.398-.218-2.134-.218-1.546 0-2.134.145-2.134 1.595 0 1.523.441 1.813 2.06 1.813a7.39 7.39 0 0 0 2.208-.363v-2.827Zm4.341-4.929h1.693v.652c.368-.434 1.177-.942 2.502-.942.294 0 .662 0 .957.073v1.667c-.295-.073-.736-.073-1.104-.073-1.251 0-2.355.363-2.355 1.088v6.742H70.87v-9.207Zm8.835 1.522v4.494c0 1.305.368 1.885 1.545 1.885.589 0 1.178-.073 1.693-.218l.294 1.378c-.588.217-1.545.362-2.281.362-2.06 0-3.018-.58-3.018-3.335V17.64H76.32v-1.522h1.62v-1.74l1.766-.725v2.465h3.238v1.522h-3.238Zm5.224-1.087c1.03-.435 2.65-.653 3.9-.653 2.944 0 4.342 1.088 4.342 4.785 0 3.77-1.398 4.857-4.121 4.857-1.177 0-1.913-.29-2.355-.653v3.843h-1.693v-12.18h-.073Zm1.692 6.452c0 .725.957 1.087 2.208 1.087 1.914 0 2.502-.725 2.502-3.335 0-2.827-.588-3.334-2.502-3.334-.736 0-1.619.072-2.208.29v5.292Zm16.484 1.884c-1.104.435-2.723.725-3.974.725-2.797 0-3.827-.652-3.827-3.045 0-2.61 1.545-3.044 3.68-3.044.883 0 1.619.072 2.502.29 0-1.885-.515-2.32-2.502-2.32-.957 0-1.988.145-2.724.435l-.367-1.45c.809-.218 2.06-.435 3.385-.435 2.723 0 3.974.797 3.974 3.552v5.292h-.147Zm-1.693-3.842c-.589-.145-1.398-.218-2.134-.218-1.546 0-2.134.145-2.134 1.595 0 1.523.441 1.813 2.06 1.813a7.39 7.39 0 0 0 2.208-.363v-2.827Zm11.334 4.06c-.736.29-1.914.507-2.723.507-2.87 0-4.563-1.087-4.563-4.857 0-3.77 1.693-4.784 4.563-4.784.809 0 2.061.217 2.723.435l-.442 1.522c-.588-.29-1.472-.435-2.208-.435-1.913 0-2.796.435-2.796 3.262 0 2.682.883 3.335 2.796 3.335.81 0 1.62-.218 2.208-.435l.442 1.45Zm7.652.217c-2.282-2.972-3.754-4.64-4.269-4.857v4.857h-1.692V12.275h1.692v8.192c.589-.435 1.987-1.885 3.974-4.35h2.135c-1.987 2.393-3.386 3.77-3.901 4.133.515.29 1.987 1.957 4.195 5.002h-2.134v.072Z" fill="#00B4F3"/></g><rect x="276" y=".047" width="37" height="37" rx="4" fill="#E03A3A"/><path d="M282.772 13.815v3.726h.018c.612-1.008 2.304-1.044 3.366-1.044 3.906 0 4.194 1.818 4.194 4.23 0 3.906-.81 4.428-4.59 4.428-3.366 0-4.428-.36-4.608-3.384l-.018-.306h1.422v.414c0 1.944.972 2.016 3.204 2.016 2.934 0 3.186-.45 3.186-3.168 0-2.682-.504-2.97-3.186-2.97-1.008 0-2.772-.198-2.988 1.134h-1.422v-6.336h8.496v1.26h-7.074Zm12.019 9.54v1.692h-1.476v-1.692h1.476Zm8.16-9.648c-3.06 0-3.87.018-3.87 3.258v3.672c0 3.24.81 3.258 3.87 3.258 3.096 0 3.924-.018 3.924-3.258v-3.672c0-3.24-.828-3.258-3.924-3.258Zm.036 11.448c-3.888 0-5.328-.522-5.328-4.518v-3.672c0-3.996 1.44-4.5 5.292-4.5 3.906 0 5.328.504 5.328 4.5v3.672c0 3.996-1.422 4.518-5.292 4.518Z" fill="#fff"/><path d="m156.486 10.229 2.57 5.19 5.656.82c.475.078.87.39 1.028.859.159.43.04.937-.316 1.249l-4.113 4.02.989 5.698c.079.468-.119.937-.515 1.21-.395.312-.909.312-1.344.117l-5.063-2.693-5.102 2.693c-.395.195-.909.195-1.305-.117a1.22 1.22 0 0 1-.514-1.21l.949-5.698-4.113-4.02c-.316-.312-.435-.82-.316-1.249.158-.468.553-.78 1.028-.859l5.695-.82 2.531-5.19c.198-.43.633-.703 1.147-.703.475 0 .91.274 1.108.703Zm22.78 0 2.571 5.19 5.656.82c.474.078.87.39 1.028.859.158.43.04.937-.316 1.249l-4.114 4.02.989 5.698c.079.468-.118.937-.514 1.21-.395.312-.91.312-1.345.117l-5.062-2.693-5.102 2.693c-.395.195-.91.195-1.305-.117a1.218 1.218 0 0 1-.514-1.21l.949-5.698-4.113-4.02c-.317-.312-.435-.82-.317-1.249a1.29 1.29 0 0 1 1.029-.859l5.695-.82 2.531-5.19c.198-.43.633-.703 1.147-.703.475 0 .91.274 1.107.703Zm22.781 0 2.571 5.19 5.655.82c.475.078.87.39 1.029.859.158.43.039.937-.317 1.249l-4.113 4.02.989 5.698a1.22 1.22 0 0 1-.514 1.21c-.396.312-.91.312-1.345.117L200.94 26.7l-5.102 2.693c-.396.195-.91.195-1.305-.117a1.219 1.219 0 0 1-.515-1.21l.95-5.698-4.114-4.02c-.316-.312-.435-.82-.316-1.249.158-.468.554-.78 1.028-.859l5.695-.82 2.532-5.19c.197-.43.632-.703 1.147-.703.474 0 .909.274 1.107.703Zm22.781 0 2.57 5.19 5.656.82c.475.078.87.39 1.028.859.158.43.04.937-.316 1.249l-4.113 4.02.988 5.698c.08.468-.118.937-.514 1.21-.395.312-.909.312-1.344.117L223.72 26.7l-5.102 2.693c-.395.195-.909.195-1.305-.117a1.22 1.22 0 0 1-.514-1.21l.949-5.698-4.113-4.02c-.316-.312-.435-.82-.316-1.249.158-.468.553-.78 1.028-.859l5.695-.82 2.531-5.19c.198-.43.633-.703 1.147-.703.475 0 .91.274 1.108.703Zm22.78 0 2.571 5.19 5.656.82c.474.078.87.39 1.028.859.158.43.039.937-.316 1.249l-4.114 4.02.989 5.698a1.22 1.22 0 0 1-.514 1.21c-.396.312-.91.312-1.345.117l-5.062-2.693-5.102 2.693c-.396.195-.91.195-1.305-.117a1.218 1.218 0 0 1-.514-1.21l.949-5.698-4.113-4.02c-.317-.312-.435-.82-.317-1.249.158-.468.554-.78 1.029-.859l5.695-.82 2.531-5.19c.198-.43.633-.703 1.147-.703.474 0 .91.274 1.107.703Z" fill="#E03A3A"/><defs><linearGradient id="b" x1="29.398" y1="5.026" x2="29.398" y2="19.525" gradientUnits="userSpaceOnUse"><stop stop-color="#0280DD"/><stop offset="1" stop-color="#02B1F3"/></linearGradient><linearGradient id="c" x1="35.621" y1="26.774" x2="22.742" y2="26.774" gradientUnits="userSpaceOnUse"><stop stop-color="#0280DD"/><stop offset="1" stop-color="#02B1F3"/></linearGradient><linearGradient id="d" x1="13.174" y1="12.276" x2="0" y2="12.276" gradientUnits="userSpaceOnUse"><stop stop-color="#0280DD"/><stop offset="1" stop-color="#02B1F3"/></linearGradient><linearGradient id="f" x1="12.861" y1="12.24" x2="-.165" y2="12.24" gradientUnits="userSpaceOnUse"><stop stop-color="#0280DD"/><stop offset="1" stop-color="#02B1F3"/></linearGradient><clipPath id="a"><path fill="#fff" transform="translate(0 5.026)" d="M0 0h131v28.997H0z"/></clipPath></defs></svg>