<svg width="305" height="40" fill="none" xmlns="http://www.w3.org/2000/svg"><g clip-path="url(#a)"><path d="M103.92 35.038c2.138 0 3.653-.38 4.781-1.2v-3.713c-1.158.79-2.554 1.287-4.514 1.287-3.297 0-4.663-2.515-4.663-6.492 0-4.182 1.663-6.316 4.693-6.316 1.782 0 3.534.614 4.455 1.199v-3.86c-.98-.527-2.673-.907-4.99-.907-5.91 0-8.97 4.182-8.97 10.03.03 6.404 3.03 9.972 9.208 9.972Zm-28.899-1.696v-3.714c-1.425.965-3.86 1.813-6.088 1.813-3.386 0-4.663-1.58-4.871-4.796h11.167v-2.398c0-6.696-3-9.21-7.603-9.21-5.643 0-8.316 4.24-8.316 10.058 0 6.697 3.356 9.943 9.237 9.943 2.94 0 5.108-.79 6.474-1.696ZM32.64 15.387v7.603h-6.178v-7.603h-4.633v19.27h4.633v-8.041h6.178v8.042h4.633V15.387H32.64Zm25.513 15.645h-2.05V15.387H42.618v1.638c0 4.708-.297 10.79-1.93 14.007h-1.485v8.012h4.277v-4.386h10.365v4.386h4.277v-8.012h.03Zm31.63 3.626h5.257l-7.425-10.381 6.534-8.89h-4.663l-6.534 8.89v-8.89h-4.633v19.27h4.633v-9.474l6.831 9.475ZM67.507 18.604c2.287 0 3 1.871 3 4.298v.38h-6.445c.119-3.07 1.247-4.678 3.445-4.678ZM51.47 31.032h-6.534c1.277-2.895 1.633-8.159 1.633-11.493v-.584h4.901v12.077Z" fill="#000"/><path d="M17.969 34.657h-4.723V11.644h-2.108c-3.861 0-5.881 1.9-5.881 4.737 0 3.216 1.396 4.708 4.277 6.609l2.376 1.579-6.831 10.088H0l6.148-9.006C2.614 23.165.624 20.738.624 16.644c0-5.117 3.623-8.597 10.484-8.597h6.831v26.61h.03Z" fill="#FC3F1D"/></g><rect x="268" y=".047" width="37" height="36.996" rx="4" fill="#EA4F4D"/><path d="M283.48 21.747h-2.36v4.3h-1.56v-4.3h-6.16v-.66l6.64-9.26h1.08v8.52h2.36v1.4Zm-3.92-5.76.2-1.64h-.06l-.7 1.36-2.82 3.82-.96.98 1.4-.16h2.94v-4.36Zm5.318 9.14c0-.36.1-.64.3-.84.214-.213.494-.32.84-.32.36 0 .647.107.86.32.214.2.32.48.32.84 0 .347-.106.627-.32.84-.213.213-.5.32-.86.32-.346 0-.626-.107-.84-.32-.2-.213-.3-.493-.3-.84Zm13.778-3.38h-2.36v4.3h-1.56v-4.3h-6.16v-.66l6.64-9.26h1.08v8.52h2.36v1.4Zm-3.92-5.76.2-1.64h-.06l-.7 1.36-2.82 3.82-.96.98 1.4-.16h2.94v-4.36Z" fill="#fff"/><rect x="268" y=".066" width="37" height="37" rx="4" fill="#E03A3A"/><path d="M280.946 12.574v8.388h1.818v1.26h-1.818v2.844h-1.422v-2.844h-7.02V20.53l6.264-7.956h2.178Zm-1.422 8.388v-7.47h-.036l-5.832 7.47h5.868Zm7.267 2.412v1.692h-1.476v-1.692h1.476Zm8.484-4.788c-2.754 0-3.51.162-3.51 2.16 0 2.718.234 3.168 3.204 3.168 3.096 0 3.222-.414 3.222-2.664 0-2.358-.252-2.664-2.916-2.664Zm-4.932 2.16v-4.932c0-2.97 1.782-3.33 4.698-3.33 2.052 0 4.284-.018 4.284 2.862v.396h-1.422V15.4c0-1.674-1.008-1.674-2.862-1.674-2.286 0-3.276-.036-3.276 2.088v2.682h.018c.324-.792 1.296-1.152 3.186-1.152 3.474 0 4.626.396 4.626 3.906 0 3.366-1.08 3.924-4.626 3.924-3.492 0-4.626-.54-4.626-4.428Z" fill="#fff"/><path d="m148.488 10.25 2.571 5.19 5.656.82c.475.077.87.39 1.029.858.158.43.039.937-.317 1.249l-4.113 4.02.988 5.698c.08.468-.118.936-.514 1.21-.395.312-.91.312-1.345.116l-5.063-2.692-5.102 2.692c-.396.196-.91.196-1.306-.117a1.22 1.22 0 0 1-.514-1.21l.949-5.697-4.113-4.02c-.317-.312-.435-.82-.317-1.249.158-.468.554-.78 1.029-.858l5.696-.82 2.531-5.19c.198-.43.633-.703 1.147-.703.475 0 .91.273 1.108.702Zm22.784 0 2.571 5.19 5.656.82c.475.077.87.39 1.028.858.159.43.04.937-.316 1.249l-4.114 4.02.989 5.698a1.22 1.22 0 0 1-.514 1.21c-.396.312-.91.312-1.345.116l-5.063-2.692-5.103 2.692c-.395.196-.909.196-1.305-.117a1.22 1.22 0 0 1-.514-1.21l.949-5.697-4.114-4.02c-.316-.312-.435-.82-.316-1.249.158-.468.554-.78 1.028-.858l5.696-.82 2.532-5.19c.198-.43.633-.703 1.147-.703.475 0 .91.273 1.108.702Zm22.783 0 2.571 5.19 5.657.82c.474.077.87.39 1.028.858.158.43.04.937-.316 1.249l-4.114 4.02.989 5.698a1.22 1.22 0 0 1-.514 1.21c-.396.312-.91.312-1.345.116l-5.063-2.692-5.103 2.692c-.395.196-.91.196-1.305-.117a1.218 1.218 0 0 1-.514-1.21l.949-5.697-4.114-4.02c-.316-.312-.435-.82-.316-1.249.158-.468.554-.78 1.028-.858l5.696-.82 2.532-5.19c.197-.43.633-.703 1.147-.703.474 0 .91.273 1.107.702Zm22.784 0 2.571 5.19 5.657.82c.474.077.87.39 1.028.858.158.43.04.937-.316 1.249l-4.114 4.02.989 5.698a1.22 1.22 0 0 1-.515 1.21c-.395.312-.909.312-1.344.116l-5.063-2.692-5.103 2.692c-.396.196-.91.196-1.305-.117a1.219 1.219 0 0 1-.515-1.21l.95-5.697-4.114-4.02c-.316-.312-.435-.82-.316-1.249.158-.468.553-.78 1.028-.858l5.696-.82 2.531-5.19c.198-.43.633-.703 1.148-.703.474 0 .909.273 1.107.702Zm21.637-.703c.395 0 .712.234.87.546l2.729 5.503 6.052.898c.356.039.633.273.752.624a.911.911 0 0 1-.238.976l-4.39 4.293 1.028 6.049a.935.935 0 0 1-.356.936c-.316.196-.712.235-1.028.079l-5.419-2.888-5.38 2.888a1.07 1.07 0 0 1-1.028-.079c-.277-.234-.435-.585-.356-.936l1.028-6.05-4.39-4.292a.911.911 0 0 1-.238-.976c.119-.312.396-.585.752-.624l6.052-.898 2.729-5.503c.158-.312.475-.546.831-.546Zm0 3.083-2.057 4.254c-.158.273-.396.468-.712.507l-4.668.664 3.363 3.317c.237.234.356.546.276.82l-.791 4.683 4.154-2.186a.94.94 0 0 1 .909 0l4.154 2.186-.791-4.644a.801.801 0 0 1 .276-.82l3.363-3.356-4.668-.664c-.316-.039-.554-.234-.712-.507l-2.096-4.254Z" fill="#E03A3A"/><defs><clipPath id="a"><path fill="#fff" transform="translate(0 8.047)" d="M0 0h109v30.997H0z"/></clipPath></defs></svg>