<svg width="388" height="56" fill="none" xmlns="http://www.w3.org/2000/svg"><g clip-path="url(#a)"><mask id="b" style="mask-type:luminance" maskUnits="userSpaceOnUse" x="0" y="5" width="51" height="53"><path d="M50.39 5H0v52.606h50.39V5Z" fill="#fff"/></mask><g mask="url(#b)" fill="#2D2D2D"><path d="m20.85 45.473 6.461-6.564-6.462-6.563-6.461 6.563 6.461 6.564Zm.041-28.123 4.888-4.966-4.888-4.965-4.888 4.965 4.888 4.965ZM7.858 45.428l6.462-6.563L7.858 32.3l-6.462 6.564 6.462 6.563Zm0-26.48 6.462-6.564-6.462-6.563-6.462 6.563 6.462 6.564Zm12.989 37.838 4.499-4.57-4.499-4.569-4.498 4.57 4.498 4.57Zm.003-26.132 4.887-4.964-4.888-4.965-4.887 4.965 4.887 4.964ZM7.857 56.572l4.4-4.47-4.4-4.469-4.4 4.47 4.4 4.468Zm.001-24.385 6.462-6.563-6.462-6.564-6.462 6.564 6.462 6.563Zm25.982 8.424 1.63-1.655-1.63-1.656-1.63 1.656 1.63 1.655Zm-.002-24.825 3.259-3.31-3.259-3.31-3.259 3.31 3.259 3.31Zm13.069 24.825 1.63-1.655-1.63-1.656-1.63 1.656 1.63 1.655Zm-6.519 6.584 1.63-1.655-1.63-1.655-1.63 1.655 1.63 1.655Zm-11.403 0 1.63-1.655-1.63-1.655-1.63 1.655 1.63 1.655ZM46.91 15.75l3.224-3.275-3.224-3.274-3.223 3.274 3.223 3.275ZM33.84 53.816l1.63-1.656-1.63-1.655-1.63 1.655 1.63 1.656Zm-.004-24.79 3.294-3.346-3.294-3.346-3.294 3.346 3.294 3.346Zm13.071 24.79 1.63-1.656-1.63-1.655-1.63 1.655 1.63 1.656Zm.001-24.826 3.259-3.31-3.26-3.31-3.258 3.31 3.259 3.31Zm-6.518-6.62 3.259-3.31-3.26-3.31-3.258 3.31 3.259 3.31Zm0 13.24 3.259-3.31-3.26-3.31-3.258 3.31 3.259 3.31Zm-11.407 0 3.259-3.31-3.259-3.31-3.259 3.31 3.259 3.31Zm-1.628-13.24 3.26-3.31-3.26-3.31-3.258 3.31 3.258 3.31Z"/></g><path d="M69.907 21.11v5.151h5.02c1.712 0 2.559-.224 2.559-2.382 0-1.853-.282-2.77-2.379-2.77h-5.2Zm5.846 6.556h-7.438V13.534h7.095c2.62 0 3.245 1.263 3.245 3.727 0 1.486-.302 2.505-1.754 2.993v.02c1.855.347 2.157 1.711 2.157 3.462 0 2.546-.927 3.93-3.306 3.93ZM69.906 14.96v4.744h4.616c1.895 0 2.54-.448 2.54-2.647 0-1.894-.726-2.097-2.379-2.097h-4.777Zm22.164-1.426-4.475 6.822 4.817 7.31H90.54l-4.253-6.495-4.334 6.495h-1.955l4.999-7.31-4.575-6.822h1.894l3.97 6.048 3.911-6.048h1.875Zm5.533-.102h1.874c3.487 0 4.555 1.202 4.555 4.745v5.03c0 3.34-1.189 4.582-4.555 4.582h-1.874c-3.366 0-4.555-1.242-4.555-4.582v-5.03c0-3.543 1.068-4.745 4.555-4.745Zm1.894 1.405h-1.914c-2.359 0-2.963.591-2.963 3.34v5.03c0 2.81.907 3.156 2.963 3.156h1.914c2.056 0 2.963-.346 2.963-3.156v-5.03c0-2.749-.604-3.34-2.963-3.34Zm19.251 16.556h-1.592v-3.727h-10.683v3.727h-1.592v-5.132h1.088c.968-.916 1.976-1.75 1.976-6.047v-6.68h9.533v12.727h1.27v5.132Zm-2.862-5.132V14.94h-6.369v5.274c0 4.155-.867 5.356-1.552 6.048h7.921Zm15.587-12.727v14.132h-1.592V15.55h-.06l-7.619 12.116h-2.076V13.534h1.572v12.117h.06l7.619-12.117h2.096Zm7.505 1.426v12.706h-1.592V14.96h-4.515v-1.426h10.642v1.426h-4.535Zm13.776 6.15v5.151h5.019c1.713 0 2.559-.224 2.559-2.382 0-1.853-.282-2.77-2.378-2.77h-5.2Zm5.845 6.556h-7.437V13.534h7.094c2.621 0 3.245 1.263 3.245 3.727 0 1.486-.302 2.505-1.753 2.993v.02c1.854.347 2.157 1.711 2.157 3.462 0 2.546-.928 3.93-3.306 3.93Zm-5.845-12.706v4.744h4.616c1.894 0 2.539-.448 2.539-2.647 0-1.894-.725-2.097-2.378-2.097h-4.777Zm17.755 12.706V13.534h7.115c2.701 0 3.326 1.853 3.326 4.277 0 1.262 0 4.357-3.407 4.357h-5.462v5.498h-1.572Zm6.43-12.727h-4.858v5.824h4.112c2.096 0 3.185 0 3.185-2.749 0-2.708-.484-3.075-2.439-3.075Zm7.142.02v4.806h7.074v1.304h-7.074v5.192h7.397v1.405h-8.99V13.534h8.99v1.426h-7.397Zm10.432 0v4.806h7.075v1.304h-7.075v5.192h7.397v1.405h-8.989V13.534h8.989v1.426h-7.397Zm15.209 12.83h-2.237c-2.54 0-4.051-1.63-4.051-4.46v-5.457c0-3.992 2.438-4.44 5.825-4.44h1.31c2.922 0 3.829 1.283 3.829 4.073v.448h-1.592v-.407c0-1.976-.403-2.708-2.459-2.708h-.907c-3.265 0-4.434.407-4.434 2.973V21.7c0 3.218.141 4.663 2.781 4.663h1.875c2.539 0 3.325-.346 3.325-2.362v-1.14h1.593v1.323c0 3.238-2.056 3.605-4.858 3.605Zm11.454-12.83v12.707h-1.593V14.96h-4.515v-1.426h10.643v1.426h-4.535Zm5.727 12.707V13.534h7.115c2.701 0 3.326 1.853 3.326 4.277 0 1.262 0 4.357-3.406 4.357h-5.463v5.498h-1.572Zm6.43-12.727h-4.858v5.824h4.112c2.096 0 3.185 0 3.185-2.749 0-2.708-.484-3.075-2.439-3.075Zm11.128 12.727V13.534h7.115c2.701 0 3.325 1.853 3.325 4.277 0 1.262 0 4.357-3.406 4.357h-5.462v5.498h-1.572Zm6.429-12.727h-4.857v5.824h4.112c2.096 0 3.184 0 3.184-2.749 0-2.708-.483-3.075-2.439-3.075Zm10.105-1.507h1.875c3.487 0 4.555 1.202 4.555 4.745v5.03c0 3.34-1.189 4.582-4.555 4.582h-1.875c-3.366 0-4.555-1.242-4.555-4.582v-5.03c0-3.543 1.068-4.745 4.555-4.745Zm1.895 1.405h-1.915c-2.358 0-2.963.591-2.963 3.34v5.03c0 2.81.907 3.156 2.963 3.156h1.915c2.056 0 2.963-.346 2.963-3.156v-5.03c0-2.749-.605-3.34-2.963-3.34Zm12.438 12.952h-2.238c-2.539 0-4.051-1.63-4.051-4.46v-5.457c0-3.992 2.439-4.44 5.825-4.44h1.31c2.923 0 3.83 1.283 3.83 4.073v.448h-1.592v-.407c0-1.976-.404-2.708-2.459-2.708h-.907c-3.266 0-4.435.407-4.435 2.973V21.7c0 3.218.141 4.663 2.782 4.663h1.874c2.54 0 3.326-.346 3.326-2.362v-1.14h1.592v1.323c0 3.238-2.056 3.605-4.857 3.605Zm12.401 0h-2.238c-2.539 0-4.051-1.63-4.051-4.46v-5.457c0-3.992 2.439-4.44 5.825-4.44h1.31c2.923 0 3.83 1.283 3.83 4.073v.448h-1.593v-.407c0-1.976-.403-2.708-2.459-2.708h-.907c-3.265 0-4.434.407-4.434 2.973V21.7c0 3.218.141 4.663 2.782 4.663h1.874c2.54 0 3.326-.346 3.326-2.362v-1.14h1.592v1.323c0 3.238-2.056 3.605-4.857 3.605Zm17.943-14.255v14.132h-1.592V15.55h-.06l-7.619 12.116h-2.078V13.534h1.574v12.117h.059l7.62-12.117h2.096Zm13.995 0v14.132h-1.592V15.55h-.061l-7.618 12.116h-2.077V13.534h1.573v12.117h.06l7.619-12.117h2.096Zm-2.479-2.586c-.443 1.609-1.451 1.833-3.104 1.833-1.693 0-2.62-.245-3.003-1.833h1.532c.221.652.604.713 1.491.713.927 0 1.27-.061 1.492-.713h1.592Zm10.931 16.84h-2.237c-2.54 0-4.051-1.628-4.051-4.459v-5.457c0-3.992 2.438-4.44 5.825-4.44h1.31c2.922 0 3.829 1.283 3.829 4.073v.448h-1.592v-.407c0-1.976-.403-2.708-2.459-2.708h-.907c-3.265 0-4.434.407-4.434 2.973V21.7c0 3.218.141 4.663 2.781 4.663h1.875c2.539 0 3.325-.346 3.325-2.362v-1.14h1.593v1.323c0 3.238-2.056 3.605-4.858 3.605Zm18.648-.122h-.686c-2.197 0-2.136-1.384-2.136-3.258v-.59c0-1.792-.443-2.648-2.358-2.648h-5.301v6.496h-1.572V13.534h1.572v6.231h4.998c1.915 0 2.359-.855 2.359-2.647v-.326c0-1.873-.061-3.258 2.136-3.258h.685v1.405h-.302c-.867 0-.947.489-.947 1.039v1.894c0 1.445-.524 2.423-1.895 2.484v.061c1.411.102 2.197.733 2.197 2.647v2.159c0 .55.081 1.038.947 1.038h.303v1.405Zm5.932-14.234h1.875c3.487 0 4.555 1.202 4.555 4.745v5.03c0 3.34-1.189 4.582-4.555 4.582H352.7c-3.366 0-4.555-1.242-4.555-4.582v-5.03c0-3.543 1.068-4.745 4.555-4.745Zm1.895 1.405h-1.915c-2.358 0-2.963.591-2.963 3.34v5.03c0 2.81.907 3.156 2.963 3.156h1.915c2.056 0 2.963-.346 2.963-3.156v-5.03c0-2.749-.605-3.34-2.963-3.34Zm8.106.123v12.706h-1.592V13.534h8.586v1.426H362.7Zm12.754-1.528h1.874c3.487 0 4.555 1.202 4.555 4.745v5.03c0 3.34-1.189 4.582-4.555 4.582h-1.874c-3.366 0-4.556-1.242-4.556-4.582v-5.03c0-3.543 1.069-4.745 4.556-4.745Zm1.894 1.405h-1.915c-2.358 0-2.962.591-2.962 3.34v5.03c0 2.81.907 3.156 2.962 3.156h1.915c2.056 0 2.963-.346 2.963-3.156v-5.03c0-2.749-.605-3.34-2.963-3.34ZM79.864 37.292v14.132h-1.592V38.697h-8.183v12.727h-1.573V37.292h11.348Zm2.426 14.132V37.292h7.115c2.7 0 3.325 1.853 3.325 4.276 0 1.263 0 4.358-3.406 4.358h-5.462v5.498H82.29Zm6.43-12.727h-4.858v5.824h4.112c2.096 0 3.184 0 3.184-2.75 0-2.708-.484-3.074-2.439-3.074Zm10.104-1.507h1.875c3.487 0 4.555 1.201 4.555 4.745v5.03c0 3.339-1.189 4.581-4.555 4.581h-1.875c-3.366 0-4.555-1.242-4.555-4.582v-5.03c0-3.543 1.068-4.744 4.555-4.744Zm1.895 1.405h-1.915c-2.358 0-2.963.59-2.963 3.34v5.03c0 2.81.907 3.156 2.963 3.156h1.915c2.056 0 2.963-.346 2.963-3.157v-5.03c0-2.748-.605-3.34-2.963-3.34Zm8.104.122v12.707h-1.592V37.292h8.586v1.425h-6.994Zm8.543 12.707V37.292h7.115c2.7 0 3.325 1.853 3.325 4.276 0 1.263 0 4.358-3.406 4.358h-5.462v5.498h-1.572Zm6.429-12.727h-4.857v5.824h4.111c2.097 0 3.185 0 3.185-2.75 0-2.708-.484-3.074-2.439-3.074Zm14.701 9.734h-7.055l-1.088 2.993H128.7l5.079-14.132h2.237l5.221 14.132h-1.633l-1.108-2.993Zm-.444-1.324-3.124-8.492-3.064 8.492h6.188Zm18.358-8.614-5.261 12.931h-1.572l-5.301-12.93h-.04v12.93h-1.572V37.292h2.741l4.938 12.096 4.958-12.096h2.742v14.132h-1.593v-12.93h-.04Zm17.99 0-5.261 12.931h-1.571l-5.301-12.93h-.041v12.93h-1.572V37.292h2.741l4.938 12.096 4.958-12.096h2.742v14.132h-1.593v-12.93h-.04Zm15.612-1.201v14.132h-1.592v-6.496h-8.183v6.496h-1.572V37.292h1.572v6.23h8.183v-6.23h1.592Zm6.638-.102h1.875c3.487 0 4.555 1.201 4.555 4.745v5.03c0 3.339-1.189 4.581-4.555 4.581h-1.875c-3.366 0-4.555-1.242-4.555-4.582v-5.03c0-3.543 1.068-4.744 4.555-4.744Zm1.895 1.405h-1.915c-2.358 0-2.963.59-2.963 3.34v5.03c0 2.81.907 3.156 2.963 3.156h1.915c2.056 0 2.963-.346 2.963-3.157v-5.03c0-2.748-.605-3.34-2.963-3.34Zm8.104.122v12.707h-1.592V37.292h8.586v1.425h-6.994Zm12.756-1.527h1.874c3.487 0 4.555 1.201 4.555 4.745v5.03c0 3.339-1.189 4.581-4.555 4.581h-1.874c-3.366 0-4.556-1.242-4.556-4.582v-5.03c0-3.543 1.069-4.744 4.556-4.744Zm1.894 1.405h-1.914c-2.359 0-2.963.59-2.963 3.34v5.03c0 2.81.907 3.156 2.963 3.156h1.914c2.056 0 2.963-.346 2.963-3.157v-5.03c0-2.748-.604-3.34-2.963-3.34Zm17.061-1.405h1.874c3.487 0 4.555 1.201 4.555 4.745v5.03c0 3.339-1.189 4.581-4.555 4.581h-1.874c-3.366 0-4.556-1.242-4.556-4.582v-5.03c0-3.543 1.069-4.744 4.556-4.744Zm1.894 1.405h-1.915c-2.358 0-2.963.59-2.963 3.34v5.03c0 2.81.907 3.156 2.963 3.156h1.915c2.056 0 2.963-.346 2.963-3.157v-5.03c0-2.748-.605-3.34-2.963-3.34Zm8.024 6.272v5.152h5.019c1.713 0 2.56-.224 2.56-2.383 0-1.853-.283-2.77-2.379-2.77h-5.2Zm9.151 2.627c0 2.545-.928 3.93-3.306 3.93h-7.437V37.292h9.594v1.425h-8.002v4.745h5.341c2.963 0 3.81 1.222 3.81 4.032Zm3.419-8.777v4.806h7.075v1.303h-7.075v5.193h7.398v1.405h-8.99V37.292h8.99v1.425h-7.398Zm15.208 12.83h-2.237c-2.54 0-4.052-1.63-4.052-4.46v-5.458c0-3.991 2.439-4.44 5.825-4.44h1.311c2.922 0 3.829 1.284 3.829 4.074v.448h-1.592v-.408c0-1.975-.403-2.708-2.459-2.708h-.907c-3.265 0-4.434.407-4.434 2.973v3.89c0 3.217.141 4.663 2.781 4.663h1.875c2.539 0 3.325-.346 3.325-2.362v-1.14h1.593v1.323c0 3.238-2.056 3.604-4.858 3.604ZM294 37.291v14.132h-1.593V38.697h-8.183v12.727h-1.572V37.292H294Zm3.675 1.425v4.806h7.075v1.303h-7.075v5.193h7.397v1.405h-8.989V37.292h8.989v1.425h-7.397Zm17.487 5.804v-7.23h1.592v14.133h-1.592v-5.498h-3.024c-3.043 0-5.522-.082-5.522-4.073v-4.561h1.572v4.581c0 2.302.544 2.648 3.95 2.648h3.024Zm5.267-5.804v4.806h7.075v1.303h-7.075v5.193h7.397v1.405h-8.989V37.292h8.989v1.425h-7.397Zm20.752-1.425v14.132h-1.592v-6.496h-8.183v6.496h-1.573V37.292h1.573v6.23h8.183v-6.23h1.592Zm13.995 0v14.132h-1.592V39.308h-.061l-7.619 12.116h-2.076V37.292h1.573v12.116h.06l7.619-12.116h2.096Zm11.496 6.414v-5.01h-4.858c-1.955 0-2.439.673-2.439 2.465 0 2.403.766 2.545 3.024 2.545h4.273Zm-5.039 1.405c-1.915 0-2.076.652-2.076 2.444v.61c0 1.874.06 3.259-2.137 3.259h-.685v-1.405h.302c.867 0 .947-.489.947-1.039v-1.812c0-1.914.645-2.586 1.915-2.688v-.061c-1.39-.122-2.096-1.385-2.096-3.462 0-1.792.625-3.665 3.326-3.665h7.115v14.132h-1.572V45.11h-5.039Z" fill="#2D2D2D"/></g><defs><clipPath id="a"><path fill="#fff" d="M0 0h388v56H0z"/></clipPath></defs></svg>