<svg width="97" height="279" fill="none" xmlns="http://www.w3.org/2000/svg"><g opacity=".5"><path fill="#fff" d="M22 116h2v-2h-2zm51 0h2v-2h-2zm-34-16h19v2H39zm4-4h11v2H43zm-9 8h29v2H34zm-5 4h39v2H29zm-5 4h49v2H24zm17.013-14h2v2h-2zM37 102h2v2h-2zm-5 4h2v2h-2zm36 4h2v2h-2zm-41 0h2v2h-2zm36-4h2v2h-2zm-5-4h2v2h-2zm-4-4h2v2h-2zm4 32H39v-2h19zm-4 4H43v-2h11zm9-8H34v-2h29zm5-4H29v-2h39zm5-4H24v-2h49zm-17.012 14h-2v-2h2zM60 128h-2v-2h2zm5-4h-2v-2h2zm-36-4h-2v-2h2zm41 0h-2v-2h2zm-36 4h-2v-2h2zm5 4h-2v-2h2zm4 4h-2v-2h2zM22 68h2v-2h-2zm51 0h2v-2h-2zM39 52h19v2H39zm4-4h11v2H43zm-9 8h29v2H34zm-5 4h39v2H29zm-5 4h49v2H24zm17.013-14h2v2h-2zM37 54h2v2h-2zm-5 4h2v2h-2zm36 4h2v2h-2zm-41 0h2v2h-2zm36-4h2v2h-2zm-5-4h2v2h-2zm-4-4h2v2h-2zm4 32H39v-2h19zm-4 4H43v-2h11zm9-8H34v-2h29zm5-4H29v-2h39zm5-4H24v-2h49zM55.988 84h-2v-2h2zM60 80h-2v-2h2zm5-4h-2v-2h2zm-36-4h-2v-2h2zm41 0h-2v-2h2zm-36 4h-2v-2h2zm5 4h-2v-2h2zm4 4h-2v-2h2zM22 20h2v-2h-2zm51 0h2v-2h-2zM39 4h19v2H39zm4-4h11v2H43zm-9 8h29v2H34zm-5 4h39v2H29zm-5 4h49v2H24zM41.013 2h2v2h-2zM37 6h2v2h-2zm-5 4h2v2h-2zm36 4h2v2h-2zm-41 0h2v2h-2zm36-4h2v2h-2zm-5-4h2v2h-2zm-4-4h2v2h-2zm4 32H39v-2h19zm-4 4H43v-2h11zm9-8H34v-2h29zm5-4H29v-2h39zm5-4H24v-2h49zM55.988 36h-2v-2h2zM60 32h-2v-2h2zm5-4h-2v-2h2zm-36-4h-2v-2h2zm41 0h-2v-2h2zm-36 4h-2v-2h2zm5 4h-2v-2h2zm4 4h-2v-2h2zM22 164h2v-2h-2zm51 0h2v-2h-2zm-34-16h19v2H39zm4-4h11v2H43zm-9 8h29v2H34zm-5 4h39v2H29zm-5 4h49v2H24zm17.013-14h2v2h-2zM37 150h2v2h-2zm-5 4h2v2h-2zm36 4h2v2h-2zm-41 0h2v2h-2zm36-4h2v2h-2zm-5-4h2v2h-2zm-4-4h2v2h-2zm4 32H39v-2h19zm-4 4H43v-2h11zm9-8H34v-2h29zm5-4H29v-2h39zm5-4H24v-2h49zm-17.012 14h-2v-2h2zM60 176h-2v-2h2zm5-4h-2v-2h2zm-36-4h-2v-2h2zm41 0h-2v-2h2zm-36 4h-2v-2h2zm5 4h-2v-2h2zm4 4h-2v-2h2zm-20 32h2v-2h-2zm51 0h2v-2h-2zm-34-16h19v2H40zm4-4h11v2H44zm-9 8h29v2H35zm-5 4h39v2H30zm-5 4h49v2H25zm17.013-14h2v2h-2zM38 198h2v2h-2zm-5 4h2v2h-2zm36 4h2v2h-2zm-41 0h2v2h-2zm36-4h2v2h-2zm-5-4h2v2h-2zm-4-4h2v2h-2zm-32 67h2v-2h-2zm51 0h2v-2h-2zm-34-17h19v2H40zm4-4h11v2H44zm-9 8h29v2H35zm-5 4h39v2H30zm-5 4h49v2H25zm17.013-14h2v2h-2zM38 246h2v2h-2zm-5 4h2v2h-2zm36 4h2v2h-2zm-41 0h2v2h-2zm36-4h2v2h-2zm-5-4h2v2h-2zm-4-4h2v2h-2zm4-16H40v-2h19zm-4 4H44v-2h11zm9-8H35v-2h29zm5-4H30v-2h39zm5-4H25v-2h49zm-17.012 14h-2v-2h2zM61 224h-2v-2h2zm5-4h-2v-2h2zm-36-4h-2v-2h2zm41 0h-2v-2h2zm-36 4h-2v-2h2zm5 4h-2v-2h2zm4 4h-2v-2h2zm15 47H40v-2h19zm-4 4H44v-2h11zm9-8H35v-2h29zm5-4H30v-2h39zm5-4H25v-2h49zm-17.012 14h-2v-2h2zM61 273h-2v-2h2zm5-4h-2v-2h2zm-36-4h-2v-2h2zm41 0h-2v-2h2zm-36 4h-2v-2h2zm5 4h-2v-2h2zm4 4h-2v-2h2zM3 156H1v-2h2zm6-6H7v-2h2zm-4 4H3v-2h2zm6-6H9v-2h2zm-4 4H5v-2h2zm6-6h-2v-2h2zM3 204H1v-2h2zm6-6H7v-2h2zm-4 4H3v-2h2zm6-6H9v-2h2zm-4 4H5v-2h2zm6-6h-2v-2h2zm-9 58H2v-2h2zm6-6H8v-2h2zm-4 4H4v-2h2zm6-6h-2v-2h2zm-4 4H6v-2h2zm6-6h-2v-2h2zM2 108H0v-2h2zm6-6H6v-2h2zm-4 4H2v-2h2zm6-6H8v-2h2zm-4 4H4v-2h2zm6-6h-2v-2h2zM3 60H1v-2h2zm6-6H7v-2h2zm-4 4H3v-2h2zm6-6H9v-2h2zm-4 4H5v-2h2zm6-6h-2v-2h2zm-2 84h2v-2h-2zm-6-6h2v-2H5zm4 4h2v-2H9zm-6-6h2v-2H3zm4 4h2v-2H7zm-6-6h2v-2H1zm10 58h2v-2h-2zm-6-6h2v-2H5zm4 4h2v-2H9zm-6-6h2v-2H3zm4 4h2v-2H7zm-6-6h2v-2H1zm11 58h2v-2h-2zm-6-6h2v-2H6zm4 4h2v-2h-2zm-6-6h2v-2H4zm4 4h2v-2H8zm-6-6h2v-2H2zm8-134h2v-2h-2zm-6-6h2v-2H4zm4 4h2v-2H8zm-6-6h2v-2H2zm4 4h2v-2H6zm-6-6h2v-2H0zm11-38h2v-2h-2zm-6-6h2v-2H5zm4 4h2v-2H9zm-6-6h2v-2H3zm4 4h2v-2H7zm-6-6h2v-2H1z"/><path stroke="#fff" stroke-width="2" d="M2 135h93v8H2zm0 48h93v8H2zm1 48h93v8H3zM1 87h93v8H1zm1-48h93v8H2z"/></g><path d="M93 156h2v-2h-2zm-6-6h2v-2h-2zm4 4h2v-2h-2zm-6-6h2v-2h-2zm4 4h2v-2h-2zm-6-6h2v-2h-2zm10 58h2v-2h-2zm-6-6h2v-2h-2zm4 4h2v-2h-2zm-6-6h2v-2h-2zm4 4h2v-2h-2zm-6-6h2v-2h-2zm11 58h2v-2h-2zm-6-6h2v-2h-2zm4 4h2v-2h-2zm-6-6h2v-2h-2zm4 4h2v-2h-2zm-6-6h2v-2h-2zm8-134h2v-2h-2zm-6-6h2v-2h-2zm4 4h2v-2h-2zm-6-6h2v-2h-2zm4 4h2v-2h-2zm-6-6h2v-2h-2zm11-38h2v-2h-2zm-6-6h2v-2h-2zm4 4h2v-2h-2zm-6-6h2v-2h-2zm4 4h2v-2h-2zm-6-6h2v-2h-2zm2 84h-2v-2h2zm6-6h-2v-2h2zm-4 4h-2v-2h2zm6-6h-2v-2h2zm-4 4h-2v-2h2zm6-6h-2v-2h2zm-10 58h-2v-2h2zm6-6h-2v-2h2zm-4 4h-2v-2h2zm6-6h-2v-2h2zm-4 4h-2v-2h2zm6-6h-2v-2h2zm-9 58h-2v-2h2zm6-6h-2v-2h2zm-4 4h-2v-2h2zm6-6h-2v-2h2zm-4 4h-2v-2h2zm6-6h-2v-2h2zM84 86h-2v-2h2zm6-6h-2v-2h2zm-4 4h-2v-2h2zm6-6h-2v-2h2zm-4 4h-2v-2h2zm6-6h-2v-2h2zm-9-38h-2v-2h2zm6-6h-2v-2h2zm-4 4h-2v-2h2zm6-6h-2v-2h2zm-4 4h-2v-2h2zm6-6h-2v-2h2z" opacity=".5" fill="#fff"/></svg>