<svg width="85" height="66" fill="none" xmlns="http://www.w3.org/2000/svg"><rect width="85" height="66" rx="10" fill="#E03A3A"/><path d="M62.6 10.679H22.4c-2.827 0-5.025 2.308-5.025 5.035v26.857H15.7V15.714C15.7 12.042 18.631 9 22.4 9h40.2c3.664 0 6.7 3.042 6.7 6.714v26.857h-1.675V15.714c0-2.727-2.303-5.035-5.025-5.035ZM10.99 47.607c-.21 0-.315.21-.315.42 0 3.462 2.827 6.294 6.281 6.294H67.94c3.455 0 6.386-2.832 6.386-6.294 0-.21-.21-.42-.419-.42H10.99Zm-1.99.42c0-1.154.838-2.098 1.99-2.098h62.916c1.152 0 2.094.944 2.094 2.098C76 52.433 72.336 56 67.94 56H16.955C12.56 56 9 52.433 9 48.027Z" fill="#fff"/><path d="M50.456 25.051c0-3.658-2.002-7.081-5.182-8.97-3.239-1.829-7.184-1.829-10.364 0a10.385 10.385 0 0 0-5.182 8.97 10.41 10.41 0 0 0 5.182 9.03c3.18 1.829 7.125 1.829 10.364 0 3.18-1.89 5.182-5.312 5.182-9.03Zm-2.414 9.324c-2.12 1.889-4.947 2.95-7.95 2.95-6.772 0-12.248-5.487-12.248-12.274 0-6.727 5.476-12.274 12.248-12.274 6.713 0 12.249 5.547 12.249 12.274 0 3.069-1.12 5.843-2.945 8.026l8.303 8.32c.354.355.354 1.004 0 1.358-.353.354-1 .354-1.354 0l-8.303-8.38Z" fill="#fff"/><path d="M40 17.874c-.984 0-1.75.792-1.75 1.748h3.5c0-.956-.793-1.748-1.75-1.748Zm-2.625 1.748a2.624 2.624 0 0 1 5.25 0v.11c0 .437-.355.765-.793.765h-3.691a.747.747 0 0 1-.766-.765v-.11Zm-3.39.137a.464.464 0 0 1 .628 0l2.16 2.158a2.985 2.985 0 0 1 1.696-.546h3.062c.602 0 1.203.218 1.668.546l2.16-2.158a.464.464 0 0 1 .63 0 .463.463 0 0 1 0 .628l-2.16 2.158c.327.465.546 1.038.546 1.667v.218h2.188a.47.47 0 0 1 .437.437.45.45 0 0 1-.438.437h-2.187v.438a4.47 4.47 0 0 1-.629 2.267l2.242 2.24a.463.463 0 0 1 0 .628.464.464 0 0 1-.629 0L43.2 28.72a4.296 4.296 0 0 1-3.2 1.392c-1.285 0-2.434-.519-3.227-1.393l-2.16 2.158a.464.464 0 0 1-.629 0 .462.462 0 0 1 0-.628l2.243-2.24a4.453 4.453 0 0 1-.602-2.268v-.437h-2.188a.432.432 0 0 1-.437-.437.45.45 0 0 1 .438-.437h2.187v-.218c0-.601.191-1.202.547-1.667l-2.188-2.158a.462.462 0 0 1 0-.628Zm2.515 5.982c0 1.803 1.313 3.279 3.063 3.47v-5.218a.45.45 0 0 1 .437-.437.47.47 0 0 1 .438.437v5.218c1.722-.191 3.062-1.667 3.062-3.47v-1.53c0-1.065-.902-1.966-1.969-1.966H38.47a1.977 1.977 0 0 0-1.969 1.967v1.53Z" fill="#fff"/></svg>