<svg width="85" height="66" fill="none" xmlns="http://www.w3.org/2000/svg"><rect width="85" height="66" rx="10" fill="#E03A3A"/><path d="M33.35 10.531c-2.573 0-4.575 2.106-4.575 4.594v3.158c-.572 0-1.048-.096-1.525-.096v-3.062c0-3.35 2.669-6.125 6.1-6.125H66.9c3.336 0 6.1 2.775 6.1 6.125v27.563a6.094 6.094 0 0 1-6.1 6.124H44.025c-.19-.478-.477-.956-.762-1.53H66.9a4.585 4.585 0 0 0 4.575-4.594V15.125c0-2.488-2.097-4.594-4.575-4.594H33.35Zm18.3 9.953c0-.382.286-.765.763-.765h9.15c.38 0 .762.383.762.765v9.188a.753.753 0 0 1-.763.765c-.476 0-.762-.287-.762-.765v-7.274L49.077 34.074a.746.746 0 0 1-1.049 0l-7.625-7.656a.753.753 0 0 1 0-1.053.746.746 0 0 1 1.049 0l7.148 7.082L59.656 21.25h-7.243c-.477 0-.763-.287-.763-.766ZM24.677 44.22c-6.196 0-11.152 5.072-11.152 11.293 0 .574.381.957.953.957h25.449c.571 0 1.048-.383 1.048-.957 0-6.221-5.052-11.293-11.247-11.293h-5.051Zm0-1.532h5.051c7.053 0 12.772 5.743 12.772 12.825 0 1.435-1.144 2.488-2.573 2.488H14.478C13.048 58 12 56.947 12 55.512c0-7.082 5.623-12.825 12.677-12.825Zm-5.052-12.25c0 2.776 1.43 5.264 3.813 6.7 2.287 1.34 5.242 1.34 7.625 0 2.287-1.436 3.812-3.924 3.812-6.7 0-2.68-1.525-5.168-3.813-6.603-2.382-1.34-5.337-1.34-7.625 0-2.382 1.436-3.812 3.924-3.812 6.604Zm16.775 0c0 3.35-1.81 6.317-4.575 8.04-2.86 1.627-6.386 1.627-9.15 0-2.86-1.723-4.575-4.69-4.575-8.04 0-3.253 1.716-6.22 4.575-7.943 2.764-1.627 6.29-1.627 9.15 0 2.764 1.723 4.575 4.69 4.575 7.944Z" fill="#fff"/></svg>