<svg width="86" height="67" fill="none" xmlns="http://www.w3.org/2000/svg"><rect x=".5" y=".511" width="85" height="66" rx="10" fill="#E03A3A"/><path d="M65.833 7.719H19.167c-2.813 0-5 2.363-5 5.156v30.938c0 2.9 2.187 5.156 5 5.156h46.666c2.709 0 5-2.256 5-5.157V12.875c0-2.793-2.291-5.156-5-5.156ZM19.167 50.687c-3.75 0-6.667-3.007-6.667-6.874V12.875C12.5 9.115 15.417 6 19.167 6h46.666C69.48 6 72.5 9.115 72.5 12.875v30.938c0 3.867-3.02 6.874-6.667 6.874H49.271l1.354 8.594h7.708c.417 0 .834.43.834.86a.834.834 0 0 1-.834.859H26.667c-.521 0-.834-.322-.834-.86 0-.43.313-.859.834-.859h7.604l1.354-8.593H19.167Zm16.77 8.594h13.021l-1.354-8.593H37.292l-1.355 8.593ZM20.834 14.594v27.5h43.334v-27.5H20.833Zm-1.666 0c0-.86.729-1.719 1.666-1.719h43.334c.833 0 1.666.86 1.666 1.719v27.5c0 .966-.833 1.718-1.666 1.718H20.833c-.937 0-1.666-.752-1.666-1.718v-27.5Z" fill="#fff"/><path d="M42.643 17.293a.69.69 0 0 1 .274.523v7.09h1.875c.312 0 .625.323.625.645a.652.652 0 0 1-.625.644h-5a.627.627 0 0 1-.625-.644c0-.322.273-.645.625-.645h1.875v-6.163l-1.055.363c-.352.08-.703-.081-.82-.444a.675.675 0 0 1 .43-.805l1.874-.645c.157-.04.391-.04.547.08Zm-8.75 11.601a.695.695 0 0 1 .274.524v7.09h1.875c.312 0 .625.322.625.644a.652.652 0 0 1-.625.645h-5a.627.627 0 0 1-.625-.645c0-.322.273-.644.625-.644h1.875v-6.164l-1.055.363c-.352.08-.703-.08-.82-.443a.675.675 0 0 1 .43-.806l1.874-.644c.157-.04.391-.04.547.08Zm-.351-11.722h1.25c1.718 0 3.125 1.45 3.125 3.223v2.578c0 1.812-1.407 3.222-3.125 3.222h-1.25c-1.758 0-3.125-1.41-3.125-3.222v-2.578c0-1.773 1.367-3.223 3.125-3.223Zm-1.875 3.223v2.578c0 1.087.82 1.933 1.875 1.933h1.25c1.015 0 1.875-.846 1.875-1.933v-2.578c0-1.048-.86-1.934-1.875-1.934h-1.25c-1.055 0-1.875.886-1.875 1.934Zm6.25 11.601c0-1.772 1.367-3.223 3.125-3.223h1.25c1.718 0 3.125 1.45 3.125 3.223v2.578c0 1.813-1.407 3.223-3.125 3.223h-1.25c-1.758 0-3.125-1.41-3.125-3.223v-2.578Zm3.125-1.933c-1.055 0-1.875.886-1.875 1.933v2.578c0 1.088.82 1.934 1.875 1.934h1.25c1.015 0 1.875-.846 1.875-1.934v-2.578c0-1.047-.86-1.933-1.875-1.933h-1.25Zm10-3.868c-1.055 0-1.875.886-1.875 1.934v1.933h3.75V28.13c0-1.048-.86-1.934-1.875-1.934Zm-3.125 1.934c0-1.773 1.367-3.223 3.125-3.223 1.718 0 3.125 1.45 3.125 3.223v1.933c.664 0 1.25.605 1.25 1.29v5.156c0 .725-.586 1.289-1.25 1.289h-6.25c-.703 0-1.25-.564-1.25-1.29v-5.155c0-.685.547-1.29 1.25-1.29V28.13Zm0 3.223v5.156h6.25v-5.156h-6.25Z" fill="#fff"/></svg>